M48
; DRILL file {KiCad 9.0.4} date 2026-02-05T14:55:23+0100
; FORMAT={-:-/ absolute / metric / decimal}
; #@! TF.CreationDate,2026-02-05T14:55:23+01:00
; #@! TF.GenerationSoftware,Kicad,Pcbnew,9.0.4
; #@! TF.FileFunction,Plated,1,2,PTH
FMAT,2
METRIC
; #@! TA.AperFunction,Plated,PTH,ComponentDrill
T1C0.800
; #@! TA.AperFunction,Plated,PTH,ComponentDrill
T2C0.900
; #@! TA.AperFunction,Plated,PTH,ComponentDrill
T3C1.000
; #@! TA.AperFunction,Plated,PTH,ComponentDrill
T4C1.100
; #@! TA.AperFunction,Plated,PTH,ComponentDrill
T5C1.300
%
G90
G05
T1
X124.0Y-54.5
X124.0Y-60.0
X124.0Y-124.0
X124.0Y-126.5
X124.19Y-67.5
X124.19Y-73.0
X124.38Y-80.46
X124.44Y-86.96
X124.44Y-95.46
X124.44Y-101.96
X124.44Y-110.25
X124.44Y-116.25
X131.62Y-54.5
X131.62Y-60.0
X131.81Y-67.5
X131.81Y-73.0
X132.0Y-80.46
X132.0Y-124.0
X132.0Y-126.5
X132.06Y-86.96
X132.06Y-95.46
X132.06Y-101.96
X132.06Y-110.25
X132.06Y-116.25
X137.0Y-110.69
X137.0Y-118.31
X141.69Y-110.69
X141.69Y-118.31
X161.69Y-116.0
X169.31Y-116.0
X172.19Y-54.5
X172.19Y-67.5
X172.19Y-73.0
X172.38Y-60.0
X172.38Y-87.0
X172.5Y-80.5
X172.69Y-95.5
X172.88Y-102.0
X173.0Y-110.0
X173.0Y-116.0
X179.81Y-54.5
X179.81Y-67.5
X179.81Y-73.0
X180.0Y-60.0
X180.0Y-87.0
X180.12Y-80.5
X180.31Y-95.5
X180.5Y-102.0
X180.62Y-110.0
X180.62Y-116.0
X182.0Y-123.5
X182.0Y-126.0
X191.5Y-123.5
X191.5Y-126.0
T2
X161.0Y-109.0
X161.0Y-111.54
X167.5Y-108.96
X167.5Y-111.5
T3
X101.5Y-57.0
X101.5Y-59.5
X101.5Y-69.5
X101.5Y-72.0
X102.0Y-83.0
X102.0Y-85.5
X102.0Y-98.0
X102.0Y-100.5
X102.25Y-112.5
X102.25Y-115.0
X112.5Y-124.0
X115.0Y-124.0
X139.5Y-54.43
X139.5Y-56.97
X139.5Y-59.51
X139.5Y-62.05
X139.5Y-64.59
X139.5Y-67.13
X139.5Y-69.67
X139.5Y-72.21
X139.5Y-74.75
X139.5Y-77.29
X139.5Y-79.83
X139.5Y-82.37
X139.5Y-84.91
X139.5Y-87.45
X139.5Y-89.99
X139.5Y-92.53
X139.5Y-95.07
X139.5Y-97.61
X139.5Y-100.15
X165.0Y-54.28
X165.0Y-56.82
X165.0Y-59.36
X165.0Y-61.9
X165.0Y-64.44
X165.0Y-66.98
X165.0Y-69.52
X165.0Y-72.06
X165.0Y-74.6
X165.0Y-77.14
X165.0Y-79.68
X165.0Y-82.22
X165.0Y-84.76
X165.0Y-87.3
X165.0Y-89.84
X165.0Y-92.38
X165.0Y-94.92
X165.0Y-97.46
X165.0Y-100.0
X206.0Y-57.0
X206.0Y-59.5
X206.0Y-70.0
X206.0Y-72.5
X206.0Y-83.25
X206.0Y-85.75
X206.0Y-98.5
X206.0Y-101.0
X206.5Y-112.5
X206.5Y-115.0
T4
X109.34Y-67.5
X109.34Y-110.0
X109.42Y-54.5
X109.42Y-80.5
X109.42Y-95.5
X111.92Y-59.5
X111.92Y-72.5
X111.92Y-86.0
X111.96Y-101.05
X111.96Y-115.5
X114.46Y-59.5
X114.46Y-72.5
X114.46Y-86.0
X114.5Y-101.05
X114.5Y-115.5
X117.0Y-59.5
X117.0Y-72.5
X117.0Y-86.0
X117.04Y-101.05
X117.04Y-115.5
X119.5Y-67.5
X119.5Y-110.0
X119.58Y-54.5
X119.58Y-80.5
X119.58Y-95.5
X185.34Y-54.5
X185.42Y-67.5
X185.42Y-80.5
X185.5Y-95.5
X185.5Y-110.0
X187.92Y-61.5
X187.92Y-74.5
X187.92Y-88.5
X187.96Y-102.95
X187.96Y-116.95
X190.46Y-61.5
X190.46Y-74.5
X190.46Y-88.5
X190.5Y-102.95
X190.5Y-116.95
X193.0Y-61.5
X193.0Y-74.5
X193.0Y-88.5
X193.04Y-102.95
X193.04Y-116.95
X195.5Y-54.5
X195.58Y-67.5
X195.58Y-80.5
X195.66Y-95.5
X195.66Y-110.0
T5
X140.5Y-124.5
X145.5Y-124.5
X168.0Y-124.5
X173.0Y-124.5
M30
