%TF.GenerationSoftware,KiCad,Pcbnew,9.0.4*%
%TF.CreationDate,2025-12-28T21:39:44+01:00*%
%TF.ProjectId,Carte Mosfet,43617274-6520-44d6-9f73-6665742e6b69,rev?*%
%TF.SameCoordinates,Original*%
%TF.FileFunction,Copper,L1,Top*%
%TF.FilePolarity,Positive*%
%FSLAX46Y46*%
G04 Gerber Fmt 4.6, Leading zero omitted, Abs format (unit mm)*
G04 Created by KiCad (PCBNEW 9.0.4) date 2025-12-28 21:39:44*
%MOMM*%
%LPD*%
G01*
G04 APERTURE LIST*
G04 Aperture macros list*
%AMRoundRect*
0 Rectangle with rounded corners*
0 $1 Rounding radius*
0 $2 $3 $4 $5 $6 $7 $8 $9 X,Y pos of 4 corners*
0 Add a 4 corners polygon primitive as box body*
4,1,4,$2,$3,$4,$5,$6,$7,$8,$9,$2,$3,0*
0 Add four circle primitives for the rounded corners*
1,1,$1+$1,$2,$3*
1,1,$1+$1,$4,$5*
1,1,$1+$1,$6,$7*
1,1,$1+$1,$8,$9*
0 Add four rect primitives between the rounded corners*
20,1,$1+$1,$2,$3,$4,$5,0*
20,1,$1+$1,$4,$5,$6,$7,0*
20,1,$1+$1,$6,$7,$8,$9,0*
20,1,$1+$1,$8,$9,$2,$3,0*%
G04 Aperture macros list end*
%TA.AperFunction,ComponentPad*%
%ADD10R,1.905000X2.000000*%
%TD*%
%TA.AperFunction,ComponentPad*%
%ADD11O,1.905000X2.000000*%
%TD*%
%TA.AperFunction,ComponentPad*%
%ADD12RoundRect,0.250000X-0.750000X0.600000X-0.750000X-0.600000X0.750000X-0.600000X0.750000X0.600000X0*%
%TD*%
%TA.AperFunction,ComponentPad*%
%ADD13O,2.000000X1.700000*%
%TD*%
%TA.AperFunction,ComponentPad*%
%ADD14C,1.600000*%
%TD*%
%TA.AperFunction,ComponentPad*%
%ADD15RoundRect,0.249999X-0.850001X-0.850001X0.850001X-0.850001X0.850001X0.850001X-0.850001X0.850001X0*%
%TD*%
%TA.AperFunction,ComponentPad*%
%ADD16C,2.200000*%
%TD*%
%TA.AperFunction,ComponentPad*%
%ADD17RoundRect,0.250001X-1.149999X-1.149999X1.149999X-1.149999X1.149999X1.149999X-1.149999X1.149999X0*%
%TD*%
%TA.AperFunction,ComponentPad*%
%ADD18C,2.800000*%
%TD*%
%TA.AperFunction,ComponentPad*%
%ADD19R,1.800000X1.800000*%
%TD*%
%TA.AperFunction,ComponentPad*%
%ADD20C,1.800000*%
%TD*%
%TA.AperFunction,ComponentPad*%
%ADD21RoundRect,0.249999X0.850001X0.850001X-0.850001X0.850001X-0.850001X-0.850001X0.850001X-0.850001X0*%
%TD*%
%TA.AperFunction,ComponentPad*%
%ADD22R,1.700000X1.700000*%
%TD*%
%TA.AperFunction,ComponentPad*%
%ADD23C,1.700000*%
%TD*%
%TA.AperFunction,ComponentPad*%
%ADD24RoundRect,0.250000X0.600000X0.750000X-0.600000X0.750000X-0.600000X-0.750000X0.600000X-0.750000X0*%
%TD*%
%TA.AperFunction,ComponentPad*%
%ADD25O,1.700000X2.000000*%
%TD*%
G04 APERTURE END LIST*
D10*
%TO.P,Q7,1,G*%
%TO.N,Net-(Q7-G)*%
X187960000Y-102950000D03*
D11*
%TO.P,Q7,2,D*%
%TO.N,Net-(D8-A)*%
X190500000Y-102950000D03*
%TO.P,Q7,3,S*%
%TO.N,GND*%
X193040000Y-102950000D03*
%TD*%
D12*
%TO.P,ElectrovanneB1,1,Pin_1*%
%TO.N,+12V*%
X102250000Y-112500000D03*
D13*
%TO.P,ElectrovanneB1,2,Pin_2*%
%TO.N,Net-(D6-A)*%
X102250000Y-115000000D03*
%TD*%
D14*
%TO.P,R13,1*%
%TO.N,Electrovanne B2*%
X173000000Y-110000000D03*
%TO.P,R13,2*%
%TO.N,Net-(Q6-G)*%
X180620000Y-110000000D03*
%TD*%
D15*
%TO.P,D2,1,K*%
%TO.N,+12V*%
X109340000Y-67500000D03*
D16*
%TO.P,D2,2,A*%
%TO.N,Net-(D2-A)*%
X119500000Y-67500000D03*
%TD*%
D12*
%TO.P,JElectrovanneF1,1,Pin_1*%
%TO.N,+12V*%
X101500000Y-69500000D03*
D13*
%TO.P,JElectrovanneF1,2,Pin_2*%
%TO.N,Net-(D2-A)*%
X101500000Y-72000000D03*
%TD*%
D10*
%TO.P,Q3,1,G*%
%TO.N,Net-(Q3-G)*%
X117000000Y-59500000D03*
D11*
%TO.P,Q3,2,D*%
%TO.N,Net-(D4-A)*%
X114460000Y-59500000D03*
%TO.P,Q3,3,S*%
%TO.N,GND*%
X111920000Y-59500000D03*
%TD*%
D15*
%TO.P,D3,1,K*%
%TO.N,+12V*%
X109420000Y-80500000D03*
D16*
%TO.P,D3,2,A*%
%TO.N,Net-(D3-A)*%
X119580000Y-80500000D03*
%TD*%
D14*
%TO.P,R7,1*%
%TO.N,Electrovanne F3*%
X131620000Y-54500000D03*
%TO.P,R7,2*%
%TO.N,Net-(Q3-G)*%
X124000000Y-54500000D03*
%TD*%
D17*
%TO.P,Alim1,1,Pin_1*%
%TO.N,+12V*%
X140500000Y-124500000D03*
D18*
%TO.P,Alim1,2,Pin_2*%
%TO.N,GND*%
X145500000Y-124500000D03*
%TD*%
D10*
%TO.P,Q1,1,G*%
%TO.N,Net-(Q1-G)*%
X117000000Y-72500000D03*
D11*
%TO.P,Q1,2,D*%
%TO.N,Net-(D2-A)*%
X114460000Y-72500000D03*
%TO.P,Q1,3,S*%
%TO.N,GND*%
X111920000Y-72500000D03*
%TD*%
D12*
%TO.P,JElectrovanneB4,1,Pin_1*%
%TO.N,+12V*%
X102000000Y-98000000D03*
D13*
%TO.P,JElectrovanneB4,2,Pin_2*%
%TO.N,Net-(D9-A)*%
X102000000Y-100500000D03*
%TD*%
D14*
%TO.P,R19,1*%
%TO.N,+12V*%
X141690000Y-118310000D03*
%TO.P,R19,2*%
%TO.N,Net-(D10-A)*%
X141690000Y-110690000D03*
%TD*%
%TO.P,R10,1*%
%TO.N,Net-(Q4-G)*%
X180000000Y-87000000D03*
%TO.P,R10,2*%
%TO.N,GND*%
X172380000Y-87000000D03*
%TD*%
%TO.P,R6,1*%
%TO.N,Net-(Q2-G)*%
X124440000Y-86960000D03*
%TO.P,R6,2*%
%TO.N,GND*%
X132060000Y-86960000D03*
%TD*%
D19*
%TO.P,D10,1,K*%
%TO.N,GND*%
X161000000Y-109000000D03*
D20*
%TO.P,D10,2,A*%
%TO.N,Net-(D10-A)*%
X161000000Y-111540000D03*
%TD*%
D14*
%TO.P,R24,1*%
%TO.N,Net-(Q11-G)*%
X180000000Y-60000000D03*
%TO.P,R24,2*%
%TO.N,GND*%
X172380000Y-60000000D03*
%TD*%
D10*
%TO.P,Q6,1,G*%
%TO.N,Net-(Q6-G)*%
X187960000Y-116950000D03*
D11*
%TO.P,Q6,2,D*%
%TO.N,Net-(D7-A)*%
X190500000Y-116950000D03*
%TO.P,Q6,3,S*%
%TO.N,GND*%
X193040000Y-116950000D03*
%TD*%
D14*
%TO.P,C4,1*%
%TO.N,+5V*%
X191500000Y-126000000D03*
%TO.P,C4,2*%
%TO.N,GND*%
X191500000Y-123500000D03*
%TD*%
D21*
%TO.P,D11,1,K*%
%TO.N,+12V*%
X195580000Y-67500000D03*
D16*
%TO.P,D11,2,A*%
%TO.N,Net-(D11-A)*%
X185420000Y-67500000D03*
%TD*%
D15*
%TO.P,D4,1,K*%
%TO.N,+12V*%
X109420000Y-54500000D03*
D16*
%TO.P,D4,2,A*%
%TO.N,Net-(D4-A)*%
X119580000Y-54500000D03*
%TD*%
D14*
%TO.P,R14,1*%
%TO.N,Net-(Q6-G)*%
X180620000Y-116000000D03*
%TO.P,R14,2*%
%TO.N,GND*%
X173000000Y-116000000D03*
%TD*%
D19*
%TO.P,D1,1,K*%
%TO.N,GND*%
X167500000Y-108960000D03*
D20*
%TO.P,D1,2,A*%
%TO.N,Net-(D1-A)*%
X167500000Y-111500000D03*
%TD*%
D14*
%TO.P,R4,1*%
%TO.N,Electrovanne F1*%
X131810000Y-67500000D03*
%TO.P,R4,2*%
%TO.N,Net-(Q1-G)*%
X124190000Y-67500000D03*
%TD*%
D15*
%TO.P,D9,1,K*%
%TO.N,+12V*%
X109420000Y-95500000D03*
D16*
%TO.P,D9,2,A*%
%TO.N,Net-(D9-A)*%
X119580000Y-95500000D03*
%TD*%
D10*
%TO.P,Q4,1,G*%
%TO.N,Net-(Q4-G)*%
X187920000Y-88500000D03*
D11*
%TO.P,Q4,2,D*%
%TO.N,Net-(D5-A)*%
X190460000Y-88500000D03*
%TO.P,Q4,3,S*%
%TO.N,GND*%
X193000000Y-88500000D03*
%TD*%
D14*
%TO.P,C2,1*%
%TO.N,+12V*%
X124000000Y-126500000D03*
%TO.P,C2,2*%
%TO.N,GND*%
X124000000Y-124000000D03*
%TD*%
D15*
%TO.P,D6,1,K*%
%TO.N,+12V*%
X109340000Y-110000000D03*
D16*
%TO.P,D6,2,A*%
%TO.N,Net-(D6-A)*%
X119500000Y-110000000D03*
%TD*%
D14*
%TO.P,R18,1*%
%TO.N,Net-(Q8-G)*%
X124440000Y-101960000D03*
%TO.P,R18,2*%
%TO.N,GND*%
X132060000Y-101960000D03*
%TD*%
D12*
%TO.P,ElectrovanneF4,1,Pin_1*%
%TO.N,+12V*%
X206000000Y-83250000D03*
D13*
%TO.P,ElectrovanneF4,2,Pin_2*%
%TO.N,Net-(D5-A)*%
X206000000Y-85750000D03*
%TD*%
D14*
%TO.P,R12,1*%
%TO.N,Net-(Q5-G)*%
X124440000Y-116250000D03*
%TO.P,R12,2*%
%TO.N,GND*%
X132060000Y-116250000D03*
%TD*%
%TO.P,R11,1*%
%TO.N,Electrovanne B1*%
X132060000Y-110250000D03*
%TO.P,R11,2*%
%TO.N,Net-(Q5-G)*%
X124440000Y-110250000D03*
%TD*%
D21*
%TO.P,D12,1,K*%
%TO.N,+12V*%
X195500000Y-54500000D03*
D16*
%TO.P,D12,2,A*%
%TO.N,Net-(D12-A)*%
X185340000Y-54500000D03*
%TD*%
D14*
%TO.P,R8,1*%
%TO.N,Net-(Q3-G)*%
X124000000Y-60000000D03*
%TO.P,R8,2*%
%TO.N,GND*%
X131620000Y-60000000D03*
%TD*%
%TO.P,C3,1*%
%TO.N,+5V*%
X182000000Y-126000000D03*
%TO.P,C3,2*%
%TO.N,GND*%
X182000000Y-123500000D03*
%TD*%
%TO.P,R15,1*%
%TO.N,Electrovanne B3*%
X172690000Y-95500000D03*
%TO.P,R15,2*%
%TO.N,Net-(Q7-G)*%
X180310000Y-95500000D03*
%TD*%
%TO.P,R3,1*%
%TO.N,Net-(Q1-G)*%
X124190000Y-73000000D03*
%TO.P,R3,2*%
%TO.N,GND*%
X131810000Y-73000000D03*
%TD*%
%TO.P,C1,1*%
%TO.N,+12V*%
X132000000Y-126500000D03*
%TO.P,C1,2*%
%TO.N,GND*%
X132000000Y-124000000D03*
%TD*%
D17*
%TO.P,Alim2,1,Pin_1*%
%TO.N,+5V*%
X168000000Y-124500000D03*
D18*
%TO.P,Alim2,2,Pin_2*%
%TO.N,GND*%
X173000000Y-124500000D03*
%TD*%
D22*
%TO.P,J2,1,Pin_1*%
%TO.N,+5V*%
X139500000Y-100150000D03*
D23*
%TO.P,J2,2,Pin_2*%
%TO.N,unconnected-(J2-Pin_2-Pad2)*%
X139500000Y-97610000D03*
%TO.P,J2,3,Pin_3*%
%TO.N,unconnected-(J2-Pin_3-Pad3)*%
X139500000Y-95070000D03*
%TO.P,J2,4,Pin_4*%
%TO.N,unconnected-(J2-Pin_4-Pad4)*%
X139500000Y-92530000D03*
%TO.P,J2,5,Pin_5*%
%TO.N,Electrovanne B1*%
X139500000Y-89990000D03*
%TO.P,J2,6,Pin_6*%
%TO.N,GND*%
X139500000Y-87450000D03*
%TO.P,J2,7,Pin_7*%
%TO.N,Electrovanne B4*%
X139500000Y-84910000D03*
%TO.P,J2,8,Pin_8*%
%TO.N,unconnected-(J2-Pin_8-Pad8)*%
X139500000Y-82370000D03*
%TO.P,J2,9,Pin_9*%
%TO.N,unconnected-(J2-Pin_9-Pad9)*%
X139500000Y-79830000D03*
%TO.P,J2,10,Pin_10*%
%TO.N,unconnected-(J2-Pin_10-Pad10)*%
X139500000Y-77290000D03*
%TO.P,J2,11,Pin_11*%
%TO.N,unconnected-(J2-Pin_11-Pad11)*%
X139500000Y-74750000D03*
%TO.P,J2,12,Pin_12*%
%TO.N,Electrovanne F2*%
X139500000Y-72210000D03*
%TO.P,J2,13,Pin_13*%
%TO.N,unconnected-(J2-Pin_13-Pad13)*%
X139500000Y-69670000D03*
%TO.P,J2,14,Pin_14*%
%TO.N,unconnected-(J2-Pin_14-Pad14)*%
X139500000Y-67130000D03*
%TO.P,J2,15,Pin_15*%
%TO.N,unconnected-(J2-Pin_15-Pad15)*%
X139500000Y-64590000D03*
%TO.P,J2,16,Pin_16*%
%TO.N,unconnected-(J2-Pin_16-Pad16)*%
X139500000Y-62050000D03*
%TO.P,J2,17,Pin_17*%
%TO.N,unconnected-(J2-Pin_17-Pad17)*%
X139500000Y-59510000D03*
%TO.P,J2,18,Pin_18*%
%TO.N,en*%
X139500000Y-56970000D03*
%TO.P,J2,19,Pin_19*%
%TO.N,+3.3V*%
X139500000Y-54430000D03*
%TD*%
D14*
%TO.P,R21,1*%
%TO.N,Pump 1*%
X172190000Y-67500000D03*
%TO.P,R21,2*%
%TO.N,Net-(Q10-G)*%
X179810000Y-67500000D03*
%TD*%
D12*
%TO.P,ElectrovanneF2,1,Pin_1*%
%TO.N,+12V*%
X102000000Y-83000000D03*
D13*
%TO.P,ElectrovanneF2,2,Pin_2*%
%TO.N,Net-(D3-A)*%
X102000000Y-85500000D03*
%TD*%
D14*
%TO.P,R9,1*%
%TO.N,Electrovanne F4*%
X172500000Y-80500000D03*
%TO.P,R9,2*%
%TO.N,Net-(Q4-G)*%
X180120000Y-80500000D03*
%TD*%
D12*
%TO.P,ElectrovanneB3,1,Pin_1*%
%TO.N,+12V*%
X206000000Y-98500000D03*
D13*
%TO.P,ElectrovanneB3,2,Pin_2*%
%TO.N,Net-(D8-A)*%
X206000000Y-101000000D03*
%TD*%
D21*
%TO.P,D5,1,K*%
%TO.N,+12V*%
X195580000Y-80500000D03*
D16*
%TO.P,D5,2,A*%
%TO.N,Net-(D5-A)*%
X185420000Y-80500000D03*
%TD*%
D10*
%TO.P,Q5,1,G*%
%TO.N,Net-(Q5-G)*%
X117040000Y-115500000D03*
D11*
%TO.P,Q5,2,D*%
%TO.N,Net-(D6-A)*%
X114500000Y-115500000D03*
%TO.P,Q5,3,S*%
%TO.N,GND*%
X111960000Y-115500000D03*
%TD*%
D10*
%TO.P,Q2,1,G*%
%TO.N,Net-(Q2-G)*%
X117000000Y-86000000D03*
D11*
%TO.P,Q2,2,D*%
%TO.N,Net-(D3-A)*%
X114460000Y-86000000D03*
%TO.P,Q2,3,S*%
%TO.N,GND*%
X111920000Y-86000000D03*
%TD*%
D10*
%TO.P,Q10,1,G*%
%TO.N,Net-(Q10-G)*%
X187920000Y-74500000D03*
D11*
%TO.P,Q10,2,D*%
%TO.N,Net-(D11-A)*%
X190460000Y-74500000D03*
%TO.P,Q10,3,S*%
%TO.N,GND*%
X193000000Y-74500000D03*
%TD*%
D10*
%TO.P,Q11,1,G*%
%TO.N,Net-(Q11-G)*%
X187920000Y-61500000D03*
D11*
%TO.P,Q11,2,D*%
%TO.N,Net-(D12-A)*%
X190460000Y-61500000D03*
%TO.P,Q11,3,S*%
%TO.N,GND*%
X193000000Y-61500000D03*
%TD*%
D24*
%TO.P,J7,1,Pin_1*%
%TO.N,en*%
X115000000Y-124000000D03*
D25*
%TO.P,J7,2*%
%TO.N,N/C*%
X112500000Y-124000000D03*
%TD*%
D14*
%TO.P,R2,1*%
%TO.N,en*%
X137000000Y-118310000D03*
%TO.P,R2,2*%
%TO.N,+3.3V*%
X137000000Y-110690000D03*
%TD*%
%TO.P,R1,1*%
%TO.N,+5V*%
X169310000Y-116000000D03*
%TO.P,R1,2*%
%TO.N,Net-(D1-A)*%
X161690000Y-116000000D03*
%TD*%
%TO.P,R16,1*%
%TO.N,Net-(Q7-G)*%
X180500000Y-102000000D03*
%TO.P,R16,2*%
%TO.N,GND*%
X172880000Y-102000000D03*
%TD*%
D12*
%TO.P,ElectrovanneF3,1,Pin_1*%
%TO.N,+12V*%
X101500000Y-57000000D03*
D13*
%TO.P,ElectrovanneF3,2,Pin_2*%
%TO.N,Net-(D4-A)*%
X101500000Y-59500000D03*
%TD*%
D14*
%TO.P,R23,1*%
%TO.N,Pump 2*%
X172190000Y-54500000D03*
%TO.P,R23,2*%
%TO.N,Net-(Q11-G)*%
X179810000Y-54500000D03*
%TD*%
%TO.P,R22,1*%
%TO.N,Net-(Q10-G)*%
X179810000Y-73000000D03*
%TO.P,R22,2*%
%TO.N,GND*%
X172190000Y-73000000D03*
%TD*%
D10*
%TO.P,Q8,1,G*%
%TO.N,Net-(Q8-G)*%
X117040000Y-101050000D03*
D11*
%TO.P,Q8,2,D*%
%TO.N,Net-(D9-A)*%
X114500000Y-101050000D03*
%TO.P,Q8,3,S*%
%TO.N,GND*%
X111960000Y-101050000D03*
%TD*%
D14*
%TO.P,R5,1*%
%TO.N,Electrovanne F2*%
X132000000Y-80460000D03*
%TO.P,R5,2*%
%TO.N,Net-(Q2-G)*%
X124380000Y-80460000D03*
%TD*%
D21*
%TO.P,D7,1,K*%
%TO.N,+12V*%
X195660000Y-110000000D03*
D16*
%TO.P,D7,2,A*%
%TO.N,Net-(D7-A)*%
X185500000Y-110000000D03*
%TD*%
D14*
%TO.P,R17,1*%
%TO.N,Electrovanne B4*%
X132060000Y-95460000D03*
%TO.P,R17,2*%
%TO.N,Net-(Q8-G)*%
X124440000Y-95460000D03*
%TD*%
D12*
%TO.P,ElectrovanneB2,1,Pin_1*%
%TO.N,+12V*%
X206500000Y-112500000D03*
D13*
%TO.P,ElectrovanneB2,2,Pin_2*%
%TO.N,Net-(D7-A)*%
X206500000Y-115000000D03*
%TD*%
D21*
%TO.P,D8,1,K*%
%TO.N,+12V*%
X195660000Y-95500000D03*
D16*
%TO.P,D8,2,A*%
%TO.N,Net-(D8-A)*%
X185500000Y-95500000D03*
%TD*%
D12*
%TO.P,JPump2,1,Pin_1*%
%TO.N,+12V*%
X206000000Y-57000000D03*
D13*
%TO.P,JPump2,2,Pin_2*%
%TO.N,Net-(D12-A)*%
X206000000Y-59500000D03*
%TD*%
D12*
%TO.P,JPump1,1,Pin_1*%
%TO.N,+12V*%
X206000000Y-70000000D03*
D13*
%TO.P,JPump1,2,Pin_2*%
%TO.N,Net-(D11-A)*%
X206000000Y-72500000D03*
%TD*%
D22*
%TO.P,J1,1,Pin_1*%
%TO.N,GND*%
X165000000Y-54280000D03*
D23*
%TO.P,J1,2,Pin_2*%
%TO.N,unconnected-(J1-Pin_2-Pad2)*%
X165000000Y-56820000D03*
%TO.P,J1,3,Pin_3*%
%TO.N,Electrovanne F1*%
X165000000Y-59360000D03*
%TO.P,J1,4,Pin_4*%
%TO.N,unconnected-(J1-Pin_4-Pad4)*%
X165000000Y-61900000D03*
%TO.P,J1,5,Pin_5*%
%TO.N,unconnected-(J1-Pin_5-Pad5)*%
X165000000Y-64440000D03*
%TO.P,J1,6,Pin_6*%
%TO.N,Electrovanne F3*%
X165000000Y-66980000D03*
%TO.P,J1,7,Pin_7*%
%TO.N,GND*%
X165000000Y-69520000D03*
%TO.P,J1,8,Pin_8*%
%TO.N,Pump 2*%
X165000000Y-72060000D03*
%TO.P,J1,9,Pin_9*%
%TO.N,Pump 1*%
X165000000Y-74600000D03*
%TO.P,J1,10,Pin_10*%
%TO.N,Electrovanne F4*%
X165000000Y-77140000D03*
%TO.P,J1,11,Pin_11*%
%TO.N,Electrovanne B3*%
X165000000Y-79680000D03*
%TO.P,J1,12,Pin_12*%
%TO.N,Electrovanne B2*%
X165000000Y-82220000D03*
%TO.P,J1,13,Pin_13*%
%TO.N,unconnected-(J1-Pin_13-Pad13)*%
X165000000Y-84760000D03*
%TO.P,J1,14,Pin_14*%
%TO.N,unconnected-(J1-Pin_14-Pad14)*%
X165000000Y-87300000D03*
%TO.P,J1,15,Pin_15*%
%TO.N,unconnected-(J1-Pin_15-Pad15)*%
X165000000Y-89840000D03*
%TO.P,J1,16,Pin_16*%
%TO.N,unconnected-(J1-Pin_16-Pad16)*%
X165000000Y-92380000D03*
%TO.P,J1,17,Pin_17*%
%TO.N,unconnected-(J1-Pin_17-Pad17)*%
X165000000Y-94920000D03*
%TO.P,J1,18,Pin_18*%
%TO.N,unconnected-(J1-Pin_18-Pad18)*%
X165000000Y-97460000D03*
%TO.P,J1,19,Pin_19*%
%TO.N,unconnected-(J1-Pin_19-Pad19)*%
X165000000Y-100000000D03*
%TD*%
M02*
