%TF.GenerationSoftware,KiCad,Pcbnew,9.0.4*%
%TF.CreationDate,2025-12-28T21:15:45+01:00*%
%TF.ProjectId,ESP motors 2.0,45535020-6d6f-4746-9f72-7320322e302e,rev?*%
%TF.SameCoordinates,Original*%
%TF.FileFunction,Soldermask,Bot*%
%TF.FilePolarity,Negative*%
%FSLAX46Y46*%
G04 Gerber Fmt 4.6, Leading zero omitted, Abs format (unit mm)*
G04 Created by KiCad (PCBNEW 9.0.4) date 2025-12-28 21:15:45*
%MOMM*%
%LPD*%
G01*
G04 APERTURE LIST*
G04 Aperture macros list*
%AMRoundRect*
0 Rectangle with rounded corners*
0 $1 Rounding radius*
0 $2 $3 $4 $5 $6 $7 $8 $9 X,Y pos of 4 corners*
0 Add a 4 corners polygon primitive as box body*
4,1,4,$2,$3,$4,$5,$6,$7,$8,$9,$2,$3,0*
0 Add four circle primitives for the rounded corners*
1,1,$1+$1,$2,$3*
1,1,$1+$1,$4,$5*
1,1,$1+$1,$6,$7*
1,1,$1+$1,$8,$9*
0 Add four rect primitives between the rounded corners*
20,1,$1+$1,$2,$3,$4,$5,0*
20,1,$1+$1,$4,$5,$6,$7,0*
20,1,$1+$1,$6,$7,$8,$9,0*
20,1,$1+$1,$8,$9,$2,$3,0*%
G04 Aperture macros list end*
%ADD10C,1.600000*%
%ADD11RoundRect,0.250001X1.149999X1.149999X-1.149999X1.149999X-1.149999X-1.149999X1.149999X-1.149999X0*%
%ADD12C,2.800000*%
%ADD13R,1.800000X1.800000*%
%ADD14C,1.800000*%
%ADD15C,3.200000*%
%ADD16R,1.700000X1.700000*%
%ADD17C,1.700000*%
%ADD18RoundRect,0.250000X0.600000X0.750000X-0.600000X0.750000X-0.600000X-0.750000X0.600000X-0.750000X0*%
%ADD19O,1.700000X2.000000*%
G04 APERTURE END LIST*
D10*
%TO.C,C1*%
X128000000Y-66000000D03*
X128000000Y-63500000D03*
%TD*%
D11*
%TO.C,Alim1*%
X118000000Y-64500000D03*
D12*
X113000000Y-64500000D03*
%TD*%
D13*
%TO.C,D1*%
X92230000Y-117500000D03*
D14*
X94770000Y-117500000D03*
%TD*%
D15*
%TO.C,REF\u002A\u002A*%
X173000000Y-60000000D03*
%TD*%
D10*
%TO.C,R1*%
X92770000Y-104460000D03*
X92770000Y-112080000D03*
%TD*%
%TO.C,R3*%
X111810000Y-130000000D03*
X104190000Y-130000000D03*
%TD*%
D11*
%TO.C,Alim2*%
X151500000Y-64500000D03*
D12*
X146500000Y-64500000D03*
%TD*%
D16*
%TO.C,Motor4*%
X164500000Y-104080000D03*
D17*
X164500000Y-106620000D03*
X164500000Y-109160000D03*
X164500000Y-111700000D03*
X164500000Y-114240000D03*
X164500000Y-116780000D03*
%TD*%
D18*
%TO.C,J7*%
X100000000Y-126000000D03*
D19*
X97500000Y-126000000D03*
%TD*%
D16*
%TO.C,J3*%
X110500000Y-76800000D03*
D17*
X110500000Y-79340000D03*
X110500000Y-81880000D03*
X110500000Y-84420000D03*
X110500000Y-86960000D03*
X110500000Y-89500000D03*
X110500000Y-92040000D03*
X110500000Y-94580000D03*
%TD*%
D15*
%TO.C,REF\u002A\u002A*%
X173000000Y-130000000D03*
%TD*%
D10*
%TO.C,R2*%
X106810000Y-59500000D03*
X99190000Y-59500000D03*
%TD*%
D16*
%TO.C,J1*%
X146000000Y-76780000D03*
D17*
X146000000Y-79320000D03*
X146000000Y-81860000D03*
X146000000Y-84400000D03*
X146000000Y-86940000D03*
X146000000Y-89480000D03*
X146000000Y-92020000D03*
X146000000Y-94560000D03*
X146000000Y-97100000D03*
X146000000Y-99640000D03*
X146000000Y-102180000D03*
X146000000Y-104720000D03*
X146000000Y-107260000D03*
X146000000Y-109800000D03*
X146000000Y-112340000D03*
X146000000Y-114880000D03*
X146000000Y-117420000D03*
X146000000Y-119960000D03*
X146000000Y-122500000D03*
%TD*%
D16*
%TO.C,J2*%
X120500000Y-122660000D03*
D17*
X120500000Y-120120000D03*
X120500000Y-117580000D03*
X120500000Y-115040000D03*
X120500000Y-112500000D03*
X120500000Y-109960000D03*
X120500000Y-107420000D03*
X120500000Y-104880000D03*
X120500000Y-102340000D03*
X120500000Y-99800000D03*
X120500000Y-97260000D03*
X120500000Y-94720000D03*
X120500000Y-92180000D03*
X120500000Y-89640000D03*
X120500000Y-87100000D03*
X120500000Y-84560000D03*
X120500000Y-82020000D03*
X120500000Y-79480000D03*
X120500000Y-76940000D03*
%TD*%
D15*
%TO.C,REF\u002A\u002A*%
X92000000Y-130500000D03*
%TD*%
%TO.C,REF\u002A\u002A*%
X92500000Y-60000000D03*
%TD*%
D10*
%TO.C,C2*%
X103500000Y-66000000D03*
X103500000Y-63500000D03*
%TD*%
D16*
%TO.C,J8*%
X172500000Y-106620000D03*
D17*
X172500000Y-109160000D03*
X172500000Y-111700000D03*
X172500000Y-114240000D03*
%TD*%
D10*
%TO.C,C4*%
X139500000Y-66250000D03*
X139500000Y-63750000D03*
%TD*%
D16*
%TO.C,Motor3*%
X156000000Y-104040000D03*
D17*
X156000000Y-106580000D03*
X156000000Y-109120000D03*
X156000000Y-111660000D03*
X156000000Y-114200000D03*
X156000000Y-116740000D03*
%TD*%
D16*
%TO.C,J4*%
X95500000Y-76840000D03*
D17*
X95500000Y-79380000D03*
X95500000Y-81920000D03*
X95500000Y-84460000D03*
X95500000Y-87000000D03*
X95500000Y-89540000D03*
X95500000Y-92080000D03*
X95500000Y-94620000D03*
%TD*%
D13*
%TO.C,D2*%
X91960000Y-67500000D03*
D14*
X94500000Y-67500000D03*
%TD*%
D10*
%TO.C,C3*%
X160500000Y-65500000D03*
X160500000Y-63000000D03*
%TD*%
D16*
%TO.C,J6*%
X171000000Y-76920000D03*
D17*
X171000000Y-79460000D03*
X171000000Y-82000000D03*
X171000000Y-84540000D03*
X171000000Y-87080000D03*
X171000000Y-89620000D03*
X171000000Y-92160000D03*
X171000000Y-94700000D03*
%TD*%
D16*
%TO.C,Motor2*%
X101500000Y-116580000D03*
D17*
X101500000Y-114040000D03*
X101500000Y-111500000D03*
X101500000Y-108960000D03*
X101500000Y-106420000D03*
X101500000Y-103880000D03*
%TD*%
D16*
%TO.C,Motor1*%
X110500000Y-104460000D03*
D17*
X110500000Y-107000000D03*
X110500000Y-109540000D03*
X110500000Y-112080000D03*
X110500000Y-114620000D03*
X110500000Y-117160000D03*
%TD*%
D16*
%TO.C,J5*%
X156000000Y-76920000D03*
D17*
X156000000Y-79460000D03*
X156000000Y-82000000D03*
X156000000Y-84540000D03*
X156000000Y-87080000D03*
X156000000Y-89620000D03*
X156000000Y-92160000D03*
X156000000Y-94700000D03*
%TD*%
M02*
