M48
; DRILL file {KiCad 9.0.4} date 2025-12-28T21:15:40+0100
; FORMAT={-:-/ absolute / metric / decimal}
; #@! TF.CreationDate,2025-12-28T21:15:40+01:00
; #@! TF.GenerationSoftware,Kicad,Pcbnew,9.0.4
; #@! TF.FileFunction,Plated,1,2,PTH
FMAT,2
METRIC
; #@! TA.AperFunction,Plated,PTH,ViaDrill
T1C0.300
; #@! TA.AperFunction,Plated,PTH,ComponentDrill
T2C0.800
; #@! TA.AperFunction,Plated,PTH,ComponentDrill
T3C0.900
; #@! TA.AperFunction,Plated,PTH,ComponentDrill
T4C1.000
; #@! TA.AperFunction,Plated,PTH,ComponentDrill
T5C1.300
%
G90
G05
T1
X96.0Y-111.0
X97.0Y-109.0
X98.0Y-73.0
X98.0Y-85.0
X98.0Y-99.0
X98.5Y-79.0
X98.75Y-64.25
X99.0Y-115.0
X99.5Y-93.5
X100.0Y-95.5
X100.5Y-120.0
X101.0Y-74.0
X101.5Y-71.5
X103.0Y-97.0
X105.75Y-95.25
X106.0Y-104.0
X106.0Y-105.5
X106.5Y-98.5
X107.5Y-117.0
X108.0Y-84.0
X110.0Y-124.5
X113.0Y-82.0
X113.0Y-84.5
X113.25Y-79.75
X116.0Y-95.0
X120.5Y-73.0
X122.84Y-122.66
X124.0Y-93.0
X124.0Y-103.0
X124.0Y-113.0
X125.0Y-76.5
X125.5Y-110.5
X127.0Y-79.5
X127.0Y-111.0
X129.5Y-97.5
X129.5Y-99.8
X132.5Y-97.5
X134.0Y-113.0
X137.75Y-101.75
X139.0Y-95.5
X139.25Y-110.75
X141.25Y-97.25
X142.0Y-115.5
X146.0Y-129.0
X149.0Y-99.5
X149.5Y-71.0
X149.5Y-90.0
X152.0Y-113.0
X152.5Y-93.5
X153.0Y-76.5
X153.0Y-79.0
X153.5Y-110.0
X154.5Y-72.0
X155.0Y-130.5
X157.84Y-102.2
X159.0Y-107.0
X159.75Y-117.75
X162.0Y-91.7
X162.0Y-114.5
X162.5Y-107.0
X163.5Y-82.5
X164.5Y-69.5
X164.5Y-77.0
X167.0Y-106.5
X167.0Y-110.0
X174.0Y-92.5
T2
X92.77Y-104.46
X92.77Y-112.08
X99.19Y-59.5
X103.5Y-63.5
X103.5Y-66.0
X104.19Y-130.0
X106.81Y-59.5
X111.81Y-130.0
X128.0Y-63.5
X128.0Y-66.0
X139.5Y-63.75
X139.5Y-66.25
X160.5Y-63.0
X160.5Y-65.5
T3
X91.96Y-67.5
X92.23Y-117.5
X94.5Y-67.5
X94.77Y-117.5
T4
X95.5Y-76.84
X95.5Y-79.38
X95.5Y-81.92
X95.5Y-84.46
X95.5Y-87.0
X95.5Y-89.54
X95.5Y-92.08
X95.5Y-94.62
X97.5Y-126.0
X100.0Y-126.0
X101.5Y-103.88
X101.5Y-106.42
X101.5Y-108.96
X101.5Y-111.5
X101.5Y-114.04
X101.5Y-116.58
X110.5Y-76.8
X110.5Y-79.34
X110.5Y-81.88
X110.5Y-84.42
X110.5Y-86.96
X110.5Y-89.5
X110.5Y-92.04
X110.5Y-94.58
X110.5Y-104.46
X110.5Y-107.0
X110.5Y-109.54
X110.5Y-112.08
X110.5Y-114.62
X110.5Y-117.16
X120.5Y-76.94
X120.5Y-79.48
X120.5Y-82.02
X120.5Y-84.56
X120.5Y-87.1
X120.5Y-89.64
X120.5Y-92.18
X120.5Y-94.72
X120.5Y-97.26
X120.5Y-99.8
X120.5Y-102.34
X120.5Y-104.88
X120.5Y-107.42
X120.5Y-109.96
X120.5Y-112.5
X120.5Y-115.04
X120.5Y-117.58
X120.5Y-120.12
X120.5Y-122.66
X146.0Y-76.78
X146.0Y-79.32
X146.0Y-81.86
X146.0Y-84.4
X146.0Y-86.94
X146.0Y-89.48
X146.0Y-92.02
X146.0Y-94.56
X146.0Y-97.1
X146.0Y-99.64
X146.0Y-102.18
X146.0Y-104.72
X146.0Y-107.26
X146.0Y-109.8
X146.0Y-112.34
X146.0Y-114.88
X146.0Y-117.42
X146.0Y-119.96
X146.0Y-122.5
X156.0Y-76.92
X156.0Y-79.46
X156.0Y-82.0
X156.0Y-84.54
X156.0Y-87.08
X156.0Y-89.62
X156.0Y-92.16
X156.0Y-94.7
X156.0Y-104.04
X156.0Y-106.58
X156.0Y-109.12
X156.0Y-111.66
X156.0Y-114.2
X156.0Y-116.74
X164.5Y-104.08
X164.5Y-106.62
X164.5Y-109.16
X164.5Y-111.7
X164.5Y-114.24
X164.5Y-116.78
X171.0Y-76.92
X171.0Y-79.46
X171.0Y-82.0
X171.0Y-84.54
X171.0Y-87.08
X171.0Y-89.62
X171.0Y-92.16
X171.0Y-94.7
X172.5Y-106.62
X172.5Y-109.16
X172.5Y-111.7
X172.5Y-114.24
T5
X113.0Y-64.5
X118.0Y-64.5
X146.5Y-64.5
X151.5Y-64.5
M30
