%TF.GenerationSoftware,KiCad,Pcbnew,9.0.4*%
%TF.CreationDate,2025-12-28T21:15:40+01:00*%
%TF.ProjectId,ESP motors 2.0,45535020-6d6f-4746-9f72-7320322e302e,rev?*%
%TF.SameCoordinates,Original*%
%TF.FileFunction,Drillmap*%
%TF.FilePolarity,Positive*%
%FSLAX45Y45*%
G04 Gerber Fmt 4.5, Leading zero omitted, Abs format (unit mm)*
G04 Created by KiCad (PCBNEW 9.0.4) date 2025-12-28 21:15:40*
%MOMM*%
%LPD*%
G01*
G04 APERTURE LIST*
%ADD10C,0.050000*%
%ADD11C,0.200000*%
%ADD12C,0.100000*%
%ADD13C,0.130000*%
G04 APERTURE END LIST*
D10*
X8900000Y-5650000D02*
X17650000Y-5650000D01*
X17650000Y-13350000D01*
X8900000Y-13350000D01*
X8900000Y-5650000D01*
D11*
D12*
X9585000Y-11085000D02*
X9615000Y-11115000D01*
X9615000Y-11085000D02*
X9585000Y-11115000D01*
X9685000Y-10885000D02*
X9715000Y-10915000D01*
X9715000Y-10885000D02*
X9685000Y-10915000D01*
X9785000Y-7285000D02*
X9815000Y-7315000D01*
X9815000Y-7285000D02*
X9785000Y-7315000D01*
X9785000Y-8485000D02*
X9815000Y-8515000D01*
X9815000Y-8485000D02*
X9785000Y-8515000D01*
X9785000Y-9885000D02*
X9815000Y-9915000D01*
X9815000Y-9885000D02*
X9785000Y-9915000D01*
X9835000Y-7885000D02*
X9865000Y-7915000D01*
X9865000Y-7885000D02*
X9835000Y-7915000D01*
X9860000Y-6410000D02*
X9890000Y-6440000D01*
X9890000Y-6410000D02*
X9860000Y-6440000D01*
X9885000Y-11485000D02*
X9915000Y-11515000D01*
X9915000Y-11485000D02*
X9885000Y-11515000D01*
X9935000Y-9335000D02*
X9965000Y-9365000D01*
X9965000Y-9335000D02*
X9935000Y-9365000D01*
X9985000Y-9535000D02*
X10015000Y-9565000D01*
X10015000Y-9535000D02*
X9985000Y-9565000D01*
X10035000Y-11985000D02*
X10065000Y-12015000D01*
X10065000Y-11985000D02*
X10035000Y-12015000D01*
X10085000Y-7385000D02*
X10115000Y-7415000D01*
X10115000Y-7385000D02*
X10085000Y-7415000D01*
X10135000Y-7135000D02*
X10165000Y-7165000D01*
X10165000Y-7135000D02*
X10135000Y-7165000D01*
X10285000Y-9685000D02*
X10315000Y-9715000D01*
X10315000Y-9685000D02*
X10285000Y-9715000D01*
X10560000Y-9510000D02*
X10590000Y-9540000D01*
X10590000Y-9510000D02*
X10560000Y-9540000D01*
X10585000Y-10385000D02*
X10615000Y-10415000D01*
X10615000Y-10385000D02*
X10585000Y-10415000D01*
X10585000Y-10535000D02*
X10615000Y-10565000D01*
X10615000Y-10535000D02*
X10585000Y-10565000D01*
X10635000Y-9835000D02*
X10665000Y-9865000D01*
X10665000Y-9835000D02*
X10635000Y-9865000D01*
X10735000Y-11685000D02*
X10765000Y-11715000D01*
X10765000Y-11685000D02*
X10735000Y-11715000D01*
X10785000Y-8385000D02*
X10815000Y-8415000D01*
X10815000Y-8385000D02*
X10785000Y-8415000D01*
X10985000Y-12435000D02*
X11015000Y-12465000D01*
X11015000Y-12435000D02*
X10985000Y-12465000D01*
X11285000Y-8185000D02*
X11315000Y-8215000D01*
X11315000Y-8185000D02*
X11285000Y-8215000D01*
X11285000Y-8435000D02*
X11315000Y-8465000D01*
X11315000Y-8435000D02*
X11285000Y-8465000D01*
X11310000Y-7960000D02*
X11340000Y-7990000D01*
X11340000Y-7960000D02*
X11310000Y-7990000D01*
X11585000Y-9485000D02*
X11615000Y-9515000D01*
X11615000Y-9485000D02*
X11585000Y-9515000D01*
X12035000Y-7285000D02*
X12065000Y-7315000D01*
X12065000Y-7285000D02*
X12035000Y-7315000D01*
X12269000Y-12251000D02*
X12299000Y-12281000D01*
X12299000Y-12251000D02*
X12269000Y-12281000D01*
X12385000Y-9285000D02*
X12415000Y-9315000D01*
X12415000Y-9285000D02*
X12385000Y-9315000D01*
X12385000Y-10285000D02*
X12415000Y-10315000D01*
X12415000Y-10285000D02*
X12385000Y-10315000D01*
X12385000Y-11285000D02*
X12415000Y-11315000D01*
X12415000Y-11285000D02*
X12385000Y-11315000D01*
X12485000Y-7635000D02*
X12515000Y-7665000D01*
X12515000Y-7635000D02*
X12485000Y-7665000D01*
X12535000Y-11035000D02*
X12565000Y-11065000D01*
X12565000Y-11035000D02*
X12535000Y-11065000D01*
X12685000Y-7935000D02*
X12715000Y-7965000D01*
X12715000Y-7935000D02*
X12685000Y-7965000D01*
X12685000Y-11085000D02*
X12715000Y-11115000D01*
X12715000Y-11085000D02*
X12685000Y-11115000D01*
X12935000Y-9735000D02*
X12965000Y-9765000D01*
X12965000Y-9735000D02*
X12935000Y-9765000D01*
X12935000Y-9965000D02*
X12965000Y-9995000D01*
X12965000Y-9965000D02*
X12935000Y-9995000D01*
X13235000Y-9735000D02*
X13265000Y-9765000D01*
X13265000Y-9735000D02*
X13235000Y-9765000D01*
X13385000Y-11285000D02*
X13415000Y-11315000D01*
X13415000Y-11285000D02*
X13385000Y-11315000D01*
X13760000Y-10160000D02*
X13790000Y-10190000D01*
X13790000Y-10160000D02*
X13760000Y-10190000D01*
X13885000Y-9535000D02*
X13915000Y-9565000D01*
X13915000Y-9535000D02*
X13885000Y-9565000D01*
X13910000Y-11060000D02*
X13940000Y-11090000D01*
X13940000Y-11060000D02*
X13910000Y-11090000D01*
X14110000Y-9710000D02*
X14140000Y-9740000D01*
X14140000Y-9710000D02*
X14110000Y-9740000D01*
X14185000Y-11535000D02*
X14215000Y-11565000D01*
X14215000Y-11535000D02*
X14185000Y-11565000D01*
X14585000Y-12885000D02*
X14615000Y-12915000D01*
X14615000Y-12885000D02*
X14585000Y-12915000D01*
X14885000Y-9935000D02*
X14915000Y-9965000D01*
X14915000Y-9935000D02*
X14885000Y-9965000D01*
X14935000Y-7085000D02*
X14965000Y-7115000D01*
X14965000Y-7085000D02*
X14935000Y-7115000D01*
X14935000Y-8985000D02*
X14965000Y-9015000D01*
X14965000Y-8985000D02*
X14935000Y-9015000D01*
X15185000Y-11285000D02*
X15215000Y-11315000D01*
X15215000Y-11285000D02*
X15185000Y-11315000D01*
X15235000Y-9335000D02*
X15265000Y-9365000D01*
X15265000Y-9335000D02*
X15235000Y-9365000D01*
X15285000Y-7635000D02*
X15315000Y-7665000D01*
X15315000Y-7635000D02*
X15285000Y-7665000D01*
X15285000Y-7885000D02*
X15315000Y-7915000D01*
X15315000Y-7885000D02*
X15285000Y-7915000D01*
X15335000Y-10985000D02*
X15365000Y-11015000D01*
X15365000Y-10985000D02*
X15335000Y-11015000D01*
X15435000Y-7185000D02*
X15465000Y-7215000D01*
X15465000Y-7185000D02*
X15435000Y-7215000D01*
X15485000Y-13035000D02*
X15515000Y-13065000D01*
X15515000Y-13035000D02*
X15485000Y-13065000D01*
X15769000Y-10205000D02*
X15799000Y-10235000D01*
X15799000Y-10205000D02*
X15769000Y-10235000D01*
X15885000Y-10685000D02*
X15915000Y-10715000D01*
X15915000Y-10685000D02*
X15885000Y-10715000D01*
X15960000Y-11760000D02*
X15990000Y-11790000D01*
X15990000Y-11760000D02*
X15960000Y-11790000D01*
X16185000Y-9155000D02*
X16215000Y-9185000D01*
X16215000Y-9155000D02*
X16185000Y-9185000D01*
X16185000Y-11435000D02*
X16215000Y-11465000D01*
X16215000Y-11435000D02*
X16185000Y-11465000D01*
X16235000Y-10685000D02*
X16265000Y-10715000D01*
X16265000Y-10685000D02*
X16235000Y-10715000D01*
X16335000Y-8235000D02*
X16365000Y-8265000D01*
X16365000Y-8235000D02*
X16335000Y-8265000D01*
X16435000Y-6935000D02*
X16465000Y-6965000D01*
X16465000Y-6935000D02*
X16435000Y-6965000D01*
X16435000Y-7685000D02*
X16465000Y-7715000D01*
X16465000Y-7685000D02*
X16435000Y-7715000D01*
X16685000Y-10635000D02*
X16715000Y-10665000D01*
X16715000Y-10635000D02*
X16685000Y-10665000D01*
X16685000Y-10985000D02*
X16715000Y-11015000D01*
X16715000Y-10985000D02*
X16685000Y-11015000D01*
X17385000Y-9235000D02*
X17415000Y-9265000D01*
X17415000Y-9235000D02*
X17385000Y-9265000D01*
X9317000Y-10446000D02*
G75*
G02*
X9237000Y-10446000I-40000J0D01*
G01*
X9237000Y-10446000D02*
G75*
G02*
X9317000Y-10446000I40000J0D01*
G01*
X9317000Y-11208000D02*
G75*
G02*
X9237000Y-11208000I-40000J0D01*
G01*
X9237000Y-11208000D02*
G75*
G02*
X9317000Y-11208000I40000J0D01*
G01*
X9959000Y-5950000D02*
G75*
G02*
X9879000Y-5950000I-40000J0D01*
G01*
X9879000Y-5950000D02*
G75*
G02*
X9959000Y-5950000I40000J0D01*
G01*
X10390000Y-6350000D02*
G75*
G02*
X10310000Y-6350000I-40000J0D01*
G01*
X10310000Y-6350000D02*
G75*
G02*
X10390000Y-6350000I40000J0D01*
G01*
X10390000Y-6600000D02*
G75*
G02*
X10310000Y-6600000I-40000J0D01*
G01*
X10310000Y-6600000D02*
G75*
G02*
X10390000Y-6600000I40000J0D01*
G01*
X10459000Y-13000000D02*
G75*
G02*
X10379000Y-13000000I-40000J0D01*
G01*
X10379000Y-13000000D02*
G75*
G02*
X10459000Y-13000000I40000J0D01*
G01*
X10721000Y-5950000D02*
G75*
G02*
X10641000Y-5950000I-40000J0D01*
G01*
X10641000Y-5950000D02*
G75*
G02*
X10721000Y-5950000I40000J0D01*
G01*
X11221000Y-13000000D02*
G75*
G02*
X11141000Y-13000000I-40000J0D01*
G01*
X11141000Y-13000000D02*
G75*
G02*
X11221000Y-13000000I40000J0D01*
G01*
X12840000Y-6350000D02*
G75*
G02*
X12760000Y-6350000I-40000J0D01*
G01*
X12760000Y-6350000D02*
G75*
G02*
X12840000Y-6350000I40000J0D01*
G01*
X12840000Y-6600000D02*
G75*
G02*
X12760000Y-6600000I-40000J0D01*
G01*
X12760000Y-6600000D02*
G75*
G02*
X12840000Y-6600000I40000J0D01*
G01*
X13990000Y-6375000D02*
G75*
G02*
X13910000Y-6375000I-40000J0D01*
G01*
X13910000Y-6375000D02*
G75*
G02*
X13990000Y-6375000I40000J0D01*
G01*
X13990000Y-6625000D02*
G75*
G02*
X13910000Y-6625000I-40000J0D01*
G01*
X13910000Y-6625000D02*
G75*
G02*
X13990000Y-6625000I40000J0D01*
G01*
X16090000Y-6300000D02*
G75*
G02*
X16010000Y-6300000I-40000J0D01*
G01*
X16010000Y-6300000D02*
G75*
G02*
X16090000Y-6300000I40000J0D01*
G01*
X16090000Y-6550000D02*
G75*
G02*
X16010000Y-6550000I-40000J0D01*
G01*
X16010000Y-6550000D02*
G75*
G02*
X16090000Y-6550000I40000J0D01*
G01*
X9196000Y-6705000D02*
X9196000Y-6795000D01*
X9151000Y-6750000D02*
X9241000Y-6750000D01*
X9223000Y-11705000D02*
X9223000Y-11795000D01*
X9178000Y-11750000D02*
X9268000Y-11750000D01*
X9450000Y-6705000D02*
X9450000Y-6795000D01*
X9405000Y-6750000D02*
X9495000Y-6750000D01*
X9477000Y-11705000D02*
X9477000Y-11795000D01*
X9432000Y-11750000D02*
X9522000Y-11750000D01*
X9585356Y-7719356D02*
X9585356Y-7648644D01*
X9514644Y-7648644D01*
X9514644Y-7719356D01*
X9585356Y-7719356D01*
X9585356Y-7973356D02*
X9585356Y-7902644D01*
X9514644Y-7902644D01*
X9514644Y-7973356D01*
X9585356Y-7973356D01*
X9585356Y-8227356D02*
X9585356Y-8156644D01*
X9514644Y-8156644D01*
X9514644Y-8227356D01*
X9585356Y-8227356D01*
X9585356Y-8481356D02*
X9585356Y-8410644D01*
X9514644Y-8410644D01*
X9514644Y-8481356D01*
X9585356Y-8481356D01*
X9585356Y-8735356D02*
X9585356Y-8664644D01*
X9514644Y-8664644D01*
X9514644Y-8735356D01*
X9585356Y-8735356D01*
X9585356Y-8989356D02*
X9585356Y-8918644D01*
X9514644Y-8918644D01*
X9514644Y-8989356D01*
X9585356Y-8989356D01*
X9585356Y-9243356D02*
X9585356Y-9172644D01*
X9514644Y-9172644D01*
X9514644Y-9243356D01*
X9585356Y-9243356D01*
X9585356Y-9497356D02*
X9585356Y-9426644D01*
X9514644Y-9426644D01*
X9514644Y-9497356D01*
X9585356Y-9497356D01*
X9785356Y-12635356D02*
X9785356Y-12564644D01*
X9714644Y-12564644D01*
X9714644Y-12635356D01*
X9785356Y-12635356D01*
X10035356Y-12635356D02*
X10035356Y-12564644D01*
X9964644Y-12564644D01*
X9964644Y-12635356D01*
X10035356Y-12635356D01*
X10185356Y-10423356D02*
X10185356Y-10352644D01*
X10114644Y-10352644D01*
X10114644Y-10423356D01*
X10185356Y-10423356D01*
X10185356Y-10677356D02*
X10185356Y-10606644D01*
X10114644Y-10606644D01*
X10114644Y-10677356D01*
X10185356Y-10677356D01*
X10185356Y-10931356D02*
X10185356Y-10860644D01*
X10114644Y-10860644D01*
X10114644Y-10931356D01*
X10185356Y-10931356D01*
X10185356Y-11185356D02*
X10185356Y-11114644D01*
X10114644Y-11114644D01*
X10114644Y-11185356D01*
X10185356Y-11185356D01*
X10185356Y-11439356D02*
X10185356Y-11368644D01*
X10114644Y-11368644D01*
X10114644Y-11439356D01*
X10185356Y-11439356D01*
X10185356Y-11693356D02*
X10185356Y-11622644D01*
X10114644Y-11622644D01*
X10114644Y-11693356D01*
X10185356Y-11693356D01*
X11085356Y-7715356D02*
X11085356Y-7644644D01*
X11014644Y-7644644D01*
X11014644Y-7715356D01*
X11085356Y-7715356D01*
X11085356Y-7969356D02*
X11085356Y-7898644D01*
X11014644Y-7898644D01*
X11014644Y-7969356D01*
X11085356Y-7969356D01*
X11085356Y-8223356D02*
X11085356Y-8152644D01*
X11014644Y-8152644D01*
X11014644Y-8223356D01*
X11085356Y-8223356D01*
X11085356Y-8477356D02*
X11085356Y-8406644D01*
X11014644Y-8406644D01*
X11014644Y-8477356D01*
X11085356Y-8477356D01*
X11085356Y-8731356D02*
X11085356Y-8660644D01*
X11014644Y-8660644D01*
X11014644Y-8731356D01*
X11085356Y-8731356D01*
X11085356Y-8985356D02*
X11085356Y-8914644D01*
X11014644Y-8914644D01*
X11014644Y-8985356D01*
X11085356Y-8985356D01*
X11085356Y-9239356D02*
X11085356Y-9168644D01*
X11014644Y-9168644D01*
X11014644Y-9239356D01*
X11085356Y-9239356D01*
X11085356Y-9493356D02*
X11085356Y-9422644D01*
X11014644Y-9422644D01*
X11014644Y-9493356D01*
X11085356Y-9493356D01*
X11085356Y-10481356D02*
X11085356Y-10410644D01*
X11014644Y-10410644D01*
X11014644Y-10481356D01*
X11085356Y-10481356D01*
X11085356Y-10735356D02*
X11085356Y-10664644D01*
X11014644Y-10664644D01*
X11014644Y-10735356D01*
X11085356Y-10735356D01*
X11085356Y-10989356D02*
X11085356Y-10918644D01*
X11014644Y-10918644D01*
X11014644Y-10989356D01*
X11085356Y-10989356D01*
X11085356Y-11243356D02*
X11085356Y-11172644D01*
X11014644Y-11172644D01*
X11014644Y-11243356D01*
X11085356Y-11243356D01*
X11085356Y-11497356D02*
X11085356Y-11426644D01*
X11014644Y-11426644D01*
X11014644Y-11497356D01*
X11085356Y-11497356D01*
X11085356Y-11751356D02*
X11085356Y-11680644D01*
X11014644Y-11680644D01*
X11014644Y-11751356D01*
X11085356Y-11751356D01*
X12085356Y-7729356D02*
X12085356Y-7658644D01*
X12014644Y-7658644D01*
X12014644Y-7729356D01*
X12085356Y-7729356D01*
X12085356Y-7983356D02*
X12085356Y-7912644D01*
X12014644Y-7912644D01*
X12014644Y-7983356D01*
X12085356Y-7983356D01*
X12085356Y-8237356D02*
X12085356Y-8166644D01*
X12014644Y-8166644D01*
X12014644Y-8237356D01*
X12085356Y-8237356D01*
X12085356Y-8491356D02*
X12085356Y-8420644D01*
X12014644Y-8420644D01*
X12014644Y-8491356D01*
X12085356Y-8491356D01*
X12085356Y-8745356D02*
X12085356Y-8674644D01*
X12014644Y-8674644D01*
X12014644Y-8745356D01*
X12085356Y-8745356D01*
X12085356Y-8999356D02*
X12085356Y-8928644D01*
X12014644Y-8928644D01*
X12014644Y-8999356D01*
X12085356Y-8999356D01*
X12085356Y-9253356D02*
X12085356Y-9182644D01*
X12014644Y-9182644D01*
X12014644Y-9253356D01*
X12085356Y-9253356D01*
X12085356Y-9507356D02*
X12085356Y-9436644D01*
X12014644Y-9436644D01*
X12014644Y-9507356D01*
X12085356Y-9507356D01*
X12085356Y-9761356D02*
X12085356Y-9690644D01*
X12014644Y-9690644D01*
X12014644Y-9761356D01*
X12085356Y-9761356D01*
X12085356Y-10015356D02*
X12085356Y-9944644D01*
X12014644Y-9944644D01*
X12014644Y-10015356D01*
X12085356Y-10015356D01*
X12085356Y-10269356D02*
X12085356Y-10198644D01*
X12014644Y-10198644D01*
X12014644Y-10269356D01*
X12085356Y-10269356D01*
X12085356Y-10523356D02*
X12085356Y-10452644D01*
X12014644Y-10452644D01*
X12014644Y-10523356D01*
X12085356Y-10523356D01*
X12085356Y-10777356D02*
X12085356Y-10706644D01*
X12014644Y-10706644D01*
X12014644Y-10777356D01*
X12085356Y-10777356D01*
X12085356Y-11031356D02*
X12085356Y-10960644D01*
X12014644Y-10960644D01*
X12014644Y-11031356D01*
X12085356Y-11031356D01*
X12085356Y-11285356D02*
X12085356Y-11214644D01*
X12014644Y-11214644D01*
X12014644Y-11285356D01*
X12085356Y-11285356D01*
X12085356Y-11539356D02*
X12085356Y-11468644D01*
X12014644Y-11468644D01*
X12014644Y-11539356D01*
X12085356Y-11539356D01*
X12085356Y-11793356D02*
X12085356Y-11722644D01*
X12014644Y-11722644D01*
X12014644Y-11793356D01*
X12085356Y-11793356D01*
X12085356Y-12047356D02*
X12085356Y-11976644D01*
X12014644Y-11976644D01*
X12014644Y-12047356D01*
X12085356Y-12047356D01*
X12085356Y-12301356D02*
X12085356Y-12230644D01*
X12014644Y-12230644D01*
X12014644Y-12301356D01*
X12085356Y-12301356D01*
X14635356Y-7713356D02*
X14635356Y-7642644D01*
X14564644Y-7642644D01*
X14564644Y-7713356D01*
X14635356Y-7713356D01*
X14635356Y-7967356D02*
X14635356Y-7896644D01*
X14564644Y-7896644D01*
X14564644Y-7967356D01*
X14635356Y-7967356D01*
X14635356Y-8221356D02*
X14635356Y-8150644D01*
X14564644Y-8150644D01*
X14564644Y-8221356D01*
X14635356Y-8221356D01*
X14635356Y-8475356D02*
X14635356Y-8404644D01*
X14564644Y-8404644D01*
X14564644Y-8475356D01*
X14635356Y-8475356D01*
X14635356Y-8729356D02*
X14635356Y-8658644D01*
X14564644Y-8658644D01*
X14564644Y-8729356D01*
X14635356Y-8729356D01*
X14635356Y-8983356D02*
X14635356Y-8912644D01*
X14564644Y-8912644D01*
X14564644Y-8983356D01*
X14635356Y-8983356D01*
X14635356Y-9237356D02*
X14635356Y-9166644D01*
X14564644Y-9166644D01*
X14564644Y-9237356D01*
X14635356Y-9237356D01*
X14635356Y-9491356D02*
X14635356Y-9420644D01*
X14564644Y-9420644D01*
X14564644Y-9491356D01*
X14635356Y-9491356D01*
X14635356Y-9745356D02*
X14635356Y-9674644D01*
X14564644Y-9674644D01*
X14564644Y-9745356D01*
X14635356Y-9745356D01*
X14635356Y-9999356D02*
X14635356Y-9928644D01*
X14564644Y-9928644D01*
X14564644Y-9999356D01*
X14635356Y-9999356D01*
X14635356Y-10253356D02*
X14635356Y-10182644D01*
X14564644Y-10182644D01*
X14564644Y-10253356D01*
X14635356Y-10253356D01*
X14635356Y-10507356D02*
X14635356Y-10436644D01*
X14564644Y-10436644D01*
X14564644Y-10507356D01*
X14635356Y-10507356D01*
X14635356Y-10761356D02*
X14635356Y-10690644D01*
X14564644Y-10690644D01*
X14564644Y-10761356D01*
X14635356Y-10761356D01*
X14635356Y-11015356D02*
X14635356Y-10944644D01*
X14564644Y-10944644D01*
X14564644Y-11015356D01*
X14635356Y-11015356D01*
X14635356Y-11269356D02*
X14635356Y-11198644D01*
X14564644Y-11198644D01*
X14564644Y-11269356D01*
X14635356Y-11269356D01*
X14635356Y-11523356D02*
X14635356Y-11452644D01*
X14564644Y-11452644D01*
X14564644Y-11523356D01*
X14635356Y-11523356D01*
X14635356Y-11777356D02*
X14635356Y-11706644D01*
X14564644Y-11706644D01*
X14564644Y-11777356D01*
X14635356Y-11777356D01*
X14635356Y-12031356D02*
X14635356Y-11960644D01*
X14564644Y-11960644D01*
X14564644Y-12031356D01*
X14635356Y-12031356D01*
X14635356Y-12285356D02*
X14635356Y-12214644D01*
X14564644Y-12214644D01*
X14564644Y-12285356D01*
X14635356Y-12285356D01*
X15635356Y-7727356D02*
X15635356Y-7656644D01*
X15564644Y-7656644D01*
X15564644Y-7727356D01*
X15635356Y-7727356D01*
X15635356Y-7981356D02*
X15635356Y-7910644D01*
X15564644Y-7910644D01*
X15564644Y-7981356D01*
X15635356Y-7981356D01*
X15635356Y-8235356D02*
X15635356Y-8164644D01*
X15564644Y-8164644D01*
X15564644Y-8235356D01*
X15635356Y-8235356D01*
X15635356Y-8489356D02*
X15635356Y-8418644D01*
X15564644Y-8418644D01*
X15564644Y-8489356D01*
X15635356Y-8489356D01*
X15635356Y-8743356D02*
X15635356Y-8672644D01*
X15564644Y-8672644D01*
X15564644Y-8743356D01*
X15635356Y-8743356D01*
X15635356Y-8997356D02*
X15635356Y-8926644D01*
X15564644Y-8926644D01*
X15564644Y-8997356D01*
X15635356Y-8997356D01*
X15635356Y-9251356D02*
X15635356Y-9180644D01*
X15564644Y-9180644D01*
X15564644Y-9251356D01*
X15635356Y-9251356D01*
X15635356Y-9505356D02*
X15635356Y-9434644D01*
X15564644Y-9434644D01*
X15564644Y-9505356D01*
X15635356Y-9505356D01*
X15635356Y-10439356D02*
X15635356Y-10368644D01*
X15564644Y-10368644D01*
X15564644Y-10439356D01*
X15635356Y-10439356D01*
X15635356Y-10693356D02*
X15635356Y-10622644D01*
X15564644Y-10622644D01*
X15564644Y-10693356D01*
X15635356Y-10693356D01*
X15635356Y-10947356D02*
X15635356Y-10876644D01*
X15564644Y-10876644D01*
X15564644Y-10947356D01*
X15635356Y-10947356D01*
X15635356Y-11201356D02*
X15635356Y-11130644D01*
X15564644Y-11130644D01*
X15564644Y-11201356D01*
X15635356Y-11201356D01*
X15635356Y-11455356D02*
X15635356Y-11384644D01*
X15564644Y-11384644D01*
X15564644Y-11455356D01*
X15635356Y-11455356D01*
X15635356Y-11709356D02*
X15635356Y-11638644D01*
X15564644Y-11638644D01*
X15564644Y-11709356D01*
X15635356Y-11709356D01*
X16485356Y-10443356D02*
X16485356Y-10372644D01*
X16414644Y-10372644D01*
X16414644Y-10443356D01*
X16485356Y-10443356D01*
X16485356Y-10697356D02*
X16485356Y-10626644D01*
X16414644Y-10626644D01*
X16414644Y-10697356D01*
X16485356Y-10697356D01*
X16485356Y-10951356D02*
X16485356Y-10880644D01*
X16414644Y-10880644D01*
X16414644Y-10951356D01*
X16485356Y-10951356D01*
X16485356Y-11205356D02*
X16485356Y-11134644D01*
X16414644Y-11134644D01*
X16414644Y-11205356D01*
X16485356Y-11205356D01*
X16485356Y-11459356D02*
X16485356Y-11388644D01*
X16414644Y-11388644D01*
X16414644Y-11459356D01*
X16485356Y-11459356D01*
X16485356Y-11713356D02*
X16485356Y-11642644D01*
X16414644Y-11642644D01*
X16414644Y-11713356D01*
X16485356Y-11713356D01*
X17135356Y-7727356D02*
X17135356Y-7656644D01*
X17064644Y-7656644D01*
X17064644Y-7727356D01*
X17135356Y-7727356D01*
X17135356Y-7981356D02*
X17135356Y-7910644D01*
X17064644Y-7910644D01*
X17064644Y-7981356D01*
X17135356Y-7981356D01*
X17135356Y-8235356D02*
X17135356Y-8164644D01*
X17064644Y-8164644D01*
X17064644Y-8235356D01*
X17135356Y-8235356D01*
X17135356Y-8489356D02*
X17135356Y-8418644D01*
X17064644Y-8418644D01*
X17064644Y-8489356D01*
X17135356Y-8489356D01*
X17135356Y-8743356D02*
X17135356Y-8672644D01*
X17064644Y-8672644D01*
X17064644Y-8743356D01*
X17135356Y-8743356D01*
X17135356Y-8997356D02*
X17135356Y-8926644D01*
X17064644Y-8926644D01*
X17064644Y-8997356D01*
X17135356Y-8997356D01*
X17135356Y-9251356D02*
X17135356Y-9180644D01*
X17064644Y-9180644D01*
X17064644Y-9251356D01*
X17135356Y-9251356D01*
X17135356Y-9505356D02*
X17135356Y-9434644D01*
X17064644Y-9434644D01*
X17064644Y-9505356D01*
X17135356Y-9505356D01*
X17285356Y-10697356D02*
X17285356Y-10626644D01*
X17214644Y-10626644D01*
X17214644Y-10697356D01*
X17285356Y-10697356D01*
X17285356Y-10951356D02*
X17285356Y-10880644D01*
X17214644Y-10880644D01*
X17214644Y-10951356D01*
X17285356Y-10951356D01*
X17285356Y-11205356D02*
X17285356Y-11134644D01*
X17214644Y-11134644D01*
X17214644Y-11205356D01*
X17285356Y-11205356D01*
X17285356Y-11459356D02*
X17285356Y-11388644D01*
X17214644Y-11388644D01*
X17214644Y-11459356D01*
X17285356Y-11459356D01*
D13*
X11300000Y-6515000D02*
X11365000Y-6450000D01*
X11300000Y-6385000D01*
X11235000Y-6450000D01*
X11300000Y-6515000D01*
X11800000Y-6515000D02*
X11865000Y-6450000D01*
X11800000Y-6385000D01*
X11735000Y-6450000D01*
X11800000Y-6515000D01*
X14650000Y-6515000D02*
X14715000Y-6450000D01*
X14650000Y-6385000D01*
X14585000Y-6450000D01*
X14650000Y-6515000D01*
X15150000Y-6515000D02*
X15215000Y-6450000D01*
X15150000Y-6385000D01*
X15085000Y-6450000D01*
X15150000Y-6515000D01*
D11*
X9158277Y-13663984D02*
X9158277Y-13463984D01*
X9158277Y-13463984D02*
X9205896Y-13463984D01*
X9205896Y-13463984D02*
X9234467Y-13473508D01*
X9234467Y-13473508D02*
X9253515Y-13492555D01*
X9253515Y-13492555D02*
X9263039Y-13511603D01*
X9263039Y-13511603D02*
X9272563Y-13549698D01*
X9272563Y-13549698D02*
X9272563Y-13578269D01*
X9272563Y-13578269D02*
X9263039Y-13616365D01*
X9263039Y-13616365D02*
X9253515Y-13635412D01*
X9253515Y-13635412D02*
X9234467Y-13654460D01*
X9234467Y-13654460D02*
X9205896Y-13663984D01*
X9205896Y-13663984D02*
X9158277Y-13663984D01*
X9358277Y-13663984D02*
X9358277Y-13530650D01*
X9358277Y-13568746D02*
X9367801Y-13549698D01*
X9367801Y-13549698D02*
X9377324Y-13540174D01*
X9377324Y-13540174D02*
X9396372Y-13530650D01*
X9396372Y-13530650D02*
X9415420Y-13530650D01*
X9482086Y-13663984D02*
X9482086Y-13530650D01*
X9482086Y-13463984D02*
X9472563Y-13473508D01*
X9472563Y-13473508D02*
X9482086Y-13483031D01*
X9482086Y-13483031D02*
X9491610Y-13473508D01*
X9491610Y-13473508D02*
X9482086Y-13463984D01*
X9482086Y-13463984D02*
X9482086Y-13483031D01*
X9605896Y-13663984D02*
X9586848Y-13654460D01*
X9586848Y-13654460D02*
X9577324Y-13635412D01*
X9577324Y-13635412D02*
X9577324Y-13463984D01*
X9710658Y-13663984D02*
X9691610Y-13654460D01*
X9691610Y-13654460D02*
X9682086Y-13635412D01*
X9682086Y-13635412D02*
X9682086Y-13463984D01*
X9939229Y-13663984D02*
X9939229Y-13463984D01*
X9939229Y-13463984D02*
X10005896Y-13606841D01*
X10005896Y-13606841D02*
X10072563Y-13463984D01*
X10072563Y-13463984D02*
X10072563Y-13663984D01*
X10253515Y-13663984D02*
X10253515Y-13559222D01*
X10253515Y-13559222D02*
X10243991Y-13540174D01*
X10243991Y-13540174D02*
X10224944Y-13530650D01*
X10224944Y-13530650D02*
X10186848Y-13530650D01*
X10186848Y-13530650D02*
X10167801Y-13540174D01*
X10253515Y-13654460D02*
X10234467Y-13663984D01*
X10234467Y-13663984D02*
X10186848Y-13663984D01*
X10186848Y-13663984D02*
X10167801Y-13654460D01*
X10167801Y-13654460D02*
X10158277Y-13635412D01*
X10158277Y-13635412D02*
X10158277Y-13616365D01*
X10158277Y-13616365D02*
X10167801Y-13597317D01*
X10167801Y-13597317D02*
X10186848Y-13587793D01*
X10186848Y-13587793D02*
X10234467Y-13587793D01*
X10234467Y-13587793D02*
X10253515Y-13578269D01*
X10348753Y-13530650D02*
X10348753Y-13730650D01*
X10348753Y-13540174D02*
X10367801Y-13530650D01*
X10367801Y-13530650D02*
X10405896Y-13530650D01*
X10405896Y-13530650D02*
X10424944Y-13540174D01*
X10424944Y-13540174D02*
X10434467Y-13549698D01*
X10434467Y-13549698D02*
X10443991Y-13568746D01*
X10443991Y-13568746D02*
X10443991Y-13625888D01*
X10443991Y-13625888D02*
X10434467Y-13644936D01*
X10434467Y-13644936D02*
X10424944Y-13654460D01*
X10424944Y-13654460D02*
X10405896Y-13663984D01*
X10405896Y-13663984D02*
X10367801Y-13663984D01*
X10367801Y-13663984D02*
X10348753Y-13654460D01*
X10529705Y-13644936D02*
X10539229Y-13654460D01*
X10539229Y-13654460D02*
X10529705Y-13663984D01*
X10529705Y-13663984D02*
X10520182Y-13654460D01*
X10520182Y-13654460D02*
X10529705Y-13644936D01*
X10529705Y-13644936D02*
X10529705Y-13663984D01*
X10529705Y-13540174D02*
X10539229Y-13549698D01*
X10539229Y-13549698D02*
X10529705Y-13559222D01*
X10529705Y-13559222D02*
X10520182Y-13549698D01*
X10520182Y-13549698D02*
X10529705Y-13540174D01*
X10529705Y-13540174D02*
X10529705Y-13559222D01*
D12*
X8867500Y-13977500D02*
X8897500Y-14007500D01*
X8897500Y-13977500D02*
X8867500Y-14007500D01*
D11*
X9196372Y-13883984D02*
X9215420Y-13883984D01*
X9215420Y-13883984D02*
X9234467Y-13893508D01*
X9234467Y-13893508D02*
X9243991Y-13903031D01*
X9243991Y-13903031D02*
X9253515Y-13922079D01*
X9253515Y-13922079D02*
X9263039Y-13960174D01*
X9263039Y-13960174D02*
X9263039Y-14007793D01*
X9263039Y-14007793D02*
X9253515Y-14045888D01*
X9253515Y-14045888D02*
X9243991Y-14064936D01*
X9243991Y-14064936D02*
X9234467Y-14074460D01*
X9234467Y-14074460D02*
X9215420Y-14083984D01*
X9215420Y-14083984D02*
X9196372Y-14083984D01*
X9196372Y-14083984D02*
X9177324Y-14074460D01*
X9177324Y-14074460D02*
X9167801Y-14064936D01*
X9167801Y-14064936D02*
X9158277Y-14045888D01*
X9158277Y-14045888D02*
X9148753Y-14007793D01*
X9148753Y-14007793D02*
X9148753Y-13960174D01*
X9148753Y-13960174D02*
X9158277Y-13922079D01*
X9158277Y-13922079D02*
X9167801Y-13903031D01*
X9167801Y-13903031D02*
X9177324Y-13893508D01*
X9177324Y-13893508D02*
X9196372Y-13883984D01*
X9348753Y-14064936D02*
X9358277Y-14074460D01*
X9358277Y-14074460D02*
X9348753Y-14083984D01*
X9348753Y-14083984D02*
X9339229Y-14074460D01*
X9339229Y-14074460D02*
X9348753Y-14064936D01*
X9348753Y-14064936D02*
X9348753Y-14083984D01*
X9424944Y-13883984D02*
X9548753Y-13883984D01*
X9548753Y-13883984D02*
X9482086Y-13960174D01*
X9482086Y-13960174D02*
X9510658Y-13960174D01*
X9510658Y-13960174D02*
X9529705Y-13969698D01*
X9529705Y-13969698D02*
X9539229Y-13979222D01*
X9539229Y-13979222D02*
X9548753Y-13998269D01*
X9548753Y-13998269D02*
X9548753Y-14045888D01*
X9548753Y-14045888D02*
X9539229Y-14064936D01*
X9539229Y-14064936D02*
X9529705Y-14074460D01*
X9529705Y-14074460D02*
X9510658Y-14083984D01*
X9510658Y-14083984D02*
X9453515Y-14083984D01*
X9453515Y-14083984D02*
X9434467Y-14074460D01*
X9434467Y-14074460D02*
X9424944Y-14064936D01*
X9672563Y-13883984D02*
X9691610Y-13883984D01*
X9691610Y-13883984D02*
X9710658Y-13893508D01*
X9710658Y-13893508D02*
X9720182Y-13903031D01*
X9720182Y-13903031D02*
X9729705Y-13922079D01*
X9729705Y-13922079D02*
X9739229Y-13960174D01*
X9739229Y-13960174D02*
X9739229Y-14007793D01*
X9739229Y-14007793D02*
X9729705Y-14045888D01*
X9729705Y-14045888D02*
X9720182Y-14064936D01*
X9720182Y-14064936D02*
X9710658Y-14074460D01*
X9710658Y-14074460D02*
X9691610Y-14083984D01*
X9691610Y-14083984D02*
X9672563Y-14083984D01*
X9672563Y-14083984D02*
X9653515Y-14074460D01*
X9653515Y-14074460D02*
X9643991Y-14064936D01*
X9643991Y-14064936D02*
X9634467Y-14045888D01*
X9634467Y-14045888D02*
X9624944Y-14007793D01*
X9624944Y-14007793D02*
X9624944Y-13960174D01*
X9624944Y-13960174D02*
X9634467Y-13922079D01*
X9634467Y-13922079D02*
X9643991Y-13903031D01*
X9643991Y-13903031D02*
X9653515Y-13893508D01*
X9653515Y-13893508D02*
X9672563Y-13883984D01*
X9863039Y-13883984D02*
X9882086Y-13883984D01*
X9882086Y-13883984D02*
X9901134Y-13893508D01*
X9901134Y-13893508D02*
X9910658Y-13903031D01*
X9910658Y-13903031D02*
X9920182Y-13922079D01*
X9920182Y-13922079D02*
X9929705Y-13960174D01*
X9929705Y-13960174D02*
X9929705Y-14007793D01*
X9929705Y-14007793D02*
X9920182Y-14045888D01*
X9920182Y-14045888D02*
X9910658Y-14064936D01*
X9910658Y-14064936D02*
X9901134Y-14074460D01*
X9901134Y-14074460D02*
X9882086Y-14083984D01*
X9882086Y-14083984D02*
X9863039Y-14083984D01*
X9863039Y-14083984D02*
X9843991Y-14074460D01*
X9843991Y-14074460D02*
X9834467Y-14064936D01*
X9834467Y-14064936D02*
X9824944Y-14045888D01*
X9824944Y-14045888D02*
X9815420Y-14007793D01*
X9815420Y-14007793D02*
X9815420Y-13960174D01*
X9815420Y-13960174D02*
X9824944Y-13922079D01*
X9824944Y-13922079D02*
X9834467Y-13903031D01*
X9834467Y-13903031D02*
X9843991Y-13893508D01*
X9843991Y-13893508D02*
X9863039Y-13883984D01*
X10015420Y-14083984D02*
X10015420Y-13950650D01*
X10015420Y-13969698D02*
X10024944Y-13960174D01*
X10024944Y-13960174D02*
X10043991Y-13950650D01*
X10043991Y-13950650D02*
X10072563Y-13950650D01*
X10072563Y-13950650D02*
X10091610Y-13960174D01*
X10091610Y-13960174D02*
X10101134Y-13979222D01*
X10101134Y-13979222D02*
X10101134Y-14083984D01*
X10101134Y-13979222D02*
X10110658Y-13960174D01*
X10110658Y-13960174D02*
X10129705Y-13950650D01*
X10129705Y-13950650D02*
X10158277Y-13950650D01*
X10158277Y-13950650D02*
X10177325Y-13960174D01*
X10177325Y-13960174D02*
X10186848Y-13979222D01*
X10186848Y-13979222D02*
X10186848Y-14083984D01*
X10282086Y-14083984D02*
X10282086Y-13950650D01*
X10282086Y-13969698D02*
X10291610Y-13960174D01*
X10291610Y-13960174D02*
X10310658Y-13950650D01*
X10310658Y-13950650D02*
X10339229Y-13950650D01*
X10339229Y-13950650D02*
X10358277Y-13960174D01*
X10358277Y-13960174D02*
X10367801Y-13979222D01*
X10367801Y-13979222D02*
X10367801Y-14083984D01*
X10367801Y-13979222D02*
X10377325Y-13960174D01*
X10377325Y-13960174D02*
X10396372Y-13950650D01*
X10396372Y-13950650D02*
X10424944Y-13950650D01*
X10424944Y-13950650D02*
X10443991Y-13960174D01*
X10443991Y-13960174D02*
X10453515Y-13979222D01*
X10453515Y-13979222D02*
X10453515Y-14083984D01*
X10843991Y-13874460D02*
X10672563Y-14131603D01*
X11101134Y-13883984D02*
X11120182Y-13883984D01*
X11120182Y-13883984D02*
X11139229Y-13893508D01*
X11139229Y-13893508D02*
X11148753Y-13903031D01*
X11148753Y-13903031D02*
X11158277Y-13922079D01*
X11158277Y-13922079D02*
X11167801Y-13960174D01*
X11167801Y-13960174D02*
X11167801Y-14007793D01*
X11167801Y-14007793D02*
X11158277Y-14045888D01*
X11158277Y-14045888D02*
X11148753Y-14064936D01*
X11148753Y-14064936D02*
X11139229Y-14074460D01*
X11139229Y-14074460D02*
X11120182Y-14083984D01*
X11120182Y-14083984D02*
X11101134Y-14083984D01*
X11101134Y-14083984D02*
X11082087Y-14074460D01*
X11082087Y-14074460D02*
X11072563Y-14064936D01*
X11072563Y-14064936D02*
X11063039Y-14045888D01*
X11063039Y-14045888D02*
X11053515Y-14007793D01*
X11053515Y-14007793D02*
X11053515Y-13960174D01*
X11053515Y-13960174D02*
X11063039Y-13922079D01*
X11063039Y-13922079D02*
X11072563Y-13903031D01*
X11072563Y-13903031D02*
X11082087Y-13893508D01*
X11082087Y-13893508D02*
X11101134Y-13883984D01*
X11253515Y-14064936D02*
X11263039Y-14074460D01*
X11263039Y-14074460D02*
X11253515Y-14083984D01*
X11253515Y-14083984D02*
X11243991Y-14074460D01*
X11243991Y-14074460D02*
X11253515Y-14064936D01*
X11253515Y-14064936D02*
X11253515Y-14083984D01*
X11386848Y-13883984D02*
X11405896Y-13883984D01*
X11405896Y-13883984D02*
X11424944Y-13893508D01*
X11424944Y-13893508D02*
X11434467Y-13903031D01*
X11434467Y-13903031D02*
X11443991Y-13922079D01*
X11443991Y-13922079D02*
X11453515Y-13960174D01*
X11453515Y-13960174D02*
X11453515Y-14007793D01*
X11453515Y-14007793D02*
X11443991Y-14045888D01*
X11443991Y-14045888D02*
X11434467Y-14064936D01*
X11434467Y-14064936D02*
X11424944Y-14074460D01*
X11424944Y-14074460D02*
X11405896Y-14083984D01*
X11405896Y-14083984D02*
X11386848Y-14083984D01*
X11386848Y-14083984D02*
X11367801Y-14074460D01*
X11367801Y-14074460D02*
X11358277Y-14064936D01*
X11358277Y-14064936D02*
X11348753Y-14045888D01*
X11348753Y-14045888D02*
X11339229Y-14007793D01*
X11339229Y-14007793D02*
X11339229Y-13960174D01*
X11339229Y-13960174D02*
X11348753Y-13922079D01*
X11348753Y-13922079D02*
X11358277Y-13903031D01*
X11358277Y-13903031D02*
X11367801Y-13893508D01*
X11367801Y-13893508D02*
X11386848Y-13883984D01*
X11643991Y-14083984D02*
X11529706Y-14083984D01*
X11586848Y-14083984D02*
X11586848Y-13883984D01*
X11586848Y-13883984D02*
X11567801Y-13912555D01*
X11567801Y-13912555D02*
X11548753Y-13931603D01*
X11548753Y-13931603D02*
X11529706Y-13941127D01*
X11834467Y-14083984D02*
X11720182Y-14083984D01*
X11777325Y-14083984D02*
X11777325Y-13883984D01*
X11777325Y-13883984D02*
X11758277Y-13912555D01*
X11758277Y-13912555D02*
X11739229Y-13931603D01*
X11739229Y-13931603D02*
X11720182Y-13941127D01*
X11948753Y-13969698D02*
X11929706Y-13960174D01*
X11929706Y-13960174D02*
X11920182Y-13950650D01*
X11920182Y-13950650D02*
X11910658Y-13931603D01*
X11910658Y-13931603D02*
X11910658Y-13922079D01*
X11910658Y-13922079D02*
X11920182Y-13903031D01*
X11920182Y-13903031D02*
X11929706Y-13893508D01*
X11929706Y-13893508D02*
X11948753Y-13883984D01*
X11948753Y-13883984D02*
X11986848Y-13883984D01*
X11986848Y-13883984D02*
X12005896Y-13893508D01*
X12005896Y-13893508D02*
X12015420Y-13903031D01*
X12015420Y-13903031D02*
X12024944Y-13922079D01*
X12024944Y-13922079D02*
X12024944Y-13931603D01*
X12024944Y-13931603D02*
X12015420Y-13950650D01*
X12015420Y-13950650D02*
X12005896Y-13960174D01*
X12005896Y-13960174D02*
X11986848Y-13969698D01*
X11986848Y-13969698D02*
X11948753Y-13969698D01*
X11948753Y-13969698D02*
X11929706Y-13979222D01*
X11929706Y-13979222D02*
X11920182Y-13988746D01*
X11920182Y-13988746D02*
X11910658Y-14007793D01*
X11910658Y-14007793D02*
X11910658Y-14045888D01*
X11910658Y-14045888D02*
X11920182Y-14064936D01*
X11920182Y-14064936D02*
X11929706Y-14074460D01*
X11929706Y-14074460D02*
X11948753Y-14083984D01*
X11948753Y-14083984D02*
X11986848Y-14083984D01*
X11986848Y-14083984D02*
X12005896Y-14074460D01*
X12005896Y-14074460D02*
X12015420Y-14064936D01*
X12015420Y-14064936D02*
X12024944Y-14045888D01*
X12024944Y-14045888D02*
X12024944Y-14007793D01*
X12024944Y-14007793D02*
X12015420Y-13988746D01*
X12015420Y-13988746D02*
X12005896Y-13979222D01*
X12005896Y-13979222D02*
X11986848Y-13969698D01*
X12101134Y-13883984D02*
X12101134Y-13922079D01*
X12177325Y-13883984D02*
X12177325Y-13922079D01*
X12472563Y-14160174D02*
X12463039Y-14150650D01*
X12463039Y-14150650D02*
X12443991Y-14122079D01*
X12443991Y-14122079D02*
X12434468Y-14103031D01*
X12434468Y-14103031D02*
X12424944Y-14074460D01*
X12424944Y-14074460D02*
X12415420Y-14026841D01*
X12415420Y-14026841D02*
X12415420Y-13988746D01*
X12415420Y-13988746D02*
X12424944Y-13941127D01*
X12424944Y-13941127D02*
X12434468Y-13912555D01*
X12434468Y-13912555D02*
X12443991Y-13893508D01*
X12443991Y-13893508D02*
X12463039Y-13864936D01*
X12463039Y-13864936D02*
X12472563Y-13855412D01*
X12634468Y-13883984D02*
X12596372Y-13883984D01*
X12596372Y-13883984D02*
X12577325Y-13893508D01*
X12577325Y-13893508D02*
X12567801Y-13903031D01*
X12567801Y-13903031D02*
X12548753Y-13931603D01*
X12548753Y-13931603D02*
X12539229Y-13969698D01*
X12539229Y-13969698D02*
X12539229Y-14045888D01*
X12539229Y-14045888D02*
X12548753Y-14064936D01*
X12548753Y-14064936D02*
X12558277Y-14074460D01*
X12558277Y-14074460D02*
X12577325Y-14083984D01*
X12577325Y-14083984D02*
X12615420Y-14083984D01*
X12615420Y-14083984D02*
X12634468Y-14074460D01*
X12634468Y-14074460D02*
X12643991Y-14064936D01*
X12643991Y-14064936D02*
X12653515Y-14045888D01*
X12653515Y-14045888D02*
X12653515Y-13998269D01*
X12653515Y-13998269D02*
X12643991Y-13979222D01*
X12643991Y-13979222D02*
X12634468Y-13969698D01*
X12634468Y-13969698D02*
X12615420Y-13960174D01*
X12615420Y-13960174D02*
X12577325Y-13960174D01*
X12577325Y-13960174D02*
X12558277Y-13969698D01*
X12558277Y-13969698D02*
X12548753Y-13979222D01*
X12548753Y-13979222D02*
X12539229Y-13998269D01*
X12824944Y-13883984D02*
X12786848Y-13883984D01*
X12786848Y-13883984D02*
X12767801Y-13893508D01*
X12767801Y-13893508D02*
X12758277Y-13903031D01*
X12758277Y-13903031D02*
X12739229Y-13931603D01*
X12739229Y-13931603D02*
X12729706Y-13969698D01*
X12729706Y-13969698D02*
X12729706Y-14045888D01*
X12729706Y-14045888D02*
X12739229Y-14064936D01*
X12739229Y-14064936D02*
X12748753Y-14074460D01*
X12748753Y-14074460D02*
X12767801Y-14083984D01*
X12767801Y-14083984D02*
X12805896Y-14083984D01*
X12805896Y-14083984D02*
X12824944Y-14074460D01*
X12824944Y-14074460D02*
X12834468Y-14064936D01*
X12834468Y-14064936D02*
X12843991Y-14045888D01*
X12843991Y-14045888D02*
X12843991Y-13998269D01*
X12843991Y-13998269D02*
X12834468Y-13979222D01*
X12834468Y-13979222D02*
X12824944Y-13969698D01*
X12824944Y-13969698D02*
X12805896Y-13960174D01*
X12805896Y-13960174D02*
X12767801Y-13960174D01*
X12767801Y-13960174D02*
X12748753Y-13969698D01*
X12748753Y-13969698D02*
X12739229Y-13979222D01*
X12739229Y-13979222D02*
X12729706Y-13998269D01*
X13082087Y-14083984D02*
X13082087Y-13883984D01*
X13167801Y-14083984D02*
X13167801Y-13979222D01*
X13167801Y-13979222D02*
X13158277Y-13960174D01*
X13158277Y-13960174D02*
X13139230Y-13950650D01*
X13139230Y-13950650D02*
X13110658Y-13950650D01*
X13110658Y-13950650D02*
X13091610Y-13960174D01*
X13091610Y-13960174D02*
X13082087Y-13969698D01*
X13291610Y-14083984D02*
X13272563Y-14074460D01*
X13272563Y-14074460D02*
X13263039Y-14064936D01*
X13263039Y-14064936D02*
X13253515Y-14045888D01*
X13253515Y-14045888D02*
X13253515Y-13988746D01*
X13253515Y-13988746D02*
X13263039Y-13969698D01*
X13263039Y-13969698D02*
X13272563Y-13960174D01*
X13272563Y-13960174D02*
X13291610Y-13950650D01*
X13291610Y-13950650D02*
X13320182Y-13950650D01*
X13320182Y-13950650D02*
X13339230Y-13960174D01*
X13339230Y-13960174D02*
X13348753Y-13969698D01*
X13348753Y-13969698D02*
X13358277Y-13988746D01*
X13358277Y-13988746D02*
X13358277Y-14045888D01*
X13358277Y-14045888D02*
X13348753Y-14064936D01*
X13348753Y-14064936D02*
X13339230Y-14074460D01*
X13339230Y-14074460D02*
X13320182Y-14083984D01*
X13320182Y-14083984D02*
X13291610Y-14083984D01*
X13472563Y-14083984D02*
X13453515Y-14074460D01*
X13453515Y-14074460D02*
X13443991Y-14055412D01*
X13443991Y-14055412D02*
X13443991Y-13883984D01*
X13624944Y-14074460D02*
X13605896Y-14083984D01*
X13605896Y-14083984D02*
X13567801Y-14083984D01*
X13567801Y-14083984D02*
X13548753Y-14074460D01*
X13548753Y-14074460D02*
X13539230Y-14055412D01*
X13539230Y-14055412D02*
X13539230Y-13979222D01*
X13539230Y-13979222D02*
X13548753Y-13960174D01*
X13548753Y-13960174D02*
X13567801Y-13950650D01*
X13567801Y-13950650D02*
X13605896Y-13950650D01*
X13605896Y-13950650D02*
X13624944Y-13960174D01*
X13624944Y-13960174D02*
X13634468Y-13979222D01*
X13634468Y-13979222D02*
X13634468Y-13998269D01*
X13634468Y-13998269D02*
X13539230Y-14017317D01*
X13710658Y-14074460D02*
X13729706Y-14083984D01*
X13729706Y-14083984D02*
X13767801Y-14083984D01*
X13767801Y-14083984D02*
X13786849Y-14074460D01*
X13786849Y-14074460D02*
X13796372Y-14055412D01*
X13796372Y-14055412D02*
X13796372Y-14045888D01*
X13796372Y-14045888D02*
X13786849Y-14026841D01*
X13786849Y-14026841D02*
X13767801Y-14017317D01*
X13767801Y-14017317D02*
X13739230Y-14017317D01*
X13739230Y-14017317D02*
X13720182Y-14007793D01*
X13720182Y-14007793D02*
X13710658Y-13988746D01*
X13710658Y-13988746D02*
X13710658Y-13979222D01*
X13710658Y-13979222D02*
X13720182Y-13960174D01*
X13720182Y-13960174D02*
X13739230Y-13950650D01*
X13739230Y-13950650D02*
X13767801Y-13950650D01*
X13767801Y-13950650D02*
X13786849Y-13960174D01*
X13863039Y-14160174D02*
X13872563Y-14150650D01*
X13872563Y-14150650D02*
X13891611Y-14122079D01*
X13891611Y-14122079D02*
X13901134Y-14103031D01*
X13901134Y-14103031D02*
X13910658Y-14074460D01*
X13910658Y-14074460D02*
X13920182Y-14026841D01*
X13920182Y-14026841D02*
X13920182Y-13988746D01*
X13920182Y-13988746D02*
X13910658Y-13941127D01*
X13910658Y-13941127D02*
X13901134Y-13912555D01*
X13901134Y-13912555D02*
X13891611Y-13893508D01*
X13891611Y-13893508D02*
X13872563Y-13864936D01*
X13872563Y-13864936D02*
X13863039Y-13855412D01*
D12*
X8897500Y-14256500D02*
G75*
G02*
X8817500Y-14256500I-40000J0D01*
G01*
X8817500Y-14256500D02*
G75*
G02*
X8897500Y-14256500I40000J0D01*
G01*
D11*
X9196372Y-14147984D02*
X9215420Y-14147984D01*
X9215420Y-14147984D02*
X9234467Y-14157508D01*
X9234467Y-14157508D02*
X9243991Y-14167031D01*
X9243991Y-14167031D02*
X9253515Y-14186079D01*
X9253515Y-14186079D02*
X9263039Y-14224174D01*
X9263039Y-14224174D02*
X9263039Y-14271793D01*
X9263039Y-14271793D02*
X9253515Y-14309888D01*
X9253515Y-14309888D02*
X9243991Y-14328936D01*
X9243991Y-14328936D02*
X9234467Y-14338460D01*
X9234467Y-14338460D02*
X9215420Y-14347984D01*
X9215420Y-14347984D02*
X9196372Y-14347984D01*
X9196372Y-14347984D02*
X9177324Y-14338460D01*
X9177324Y-14338460D02*
X9167801Y-14328936D01*
X9167801Y-14328936D02*
X9158277Y-14309888D01*
X9158277Y-14309888D02*
X9148753Y-14271793D01*
X9148753Y-14271793D02*
X9148753Y-14224174D01*
X9148753Y-14224174D02*
X9158277Y-14186079D01*
X9158277Y-14186079D02*
X9167801Y-14167031D01*
X9167801Y-14167031D02*
X9177324Y-14157508D01*
X9177324Y-14157508D02*
X9196372Y-14147984D01*
X9348753Y-14328936D02*
X9358277Y-14338460D01*
X9358277Y-14338460D02*
X9348753Y-14347984D01*
X9348753Y-14347984D02*
X9339229Y-14338460D01*
X9339229Y-14338460D02*
X9348753Y-14328936D01*
X9348753Y-14328936D02*
X9348753Y-14347984D01*
X9472563Y-14233698D02*
X9453515Y-14224174D01*
X9453515Y-14224174D02*
X9443991Y-14214650D01*
X9443991Y-14214650D02*
X9434467Y-14195603D01*
X9434467Y-14195603D02*
X9434467Y-14186079D01*
X9434467Y-14186079D02*
X9443991Y-14167031D01*
X9443991Y-14167031D02*
X9453515Y-14157508D01*
X9453515Y-14157508D02*
X9472563Y-14147984D01*
X9472563Y-14147984D02*
X9510658Y-14147984D01*
X9510658Y-14147984D02*
X9529705Y-14157508D01*
X9529705Y-14157508D02*
X9539229Y-14167031D01*
X9539229Y-14167031D02*
X9548753Y-14186079D01*
X9548753Y-14186079D02*
X9548753Y-14195603D01*
X9548753Y-14195603D02*
X9539229Y-14214650D01*
X9539229Y-14214650D02*
X9529705Y-14224174D01*
X9529705Y-14224174D02*
X9510658Y-14233698D01*
X9510658Y-14233698D02*
X9472563Y-14233698D01*
X9472563Y-14233698D02*
X9453515Y-14243222D01*
X9453515Y-14243222D02*
X9443991Y-14252746D01*
X9443991Y-14252746D02*
X9434467Y-14271793D01*
X9434467Y-14271793D02*
X9434467Y-14309888D01*
X9434467Y-14309888D02*
X9443991Y-14328936D01*
X9443991Y-14328936D02*
X9453515Y-14338460D01*
X9453515Y-14338460D02*
X9472563Y-14347984D01*
X9472563Y-14347984D02*
X9510658Y-14347984D01*
X9510658Y-14347984D02*
X9529705Y-14338460D01*
X9529705Y-14338460D02*
X9539229Y-14328936D01*
X9539229Y-14328936D02*
X9548753Y-14309888D01*
X9548753Y-14309888D02*
X9548753Y-14271793D01*
X9548753Y-14271793D02*
X9539229Y-14252746D01*
X9539229Y-14252746D02*
X9529705Y-14243222D01*
X9529705Y-14243222D02*
X9510658Y-14233698D01*
X9672563Y-14147984D02*
X9691610Y-14147984D01*
X9691610Y-14147984D02*
X9710658Y-14157508D01*
X9710658Y-14157508D02*
X9720182Y-14167031D01*
X9720182Y-14167031D02*
X9729705Y-14186079D01*
X9729705Y-14186079D02*
X9739229Y-14224174D01*
X9739229Y-14224174D02*
X9739229Y-14271793D01*
X9739229Y-14271793D02*
X9729705Y-14309888D01*
X9729705Y-14309888D02*
X9720182Y-14328936D01*
X9720182Y-14328936D02*
X9710658Y-14338460D01*
X9710658Y-14338460D02*
X9691610Y-14347984D01*
X9691610Y-14347984D02*
X9672563Y-14347984D01*
X9672563Y-14347984D02*
X9653515Y-14338460D01*
X9653515Y-14338460D02*
X9643991Y-14328936D01*
X9643991Y-14328936D02*
X9634467Y-14309888D01*
X9634467Y-14309888D02*
X9624944Y-14271793D01*
X9624944Y-14271793D02*
X9624944Y-14224174D01*
X9624944Y-14224174D02*
X9634467Y-14186079D01*
X9634467Y-14186079D02*
X9643991Y-14167031D01*
X9643991Y-14167031D02*
X9653515Y-14157508D01*
X9653515Y-14157508D02*
X9672563Y-14147984D01*
X9863039Y-14147984D02*
X9882086Y-14147984D01*
X9882086Y-14147984D02*
X9901134Y-14157508D01*
X9901134Y-14157508D02*
X9910658Y-14167031D01*
X9910658Y-14167031D02*
X9920182Y-14186079D01*
X9920182Y-14186079D02*
X9929705Y-14224174D01*
X9929705Y-14224174D02*
X9929705Y-14271793D01*
X9929705Y-14271793D02*
X9920182Y-14309888D01*
X9920182Y-14309888D02*
X9910658Y-14328936D01*
X9910658Y-14328936D02*
X9901134Y-14338460D01*
X9901134Y-14338460D02*
X9882086Y-14347984D01*
X9882086Y-14347984D02*
X9863039Y-14347984D01*
X9863039Y-14347984D02*
X9843991Y-14338460D01*
X9843991Y-14338460D02*
X9834467Y-14328936D01*
X9834467Y-14328936D02*
X9824944Y-14309888D01*
X9824944Y-14309888D02*
X9815420Y-14271793D01*
X9815420Y-14271793D02*
X9815420Y-14224174D01*
X9815420Y-14224174D02*
X9824944Y-14186079D01*
X9824944Y-14186079D02*
X9834467Y-14167031D01*
X9834467Y-14167031D02*
X9843991Y-14157508D01*
X9843991Y-14157508D02*
X9863039Y-14147984D01*
X10015420Y-14347984D02*
X10015420Y-14214650D01*
X10015420Y-14233698D02*
X10024944Y-14224174D01*
X10024944Y-14224174D02*
X10043991Y-14214650D01*
X10043991Y-14214650D02*
X10072563Y-14214650D01*
X10072563Y-14214650D02*
X10091610Y-14224174D01*
X10091610Y-14224174D02*
X10101134Y-14243222D01*
X10101134Y-14243222D02*
X10101134Y-14347984D01*
X10101134Y-14243222D02*
X10110658Y-14224174D01*
X10110658Y-14224174D02*
X10129705Y-14214650D01*
X10129705Y-14214650D02*
X10158277Y-14214650D01*
X10158277Y-14214650D02*
X10177325Y-14224174D01*
X10177325Y-14224174D02*
X10186848Y-14243222D01*
X10186848Y-14243222D02*
X10186848Y-14347984D01*
X10282086Y-14347984D02*
X10282086Y-14214650D01*
X10282086Y-14233698D02*
X10291610Y-14224174D01*
X10291610Y-14224174D02*
X10310658Y-14214650D01*
X10310658Y-14214650D02*
X10339229Y-14214650D01*
X10339229Y-14214650D02*
X10358277Y-14224174D01*
X10358277Y-14224174D02*
X10367801Y-14243222D01*
X10367801Y-14243222D02*
X10367801Y-14347984D01*
X10367801Y-14243222D02*
X10377325Y-14224174D01*
X10377325Y-14224174D02*
X10396372Y-14214650D01*
X10396372Y-14214650D02*
X10424944Y-14214650D01*
X10424944Y-14214650D02*
X10443991Y-14224174D01*
X10443991Y-14224174D02*
X10453515Y-14243222D01*
X10453515Y-14243222D02*
X10453515Y-14347984D01*
X10843991Y-14138460D02*
X10672563Y-14395603D01*
X11101134Y-14147984D02*
X11120182Y-14147984D01*
X11120182Y-14147984D02*
X11139229Y-14157508D01*
X11139229Y-14157508D02*
X11148753Y-14167031D01*
X11148753Y-14167031D02*
X11158277Y-14186079D01*
X11158277Y-14186079D02*
X11167801Y-14224174D01*
X11167801Y-14224174D02*
X11167801Y-14271793D01*
X11167801Y-14271793D02*
X11158277Y-14309888D01*
X11158277Y-14309888D02*
X11148753Y-14328936D01*
X11148753Y-14328936D02*
X11139229Y-14338460D01*
X11139229Y-14338460D02*
X11120182Y-14347984D01*
X11120182Y-14347984D02*
X11101134Y-14347984D01*
X11101134Y-14347984D02*
X11082087Y-14338460D01*
X11082087Y-14338460D02*
X11072563Y-14328936D01*
X11072563Y-14328936D02*
X11063039Y-14309888D01*
X11063039Y-14309888D02*
X11053515Y-14271793D01*
X11053515Y-14271793D02*
X11053515Y-14224174D01*
X11053515Y-14224174D02*
X11063039Y-14186079D01*
X11063039Y-14186079D02*
X11072563Y-14167031D01*
X11072563Y-14167031D02*
X11082087Y-14157508D01*
X11082087Y-14157508D02*
X11101134Y-14147984D01*
X11253515Y-14328936D02*
X11263039Y-14338460D01*
X11263039Y-14338460D02*
X11253515Y-14347984D01*
X11253515Y-14347984D02*
X11243991Y-14338460D01*
X11243991Y-14338460D02*
X11253515Y-14328936D01*
X11253515Y-14328936D02*
X11253515Y-14347984D01*
X11386848Y-14147984D02*
X11405896Y-14147984D01*
X11405896Y-14147984D02*
X11424944Y-14157508D01*
X11424944Y-14157508D02*
X11434467Y-14167031D01*
X11434467Y-14167031D02*
X11443991Y-14186079D01*
X11443991Y-14186079D02*
X11453515Y-14224174D01*
X11453515Y-14224174D02*
X11453515Y-14271793D01*
X11453515Y-14271793D02*
X11443991Y-14309888D01*
X11443991Y-14309888D02*
X11434467Y-14328936D01*
X11434467Y-14328936D02*
X11424944Y-14338460D01*
X11424944Y-14338460D02*
X11405896Y-14347984D01*
X11405896Y-14347984D02*
X11386848Y-14347984D01*
X11386848Y-14347984D02*
X11367801Y-14338460D01*
X11367801Y-14338460D02*
X11358277Y-14328936D01*
X11358277Y-14328936D02*
X11348753Y-14309888D01*
X11348753Y-14309888D02*
X11339229Y-14271793D01*
X11339229Y-14271793D02*
X11339229Y-14224174D01*
X11339229Y-14224174D02*
X11348753Y-14186079D01*
X11348753Y-14186079D02*
X11358277Y-14167031D01*
X11358277Y-14167031D02*
X11367801Y-14157508D01*
X11367801Y-14157508D02*
X11386848Y-14147984D01*
X11520182Y-14147984D02*
X11643991Y-14147984D01*
X11643991Y-14147984D02*
X11577325Y-14224174D01*
X11577325Y-14224174D02*
X11605896Y-14224174D01*
X11605896Y-14224174D02*
X11624944Y-14233698D01*
X11624944Y-14233698D02*
X11634467Y-14243222D01*
X11634467Y-14243222D02*
X11643991Y-14262269D01*
X11643991Y-14262269D02*
X11643991Y-14309888D01*
X11643991Y-14309888D02*
X11634467Y-14328936D01*
X11634467Y-14328936D02*
X11624944Y-14338460D01*
X11624944Y-14338460D02*
X11605896Y-14347984D01*
X11605896Y-14347984D02*
X11548753Y-14347984D01*
X11548753Y-14347984D02*
X11529706Y-14338460D01*
X11529706Y-14338460D02*
X11520182Y-14328936D01*
X11834467Y-14347984D02*
X11720182Y-14347984D01*
X11777325Y-14347984D02*
X11777325Y-14147984D01*
X11777325Y-14147984D02*
X11758277Y-14176555D01*
X11758277Y-14176555D02*
X11739229Y-14195603D01*
X11739229Y-14195603D02*
X11720182Y-14205127D01*
X12015420Y-14147984D02*
X11920182Y-14147984D01*
X11920182Y-14147984D02*
X11910658Y-14243222D01*
X11910658Y-14243222D02*
X11920182Y-14233698D01*
X11920182Y-14233698D02*
X11939229Y-14224174D01*
X11939229Y-14224174D02*
X11986848Y-14224174D01*
X11986848Y-14224174D02*
X12005896Y-14233698D01*
X12005896Y-14233698D02*
X12015420Y-14243222D01*
X12015420Y-14243222D02*
X12024944Y-14262269D01*
X12024944Y-14262269D02*
X12024944Y-14309888D01*
X12024944Y-14309888D02*
X12015420Y-14328936D01*
X12015420Y-14328936D02*
X12005896Y-14338460D01*
X12005896Y-14338460D02*
X11986848Y-14347984D01*
X11986848Y-14347984D02*
X11939229Y-14347984D01*
X11939229Y-14347984D02*
X11920182Y-14338460D01*
X11920182Y-14338460D02*
X11910658Y-14328936D01*
X12101134Y-14147984D02*
X12101134Y-14186079D01*
X12177325Y-14147984D02*
X12177325Y-14186079D01*
X12472563Y-14424174D02*
X12463039Y-14414650D01*
X12463039Y-14414650D02*
X12443991Y-14386079D01*
X12443991Y-14386079D02*
X12434468Y-14367031D01*
X12434468Y-14367031D02*
X12424944Y-14338460D01*
X12424944Y-14338460D02*
X12415420Y-14290841D01*
X12415420Y-14290841D02*
X12415420Y-14252746D01*
X12415420Y-14252746D02*
X12424944Y-14205127D01*
X12424944Y-14205127D02*
X12434468Y-14176555D01*
X12434468Y-14176555D02*
X12443991Y-14157508D01*
X12443991Y-14157508D02*
X12463039Y-14128936D01*
X12463039Y-14128936D02*
X12472563Y-14119412D01*
X12653515Y-14347984D02*
X12539229Y-14347984D01*
X12596372Y-14347984D02*
X12596372Y-14147984D01*
X12596372Y-14147984D02*
X12577325Y-14176555D01*
X12577325Y-14176555D02*
X12558277Y-14195603D01*
X12558277Y-14195603D02*
X12539229Y-14205127D01*
X12824944Y-14214650D02*
X12824944Y-14347984D01*
X12777325Y-14138460D02*
X12729706Y-14281317D01*
X12729706Y-14281317D02*
X12853515Y-14281317D01*
X13082087Y-14347984D02*
X13082087Y-14147984D01*
X13167801Y-14347984D02*
X13167801Y-14243222D01*
X13167801Y-14243222D02*
X13158277Y-14224174D01*
X13158277Y-14224174D02*
X13139230Y-14214650D01*
X13139230Y-14214650D02*
X13110658Y-14214650D01*
X13110658Y-14214650D02*
X13091610Y-14224174D01*
X13091610Y-14224174D02*
X13082087Y-14233698D01*
X13291610Y-14347984D02*
X13272563Y-14338460D01*
X13272563Y-14338460D02*
X13263039Y-14328936D01*
X13263039Y-14328936D02*
X13253515Y-14309888D01*
X13253515Y-14309888D02*
X13253515Y-14252746D01*
X13253515Y-14252746D02*
X13263039Y-14233698D01*
X13263039Y-14233698D02*
X13272563Y-14224174D01*
X13272563Y-14224174D02*
X13291610Y-14214650D01*
X13291610Y-14214650D02*
X13320182Y-14214650D01*
X13320182Y-14214650D02*
X13339230Y-14224174D01*
X13339230Y-14224174D02*
X13348753Y-14233698D01*
X13348753Y-14233698D02*
X13358277Y-14252746D01*
X13358277Y-14252746D02*
X13358277Y-14309888D01*
X13358277Y-14309888D02*
X13348753Y-14328936D01*
X13348753Y-14328936D02*
X13339230Y-14338460D01*
X13339230Y-14338460D02*
X13320182Y-14347984D01*
X13320182Y-14347984D02*
X13291610Y-14347984D01*
X13472563Y-14347984D02*
X13453515Y-14338460D01*
X13453515Y-14338460D02*
X13443991Y-14319412D01*
X13443991Y-14319412D02*
X13443991Y-14147984D01*
X13624944Y-14338460D02*
X13605896Y-14347984D01*
X13605896Y-14347984D02*
X13567801Y-14347984D01*
X13567801Y-14347984D02*
X13548753Y-14338460D01*
X13548753Y-14338460D02*
X13539230Y-14319412D01*
X13539230Y-14319412D02*
X13539230Y-14243222D01*
X13539230Y-14243222D02*
X13548753Y-14224174D01*
X13548753Y-14224174D02*
X13567801Y-14214650D01*
X13567801Y-14214650D02*
X13605896Y-14214650D01*
X13605896Y-14214650D02*
X13624944Y-14224174D01*
X13624944Y-14224174D02*
X13634468Y-14243222D01*
X13634468Y-14243222D02*
X13634468Y-14262269D01*
X13634468Y-14262269D02*
X13539230Y-14281317D01*
X13710658Y-14338460D02*
X13729706Y-14347984D01*
X13729706Y-14347984D02*
X13767801Y-14347984D01*
X13767801Y-14347984D02*
X13786849Y-14338460D01*
X13786849Y-14338460D02*
X13796372Y-14319412D01*
X13796372Y-14319412D02*
X13796372Y-14309888D01*
X13796372Y-14309888D02*
X13786849Y-14290841D01*
X13786849Y-14290841D02*
X13767801Y-14281317D01*
X13767801Y-14281317D02*
X13739230Y-14281317D01*
X13739230Y-14281317D02*
X13720182Y-14271793D01*
X13720182Y-14271793D02*
X13710658Y-14252746D01*
X13710658Y-14252746D02*
X13710658Y-14243222D01*
X13710658Y-14243222D02*
X13720182Y-14224174D01*
X13720182Y-14224174D02*
X13739230Y-14214650D01*
X13739230Y-14214650D02*
X13767801Y-14214650D01*
X13767801Y-14214650D02*
X13786849Y-14224174D01*
X13863039Y-14424174D02*
X13872563Y-14414650D01*
X13872563Y-14414650D02*
X13891611Y-14386079D01*
X13891611Y-14386079D02*
X13901134Y-14367031D01*
X13901134Y-14367031D02*
X13910658Y-14338460D01*
X13910658Y-14338460D02*
X13920182Y-14290841D01*
X13920182Y-14290841D02*
X13920182Y-14252746D01*
X13920182Y-14252746D02*
X13910658Y-14205127D01*
X13910658Y-14205127D02*
X13901134Y-14176555D01*
X13901134Y-14176555D02*
X13891611Y-14157508D01*
X13891611Y-14157508D02*
X13872563Y-14128936D01*
X13872563Y-14128936D02*
X13863039Y-14119412D01*
D12*
X8852500Y-14475500D02*
X8852500Y-14565500D01*
X8807500Y-14520500D02*
X8897500Y-14520500D01*
D11*
X9196372Y-14411984D02*
X9215420Y-14411984D01*
X9215420Y-14411984D02*
X9234467Y-14421508D01*
X9234467Y-14421508D02*
X9243991Y-14431031D01*
X9243991Y-14431031D02*
X9253515Y-14450079D01*
X9253515Y-14450079D02*
X9263039Y-14488174D01*
X9263039Y-14488174D02*
X9263039Y-14535793D01*
X9263039Y-14535793D02*
X9253515Y-14573888D01*
X9253515Y-14573888D02*
X9243991Y-14592936D01*
X9243991Y-14592936D02*
X9234467Y-14602460D01*
X9234467Y-14602460D02*
X9215420Y-14611984D01*
X9215420Y-14611984D02*
X9196372Y-14611984D01*
X9196372Y-14611984D02*
X9177324Y-14602460D01*
X9177324Y-14602460D02*
X9167801Y-14592936D01*
X9167801Y-14592936D02*
X9158277Y-14573888D01*
X9158277Y-14573888D02*
X9148753Y-14535793D01*
X9148753Y-14535793D02*
X9148753Y-14488174D01*
X9148753Y-14488174D02*
X9158277Y-14450079D01*
X9158277Y-14450079D02*
X9167801Y-14431031D01*
X9167801Y-14431031D02*
X9177324Y-14421508D01*
X9177324Y-14421508D02*
X9196372Y-14411984D01*
X9348753Y-14592936D02*
X9358277Y-14602460D01*
X9358277Y-14602460D02*
X9348753Y-14611984D01*
X9348753Y-14611984D02*
X9339229Y-14602460D01*
X9339229Y-14602460D02*
X9348753Y-14592936D01*
X9348753Y-14592936D02*
X9348753Y-14611984D01*
X9453515Y-14611984D02*
X9491610Y-14611984D01*
X9491610Y-14611984D02*
X9510658Y-14602460D01*
X9510658Y-14602460D02*
X9520182Y-14592936D01*
X9520182Y-14592936D02*
X9539229Y-14564365D01*
X9539229Y-14564365D02*
X9548753Y-14526269D01*
X9548753Y-14526269D02*
X9548753Y-14450079D01*
X9548753Y-14450079D02*
X9539229Y-14431031D01*
X9539229Y-14431031D02*
X9529705Y-14421508D01*
X9529705Y-14421508D02*
X9510658Y-14411984D01*
X9510658Y-14411984D02*
X9472563Y-14411984D01*
X9472563Y-14411984D02*
X9453515Y-14421508D01*
X9453515Y-14421508D02*
X9443991Y-14431031D01*
X9443991Y-14431031D02*
X9434467Y-14450079D01*
X9434467Y-14450079D02*
X9434467Y-14497698D01*
X9434467Y-14497698D02*
X9443991Y-14516746D01*
X9443991Y-14516746D02*
X9453515Y-14526269D01*
X9453515Y-14526269D02*
X9472563Y-14535793D01*
X9472563Y-14535793D02*
X9510658Y-14535793D01*
X9510658Y-14535793D02*
X9529705Y-14526269D01*
X9529705Y-14526269D02*
X9539229Y-14516746D01*
X9539229Y-14516746D02*
X9548753Y-14497698D01*
X9672563Y-14411984D02*
X9691610Y-14411984D01*
X9691610Y-14411984D02*
X9710658Y-14421508D01*
X9710658Y-14421508D02*
X9720182Y-14431031D01*
X9720182Y-14431031D02*
X9729705Y-14450079D01*
X9729705Y-14450079D02*
X9739229Y-14488174D01*
X9739229Y-14488174D02*
X9739229Y-14535793D01*
X9739229Y-14535793D02*
X9729705Y-14573888D01*
X9729705Y-14573888D02*
X9720182Y-14592936D01*
X9720182Y-14592936D02*
X9710658Y-14602460D01*
X9710658Y-14602460D02*
X9691610Y-14611984D01*
X9691610Y-14611984D02*
X9672563Y-14611984D01*
X9672563Y-14611984D02*
X9653515Y-14602460D01*
X9653515Y-14602460D02*
X9643991Y-14592936D01*
X9643991Y-14592936D02*
X9634467Y-14573888D01*
X9634467Y-14573888D02*
X9624944Y-14535793D01*
X9624944Y-14535793D02*
X9624944Y-14488174D01*
X9624944Y-14488174D02*
X9634467Y-14450079D01*
X9634467Y-14450079D02*
X9643991Y-14431031D01*
X9643991Y-14431031D02*
X9653515Y-14421508D01*
X9653515Y-14421508D02*
X9672563Y-14411984D01*
X9863039Y-14411984D02*
X9882086Y-14411984D01*
X9882086Y-14411984D02*
X9901134Y-14421508D01*
X9901134Y-14421508D02*
X9910658Y-14431031D01*
X9910658Y-14431031D02*
X9920182Y-14450079D01*
X9920182Y-14450079D02*
X9929705Y-14488174D01*
X9929705Y-14488174D02*
X9929705Y-14535793D01*
X9929705Y-14535793D02*
X9920182Y-14573888D01*
X9920182Y-14573888D02*
X9910658Y-14592936D01*
X9910658Y-14592936D02*
X9901134Y-14602460D01*
X9901134Y-14602460D02*
X9882086Y-14611984D01*
X9882086Y-14611984D02*
X9863039Y-14611984D01*
X9863039Y-14611984D02*
X9843991Y-14602460D01*
X9843991Y-14602460D02*
X9834467Y-14592936D01*
X9834467Y-14592936D02*
X9824944Y-14573888D01*
X9824944Y-14573888D02*
X9815420Y-14535793D01*
X9815420Y-14535793D02*
X9815420Y-14488174D01*
X9815420Y-14488174D02*
X9824944Y-14450079D01*
X9824944Y-14450079D02*
X9834467Y-14431031D01*
X9834467Y-14431031D02*
X9843991Y-14421508D01*
X9843991Y-14421508D02*
X9863039Y-14411984D01*
X10015420Y-14611984D02*
X10015420Y-14478650D01*
X10015420Y-14497698D02*
X10024944Y-14488174D01*
X10024944Y-14488174D02*
X10043991Y-14478650D01*
X10043991Y-14478650D02*
X10072563Y-14478650D01*
X10072563Y-14478650D02*
X10091610Y-14488174D01*
X10091610Y-14488174D02*
X10101134Y-14507222D01*
X10101134Y-14507222D02*
X10101134Y-14611984D01*
X10101134Y-14507222D02*
X10110658Y-14488174D01*
X10110658Y-14488174D02*
X10129705Y-14478650D01*
X10129705Y-14478650D02*
X10158277Y-14478650D01*
X10158277Y-14478650D02*
X10177325Y-14488174D01*
X10177325Y-14488174D02*
X10186848Y-14507222D01*
X10186848Y-14507222D02*
X10186848Y-14611984D01*
X10282086Y-14611984D02*
X10282086Y-14478650D01*
X10282086Y-14497698D02*
X10291610Y-14488174D01*
X10291610Y-14488174D02*
X10310658Y-14478650D01*
X10310658Y-14478650D02*
X10339229Y-14478650D01*
X10339229Y-14478650D02*
X10358277Y-14488174D01*
X10358277Y-14488174D02*
X10367801Y-14507222D01*
X10367801Y-14507222D02*
X10367801Y-14611984D01*
X10367801Y-14507222D02*
X10377325Y-14488174D01*
X10377325Y-14488174D02*
X10396372Y-14478650D01*
X10396372Y-14478650D02*
X10424944Y-14478650D01*
X10424944Y-14478650D02*
X10443991Y-14488174D01*
X10443991Y-14488174D02*
X10453515Y-14507222D01*
X10453515Y-14507222D02*
X10453515Y-14611984D01*
X10843991Y-14402460D02*
X10672563Y-14659603D01*
X11101134Y-14411984D02*
X11120182Y-14411984D01*
X11120182Y-14411984D02*
X11139229Y-14421508D01*
X11139229Y-14421508D02*
X11148753Y-14431031D01*
X11148753Y-14431031D02*
X11158277Y-14450079D01*
X11158277Y-14450079D02*
X11167801Y-14488174D01*
X11167801Y-14488174D02*
X11167801Y-14535793D01*
X11167801Y-14535793D02*
X11158277Y-14573888D01*
X11158277Y-14573888D02*
X11148753Y-14592936D01*
X11148753Y-14592936D02*
X11139229Y-14602460D01*
X11139229Y-14602460D02*
X11120182Y-14611984D01*
X11120182Y-14611984D02*
X11101134Y-14611984D01*
X11101134Y-14611984D02*
X11082087Y-14602460D01*
X11082087Y-14602460D02*
X11072563Y-14592936D01*
X11072563Y-14592936D02*
X11063039Y-14573888D01*
X11063039Y-14573888D02*
X11053515Y-14535793D01*
X11053515Y-14535793D02*
X11053515Y-14488174D01*
X11053515Y-14488174D02*
X11063039Y-14450079D01*
X11063039Y-14450079D02*
X11072563Y-14431031D01*
X11072563Y-14431031D02*
X11082087Y-14421508D01*
X11082087Y-14421508D02*
X11101134Y-14411984D01*
X11253515Y-14592936D02*
X11263039Y-14602460D01*
X11263039Y-14602460D02*
X11253515Y-14611984D01*
X11253515Y-14611984D02*
X11243991Y-14602460D01*
X11243991Y-14602460D02*
X11253515Y-14592936D01*
X11253515Y-14592936D02*
X11253515Y-14611984D01*
X11386848Y-14411984D02*
X11405896Y-14411984D01*
X11405896Y-14411984D02*
X11424944Y-14421508D01*
X11424944Y-14421508D02*
X11434467Y-14431031D01*
X11434467Y-14431031D02*
X11443991Y-14450079D01*
X11443991Y-14450079D02*
X11453515Y-14488174D01*
X11453515Y-14488174D02*
X11453515Y-14535793D01*
X11453515Y-14535793D02*
X11443991Y-14573888D01*
X11443991Y-14573888D02*
X11434467Y-14592936D01*
X11434467Y-14592936D02*
X11424944Y-14602460D01*
X11424944Y-14602460D02*
X11405896Y-14611984D01*
X11405896Y-14611984D02*
X11386848Y-14611984D01*
X11386848Y-14611984D02*
X11367801Y-14602460D01*
X11367801Y-14602460D02*
X11358277Y-14592936D01*
X11358277Y-14592936D02*
X11348753Y-14573888D01*
X11348753Y-14573888D02*
X11339229Y-14535793D01*
X11339229Y-14535793D02*
X11339229Y-14488174D01*
X11339229Y-14488174D02*
X11348753Y-14450079D01*
X11348753Y-14450079D02*
X11358277Y-14431031D01*
X11358277Y-14431031D02*
X11367801Y-14421508D01*
X11367801Y-14421508D02*
X11386848Y-14411984D01*
X11520182Y-14411984D02*
X11643991Y-14411984D01*
X11643991Y-14411984D02*
X11577325Y-14488174D01*
X11577325Y-14488174D02*
X11605896Y-14488174D01*
X11605896Y-14488174D02*
X11624944Y-14497698D01*
X11624944Y-14497698D02*
X11634467Y-14507222D01*
X11634467Y-14507222D02*
X11643991Y-14526269D01*
X11643991Y-14526269D02*
X11643991Y-14573888D01*
X11643991Y-14573888D02*
X11634467Y-14592936D01*
X11634467Y-14592936D02*
X11624944Y-14602460D01*
X11624944Y-14602460D02*
X11605896Y-14611984D01*
X11605896Y-14611984D02*
X11548753Y-14611984D01*
X11548753Y-14611984D02*
X11529706Y-14602460D01*
X11529706Y-14602460D02*
X11520182Y-14592936D01*
X11824944Y-14411984D02*
X11729706Y-14411984D01*
X11729706Y-14411984D02*
X11720182Y-14507222D01*
X11720182Y-14507222D02*
X11729706Y-14497698D01*
X11729706Y-14497698D02*
X11748753Y-14488174D01*
X11748753Y-14488174D02*
X11796372Y-14488174D01*
X11796372Y-14488174D02*
X11815420Y-14497698D01*
X11815420Y-14497698D02*
X11824944Y-14507222D01*
X11824944Y-14507222D02*
X11834467Y-14526269D01*
X11834467Y-14526269D02*
X11834467Y-14573888D01*
X11834467Y-14573888D02*
X11824944Y-14592936D01*
X11824944Y-14592936D02*
X11815420Y-14602460D01*
X11815420Y-14602460D02*
X11796372Y-14611984D01*
X11796372Y-14611984D02*
X11748753Y-14611984D01*
X11748753Y-14611984D02*
X11729706Y-14602460D01*
X11729706Y-14602460D02*
X11720182Y-14592936D01*
X12005896Y-14478650D02*
X12005896Y-14611984D01*
X11958277Y-14402460D02*
X11910658Y-14545317D01*
X11910658Y-14545317D02*
X12034467Y-14545317D01*
X12101134Y-14411984D02*
X12101134Y-14450079D01*
X12177325Y-14411984D02*
X12177325Y-14450079D01*
X12472563Y-14688174D02*
X12463039Y-14678650D01*
X12463039Y-14678650D02*
X12443991Y-14650079D01*
X12443991Y-14650079D02*
X12434468Y-14631031D01*
X12434468Y-14631031D02*
X12424944Y-14602460D01*
X12424944Y-14602460D02*
X12415420Y-14554841D01*
X12415420Y-14554841D02*
X12415420Y-14516746D01*
X12415420Y-14516746D02*
X12424944Y-14469127D01*
X12424944Y-14469127D02*
X12434468Y-14440555D01*
X12434468Y-14440555D02*
X12443991Y-14421508D01*
X12443991Y-14421508D02*
X12463039Y-14392936D01*
X12463039Y-14392936D02*
X12472563Y-14383412D01*
X12634468Y-14478650D02*
X12634468Y-14611984D01*
X12586848Y-14402460D02*
X12539229Y-14545317D01*
X12539229Y-14545317D02*
X12663039Y-14545317D01*
X12891610Y-14611984D02*
X12891610Y-14411984D01*
X12977325Y-14611984D02*
X12977325Y-14507222D01*
X12977325Y-14507222D02*
X12967801Y-14488174D01*
X12967801Y-14488174D02*
X12948753Y-14478650D01*
X12948753Y-14478650D02*
X12920182Y-14478650D01*
X12920182Y-14478650D02*
X12901134Y-14488174D01*
X12901134Y-14488174D02*
X12891610Y-14497698D01*
X13101134Y-14611984D02*
X13082087Y-14602460D01*
X13082087Y-14602460D02*
X13072563Y-14592936D01*
X13072563Y-14592936D02*
X13063039Y-14573888D01*
X13063039Y-14573888D02*
X13063039Y-14516746D01*
X13063039Y-14516746D02*
X13072563Y-14497698D01*
X13072563Y-14497698D02*
X13082087Y-14488174D01*
X13082087Y-14488174D02*
X13101134Y-14478650D01*
X13101134Y-14478650D02*
X13129706Y-14478650D01*
X13129706Y-14478650D02*
X13148753Y-14488174D01*
X13148753Y-14488174D02*
X13158277Y-14497698D01*
X13158277Y-14497698D02*
X13167801Y-14516746D01*
X13167801Y-14516746D02*
X13167801Y-14573888D01*
X13167801Y-14573888D02*
X13158277Y-14592936D01*
X13158277Y-14592936D02*
X13148753Y-14602460D01*
X13148753Y-14602460D02*
X13129706Y-14611984D01*
X13129706Y-14611984D02*
X13101134Y-14611984D01*
X13282087Y-14611984D02*
X13263039Y-14602460D01*
X13263039Y-14602460D02*
X13253515Y-14583412D01*
X13253515Y-14583412D02*
X13253515Y-14411984D01*
X13434468Y-14602460D02*
X13415420Y-14611984D01*
X13415420Y-14611984D02*
X13377325Y-14611984D01*
X13377325Y-14611984D02*
X13358277Y-14602460D01*
X13358277Y-14602460D02*
X13348753Y-14583412D01*
X13348753Y-14583412D02*
X13348753Y-14507222D01*
X13348753Y-14507222D02*
X13358277Y-14488174D01*
X13358277Y-14488174D02*
X13377325Y-14478650D01*
X13377325Y-14478650D02*
X13415420Y-14478650D01*
X13415420Y-14478650D02*
X13434468Y-14488174D01*
X13434468Y-14488174D02*
X13443991Y-14507222D01*
X13443991Y-14507222D02*
X13443991Y-14526269D01*
X13443991Y-14526269D02*
X13348753Y-14545317D01*
X13520182Y-14602460D02*
X13539230Y-14611984D01*
X13539230Y-14611984D02*
X13577325Y-14611984D01*
X13577325Y-14611984D02*
X13596372Y-14602460D01*
X13596372Y-14602460D02*
X13605896Y-14583412D01*
X13605896Y-14583412D02*
X13605896Y-14573888D01*
X13605896Y-14573888D02*
X13596372Y-14554841D01*
X13596372Y-14554841D02*
X13577325Y-14545317D01*
X13577325Y-14545317D02*
X13548753Y-14545317D01*
X13548753Y-14545317D02*
X13529706Y-14535793D01*
X13529706Y-14535793D02*
X13520182Y-14516746D01*
X13520182Y-14516746D02*
X13520182Y-14507222D01*
X13520182Y-14507222D02*
X13529706Y-14488174D01*
X13529706Y-14488174D02*
X13548753Y-14478650D01*
X13548753Y-14478650D02*
X13577325Y-14478650D01*
X13577325Y-14478650D02*
X13596372Y-14488174D01*
X13672563Y-14688174D02*
X13682087Y-14678650D01*
X13682087Y-14678650D02*
X13701134Y-14650079D01*
X13701134Y-14650079D02*
X13710658Y-14631031D01*
X13710658Y-14631031D02*
X13720182Y-14602460D01*
X13720182Y-14602460D02*
X13729706Y-14554841D01*
X13729706Y-14554841D02*
X13729706Y-14516746D01*
X13729706Y-14516746D02*
X13720182Y-14469127D01*
X13720182Y-14469127D02*
X13710658Y-14440555D01*
X13710658Y-14440555D02*
X13701134Y-14421508D01*
X13701134Y-14421508D02*
X13682087Y-14392936D01*
X13682087Y-14392936D02*
X13672563Y-14383412D01*
D12*
X8882856Y-14819856D02*
X8882856Y-14749144D01*
X8812144Y-14749144D01*
X8812144Y-14819856D01*
X8882856Y-14819856D01*
D11*
X9263039Y-14875984D02*
X9148753Y-14875984D01*
X9205896Y-14875984D02*
X9205896Y-14675984D01*
X9205896Y-14675984D02*
X9186848Y-14704555D01*
X9186848Y-14704555D02*
X9167801Y-14723603D01*
X9167801Y-14723603D02*
X9148753Y-14733127D01*
X9348753Y-14856936D02*
X9358277Y-14866460D01*
X9358277Y-14866460D02*
X9348753Y-14875984D01*
X9348753Y-14875984D02*
X9339229Y-14866460D01*
X9339229Y-14866460D02*
X9348753Y-14856936D01*
X9348753Y-14856936D02*
X9348753Y-14875984D01*
X9482086Y-14675984D02*
X9501134Y-14675984D01*
X9501134Y-14675984D02*
X9520182Y-14685508D01*
X9520182Y-14685508D02*
X9529705Y-14695031D01*
X9529705Y-14695031D02*
X9539229Y-14714079D01*
X9539229Y-14714079D02*
X9548753Y-14752174D01*
X9548753Y-14752174D02*
X9548753Y-14799793D01*
X9548753Y-14799793D02*
X9539229Y-14837888D01*
X9539229Y-14837888D02*
X9529705Y-14856936D01*
X9529705Y-14856936D02*
X9520182Y-14866460D01*
X9520182Y-14866460D02*
X9501134Y-14875984D01*
X9501134Y-14875984D02*
X9482086Y-14875984D01*
X9482086Y-14875984D02*
X9463039Y-14866460D01*
X9463039Y-14866460D02*
X9453515Y-14856936D01*
X9453515Y-14856936D02*
X9443991Y-14837888D01*
X9443991Y-14837888D02*
X9434467Y-14799793D01*
X9434467Y-14799793D02*
X9434467Y-14752174D01*
X9434467Y-14752174D02*
X9443991Y-14714079D01*
X9443991Y-14714079D02*
X9453515Y-14695031D01*
X9453515Y-14695031D02*
X9463039Y-14685508D01*
X9463039Y-14685508D02*
X9482086Y-14675984D01*
X9672563Y-14675984D02*
X9691610Y-14675984D01*
X9691610Y-14675984D02*
X9710658Y-14685508D01*
X9710658Y-14685508D02*
X9720182Y-14695031D01*
X9720182Y-14695031D02*
X9729705Y-14714079D01*
X9729705Y-14714079D02*
X9739229Y-14752174D01*
X9739229Y-14752174D02*
X9739229Y-14799793D01*
X9739229Y-14799793D02*
X9729705Y-14837888D01*
X9729705Y-14837888D02*
X9720182Y-14856936D01*
X9720182Y-14856936D02*
X9710658Y-14866460D01*
X9710658Y-14866460D02*
X9691610Y-14875984D01*
X9691610Y-14875984D02*
X9672563Y-14875984D01*
X9672563Y-14875984D02*
X9653515Y-14866460D01*
X9653515Y-14866460D02*
X9643991Y-14856936D01*
X9643991Y-14856936D02*
X9634467Y-14837888D01*
X9634467Y-14837888D02*
X9624944Y-14799793D01*
X9624944Y-14799793D02*
X9624944Y-14752174D01*
X9624944Y-14752174D02*
X9634467Y-14714079D01*
X9634467Y-14714079D02*
X9643991Y-14695031D01*
X9643991Y-14695031D02*
X9653515Y-14685508D01*
X9653515Y-14685508D02*
X9672563Y-14675984D01*
X9863039Y-14675984D02*
X9882086Y-14675984D01*
X9882086Y-14675984D02*
X9901134Y-14685508D01*
X9901134Y-14685508D02*
X9910658Y-14695031D01*
X9910658Y-14695031D02*
X9920182Y-14714079D01*
X9920182Y-14714079D02*
X9929705Y-14752174D01*
X9929705Y-14752174D02*
X9929705Y-14799793D01*
X9929705Y-14799793D02*
X9920182Y-14837888D01*
X9920182Y-14837888D02*
X9910658Y-14856936D01*
X9910658Y-14856936D02*
X9901134Y-14866460D01*
X9901134Y-14866460D02*
X9882086Y-14875984D01*
X9882086Y-14875984D02*
X9863039Y-14875984D01*
X9863039Y-14875984D02*
X9843991Y-14866460D01*
X9843991Y-14866460D02*
X9834467Y-14856936D01*
X9834467Y-14856936D02*
X9824944Y-14837888D01*
X9824944Y-14837888D02*
X9815420Y-14799793D01*
X9815420Y-14799793D02*
X9815420Y-14752174D01*
X9815420Y-14752174D02*
X9824944Y-14714079D01*
X9824944Y-14714079D02*
X9834467Y-14695031D01*
X9834467Y-14695031D02*
X9843991Y-14685508D01*
X9843991Y-14685508D02*
X9863039Y-14675984D01*
X10015420Y-14875984D02*
X10015420Y-14742650D01*
X10015420Y-14761698D02*
X10024944Y-14752174D01*
X10024944Y-14752174D02*
X10043991Y-14742650D01*
X10043991Y-14742650D02*
X10072563Y-14742650D01*
X10072563Y-14742650D02*
X10091610Y-14752174D01*
X10091610Y-14752174D02*
X10101134Y-14771222D01*
X10101134Y-14771222D02*
X10101134Y-14875984D01*
X10101134Y-14771222D02*
X10110658Y-14752174D01*
X10110658Y-14752174D02*
X10129705Y-14742650D01*
X10129705Y-14742650D02*
X10158277Y-14742650D01*
X10158277Y-14742650D02*
X10177325Y-14752174D01*
X10177325Y-14752174D02*
X10186848Y-14771222D01*
X10186848Y-14771222D02*
X10186848Y-14875984D01*
X10282086Y-14875984D02*
X10282086Y-14742650D01*
X10282086Y-14761698D02*
X10291610Y-14752174D01*
X10291610Y-14752174D02*
X10310658Y-14742650D01*
X10310658Y-14742650D02*
X10339229Y-14742650D01*
X10339229Y-14742650D02*
X10358277Y-14752174D01*
X10358277Y-14752174D02*
X10367801Y-14771222D01*
X10367801Y-14771222D02*
X10367801Y-14875984D01*
X10367801Y-14771222D02*
X10377325Y-14752174D01*
X10377325Y-14752174D02*
X10396372Y-14742650D01*
X10396372Y-14742650D02*
X10424944Y-14742650D01*
X10424944Y-14742650D02*
X10443991Y-14752174D01*
X10443991Y-14752174D02*
X10453515Y-14771222D01*
X10453515Y-14771222D02*
X10453515Y-14875984D01*
X10843991Y-14666460D02*
X10672563Y-14923603D01*
X11101134Y-14675984D02*
X11120182Y-14675984D01*
X11120182Y-14675984D02*
X11139229Y-14685508D01*
X11139229Y-14685508D02*
X11148753Y-14695031D01*
X11148753Y-14695031D02*
X11158277Y-14714079D01*
X11158277Y-14714079D02*
X11167801Y-14752174D01*
X11167801Y-14752174D02*
X11167801Y-14799793D01*
X11167801Y-14799793D02*
X11158277Y-14837888D01*
X11158277Y-14837888D02*
X11148753Y-14856936D01*
X11148753Y-14856936D02*
X11139229Y-14866460D01*
X11139229Y-14866460D02*
X11120182Y-14875984D01*
X11120182Y-14875984D02*
X11101134Y-14875984D01*
X11101134Y-14875984D02*
X11082087Y-14866460D01*
X11082087Y-14866460D02*
X11072563Y-14856936D01*
X11072563Y-14856936D02*
X11063039Y-14837888D01*
X11063039Y-14837888D02*
X11053515Y-14799793D01*
X11053515Y-14799793D02*
X11053515Y-14752174D01*
X11053515Y-14752174D02*
X11063039Y-14714079D01*
X11063039Y-14714079D02*
X11072563Y-14695031D01*
X11072563Y-14695031D02*
X11082087Y-14685508D01*
X11082087Y-14685508D02*
X11101134Y-14675984D01*
X11253515Y-14856936D02*
X11263039Y-14866460D01*
X11263039Y-14866460D02*
X11253515Y-14875984D01*
X11253515Y-14875984D02*
X11243991Y-14866460D01*
X11243991Y-14866460D02*
X11253515Y-14856936D01*
X11253515Y-14856936D02*
X11253515Y-14875984D01*
X11386848Y-14675984D02*
X11405896Y-14675984D01*
X11405896Y-14675984D02*
X11424944Y-14685508D01*
X11424944Y-14685508D02*
X11434467Y-14695031D01*
X11434467Y-14695031D02*
X11443991Y-14714079D01*
X11443991Y-14714079D02*
X11453515Y-14752174D01*
X11453515Y-14752174D02*
X11453515Y-14799793D01*
X11453515Y-14799793D02*
X11443991Y-14837888D01*
X11443991Y-14837888D02*
X11434467Y-14856936D01*
X11434467Y-14856936D02*
X11424944Y-14866460D01*
X11424944Y-14866460D02*
X11405896Y-14875984D01*
X11405896Y-14875984D02*
X11386848Y-14875984D01*
X11386848Y-14875984D02*
X11367801Y-14866460D01*
X11367801Y-14866460D02*
X11358277Y-14856936D01*
X11358277Y-14856936D02*
X11348753Y-14837888D01*
X11348753Y-14837888D02*
X11339229Y-14799793D01*
X11339229Y-14799793D02*
X11339229Y-14752174D01*
X11339229Y-14752174D02*
X11348753Y-14714079D01*
X11348753Y-14714079D02*
X11358277Y-14695031D01*
X11358277Y-14695031D02*
X11367801Y-14685508D01*
X11367801Y-14685508D02*
X11386848Y-14675984D01*
X11520182Y-14675984D02*
X11643991Y-14675984D01*
X11643991Y-14675984D02*
X11577325Y-14752174D01*
X11577325Y-14752174D02*
X11605896Y-14752174D01*
X11605896Y-14752174D02*
X11624944Y-14761698D01*
X11624944Y-14761698D02*
X11634467Y-14771222D01*
X11634467Y-14771222D02*
X11643991Y-14790269D01*
X11643991Y-14790269D02*
X11643991Y-14837888D01*
X11643991Y-14837888D02*
X11634467Y-14856936D01*
X11634467Y-14856936D02*
X11624944Y-14866460D01*
X11624944Y-14866460D02*
X11605896Y-14875984D01*
X11605896Y-14875984D02*
X11548753Y-14875984D01*
X11548753Y-14875984D02*
X11529706Y-14866460D01*
X11529706Y-14866460D02*
X11520182Y-14856936D01*
X11739229Y-14875984D02*
X11777325Y-14875984D01*
X11777325Y-14875984D02*
X11796372Y-14866460D01*
X11796372Y-14866460D02*
X11805896Y-14856936D01*
X11805896Y-14856936D02*
X11824944Y-14828365D01*
X11824944Y-14828365D02*
X11834467Y-14790269D01*
X11834467Y-14790269D02*
X11834467Y-14714079D01*
X11834467Y-14714079D02*
X11824944Y-14695031D01*
X11824944Y-14695031D02*
X11815420Y-14685508D01*
X11815420Y-14685508D02*
X11796372Y-14675984D01*
X11796372Y-14675984D02*
X11758277Y-14675984D01*
X11758277Y-14675984D02*
X11739229Y-14685508D01*
X11739229Y-14685508D02*
X11729706Y-14695031D01*
X11729706Y-14695031D02*
X11720182Y-14714079D01*
X11720182Y-14714079D02*
X11720182Y-14761698D01*
X11720182Y-14761698D02*
X11729706Y-14780746D01*
X11729706Y-14780746D02*
X11739229Y-14790269D01*
X11739229Y-14790269D02*
X11758277Y-14799793D01*
X11758277Y-14799793D02*
X11796372Y-14799793D01*
X11796372Y-14799793D02*
X11815420Y-14790269D01*
X11815420Y-14790269D02*
X11824944Y-14780746D01*
X11824944Y-14780746D02*
X11834467Y-14761698D01*
X12005896Y-14742650D02*
X12005896Y-14875984D01*
X11958277Y-14666460D02*
X11910658Y-14809317D01*
X11910658Y-14809317D02*
X12034467Y-14809317D01*
X12101134Y-14675984D02*
X12101134Y-14714079D01*
X12177325Y-14675984D02*
X12177325Y-14714079D01*
X12472563Y-14952174D02*
X12463039Y-14942650D01*
X12463039Y-14942650D02*
X12443991Y-14914079D01*
X12443991Y-14914079D02*
X12434468Y-14895031D01*
X12434468Y-14895031D02*
X12424944Y-14866460D01*
X12424944Y-14866460D02*
X12415420Y-14818841D01*
X12415420Y-14818841D02*
X12415420Y-14780746D01*
X12415420Y-14780746D02*
X12424944Y-14733127D01*
X12424944Y-14733127D02*
X12434468Y-14704555D01*
X12434468Y-14704555D02*
X12443991Y-14685508D01*
X12443991Y-14685508D02*
X12463039Y-14656936D01*
X12463039Y-14656936D02*
X12472563Y-14647412D01*
X12653515Y-14875984D02*
X12539229Y-14875984D01*
X12596372Y-14875984D02*
X12596372Y-14675984D01*
X12596372Y-14675984D02*
X12577325Y-14704555D01*
X12577325Y-14704555D02*
X12558277Y-14723603D01*
X12558277Y-14723603D02*
X12539229Y-14733127D01*
X12777325Y-14675984D02*
X12796372Y-14675984D01*
X12796372Y-14675984D02*
X12815420Y-14685508D01*
X12815420Y-14685508D02*
X12824944Y-14695031D01*
X12824944Y-14695031D02*
X12834468Y-14714079D01*
X12834468Y-14714079D02*
X12843991Y-14752174D01*
X12843991Y-14752174D02*
X12843991Y-14799793D01*
X12843991Y-14799793D02*
X12834468Y-14837888D01*
X12834468Y-14837888D02*
X12824944Y-14856936D01*
X12824944Y-14856936D02*
X12815420Y-14866460D01*
X12815420Y-14866460D02*
X12796372Y-14875984D01*
X12796372Y-14875984D02*
X12777325Y-14875984D01*
X12777325Y-14875984D02*
X12758277Y-14866460D01*
X12758277Y-14866460D02*
X12748753Y-14856936D01*
X12748753Y-14856936D02*
X12739229Y-14837888D01*
X12739229Y-14837888D02*
X12729706Y-14799793D01*
X12729706Y-14799793D02*
X12729706Y-14752174D01*
X12729706Y-14752174D02*
X12739229Y-14714079D01*
X12739229Y-14714079D02*
X12748753Y-14695031D01*
X12748753Y-14695031D02*
X12758277Y-14685508D01*
X12758277Y-14685508D02*
X12777325Y-14675984D01*
X12967801Y-14675984D02*
X12986849Y-14675984D01*
X12986849Y-14675984D02*
X13005896Y-14685508D01*
X13005896Y-14685508D02*
X13015420Y-14695031D01*
X13015420Y-14695031D02*
X13024944Y-14714079D01*
X13024944Y-14714079D02*
X13034468Y-14752174D01*
X13034468Y-14752174D02*
X13034468Y-14799793D01*
X13034468Y-14799793D02*
X13024944Y-14837888D01*
X13024944Y-14837888D02*
X13015420Y-14856936D01*
X13015420Y-14856936D02*
X13005896Y-14866460D01*
X13005896Y-14866460D02*
X12986849Y-14875984D01*
X12986849Y-14875984D02*
X12967801Y-14875984D01*
X12967801Y-14875984D02*
X12948753Y-14866460D01*
X12948753Y-14866460D02*
X12939229Y-14856936D01*
X12939229Y-14856936D02*
X12929706Y-14837888D01*
X12929706Y-14837888D02*
X12920182Y-14799793D01*
X12920182Y-14799793D02*
X12920182Y-14752174D01*
X12920182Y-14752174D02*
X12929706Y-14714079D01*
X12929706Y-14714079D02*
X12939229Y-14695031D01*
X12939229Y-14695031D02*
X12948753Y-14685508D01*
X12948753Y-14685508D02*
X12967801Y-14675984D01*
X13272563Y-14875984D02*
X13272563Y-14675984D01*
X13358277Y-14875984D02*
X13358277Y-14771222D01*
X13358277Y-14771222D02*
X13348753Y-14752174D01*
X13348753Y-14752174D02*
X13329706Y-14742650D01*
X13329706Y-14742650D02*
X13301134Y-14742650D01*
X13301134Y-14742650D02*
X13282087Y-14752174D01*
X13282087Y-14752174D02*
X13272563Y-14761698D01*
X13482087Y-14875984D02*
X13463039Y-14866460D01*
X13463039Y-14866460D02*
X13453515Y-14856936D01*
X13453515Y-14856936D02*
X13443991Y-14837888D01*
X13443991Y-14837888D02*
X13443991Y-14780746D01*
X13443991Y-14780746D02*
X13453515Y-14761698D01*
X13453515Y-14761698D02*
X13463039Y-14752174D01*
X13463039Y-14752174D02*
X13482087Y-14742650D01*
X13482087Y-14742650D02*
X13510658Y-14742650D01*
X13510658Y-14742650D02*
X13529706Y-14752174D01*
X13529706Y-14752174D02*
X13539230Y-14761698D01*
X13539230Y-14761698D02*
X13548753Y-14780746D01*
X13548753Y-14780746D02*
X13548753Y-14837888D01*
X13548753Y-14837888D02*
X13539230Y-14856936D01*
X13539230Y-14856936D02*
X13529706Y-14866460D01*
X13529706Y-14866460D02*
X13510658Y-14875984D01*
X13510658Y-14875984D02*
X13482087Y-14875984D01*
X13663039Y-14875984D02*
X13643991Y-14866460D01*
X13643991Y-14866460D02*
X13634468Y-14847412D01*
X13634468Y-14847412D02*
X13634468Y-14675984D01*
X13815420Y-14866460D02*
X13796372Y-14875984D01*
X13796372Y-14875984D02*
X13758277Y-14875984D01*
X13758277Y-14875984D02*
X13739230Y-14866460D01*
X13739230Y-14866460D02*
X13729706Y-14847412D01*
X13729706Y-14847412D02*
X13729706Y-14771222D01*
X13729706Y-14771222D02*
X13739230Y-14752174D01*
X13739230Y-14752174D02*
X13758277Y-14742650D01*
X13758277Y-14742650D02*
X13796372Y-14742650D01*
X13796372Y-14742650D02*
X13815420Y-14752174D01*
X13815420Y-14752174D02*
X13824944Y-14771222D01*
X13824944Y-14771222D02*
X13824944Y-14790269D01*
X13824944Y-14790269D02*
X13729706Y-14809317D01*
X13901134Y-14866460D02*
X13920182Y-14875984D01*
X13920182Y-14875984D02*
X13958277Y-14875984D01*
X13958277Y-14875984D02*
X13977325Y-14866460D01*
X13977325Y-14866460D02*
X13986849Y-14847412D01*
X13986849Y-14847412D02*
X13986849Y-14837888D01*
X13986849Y-14837888D02*
X13977325Y-14818841D01*
X13977325Y-14818841D02*
X13958277Y-14809317D01*
X13958277Y-14809317D02*
X13929706Y-14809317D01*
X13929706Y-14809317D02*
X13910658Y-14799793D01*
X13910658Y-14799793D02*
X13901134Y-14780746D01*
X13901134Y-14780746D02*
X13901134Y-14771222D01*
X13901134Y-14771222D02*
X13910658Y-14752174D01*
X13910658Y-14752174D02*
X13929706Y-14742650D01*
X13929706Y-14742650D02*
X13958277Y-14742650D01*
X13958277Y-14742650D02*
X13977325Y-14752174D01*
X14053515Y-14952174D02*
X14063039Y-14942650D01*
X14063039Y-14942650D02*
X14082087Y-14914079D01*
X14082087Y-14914079D02*
X14091611Y-14895031D01*
X14091611Y-14895031D02*
X14101134Y-14866460D01*
X14101134Y-14866460D02*
X14110658Y-14818841D01*
X14110658Y-14818841D02*
X14110658Y-14780746D01*
X14110658Y-14780746D02*
X14101134Y-14733127D01*
X14101134Y-14733127D02*
X14091611Y-14704555D01*
X14091611Y-14704555D02*
X14082087Y-14685508D01*
X14082087Y-14685508D02*
X14063039Y-14656936D01*
X14063039Y-14656936D02*
X14053515Y-14647412D01*
D13*
X8832500Y-15113500D02*
X8897500Y-15048500D01*
X8832500Y-14983500D01*
X8767500Y-15048500D01*
X8832500Y-15113500D01*
D11*
X9263039Y-15139984D02*
X9148753Y-15139984D01*
X9205896Y-15139984D02*
X9205896Y-14939984D01*
X9205896Y-14939984D02*
X9186848Y-14968555D01*
X9186848Y-14968555D02*
X9167801Y-14987603D01*
X9167801Y-14987603D02*
X9148753Y-14997127D01*
X9348753Y-15120936D02*
X9358277Y-15130460D01*
X9358277Y-15130460D02*
X9348753Y-15139984D01*
X9348753Y-15139984D02*
X9339229Y-15130460D01*
X9339229Y-15130460D02*
X9348753Y-15120936D01*
X9348753Y-15120936D02*
X9348753Y-15139984D01*
X9424944Y-14939984D02*
X9548753Y-14939984D01*
X9548753Y-14939984D02*
X9482086Y-15016174D01*
X9482086Y-15016174D02*
X9510658Y-15016174D01*
X9510658Y-15016174D02*
X9529705Y-15025698D01*
X9529705Y-15025698D02*
X9539229Y-15035222D01*
X9539229Y-15035222D02*
X9548753Y-15054269D01*
X9548753Y-15054269D02*
X9548753Y-15101888D01*
X9548753Y-15101888D02*
X9539229Y-15120936D01*
X9539229Y-15120936D02*
X9529705Y-15130460D01*
X9529705Y-15130460D02*
X9510658Y-15139984D01*
X9510658Y-15139984D02*
X9453515Y-15139984D01*
X9453515Y-15139984D02*
X9434467Y-15130460D01*
X9434467Y-15130460D02*
X9424944Y-15120936D01*
X9672563Y-14939984D02*
X9691610Y-14939984D01*
X9691610Y-14939984D02*
X9710658Y-14949508D01*
X9710658Y-14949508D02*
X9720182Y-14959031D01*
X9720182Y-14959031D02*
X9729705Y-14978079D01*
X9729705Y-14978079D02*
X9739229Y-15016174D01*
X9739229Y-15016174D02*
X9739229Y-15063793D01*
X9739229Y-15063793D02*
X9729705Y-15101888D01*
X9729705Y-15101888D02*
X9720182Y-15120936D01*
X9720182Y-15120936D02*
X9710658Y-15130460D01*
X9710658Y-15130460D02*
X9691610Y-15139984D01*
X9691610Y-15139984D02*
X9672563Y-15139984D01*
X9672563Y-15139984D02*
X9653515Y-15130460D01*
X9653515Y-15130460D02*
X9643991Y-15120936D01*
X9643991Y-15120936D02*
X9634467Y-15101888D01*
X9634467Y-15101888D02*
X9624944Y-15063793D01*
X9624944Y-15063793D02*
X9624944Y-15016174D01*
X9624944Y-15016174D02*
X9634467Y-14978079D01*
X9634467Y-14978079D02*
X9643991Y-14959031D01*
X9643991Y-14959031D02*
X9653515Y-14949508D01*
X9653515Y-14949508D02*
X9672563Y-14939984D01*
X9863039Y-14939984D02*
X9882086Y-14939984D01*
X9882086Y-14939984D02*
X9901134Y-14949508D01*
X9901134Y-14949508D02*
X9910658Y-14959031D01*
X9910658Y-14959031D02*
X9920182Y-14978079D01*
X9920182Y-14978079D02*
X9929705Y-15016174D01*
X9929705Y-15016174D02*
X9929705Y-15063793D01*
X9929705Y-15063793D02*
X9920182Y-15101888D01*
X9920182Y-15101888D02*
X9910658Y-15120936D01*
X9910658Y-15120936D02*
X9901134Y-15130460D01*
X9901134Y-15130460D02*
X9882086Y-15139984D01*
X9882086Y-15139984D02*
X9863039Y-15139984D01*
X9863039Y-15139984D02*
X9843991Y-15130460D01*
X9843991Y-15130460D02*
X9834467Y-15120936D01*
X9834467Y-15120936D02*
X9824944Y-15101888D01*
X9824944Y-15101888D02*
X9815420Y-15063793D01*
X9815420Y-15063793D02*
X9815420Y-15016174D01*
X9815420Y-15016174D02*
X9824944Y-14978079D01*
X9824944Y-14978079D02*
X9834467Y-14959031D01*
X9834467Y-14959031D02*
X9843991Y-14949508D01*
X9843991Y-14949508D02*
X9863039Y-14939984D01*
X10015420Y-15139984D02*
X10015420Y-15006650D01*
X10015420Y-15025698D02*
X10024944Y-15016174D01*
X10024944Y-15016174D02*
X10043991Y-15006650D01*
X10043991Y-15006650D02*
X10072563Y-15006650D01*
X10072563Y-15006650D02*
X10091610Y-15016174D01*
X10091610Y-15016174D02*
X10101134Y-15035222D01*
X10101134Y-15035222D02*
X10101134Y-15139984D01*
X10101134Y-15035222D02*
X10110658Y-15016174D01*
X10110658Y-15016174D02*
X10129705Y-15006650D01*
X10129705Y-15006650D02*
X10158277Y-15006650D01*
X10158277Y-15006650D02*
X10177325Y-15016174D01*
X10177325Y-15016174D02*
X10186848Y-15035222D01*
X10186848Y-15035222D02*
X10186848Y-15139984D01*
X10282086Y-15139984D02*
X10282086Y-15006650D01*
X10282086Y-15025698D02*
X10291610Y-15016174D01*
X10291610Y-15016174D02*
X10310658Y-15006650D01*
X10310658Y-15006650D02*
X10339229Y-15006650D01*
X10339229Y-15006650D02*
X10358277Y-15016174D01*
X10358277Y-15016174D02*
X10367801Y-15035222D01*
X10367801Y-15035222D02*
X10367801Y-15139984D01*
X10367801Y-15035222D02*
X10377325Y-15016174D01*
X10377325Y-15016174D02*
X10396372Y-15006650D01*
X10396372Y-15006650D02*
X10424944Y-15006650D01*
X10424944Y-15006650D02*
X10443991Y-15016174D01*
X10443991Y-15016174D02*
X10453515Y-15035222D01*
X10453515Y-15035222D02*
X10453515Y-15139984D01*
X10843991Y-14930460D02*
X10672563Y-15187603D01*
X11101134Y-14939984D02*
X11120182Y-14939984D01*
X11120182Y-14939984D02*
X11139229Y-14949508D01*
X11139229Y-14949508D02*
X11148753Y-14959031D01*
X11148753Y-14959031D02*
X11158277Y-14978079D01*
X11158277Y-14978079D02*
X11167801Y-15016174D01*
X11167801Y-15016174D02*
X11167801Y-15063793D01*
X11167801Y-15063793D02*
X11158277Y-15101888D01*
X11158277Y-15101888D02*
X11148753Y-15120936D01*
X11148753Y-15120936D02*
X11139229Y-15130460D01*
X11139229Y-15130460D02*
X11120182Y-15139984D01*
X11120182Y-15139984D02*
X11101134Y-15139984D01*
X11101134Y-15139984D02*
X11082087Y-15130460D01*
X11082087Y-15130460D02*
X11072563Y-15120936D01*
X11072563Y-15120936D02*
X11063039Y-15101888D01*
X11063039Y-15101888D02*
X11053515Y-15063793D01*
X11053515Y-15063793D02*
X11053515Y-15016174D01*
X11053515Y-15016174D02*
X11063039Y-14978079D01*
X11063039Y-14978079D02*
X11072563Y-14959031D01*
X11072563Y-14959031D02*
X11082087Y-14949508D01*
X11082087Y-14949508D02*
X11101134Y-14939984D01*
X11253515Y-15120936D02*
X11263039Y-15130460D01*
X11263039Y-15130460D02*
X11253515Y-15139984D01*
X11253515Y-15139984D02*
X11243991Y-15130460D01*
X11243991Y-15130460D02*
X11253515Y-15120936D01*
X11253515Y-15120936D02*
X11253515Y-15139984D01*
X11386848Y-14939984D02*
X11405896Y-14939984D01*
X11405896Y-14939984D02*
X11424944Y-14949508D01*
X11424944Y-14949508D02*
X11434467Y-14959031D01*
X11434467Y-14959031D02*
X11443991Y-14978079D01*
X11443991Y-14978079D02*
X11453515Y-15016174D01*
X11453515Y-15016174D02*
X11453515Y-15063793D01*
X11453515Y-15063793D02*
X11443991Y-15101888D01*
X11443991Y-15101888D02*
X11434467Y-15120936D01*
X11434467Y-15120936D02*
X11424944Y-15130460D01*
X11424944Y-15130460D02*
X11405896Y-15139984D01*
X11405896Y-15139984D02*
X11386848Y-15139984D01*
X11386848Y-15139984D02*
X11367801Y-15130460D01*
X11367801Y-15130460D02*
X11358277Y-15120936D01*
X11358277Y-15120936D02*
X11348753Y-15101888D01*
X11348753Y-15101888D02*
X11339229Y-15063793D01*
X11339229Y-15063793D02*
X11339229Y-15016174D01*
X11339229Y-15016174D02*
X11348753Y-14978079D01*
X11348753Y-14978079D02*
X11358277Y-14959031D01*
X11358277Y-14959031D02*
X11367801Y-14949508D01*
X11367801Y-14949508D02*
X11386848Y-14939984D01*
X11634467Y-14939984D02*
X11539229Y-14939984D01*
X11539229Y-14939984D02*
X11529706Y-15035222D01*
X11529706Y-15035222D02*
X11539229Y-15025698D01*
X11539229Y-15025698D02*
X11558277Y-15016174D01*
X11558277Y-15016174D02*
X11605896Y-15016174D01*
X11605896Y-15016174D02*
X11624944Y-15025698D01*
X11624944Y-15025698D02*
X11634467Y-15035222D01*
X11634467Y-15035222D02*
X11643991Y-15054269D01*
X11643991Y-15054269D02*
X11643991Y-15101888D01*
X11643991Y-15101888D02*
X11634467Y-15120936D01*
X11634467Y-15120936D02*
X11624944Y-15130460D01*
X11624944Y-15130460D02*
X11605896Y-15139984D01*
X11605896Y-15139984D02*
X11558277Y-15139984D01*
X11558277Y-15139984D02*
X11539229Y-15130460D01*
X11539229Y-15130460D02*
X11529706Y-15120936D01*
X11834467Y-15139984D02*
X11720182Y-15139984D01*
X11777325Y-15139984D02*
X11777325Y-14939984D01*
X11777325Y-14939984D02*
X11758277Y-14968555D01*
X11758277Y-14968555D02*
X11739229Y-14987603D01*
X11739229Y-14987603D02*
X11720182Y-14997127D01*
X11910658Y-14959031D02*
X11920182Y-14949508D01*
X11920182Y-14949508D02*
X11939229Y-14939984D01*
X11939229Y-14939984D02*
X11986848Y-14939984D01*
X11986848Y-14939984D02*
X12005896Y-14949508D01*
X12005896Y-14949508D02*
X12015420Y-14959031D01*
X12015420Y-14959031D02*
X12024944Y-14978079D01*
X12024944Y-14978079D02*
X12024944Y-14997127D01*
X12024944Y-14997127D02*
X12015420Y-15025698D01*
X12015420Y-15025698D02*
X11901134Y-15139984D01*
X11901134Y-15139984D02*
X12024944Y-15139984D01*
X12101134Y-14939984D02*
X12101134Y-14978079D01*
X12177325Y-14939984D02*
X12177325Y-14978079D01*
X12472563Y-15216174D02*
X12463039Y-15206650D01*
X12463039Y-15206650D02*
X12443991Y-15178079D01*
X12443991Y-15178079D02*
X12434468Y-15159031D01*
X12434468Y-15159031D02*
X12424944Y-15130460D01*
X12424944Y-15130460D02*
X12415420Y-15082841D01*
X12415420Y-15082841D02*
X12415420Y-15044746D01*
X12415420Y-15044746D02*
X12424944Y-14997127D01*
X12424944Y-14997127D02*
X12434468Y-14968555D01*
X12434468Y-14968555D02*
X12443991Y-14949508D01*
X12443991Y-14949508D02*
X12463039Y-14920936D01*
X12463039Y-14920936D02*
X12472563Y-14911412D01*
X12634468Y-15006650D02*
X12634468Y-15139984D01*
X12586848Y-14930460D02*
X12539229Y-15073317D01*
X12539229Y-15073317D02*
X12663039Y-15073317D01*
X12891610Y-15139984D02*
X12891610Y-14939984D01*
X12977325Y-15139984D02*
X12977325Y-15035222D01*
X12977325Y-15035222D02*
X12967801Y-15016174D01*
X12967801Y-15016174D02*
X12948753Y-15006650D01*
X12948753Y-15006650D02*
X12920182Y-15006650D01*
X12920182Y-15006650D02*
X12901134Y-15016174D01*
X12901134Y-15016174D02*
X12891610Y-15025698D01*
X13101134Y-15139984D02*
X13082087Y-15130460D01*
X13082087Y-15130460D02*
X13072563Y-15120936D01*
X13072563Y-15120936D02*
X13063039Y-15101888D01*
X13063039Y-15101888D02*
X13063039Y-15044746D01*
X13063039Y-15044746D02*
X13072563Y-15025698D01*
X13072563Y-15025698D02*
X13082087Y-15016174D01*
X13082087Y-15016174D02*
X13101134Y-15006650D01*
X13101134Y-15006650D02*
X13129706Y-15006650D01*
X13129706Y-15006650D02*
X13148753Y-15016174D01*
X13148753Y-15016174D02*
X13158277Y-15025698D01*
X13158277Y-15025698D02*
X13167801Y-15044746D01*
X13167801Y-15044746D02*
X13167801Y-15101888D01*
X13167801Y-15101888D02*
X13158277Y-15120936D01*
X13158277Y-15120936D02*
X13148753Y-15130460D01*
X13148753Y-15130460D02*
X13129706Y-15139984D01*
X13129706Y-15139984D02*
X13101134Y-15139984D01*
X13282087Y-15139984D02*
X13263039Y-15130460D01*
X13263039Y-15130460D02*
X13253515Y-15111412D01*
X13253515Y-15111412D02*
X13253515Y-14939984D01*
X13434468Y-15130460D02*
X13415420Y-15139984D01*
X13415420Y-15139984D02*
X13377325Y-15139984D01*
X13377325Y-15139984D02*
X13358277Y-15130460D01*
X13358277Y-15130460D02*
X13348753Y-15111412D01*
X13348753Y-15111412D02*
X13348753Y-15035222D01*
X13348753Y-15035222D02*
X13358277Y-15016174D01*
X13358277Y-15016174D02*
X13377325Y-15006650D01*
X13377325Y-15006650D02*
X13415420Y-15006650D01*
X13415420Y-15006650D02*
X13434468Y-15016174D01*
X13434468Y-15016174D02*
X13443991Y-15035222D01*
X13443991Y-15035222D02*
X13443991Y-15054269D01*
X13443991Y-15054269D02*
X13348753Y-15073317D01*
X13520182Y-15130460D02*
X13539230Y-15139984D01*
X13539230Y-15139984D02*
X13577325Y-15139984D01*
X13577325Y-15139984D02*
X13596372Y-15130460D01*
X13596372Y-15130460D02*
X13605896Y-15111412D01*
X13605896Y-15111412D02*
X13605896Y-15101888D01*
X13605896Y-15101888D02*
X13596372Y-15082841D01*
X13596372Y-15082841D02*
X13577325Y-15073317D01*
X13577325Y-15073317D02*
X13548753Y-15073317D01*
X13548753Y-15073317D02*
X13529706Y-15063793D01*
X13529706Y-15063793D02*
X13520182Y-15044746D01*
X13520182Y-15044746D02*
X13520182Y-15035222D01*
X13520182Y-15035222D02*
X13529706Y-15016174D01*
X13529706Y-15016174D02*
X13548753Y-15006650D01*
X13548753Y-15006650D02*
X13577325Y-15006650D01*
X13577325Y-15006650D02*
X13596372Y-15016174D01*
X13672563Y-15216174D02*
X13682087Y-15206650D01*
X13682087Y-15206650D02*
X13701134Y-15178079D01*
X13701134Y-15178079D02*
X13710658Y-15159031D01*
X13710658Y-15159031D02*
X13720182Y-15130460D01*
X13720182Y-15130460D02*
X13729706Y-15082841D01*
X13729706Y-15082841D02*
X13729706Y-15044746D01*
X13729706Y-15044746D02*
X13720182Y-14997127D01*
X13720182Y-14997127D02*
X13710658Y-14968555D01*
X13710658Y-14968555D02*
X13701134Y-14949508D01*
X13701134Y-14949508D02*
X13682087Y-14920936D01*
X13682087Y-14920936D02*
X13672563Y-14911412D01*
M02*
