%TF.GenerationSoftware,KiCad,Pcbnew,9.0.4*%
%TF.CreationDate,2025-12-28T21:15:45+01:00*%
%TF.ProjectId,ESP motors 2.0,45535020-6d6f-4746-9f72-7320322e302e,rev?*%
%TF.SameCoordinates,Original*%
%TF.FileFunction,Copper,L1,Top*%
%TF.FilePolarity,Positive*%
%FSLAX46Y46*%
G04 Gerber Fmt 4.6, Leading zero omitted, Abs format (unit mm)*
G04 Created by KiCad (PCBNEW 9.0.4) date 2025-12-28 21:15:45*
%MOMM*%
%LPD*%
G01*
G04 APERTURE LIST*
G04 Aperture macros list*
%AMRoundRect*
0 Rectangle with rounded corners*
0 $1 Rounding radius*
0 $2 $3 $4 $5 $6 $7 $8 $9 X,Y pos of 4 corners*
0 Add a 4 corners polygon primitive as box body*
4,1,4,$2,$3,$4,$5,$6,$7,$8,$9,$2,$3,0*
0 Add four circle primitives for the rounded corners*
1,1,$1+$1,$2,$3*
1,1,$1+$1,$4,$5*
1,1,$1+$1,$6,$7*
1,1,$1+$1,$8,$9*
0 Add four rect primitives between the rounded corners*
20,1,$1+$1,$2,$3,$4,$5,0*
20,1,$1+$1,$4,$5,$6,$7,0*
20,1,$1+$1,$6,$7,$8,$9,0*
20,1,$1+$1,$8,$9,$2,$3,0*%
G04 Aperture macros list end*
%TA.AperFunction,ComponentPad*%
%ADD10C,1.600000*%
%TD*%
%TA.AperFunction,ComponentPad*%
%ADD11RoundRect,0.250001X1.149999X1.149999X-1.149999X1.149999X-1.149999X-1.149999X1.149999X-1.149999X0*%
%TD*%
%TA.AperFunction,ComponentPad*%
%ADD12C,2.800000*%
%TD*%
%TA.AperFunction,ComponentPad*%
%ADD13R,1.800000X1.800000*%
%TD*%
%TA.AperFunction,ComponentPad*%
%ADD14C,1.800000*%
%TD*%
%TA.AperFunction,ComponentPad*%
%ADD15R,1.700000X1.700000*%
%TD*%
%TA.AperFunction,ComponentPad*%
%ADD16C,1.700000*%
%TD*%
%TA.AperFunction,ComponentPad*%
%ADD17RoundRect,0.250000X0.600000X0.750000X-0.600000X0.750000X-0.600000X-0.750000X0.600000X-0.750000X0*%
%TD*%
%TA.AperFunction,ComponentPad*%
%ADD18O,1.700000X2.000000*%
%TD*%
%TA.AperFunction,ViaPad*%
%ADD19C,0.600000*%
%TD*%
%TA.AperFunction,Conductor*%
%ADD20C,0.800000*%
%TD*%
%TA.AperFunction,Conductor*%
%ADD21C,1.200000*%
%TD*%
G04 APERTURE END LIST*
D10*
%TO.P,C1,1*%
%TO.N,+12V*%
X128000000Y-66000000D03*
%TO.P,C1,2*%
%TO.N,GND*%
X128000000Y-63500000D03*
%TD*%
D11*
%TO.P,Alim1,1,Pin_1*%
%TO.N,+12V*%
X118000000Y-64500000D03*
D12*
%TO.P,Alim1,2,Pin_2*%
%TO.N,GND*%
X113000000Y-64500000D03*
%TD*%
D13*
%TO.P,D1,1,K*%
%TO.N,GND*%
X92230000Y-117500000D03*
D14*
%TO.P,D1,2,A*%
%TO.N,Net-(D1-A)*%
X94770000Y-117500000D03*
%TD*%
D10*
%TO.P,R1,1*%
%TO.N,+5V*%
X92770000Y-104460000D03*
%TO.P,R1,2*%
%TO.N,Net-(D1-A)*%
X92770000Y-112080000D03*
%TD*%
%TO.P,R3,1*%
%TO.N,en*%
X111810000Y-130000000D03*
%TO.P,R3,2*%
%TO.N,+3.3V*%
X104190000Y-130000000D03*
%TD*%
D11*
%TO.P,Alim2,1,Pin_1*%
%TO.N,+5V*%
X151500000Y-64500000D03*
D12*
%TO.P,Alim2,2,Pin_2*%
%TO.N,GND*%
X146500000Y-64500000D03*
%TD*%
D15*
%TO.P,Motor4,1,Pin_1*%
%TO.N,4.out1*%
X164500000Y-104080000D03*
D16*
%TO.P,Motor4,2,Pin_2*%
%TO.N,GND*%
X164500000Y-106620000D03*
%TO.P,Motor4,3,Pin_3*%
%TO.N,4.encodA*%
X164500000Y-109160000D03*
%TO.P,Motor4,4,Pin_4*%
%TO.N,4.encodB*%
X164500000Y-111700000D03*
%TO.P,Motor4,5,Pin_5*%
%TO.N,+3.3V*%
X164500000Y-114240000D03*
%TO.P,Motor4,6,Pin_6*%
%TO.N,4.out2*%
X164500000Y-116780000D03*
%TD*%
D17*
%TO.P,J7,1,Pin_1*%
%TO.N,en*%
X100000000Y-126000000D03*
D18*
%TO.P,J7,2*%
%TO.N,N/C*%
X97500000Y-126000000D03*
%TD*%
D15*
%TO.P,J3,1,Pin_1*%
%TO.N,1.EN*%
X110500000Y-76800000D03*
D16*
%TO.P,J3,2,Pin_2*%
%TO.N,1.IN1*%
X110500000Y-79340000D03*
%TO.P,J3,3,Pin_3*%
%TO.N,1.IN2*%
X110500000Y-81880000D03*
%TO.P,J3,4,Pin_4*%
%TO.N,+5V*%
X110500000Y-84420000D03*
%TO.P,J3,5,Pin_5*%
%TO.N,2.IN1*%
X110500000Y-86960000D03*
%TO.P,J3,6,Pin_6*%
%TO.N,2.IN2*%
X110500000Y-89500000D03*
%TO.P,J3,7,Pin_7*%
%TO.N,2.EN*%
X110500000Y-92040000D03*
%TO.P,J3,8,Pin_8*%
%TO.N,GND*%
X110500000Y-94580000D03*
%TD*%
D10*
%TO.P,R2,1*%
%TO.N,+12V*%
X106810000Y-59500000D03*
%TO.P,R2,2*%
%TO.N,Net-(D2-A)*%
X99190000Y-59500000D03*
%TD*%
D15*
%TO.P,J1,1,Pin_1*%
%TO.N,GND*%
X146000000Y-76780000D03*
D16*
%TO.P,J1,2,Pin_2*%
%TO.N,3.IN1*%
X146000000Y-79320000D03*
%TO.P,J1,3,Pin_3*%
%TO.N,4.EN*%
X146000000Y-81860000D03*
%TO.P,J1,4,Pin_4*%
%TO.N,unconnected-(J1-Pin_4-Pad4)*%
X146000000Y-84400000D03*
%TO.P,J1,5,Pin_5*%
%TO.N,unconnected-(J1-Pin_5-Pad5)*%
X146000000Y-86940000D03*
%TO.P,J1,6,Pin_6*%
%TO.N,3.EN*%
X146000000Y-89480000D03*
%TO.P,J1,7,Pin_7*%
%TO.N,GND*%
X146000000Y-92020000D03*
%TO.P,J1,8,Pin_8*%
%TO.N,1.IN1*%
X146000000Y-94560000D03*
%TO.P,J1,9,Pin_9*%
%TO.N,1.EN*%
X146000000Y-97100000D03*
%TO.P,J1,10,Pin_10*%
%TO.N,3.IN2*%
X146000000Y-99640000D03*
%TO.P,J1,11,Pin_11*%
%TO.N,servoR*%
X146000000Y-102180000D03*
%TO.P,J1,12,Pin_12*%
%TO.N,4.IN1*%
X146000000Y-104720000D03*
%TO.P,J1,13,Pin_13*%
%TO.N,2.IN2*%
X146000000Y-107260000D03*
%TO.P,J1,14,Pin_14*%
%TO.N,unconnected-(J1-Pin_14-Pad14)*%
X146000000Y-109800000D03*
%TO.P,J1,15,Pin_15*%
%TO.N,1.IN2*%
X146000000Y-112340000D03*
%TO.P,J1,16,Pin_16*%
%TO.N,4.IN2*%
X146000000Y-114880000D03*
%TO.P,J1,17,Pin_17*%
%TO.N,unconnected-(J1-Pin_17-Pad17)*%
X146000000Y-117420000D03*
%TO.P,J1,18,Pin_18*%
%TO.N,unconnected-(J1-Pin_18-Pad18)*%
X146000000Y-119960000D03*
%TO.P,J1,19,Pin_19*%
%TO.N,unconnected-(J1-Pin_19-Pad19)*%
X146000000Y-122500000D03*
%TD*%
D15*
%TO.P,J2,1,Pin_1*%
%TO.N,+5V*%
X120500000Y-122660000D03*
D16*
%TO.P,J2,2,Pin_2*%
%TO.N,unconnected-(J2-Pin_2-Pad2)*%
X120500000Y-120120000D03*
%TO.P,J2,3,Pin_3*%
%TO.N,unconnected-(J2-Pin_3-Pad3)*%
X120500000Y-117580000D03*
%TO.P,J2,4,Pin_4*%
%TO.N,unconnected-(J2-Pin_4-Pad4)*%
X120500000Y-115040000D03*
%TO.P,J2,5,Pin_5*%
%TO.N,servoL*%
X120500000Y-112500000D03*
%TO.P,J2,6,Pin_6*%
%TO.N,GND*%
X120500000Y-109960000D03*
%TO.P,J2,7,Pin_7*%
%TO.N,2.EN*%
X120500000Y-107420000D03*
%TO.P,J2,8,Pin_8*%
%TO.N,2.IN1*%
X120500000Y-104880000D03*
%TO.P,J2,9,Pin_9*%
%TO.N,4.encodB*%
X120500000Y-102340000D03*
%TO.P,J2,10,Pin_10*%
%TO.N,4.encodA*%
X120500000Y-99800000D03*
%TO.P,J2,11,Pin_11*%
%TO.N,3.encodB*%
X120500000Y-97260000D03*
%TO.P,J2,12,Pin_12*%
%TO.N,servo M*%
X120500000Y-94720000D03*
%TO.P,J2,13,Pin_13*%
%TO.N,3.encodA*%
X120500000Y-92180000D03*
%TO.P,J2,14,Pin_14*%
%TO.N,2.encodB*%
X120500000Y-89640000D03*
%TO.P,J2,15,Pin_15*%
%TO.N,2.encodA*%
X120500000Y-87100000D03*
%TO.P,J2,16,Pin_16*%
%TO.N,1.encodB*%
X120500000Y-84560000D03*
%TO.P,J2,17,Pin_17*%
%TO.N,1.encodA*%
X120500000Y-82020000D03*
%TO.P,J2,18,Pin_18*%
%TO.N,en*%
X120500000Y-79480000D03*
%TO.P,J2,19,Pin_19*%
%TO.N,+3.3V*%
X120500000Y-76940000D03*
%TD*%
D10*
%TO.P,C2,1*%
%TO.N,+12V*%
X103500000Y-66000000D03*
%TO.P,C2,2*%
%TO.N,GND*%
X103500000Y-63500000D03*
%TD*%
D15*
%TO.P,J8,1,Pin_1*%
%TO.N,GND*%
X172500000Y-106620000D03*
D16*
%TO.P,J8,2,Pin_2*%
%TO.N,servo M*%
X172500000Y-109160000D03*
%TO.P,J8,3,Pin_3*%
%TO.N,servoR*%
X172500000Y-111700000D03*
%TO.P,J8,4,Pin_4*%
%TO.N,servoL*%
X172500000Y-114240000D03*
%TD*%
D10*
%TO.P,C4,1*%
%TO.N,+5V*%
X139500000Y-66250000D03*
%TO.P,C4,2*%
%TO.N,GND*%
X139500000Y-63750000D03*
%TD*%
D15*
%TO.P,Motor3,1,Pin_1*%
%TO.N,3.out1*%
X156000000Y-104040000D03*
D16*
%TO.P,Motor3,2,Pin_2*%
%TO.N,GND*%
X156000000Y-106580000D03*
%TO.P,Motor3,3,Pin_3*%
%TO.N,3.encodA*%
X156000000Y-109120000D03*
%TO.P,Motor3,4,Pin_4*%
%TO.N,3.encodB*%
X156000000Y-111660000D03*
%TO.P,Motor3,5,Pin_5*%
%TO.N,+3.3V*%
X156000000Y-114200000D03*
%TO.P,Motor3,6,Pin_6*%
%TO.N,3.out2*%
X156000000Y-116740000D03*
%TD*%
D15*
%TO.P,J4,1,Pin_1*%
%TO.N,+12V*%
X95500000Y-76840000D03*
D16*
%TO.P,J4,2,Pin_2*%
%TO.N,+5V*%
X95500000Y-79380000D03*
%TO.P,J4,3,Pin_3*%
%TO.N,GND*%
X95500000Y-81920000D03*
%TO.P,J4,4,Pin_4*%
%TO.N,1.out1*%
X95500000Y-84460000D03*
%TO.P,J4,5,Pin_5*%
%TO.N,1.out2*%
X95500000Y-87000000D03*
%TO.P,J4,6,Pin_6*%
%TO.N,2.out1*%
X95500000Y-89540000D03*
%TO.P,J4,7,Pin_7*%
%TO.N,2.out2*%
X95500000Y-92080000D03*
%TO.P,J4,8,Pin_8*%
%TO.N,GND*%
X95500000Y-94620000D03*
%TD*%
D13*
%TO.P,D2,1,K*%
%TO.N,GND*%
X91960000Y-67500000D03*
D14*
%TO.P,D2,2,A*%
%TO.N,Net-(D2-A)*%
X94500000Y-67500000D03*
%TD*%
D10*
%TO.P,C3,1*%
%TO.N,+5V*%
X160500000Y-65500000D03*
%TO.P,C3,2*%
%TO.N,GND*%
X160500000Y-63000000D03*
%TD*%
D15*
%TO.P,J6,1,Pin_1*%
%TO.N,3.EN*%
X171000000Y-76920000D03*
D16*
%TO.P,J6,2,Pin_2*%
%TO.N,3.IN1*%
X171000000Y-79460000D03*
%TO.P,J6,3,Pin_3*%
%TO.N,3.IN2*%
X171000000Y-82000000D03*
%TO.P,J6,4,Pin_4*%
%TO.N,+5V*%
X171000000Y-84540000D03*
%TO.P,J6,5,Pin_5*%
%TO.N,4.IN1*%
X171000000Y-87080000D03*
%TO.P,J6,6,Pin_6*%
%TO.N,4.IN2*%
X171000000Y-89620000D03*
%TO.P,J6,7,Pin_7*%
%TO.N,4.EN*%
X171000000Y-92160000D03*
%TO.P,J6,8,Pin_8*%
%TO.N,GND*%
X171000000Y-94700000D03*
%TD*%
D15*
%TO.P,Motor2,1,Pin_1*%
%TO.N,1.out1*%
X101500000Y-116580000D03*
D16*
%TO.P,Motor2,2,Pin_2*%
%TO.N,GND*%
X101500000Y-114040000D03*
%TO.P,Motor2,3,Pin_3*%
%TO.N,1.encodB*%
X101500000Y-111500000D03*
%TO.P,Motor2,4,Pin_4*%
%TO.N,1.encodA*%
X101500000Y-108960000D03*
%TO.P,Motor2,5,Pin_5*%
%TO.N,+3.3V*%
X101500000Y-106420000D03*
%TO.P,Motor2,6,Pin_6*%
%TO.N,1.out2*%
X101500000Y-103880000D03*
%TD*%
D15*
%TO.P,Motor1,1,Pin_1*%
%TO.N,2.out1*%
X110500000Y-104460000D03*
D16*
%TO.P,Motor1,2,Pin_2*%
%TO.N,GND*%
X110500000Y-107000000D03*
%TO.P,Motor1,3,Pin_3*%
%TO.N,2.encodA*%
X110500000Y-109540000D03*
%TO.P,Motor1,4,Pin_4*%
%TO.N,2.encodB*%
X110500000Y-112080000D03*
%TO.P,Motor1,5,Pin_5*%
%TO.N,+3.3V*%
X110500000Y-114620000D03*
%TO.P,Motor1,6,Pin_6*%
%TO.N,2.out2*%
X110500000Y-117160000D03*
%TD*%
D15*
%TO.P,J5,1,Pin_1*%
%TO.N,+12V*%
X156000000Y-76920000D03*
D16*
%TO.P,J5,2,Pin_2*%
%TO.N,+5V*%
X156000000Y-79460000D03*
%TO.P,J5,3,Pin_3*%
%TO.N,GND*%
X156000000Y-82000000D03*
%TO.P,J5,4,Pin_4*%
%TO.N,3.out1*%
X156000000Y-84540000D03*
%TO.P,J5,5,Pin_5*%
%TO.N,3.out2*%
X156000000Y-87080000D03*
%TO.P,J5,6,Pin_6*%
%TO.N,4.out1*%
X156000000Y-89620000D03*
%TO.P,J5,7,Pin_7*%
%TO.N,4.out2*%
X156000000Y-92160000D03*
%TO.P,J5,8,Pin_8*%
%TO.N,GND*%
X156000000Y-94700000D03*
%TD*%
D19*
%TO.N,GND*%
X152500000Y-93500000D03*
X100000000Y-95500000D03*
X105750000Y-95250000D03*
X101000000Y-74000000D03*
X162500000Y-107000000D03*
X149500000Y-90000000D03*
X98750000Y-64250000D03*
X164500000Y-69500000D03*
X174000000Y-92500000D03*
X159000000Y-107000000D03*
X106000000Y-105500000D03*
X100500000Y-120000000D03*
%TO.N,+12V*%
X154500000Y-72000000D03*
X153000000Y-76500000D03*
%TO.N,+5V*%
X108000000Y-84000000D03*
X153000000Y-79000000D03*
X120500000Y-73000000D03*
X98500000Y-79000000D03*
X149500000Y-71000000D03*
X122840000Y-122660000D03*
%TO.N,4.encodA*%
X167000000Y-106500000D03*
X129500000Y-99800000D03*
%TO.N,3.IN2*%
X149000000Y-99500000D03*
X163500000Y-82500000D03*
%TO.N,1.IN2*%
X113000000Y-84500000D03*
X142000000Y-115500000D03*
%TO.N,4.encodB*%
X155000000Y-130500000D03*
X167000000Y-110000000D03*
%TO.N,1.IN1*%
X141250000Y-97250000D03*
X113000000Y-82000000D03*
%TO.N,1.EN*%
X137750000Y-101750000D03*
X113250000Y-79750000D03*
%TO.N,3.EN*%
X164500000Y-77000000D03*
%TO.N,+3.3V*%
X162000000Y-114500000D03*
X110000000Y-124500000D03*
X125000000Y-76500000D03*
X159750000Y-117750000D03*
X125500000Y-110500000D03*
%TO.N,1.encodB*%
X101500000Y-71500000D03*
X96000000Y-111000000D03*
%TO.N,3.encodA*%
X124000000Y-93000000D03*
X124000000Y-103000000D03*
X153500000Y-110000000D03*
X146000000Y-129000000D03*
%TO.N,2.encodA*%
X106500000Y-98500000D03*
X103000000Y-97000000D03*
%TO.N,2.IN2*%
X139250000Y-110750000D03*
X116000000Y-95000000D03*
%TO.N,1.encodA*%
X98000000Y-73000000D03*
X97000000Y-109000000D03*
%TO.N,3.encodB*%
X129500000Y-97500000D03*
X139000000Y-95500000D03*
X132500000Y-97500000D03*
X152000000Y-113000000D03*
%TO.N,1.out1*%
X99000000Y-115000000D03*
X98000000Y-85000000D03*
%TO.N,2.out1*%
X106000000Y-104000000D03*
X98000000Y-99000000D03*
%TO.N,2.out2*%
X107500000Y-117000000D03*
X99500000Y-93500000D03*
%TO.N,3.out1*%
X162000000Y-91700000D03*
X157840000Y-102200000D03*
%TO.N,servoL*%
X134000000Y-113000000D03*
X124000000Y-113000000D03*
%TO.N,en*%
X127000000Y-111000000D03*
X127000000Y-79500000D03*
%TD*%
D20*
%TO.N,GND*%
X102500000Y-120000000D02*
X100500000Y-120000000D01*
X106000000Y-105500000D02*
X104500000Y-107000000D01*
X103000000Y-69500000D02*
X103000000Y-73500000D01*
X149500000Y-90000000D02*
X152500000Y-93000000D01*
X98750000Y-64250000D02*
X98750000Y-65250000D01*
X104500000Y-107000000D02*
X104500000Y-118000000D01*
X98750000Y-65250000D02*
X103000000Y-69500000D01*
X102500000Y-74000000D02*
X101000000Y-74000000D01*
X164500000Y-69500000D02*
X168000000Y-69500000D01*
X104500000Y-118000000D02*
X102500000Y-120000000D01*
X159000000Y-107000000D02*
X162500000Y-107000000D01*
X152500000Y-93000000D02*
X152500000Y-93500000D01*
X103000000Y-73500000D02*
X102500000Y-74000000D01*
X174000000Y-75500000D02*
X174000000Y-92500000D01*
X168000000Y-69500000D02*
X174000000Y-75500000D01*
X105750000Y-95250000D02*
X105500000Y-95500000D01*
X105500000Y-95500000D02*
X100000000Y-95500000D01*
D21*
%TO.N,+12V*%
X153000000Y-72500000D02*
X153000000Y-76500000D01*
X154500000Y-72000000D02*
X153500000Y-72000000D01*
X153500000Y-72000000D02*
X153000000Y-72500000D01*
D20*
%TO.N,+5V*%
X150000000Y-71500000D02*
X150000000Y-76000000D01*
X122840000Y-75340000D02*
X120500000Y-73000000D01*
X109000000Y-73000000D02*
X120500000Y-73000000D01*
X150000000Y-76000000D02*
X153000000Y-79000000D01*
X103000000Y-79000000D02*
X109000000Y-73000000D01*
X149500000Y-71000000D02*
X150000000Y-71500000D01*
X122840000Y-122660000D02*
X122840000Y-75340000D01*
X108000000Y-84000000D02*
X103000000Y-79000000D01*
X98500000Y-79000000D02*
X103000000Y-79000000D01*
%TO.N,4.encodA*%
X167000000Y-78084372D02*
X167000000Y-106500000D01*
X147000000Y-68500000D02*
X157415628Y-68500000D01*
X141000000Y-91500000D02*
X141000000Y-74500000D01*
X129500000Y-99800000D02*
X132700000Y-99800000D01*
X141000000Y-74500000D02*
X147000000Y-68500000D01*
X132700000Y-99800000D02*
X141000000Y-91500000D01*
X157415628Y-68500000D02*
X167000000Y-78084372D01*
%TO.N,3.IN2*%
X159000000Y-97000000D02*
X156500000Y-99500000D01*
X159000000Y-87000000D02*
X159000000Y-97000000D01*
X156500000Y-99500000D02*
X149000000Y-99500000D01*
X163500000Y-82500000D02*
X159000000Y-87000000D01*
%TO.N,1.IN2*%
X142000000Y-115500000D02*
X142000000Y-123000000D01*
X117000000Y-129000000D02*
X113000000Y-125000000D01*
X113000000Y-125000000D02*
X113000000Y-84500000D01*
X142000000Y-123000000D02*
X136000000Y-129000000D01*
X136000000Y-129000000D02*
X117000000Y-129000000D01*
%TO.N,4.encodB*%
X167000000Y-110000000D02*
X167000000Y-118500000D01*
X167000000Y-118500000D02*
X155000000Y-130500000D01*
%TO.N,1.IN1*%
X117500000Y-127500000D02*
X135000000Y-127500000D01*
X114500000Y-124500000D02*
X117500000Y-127500000D01*
X114500000Y-83500000D02*
X114500000Y-124500000D01*
X140500000Y-98000000D02*
X141250000Y-97250000D01*
X140500000Y-122000000D02*
X140500000Y-98000000D01*
X113000000Y-82000000D02*
X114500000Y-83500000D01*
X135000000Y-127500000D02*
X140500000Y-122000000D01*
%TO.N,1.EN*%
X118500000Y-124500000D02*
X133500000Y-124500000D01*
X113250000Y-79750000D02*
X116000000Y-82500000D01*
X133500000Y-124500000D02*
X135500000Y-122500000D01*
X117500000Y-94000000D02*
X117500000Y-123500000D01*
X116000000Y-92500000D02*
X117500000Y-94000000D01*
X117500000Y-123500000D02*
X118500000Y-124500000D01*
X116000000Y-82500000D02*
X116000000Y-92500000D01*
X135500000Y-104000000D02*
X137750000Y-101750000D01*
X135500000Y-122500000D02*
X135500000Y-104000000D01*
%TO.N,3.EN*%
X143000000Y-75500000D02*
X143000000Y-86500000D01*
X148500000Y-70000000D02*
X143000000Y-75500000D01*
X163500000Y-77000000D02*
X156500000Y-70000000D01*
X164500000Y-77000000D02*
X163500000Y-77000000D01*
X156500000Y-70000000D02*
X148500000Y-70000000D01*
X143000000Y-86500000D02*
X143020000Y-86500000D01*
X143020000Y-86500000D02*
X146000000Y-89480000D01*
%TO.N,+3.3V*%
X152500000Y-130500000D02*
X116000000Y-130500000D01*
X125500000Y-77000000D02*
X125000000Y-76500000D01*
X116000000Y-130500000D02*
X110000000Y-124500000D01*
X159750000Y-117750000D02*
X159500000Y-118000000D01*
X159750000Y-117750000D02*
X162000000Y-115500000D01*
X159500000Y-123500000D02*
X152500000Y-130500000D01*
X159500000Y-118000000D02*
X159500000Y-123500000D01*
X125500000Y-110500000D02*
X125500000Y-77000000D01*
X162000000Y-115500000D02*
X162000000Y-114500000D01*
%TO.N,1.encodB*%
X94500000Y-71500000D02*
X92000000Y-74000000D01*
X101500000Y-71500000D02*
X94500000Y-71500000D01*
X92000000Y-100500000D02*
X95000000Y-103500000D01*
X95000000Y-103500000D02*
X95000000Y-110000000D01*
X95000000Y-110000000D02*
X96000000Y-111000000D01*
X92000000Y-74000000D02*
X92000000Y-100500000D01*
%TO.N,3.encodA*%
X146000000Y-129000000D02*
X149000000Y-129000000D01*
X149000000Y-129000000D02*
X153500000Y-124500000D01*
X153500000Y-124500000D02*
X153500000Y-110000000D01*
X124000000Y-103000000D02*
X124000000Y-93000000D01*
%TO.N,2.encodA*%
X105000000Y-97000000D02*
X106500000Y-98500000D01*
X103000000Y-97000000D02*
X105000000Y-97000000D01*
%TO.N,2.IN2*%
X118000000Y-126000000D02*
X116000000Y-124000000D01*
X134500000Y-126000000D02*
X118000000Y-126000000D01*
X116000000Y-124000000D02*
X116000000Y-95000000D01*
X137000000Y-123500000D02*
X134500000Y-126000000D01*
X139250000Y-110750000D02*
X137000000Y-113000000D01*
X137000000Y-113000000D02*
X137000000Y-123500000D01*
%TO.N,1.encodA*%
X95000000Y-73000000D02*
X98000000Y-73000000D01*
X97000000Y-109000000D02*
X96000000Y-108000000D01*
X93500000Y-74500000D02*
X95000000Y-73000000D01*
X96000000Y-108000000D02*
X96000000Y-102500000D01*
X96000000Y-102500000D02*
X93500000Y-100000000D01*
X93500000Y-100000000D02*
X93500000Y-74500000D01*
%TO.N,3.encodB*%
X129500000Y-97500000D02*
X132500000Y-97500000D01*
X152000000Y-123230226D02*
X152000000Y-113000000D01*
X141500000Y-95500000D02*
X143500000Y-97500000D01*
X149230226Y-126000000D02*
X152000000Y-123230226D01*
X143500000Y-97500000D02*
X143500000Y-125000000D01*
X139000000Y-95500000D02*
X141500000Y-95500000D01*
X143500000Y-125000000D02*
X144500000Y-126000000D01*
X144500000Y-126000000D02*
X149230226Y-126000000D01*
%TO.N,1.out1*%
X98000000Y-97000000D02*
X97000000Y-98000000D01*
X97000000Y-98000000D02*
X97000000Y-100500000D01*
X98500000Y-102000000D02*
X98500000Y-114500000D01*
X98500000Y-114500000D02*
X99000000Y-115000000D01*
X98000000Y-85000000D02*
X98000000Y-97000000D01*
X97000000Y-100500000D02*
X98500000Y-102000000D01*
%TO.N,2.out1*%
X103500000Y-99000000D02*
X98000000Y-99000000D01*
X104500000Y-100000000D02*
X103500000Y-99000000D01*
X106000000Y-104000000D02*
X105500000Y-104000000D01*
X105500000Y-104000000D02*
X104500000Y-103000000D01*
X104500000Y-103000000D02*
X104500000Y-100000000D01*
%TO.N,2.out2*%
X99500000Y-93500000D02*
X106000000Y-93500000D01*
X108500000Y-96000000D02*
X108500000Y-116000000D01*
X108500000Y-116000000D02*
X107500000Y-117000000D01*
X106000000Y-93500000D02*
X108500000Y-96000000D01*
%TO.N,3.out1*%
X162000000Y-91700000D02*
X162000000Y-100200000D01*
X160000000Y-102200000D02*
X157840000Y-102200000D01*
X162000000Y-100200000D02*
X160000000Y-102200000D01*
%TO.N,servoL*%
X134000000Y-113000000D02*
X124000000Y-113000000D01*
%TO.N,en*%
X127000000Y-111000000D02*
X127000000Y-79500000D01*
%TD*%
M02*
