%TF.GenerationSoftware,KiCad,Pcbnew,9.0.4*%
%TF.CreationDate,2026-02-05T18:16:12+01:00*%
%TF.ProjectId,sheild esp pami ninja,73686569-6c64-4206-9573-702070616d69,rev?*%
%TF.SameCoordinates,Original*%
%TF.FileFunction,Copper,L1,Top*%
%TF.FilePolarity,Positive*%
%FSLAX46Y46*%
G04 Gerber Fmt 4.6, Leading zero omitted, Abs format (unit mm)*
G04 Created by KiCad (PCBNEW 9.0.4) date 2026-02-05 18:16:12*
%MOMM*%
%LPD*%
G01*
G04 APERTURE LIST*
G04 Aperture macros list*
%AMRoundRect*
0 Rectangle with rounded corners*
0 $1 Rounding radius*
0 $2 $3 $4 $5 $6 $7 $8 $9 X,Y pos of 4 corners*
0 Add a 4 corners polygon primitive as box body*
4,1,4,$2,$3,$4,$5,$6,$7,$8,$9,$2,$3,0*
0 Add four circle primitives for the rounded corners*
1,1,$1+$1,$2,$3*
1,1,$1+$1,$4,$5*
1,1,$1+$1,$6,$7*
1,1,$1+$1,$8,$9*
0 Add four rect primitives between the rounded corners*
20,1,$1+$1,$2,$3,$4,$5,0*
20,1,$1+$1,$4,$5,$6,$7,0*
20,1,$1+$1,$6,$7,$8,$9,0*
20,1,$1+$1,$8,$9,$2,$3,0*%
G04 Aperture macros list end*
%TA.AperFunction,ComponentPad*%
%ADD10RoundRect,0.250000X-0.750000X0.600000X-0.750000X-0.600000X0.750000X-0.600000X0.750000X0.600000X0*%
%TD*%
%TA.AperFunction,ComponentPad*%
%ADD11O,2.000000X1.700000*%
%TD*%
%TA.AperFunction,ComponentPad*%
%ADD12C,1.600000*%
%TD*%
%TA.AperFunction,ComponentPad*%
%ADD13R,1.700000X1.700000*%
%TD*%
%TA.AperFunction,ComponentPad*%
%ADD14C,1.700000*%
%TD*%
%TA.AperFunction,ComponentPad*%
%ADD15RoundRect,0.249999X0.850001X-0.850001X0.850001X0.850001X-0.850001X0.850001X-0.850001X-0.850001X0*%
%TD*%
%TA.AperFunction,ComponentPad*%
%ADD16C,2.200000*%
%TD*%
%TA.AperFunction,ComponentPad*%
%ADD17R,1.800000X1.800000*%
%TD*%
%TA.AperFunction,ComponentPad*%
%ADD18C,1.800000*%
%TD*%
%TA.AperFunction,ComponentPad*%
%ADD19RoundRect,0.250001X-1.149999X1.149999X-1.149999X-1.149999X1.149999X-1.149999X1.149999X1.149999X0*%
%TD*%
%TA.AperFunction,ComponentPad*%
%ADD20C,2.800000*%
%TD*%
%TA.AperFunction,ComponentPad*%
%ADD21RoundRect,0.250000X0.550000X-0.550000X0.550000X0.550000X-0.550000X0.550000X-0.550000X-0.550000X0*%
%TD*%
%TA.AperFunction,ComponentPad*%
%ADD22R,1.905000X2.000000*%
%TD*%
%TA.AperFunction,ComponentPad*%
%ADD23O,1.905000X2.000000*%
%TD*%
%TA.AperFunction,ComponentPad*%
%ADD24RoundRect,0.249999X-0.850001X0.850001X-0.850001X-0.850001X0.850001X-0.850001X0.850001X0.850001X0*%
%TD*%
%TA.AperFunction,ComponentPad*%
%ADD25RoundRect,0.249999X0.850001X0.850001X-0.850001X0.850001X-0.850001X-0.850001X0.850001X-0.850001X0*%
%TD*%
%TA.AperFunction,ComponentPad*%
%ADD26RoundRect,0.250001X1.149999X1.149999X-1.149999X1.149999X-1.149999X-1.149999X1.149999X-1.149999X0*%
%TD*%
%TA.AperFunction,ComponentPad*%
%ADD27RoundRect,0.250000X0.600000X0.750000X-0.600000X0.750000X-0.600000X-0.750000X0.600000X-0.750000X0*%
%TD*%
%TA.AperFunction,ComponentPad*%
%ADD28O,1.700000X2.000000*%
%TD*%
%TA.AperFunction,ViaPad*%
%ADD29C,0.600000*%
%TD*%
%TA.AperFunction,Conductor*%
%ADD30C,1.000000*%
%TD*%
G04 APERTURE END LIST*
D10*
%TO.P,ElectrovanneF2,1,Pin_1*%
%TO.N,+12V*%
X179500000Y-132750000D03*
D11*
%TO.P,ElectrovanneF2,2,Pin_2*%
%TO.N,Net-(D4-A)*%
X179500000Y-135250000D03*
%TD*%
D12*
%TO.P,C7,1*%
%TO.N,+12V*%
X112250000Y-143000000D03*
%TO.P,C7,2*%
%TO.N,GND*%
X112250000Y-140500000D03*
%TD*%
D13*
%TO.P,J5,1,Pin_1*%
%TO.N,+5V*%
X152624000Y-111808000D03*
D14*
%TO.P,J5,2,Pin_2*%
%TO.N,trig*%
X152624000Y-109268000D03*
%TO.P,J5,3,Pin_3*%
%TO.N,echo*%
X152624000Y-106728000D03*
%TO.P,J5,4,Pin_4*%
%TO.N,GND*%
X152624000Y-104188000D03*
%TD*%
D15*
%TO.P,D4,1,K*%
%TO.N,+12V*%
X173198000Y-140764000D03*
D16*
%TO.P,D4,2,A*%
%TO.N,Net-(D4-A)*%
X173198000Y-130604000D03*
%TD*%
D12*
%TO.P,R5,1*%
%TO.N,+12V*%
X177500000Y-140750000D03*
%TO.P,R5,2*%
%TO.N,Net-(D3-A)*%
X177500000Y-148370000D03*
%TD*%
D10*
%TO.P,evanne1,1,Pin_1*%
%TO.N,+12V*%
X176750000Y-107236000D03*
D11*
%TO.P,evanne1,2,Pin_2*%
%TO.N,Net-(D2-A)*%
X176750000Y-109736000D03*
%TD*%
D13*
%TO.P,Motor1,1,Pin_1*%
%TO.N,/M2_out1*%
X119000000Y-84250000D03*
D14*
%TO.P,Motor1,2,Pin_2*%
%TO.N,GND*%
X116460000Y-84250000D03*
%TO.P,Motor1,3,Pin_3*%
%TO.N,/Codeur2_A*%
X113920000Y-84250000D03*
%TO.P,Motor1,4,Pin_4*%
%TO.N,/Codeur2_B*%
X111380000Y-84250000D03*
%TO.P,Motor1,5,Pin_5*%
%TO.N,+3.3V*%
X108840000Y-84250000D03*
%TO.P,Motor1,6,Pin_6*%
%TO.N,/M2_out2*%
X106300000Y-84250000D03*
%TD*%
D12*
%TO.P,C1,1*%
%TO.N,+5V*%
X153250000Y-87250000D03*
%TO.P,C1,2*%
%TO.N,GND*%
X150750000Y-87250000D03*
%TD*%
D17*
%TO.P,D1,1,K*%
%TO.N,Net-(D1-K)*%
X152624000Y-97076000D03*
D18*
%TO.P,D1,2,A*%
%TO.N,+5V*%
X152624000Y-99616000D03*
%TD*%
D19*
%TO.P,Alim3,1,Pin_1*%
%TO.N,+12V*%
X101250000Y-140750000D03*
D20*
%TO.P,Alim3,2,Pin_2*%
%TO.N,GND*%
X101250000Y-145750000D03*
%TD*%
D13*
%TO.P,J3,1,Pin_1*%
%TO.N,GND*%
X121500000Y-143250000D03*
D14*
%TO.P,J3,2,Pin_2*%
%TO.N,/M1_EN*%
X121500000Y-140710000D03*
%TO.P,J3,3,Pin_3*%
%TO.N,/M1_IN1*%
X121500000Y-138170000D03*
%TO.P,J3,4,Pin_4*%
%TO.N,unconnected-(J3-Pin_4-Pad4)*%
X121500000Y-135630000D03*
%TO.P,J3,5,Pin_5*%
%TO.N,unconnected-(J3-Pin_5-Pad5)*%
X121500000Y-133090000D03*
%TO.P,J3,6,Pin_6*%
%TO.N,/M1_IN2*%
X121500000Y-130550000D03*
%TO.P,J3,7,Pin_7*%
%TO.N,GND*%
X121500000Y-128010000D03*
%TO.P,J3,8,Pin_8*%
%TO.N,/M2_IN1*%
X121500000Y-125470000D03*
%TO.P,J3,9,Pin_9*%
%TO.N,/M2_IN2*%
X121500000Y-122930000D03*
%TO.P,J3,10,Pin_10*%
%TO.N,unconnected-(J3-Pin_10-Pad10)*%
X121500000Y-120390000D03*
%TO.P,J3,11,Pin_11*%
%TO.N,/M2_EN*%
X121500000Y-117850000D03*
%TO.P,J3,12,Pin_12*%
%TO.N,/Codeur1_A*%
X121500000Y-115310000D03*
%TO.P,J3,13,Pin_13*%
%TO.N,/Codeur1_B*%
X121500000Y-112770000D03*
%TO.P,J3,14,Pin_14*%
%TO.N,unconnected-(J3-Pin_14-Pad14)*%
X121500000Y-110230000D03*
%TO.P,J3,15,Pin_15*%
%TO.N,/Codeur2_B*%
X121500000Y-107690000D03*
%TO.P,J3,16,Pin_16*%
%TO.N,/Codeur2_A*%
X121500000Y-105150000D03*
%TO.P,J3,17,Pin_17*%
%TO.N,unconnected-(J3-Pin_17-Pad17)*%
X121500000Y-102610000D03*
%TO.P,J3,18,Pin_18*%
%TO.N,unconnected-(J3-Pin_18-Pad18)*%
X121500000Y-100070000D03*
%TO.P,J3,19,Pin_19*%
%TO.N,unconnected-(J3-Pin_19-Pad19)*%
X121500000Y-97530000D03*
%TD*%
D12*
%TO.P,C6,1*%
%TO.N,+12V*%
X110500000Y-135250000D03*
%TO.P,C6,2*%
%TO.N,GND*%
X110500000Y-132750000D03*
%TD*%
%TO.P,R6,1*%
%TO.N,Evanne F2*%
X151100000Y-124254000D03*
%TO.P,R6,2*%
%TO.N,Net-(Q2-G)*%
X158720000Y-124254000D03*
%TD*%
%TO.P,R22,1*%
%TO.N,Net-(Q10-G)*%
X161500000Y-128318000D03*
%TO.P,R22,2*%
%TO.N,GND*%
X169120000Y-128318000D03*
%TD*%
D13*
%TO.P,Tirette1,1,Pin_1*%
%TO.N,tirette*%
X155418000Y-135938000D03*
D14*
%TO.P,Tirette1,2,Pin_2*%
%TO.N,GND*%
X155418000Y-138478000D03*
%TD*%
D13*
%TO.P,J1,1,Pin_1*%
%TO.N,+5V*%
X147000000Y-97320000D03*
D14*
%TO.P,J1,2,Pin_2*%
%TO.N,unconnected-(J1-Pin_2-Pad2)*%
X147000000Y-99860000D03*
%TO.P,J1,3,Pin_3*%
%TO.N,unconnected-(J1-Pin_3-Pad3)*%
X147000000Y-102400000D03*
%TO.P,J1,4,Pin_4*%
%TO.N,unconnected-(J1-Pin_4-Pad4)*%
X147000000Y-104940000D03*
%TO.P,J1,5,Pin_5*%
%TO.N,unconnected-(J1-Pin_5-Pad5)*%
X147000000Y-107480000D03*
%TO.P,J1,6,Pin_6*%
%TO.N,GND*%
X147000000Y-110020000D03*
%TO.P,J1,7,Pin_7*%
%TO.N,echo*%
X147000000Y-112560000D03*
%TO.P,J1,8,Pin_8*%
%TO.N,trig*%
X147000000Y-115100000D03*
%TO.P,J1,9,Pin_9*%
%TO.N,sig1*%
X147000000Y-117640000D03*
%TO.P,J1,10,Pin_10*%
%TO.N,Evanne F1*%
X147000000Y-120180000D03*
%TO.P,J1,11,Pin_11*%
%TO.N,Evanne F2*%
X147000000Y-122720000D03*
%TO.P,J1,12,Pin_12*%
%TO.N,pompe1*%
X147000000Y-125260000D03*
%TO.P,J1,13,Pin_13*%
%TO.N,tirette*%
X147000000Y-127800000D03*
%TO.P,J1,14,Pin_14*%
%TO.N,unconnected-(J1-Pin_14-Pad14)*%
X147000000Y-130340000D03*
%TO.P,J1,15,Pin_15*%
%TO.N,unconnected-(J1-Pin_15-Pad15)*%
X147000000Y-132880000D03*
%TO.P,J1,16,Pin_16*%
%TO.N,unconnected-(J1-Pin_16-Pad16)*%
X147000000Y-135420000D03*
%TO.P,J1,17,Pin_17*%
%TO.N,unconnected-(J1-Pin_17-Pad17)*%
X147000000Y-137960000D03*
%TO.P,J1,18,Pin_18*%
%TO.N,unconnected-(J1-Pin_18-Pad18)*%
X147000000Y-140500000D03*
%TO.P,J1,19,Pin_19*%
%TO.N,+3.3V*%
X147000000Y-143040000D03*
%TD*%
D12*
%TO.P,R62,1*%
%TO.N,Net-(Q2-G)*%
X161500000Y-124250000D03*
%TO.P,R62,2*%
%TO.N,GND*%
X169120000Y-124250000D03*
%TD*%
D21*
%TO.P,U2,1*%
%TO.N,Net-(U2-Pad1)*%
X157704000Y-111808000D03*
D12*
%TO.P,U2,2*%
%TO.N,GND*%
X160244000Y-111808000D03*
%TO.P,U2,3*%
%TO.N,out1*%
X160244000Y-104188000D03*
%TO.P,U2,4*%
%TO.N,+5V*%
X157704000Y-104188000D03*
%TD*%
D22*
%TO.P,Q1,1,G*%
%TO.N,Net-(Q1-G)*%
X173750000Y-119500000D03*
D23*
%TO.P,Q1,2,D*%
%TO.N,Net-(D2-A)*%
X176290000Y-119500000D03*
%TO.P,Q1,3,S*%
%TO.N,GND*%
X178830000Y-119500000D03*
%TD*%
D13*
%TO.P,servo1_out1,1,Pin_1*%
%TO.N,out1*%
X164250000Y-105500000D03*
D14*
%TO.P,servo1_out1,2,Pin_2*%
%TO.N,+5V*%
X164250000Y-108040000D03*
%TO.P,servo1_out1,3,Pin_3*%
%TO.N,GND*%
X164250000Y-110580000D03*
%TD*%
D12*
%TO.P,R2,1*%
%TO.N,GND*%
X165250000Y-96250000D03*
%TO.P,R2,2*%
%TO.N,Net-(D1-K)*%
X157630000Y-96250000D03*
%TD*%
D17*
%TO.P,D3,1,K*%
%TO.N,GND*%
X174250000Y-145750000D03*
D18*
%TO.P,D3,2,A*%
%TO.N,Net-(D3-A)*%
X171710000Y-145750000D03*
%TD*%
D12*
%TO.P,pull_down1,1*%
%TO.N,out1*%
X165070000Y-100250000D03*
%TO.P,pull_down1,2*%
%TO.N,GND*%
X157450000Y-100250000D03*
%TD*%
%TO.P,in1,1*%
%TO.N,sig1*%
X151100000Y-116126000D03*
%TO.P,in1,2*%
%TO.N,Net-(U2-Pad1)*%
X158720000Y-116126000D03*
%TD*%
D22*
%TO.P,Q2,1,G*%
%TO.N,Net-(Q2-G)*%
X173750000Y-126500000D03*
D23*
%TO.P,Q2,2,D*%
%TO.N,Net-(D4-A)*%
X176290000Y-126500000D03*
%TO.P,Q2,3,S*%
%TO.N,GND*%
X178830000Y-126500000D03*
%TD*%
D12*
%TO.P,R1,1*%
%TO.N,tirette*%
X151354000Y-135176000D03*
%TO.P,R1,2*%
%TO.N,+3.3V*%
X151354000Y-142796000D03*
%TD*%
%TO.P,R3,1*%
%TO.N,Net-(Q1-G)*%
X161500000Y-119750000D03*
%TO.P,R3,2*%
%TO.N,GND*%
X169120000Y-119750000D03*
%TD*%
%TO.P,R4,1*%
%TO.N,Evanne F1*%
X151100000Y-120190000D03*
%TO.P,R4,2*%
%TO.N,Net-(Q1-G)*%
X158720000Y-120190000D03*
%TD*%
D22*
%TO.P,Q10,1,G*%
%TO.N,Net-(Q10-G)*%
X161006000Y-134922000D03*
D23*
%TO.P,Q10,2,D*%
%TO.N,Net-(D11-A)*%
X163546000Y-134922000D03*
%TO.P,Q10,3,S*%
%TO.N,GND*%
X166086000Y-134922000D03*
%TD*%
D24*
%TO.P,D2,1,K*%
%TO.N,+12V*%
X170150000Y-103680000D03*
D16*
%TO.P,D2,2,A*%
%TO.N,Net-(D2-A)*%
X170150000Y-113840000D03*
%TD*%
D25*
%TO.P,D11,1,K*%
%TO.N,+12V*%
X169388000Y-139494000D03*
D16*
%TO.P,D11,2,A*%
%TO.N,Net-(D11-A)*%
X159228000Y-139494000D03*
%TD*%
D12*
%TO.P,R21,1*%
%TO.N,pompe1*%
X151100000Y-128318000D03*
%TO.P,R21,2*%
%TO.N,Net-(Q10-G)*%
X158720000Y-128318000D03*
%TD*%
D13*
%TO.P,J4,1,Pin_1*%
%TO.N,GND*%
X94750000Y-103250000D03*
D14*
%TO.P,J4,2,Pin_2*%
%TO.N,/M2_out2*%
X94750000Y-105790000D03*
%TO.P,J4,3,Pin_3*%
%TO.N,/M2_out1*%
X94750000Y-108330000D03*
%TO.P,J4,4,Pin_4*%
%TO.N,/M1_out2*%
X94750000Y-110870000D03*
%TO.P,J4,5,Pin_5*%
%TO.N,/M1_out1*%
X94750000Y-113410000D03*
%TO.P,J4,6,Pin_6*%
%TO.N,GND*%
X94750000Y-115950000D03*
%TO.P,J4,7,Pin_7*%
%TO.N,+5V*%
X94750000Y-118490000D03*
%TO.P,J4,8,Pin_8*%
%TO.N,+12V*%
X94750000Y-121030000D03*
%TD*%
D26*
%TO.P,power_input1,1,Pin_1*%
%TO.N,GND*%
X176000000Y-90250000D03*
D20*
%TO.P,power_input1,2,Pin_2*%
%TO.N,+5V*%
X171000000Y-90250000D03*
%TD*%
D27*
%TO.P,pompe1,1,Pin_1*%
%TO.N,+12V*%
X165832000Y-146775000D03*
D28*
%TO.P,pompe1,2,Pin_2*%
%TO.N,Net-(D11-A)*%
X163332000Y-146775000D03*
%TD*%
D19*
%TO.P,Alim1,1,Pin_1*%
%TO.N,+12V*%
X101000000Y-128250000D03*
D20*
%TO.P,Alim1,2,Pin_2*%
%TO.N,GND*%
X101000000Y-133250000D03*
%TD*%
D13*
%TO.P,J2,1,Pin_1*%
%TO.N,/M1_EN*%
X109750000Y-121000000D03*
D14*
%TO.P,J2,2,Pin_2*%
%TO.N,/M1_IN1*%
X109750000Y-118460000D03*
%TO.P,J2,3,Pin_3*%
%TO.N,/M1_IN2*%
X109750000Y-115920000D03*
%TO.P,J2,4,Pin_4*%
%TO.N,+5V*%
X109750000Y-113380000D03*
%TO.P,J2,5,Pin_5*%
%TO.N,/M2_IN1*%
X109750000Y-110840000D03*
%TO.P,J2,6,Pin_6*%
%TO.N,/M2_IN2*%
X109750000Y-108300000D03*
%TO.P,J2,7,Pin_7*%
%TO.N,/M2_EN*%
X109750000Y-105760000D03*
%TO.P,J2,8,Pin_8*%
%TO.N,GND*%
X109750000Y-103220000D03*
%TD*%
D13*
%TO.P,Motor2,1,Pin_1*%
%TO.N,/M1_out1*%
X110750000Y-95750000D03*
D14*
%TO.P,Motor2,2,Pin_2*%
%TO.N,GND*%
X108210000Y-95750000D03*
%TO.P,Motor2,3,Pin_3*%
%TO.N,/Codeur1_A*%
X105670000Y-95750000D03*
%TO.P,Motor2,4,Pin_4*%
%TO.N,/Codeur1_B*%
X103130000Y-95750000D03*
%TO.P,Motor2,5,Pin_5*%
%TO.N,+3.3V*%
X100590000Y-95750000D03*
%TO.P,Motor2,6,Pin_6*%
%TO.N,/M1_out2*%
X98050000Y-95750000D03*
%TD*%
D12*
%TO.P,C3,1*%
%TO.N,+5V*%
X164750000Y-87250000D03*
%TO.P,C3,2*%
%TO.N,GND*%
X162250000Y-87250000D03*
%TD*%
D29*
%TO.N,GND*%
X107750000Y-130000000D03*
X105750000Y-99000000D03*
X95750000Y-100000000D03*
X100750000Y-115000000D03*
%TO.N,+3.3V*%
X103000000Y-90750000D03*
X137250000Y-117750000D03*
%TD*%
D30*
%TO.N,GND*%
X100750000Y-123000000D02*
X107750000Y-130000000D01*
X100750000Y-115000000D02*
X100750000Y-123000000D01*
X104750000Y-100000000D02*
X105750000Y-99000000D01*
X95750000Y-100000000D02*
X104750000Y-100000000D01*
%TO.N,+3.3V*%
X137250000Y-117750000D02*
X137250000Y-103750000D01*
X105250000Y-88500000D02*
X103000000Y-90750000D01*
X137250000Y-103750000D02*
X122000000Y-88500000D01*
X122000000Y-88500000D02*
X105250000Y-88500000D01*
%TD*%
M02*
