%TF.GenerationSoftware,KiCad,Pcbnew,9.0.4*%
%TF.CreationDate,2026-02-05T18:16:13+01:00*%
%TF.ProjectId,sheild esp pami ninja,73686569-6c64-4206-9573-702070616d69,rev?*%
%TF.SameCoordinates,Original*%
%TF.FileFunction,Legend,Bot*%
%TF.FilePolarity,Positive*%
%FSLAX46Y46*%
G04 Gerber Fmt 4.6, Leading zero omitted, Abs format (unit mm)*
G04 Created by KiCad (PCBNEW 9.0.4) date 2026-02-05 18:16:13*
%MOMM*%
%LPD*%
G01*
G04 APERTURE LIST*
%ADD10C,0.150000*%
%ADD11C,0.120000*%
G04 APERTURE END LIST*
D10*
X163666666Y-83209580D02*
X163714285Y-83257200D01*
X163714285Y-83257200D02*
X163857142Y-83304819D01*
X163857142Y-83304819D02*
X163952380Y-83304819D01*
X163952380Y-83304819D02*
X164095237Y-83257200D01*
X164095237Y-83257200D02*
X164190475Y-83161961D01*
X164190475Y-83161961D02*
X164238094Y-83066723D01*
X164238094Y-83066723D02*
X164285713Y-82876247D01*
X164285713Y-82876247D02*
X164285713Y-82733390D01*
X164285713Y-82733390D02*
X164238094Y-82542914D01*
X164238094Y-82542914D02*
X164190475Y-82447676D01*
X164190475Y-82447676D02*
X164095237Y-82352438D01*
X164095237Y-82352438D02*
X163952380Y-82304819D01*
X163952380Y-82304819D02*
X163857142Y-82304819D01*
X163857142Y-82304819D02*
X163714285Y-82352438D01*
X163714285Y-82352438D02*
X163666666Y-82400057D01*
X163333332Y-82304819D02*
X162714285Y-82304819D01*
X162714285Y-82304819D02*
X163047618Y-82685771D01*
X163047618Y-82685771D02*
X162904761Y-82685771D01*
X162904761Y-82685771D02*
X162809523Y-82733390D01*
X162809523Y-82733390D02*
X162761904Y-82781009D01*
X162761904Y-82781009D02*
X162714285Y-82876247D01*
X162714285Y-82876247D02*
X162714285Y-83114342D01*
X162714285Y-83114342D02*
X162761904Y-83209580D01*
X162761904Y-83209580D02*
X162809523Y-83257200D01*
X162809523Y-83257200D02*
X162904761Y-83304819D01*
X162904761Y-83304819D02*
X163190475Y-83304819D01*
X163190475Y-83304819D02*
X163285713Y-83257200D01*
X163285713Y-83257200D02*
X163333332Y-83209580D01*
D11*
%TO.C,C3*%
X166770000Y-87250000D02*
G75*
G02*
X160230000Y-87250000I-3270000J0D01*
G01*
X160230000Y-87250000D02*
G75*
G02*
X166770000Y-87250000I3270000J0D01*
G01*
%TD*%
M02*
