%TF.GenerationSoftware,KiCad,Pcbnew,9.0.4*%
%TF.CreationDate,2026-02-05T18:16:13+01:00*%
%TF.ProjectId,sheild esp pami ninja,73686569-6c64-4206-9573-702070616d69,rev?*%
%TF.SameCoordinates,Original*%
%TF.FileFunction,Soldermask,Bot*%
%TF.FilePolarity,Negative*%
%FSLAX46Y46*%
G04 Gerber Fmt 4.6, Leading zero omitted, Abs format (unit mm)*
G04 Created by KiCad (PCBNEW 9.0.4) date 2026-02-05 18:16:13*
%MOMM*%
%LPD*%
G01*
G04 APERTURE LIST*
G04 Aperture macros list*
%AMRoundRect*
0 Rectangle with rounded corners*
0 $1 Rounding radius*
0 $2 $3 $4 $5 $6 $7 $8 $9 X,Y pos of 4 corners*
0 Add a 4 corners polygon primitive as box body*
4,1,4,$2,$3,$4,$5,$6,$7,$8,$9,$2,$3,0*
0 Add four circle primitives for the rounded corners*
1,1,$1+$1,$2,$3*
1,1,$1+$1,$4,$5*
1,1,$1+$1,$6,$7*
1,1,$1+$1,$8,$9*
0 Add four rect primitives between the rounded corners*
20,1,$1+$1,$2,$3,$4,$5,0*
20,1,$1+$1,$4,$5,$6,$7,0*
20,1,$1+$1,$6,$7,$8,$9,0*
20,1,$1+$1,$8,$9,$2,$3,0*%
G04 Aperture macros list end*
%ADD10RoundRect,0.250000X-0.750000X0.600000X-0.750000X-0.600000X0.750000X-0.600000X0.750000X0.600000X0*%
%ADD11O,2.000000X1.700000*%
%ADD12C,1.600000*%
%ADD13R,1.700000X1.700000*%
%ADD14C,1.700000*%
%ADD15RoundRect,0.249999X0.850001X-0.850001X0.850001X0.850001X-0.850001X0.850001X-0.850001X-0.850001X0*%
%ADD16C,2.200000*%
%ADD17C,3.200000*%
%ADD18R,1.800000X1.800000*%
%ADD19C,1.800000*%
%ADD20RoundRect,0.250001X-1.149999X1.149999X-1.149999X-1.149999X1.149999X-1.149999X1.149999X1.149999X0*%
%ADD21C,2.800000*%
%ADD22RoundRect,0.250000X0.550000X-0.550000X0.550000X0.550000X-0.550000X0.550000X-0.550000X-0.550000X0*%
%ADD23R,1.905000X2.000000*%
%ADD24O,1.905000X2.000000*%
%ADD25RoundRect,0.249999X-0.850001X0.850001X-0.850001X-0.850001X0.850001X-0.850001X0.850001X0.850001X0*%
%ADD26RoundRect,0.249999X0.850001X0.850001X-0.850001X0.850001X-0.850001X-0.850001X0.850001X-0.850001X0*%
%ADD27RoundRect,0.250001X1.149999X1.149999X-1.149999X1.149999X-1.149999X-1.149999X1.149999X-1.149999X0*%
%ADD28RoundRect,0.250000X0.600000X0.750000X-0.600000X0.750000X-0.600000X-0.750000X0.600000X-0.750000X0*%
%ADD29O,1.700000X2.000000*%
G04 APERTURE END LIST*
D10*
%TO.C,ElectrovanneF2*%
X179500000Y-132750000D03*
D11*
X179500000Y-135250000D03*
%TD*%
D12*
%TO.C,C7*%
X112250000Y-143000000D03*
X112250000Y-140500000D03*
%TD*%
D13*
%TO.C,J5*%
X152624000Y-111808000D03*
D14*
X152624000Y-109268000D03*
X152624000Y-106728000D03*
X152624000Y-104188000D03*
%TD*%
D15*
%TO.C,D4*%
X173198000Y-140764000D03*
D16*
X173198000Y-130604000D03*
%TD*%
D12*
%TO.C,R5*%
X177500000Y-140750000D03*
X177500000Y-148370000D03*
%TD*%
D17*
%TO.C,REF\u002A\u002A*%
X183250000Y-150000000D03*
%TD*%
D10*
%TO.C,evanne1*%
X176750000Y-107236000D03*
D11*
X176750000Y-109736000D03*
%TD*%
D13*
%TO.C,Motor1*%
X119000000Y-84250000D03*
D14*
X116460000Y-84250000D03*
X113920000Y-84250000D03*
X111380000Y-84250000D03*
X108840000Y-84250000D03*
X106300000Y-84250000D03*
%TD*%
D17*
%TO.C,REF\u002A\u002A*%
X183250000Y-82500000D03*
%TD*%
D12*
%TO.C,C1*%
X153250000Y-87250000D03*
X150750000Y-87250000D03*
%TD*%
D18*
%TO.C,D1*%
X152624000Y-97076000D03*
D19*
X152624000Y-99616000D03*
%TD*%
D20*
%TO.C,Alim3*%
X101250000Y-140750000D03*
D21*
X101250000Y-145750000D03*
%TD*%
D13*
%TO.C,J3*%
X121500000Y-143250000D03*
D14*
X121500000Y-140710000D03*
X121500000Y-138170000D03*
X121500000Y-135630000D03*
X121500000Y-133090000D03*
X121500000Y-130550000D03*
X121500000Y-128010000D03*
X121500000Y-125470000D03*
X121500000Y-122930000D03*
X121500000Y-120390000D03*
X121500000Y-117850000D03*
X121500000Y-115310000D03*
X121500000Y-112770000D03*
X121500000Y-110230000D03*
X121500000Y-107690000D03*
X121500000Y-105150000D03*
X121500000Y-102610000D03*
X121500000Y-100070000D03*
X121500000Y-97530000D03*
%TD*%
D12*
%TO.C,C6*%
X110500000Y-135250000D03*
X110500000Y-132750000D03*
%TD*%
%TO.C,R6*%
X151100000Y-124254000D03*
X158720000Y-124254000D03*
%TD*%
D17*
%TO.C,REF\u002A\u002A*%
X90750000Y-150000000D03*
%TD*%
D12*
%TO.C,R22*%
X161500000Y-128318000D03*
X169120000Y-128318000D03*
%TD*%
D13*
%TO.C,Tirette1*%
X155418000Y-135938000D03*
D14*
X155418000Y-138478000D03*
%TD*%
D13*
%TO.C,J1*%
X147000000Y-97320000D03*
D14*
X147000000Y-99860000D03*
X147000000Y-102400000D03*
X147000000Y-104940000D03*
X147000000Y-107480000D03*
X147000000Y-110020000D03*
X147000000Y-112560000D03*
X147000000Y-115100000D03*
X147000000Y-117640000D03*
X147000000Y-120180000D03*
X147000000Y-122720000D03*
X147000000Y-125260000D03*
X147000000Y-127800000D03*
X147000000Y-130340000D03*
X147000000Y-132880000D03*
X147000000Y-135420000D03*
X147000000Y-137960000D03*
X147000000Y-140500000D03*
X147000000Y-143040000D03*
%TD*%
D12*
%TO.C,R62*%
X161500000Y-124250000D03*
X169120000Y-124250000D03*
%TD*%
D22*
%TO.C,U2*%
X157704000Y-111808000D03*
D12*
X160244000Y-111808000D03*
X160244000Y-104188000D03*
X157704000Y-104188000D03*
%TD*%
D23*
%TO.C,Q1*%
X173750000Y-119500000D03*
D24*
X176290000Y-119500000D03*
X178830000Y-119500000D03*
%TD*%
D13*
%TO.C,servo1_out1*%
X164250000Y-105500000D03*
D14*
X164250000Y-108040000D03*
X164250000Y-110580000D03*
%TD*%
D12*
%TO.C,R2*%
X165250000Y-96250000D03*
X157630000Y-96250000D03*
%TD*%
D17*
%TO.C,REF\u002A\u002A*%
X90750000Y-82500000D03*
%TD*%
D18*
%TO.C,D3*%
X174250000Y-145750000D03*
D19*
X171710000Y-145750000D03*
%TD*%
D12*
%TO.C,pull_down1*%
X165070000Y-100250000D03*
X157450000Y-100250000D03*
%TD*%
%TO.C,in1*%
X151100000Y-116126000D03*
X158720000Y-116126000D03*
%TD*%
D23*
%TO.C,Q2*%
X173750000Y-126500000D03*
D24*
X176290000Y-126500000D03*
X178830000Y-126500000D03*
%TD*%
D12*
%TO.C,R1*%
X151354000Y-135176000D03*
X151354000Y-142796000D03*
%TD*%
%TO.C,R3*%
X161500000Y-119750000D03*
X169120000Y-119750000D03*
%TD*%
%TO.C,R4*%
X151100000Y-120190000D03*
X158720000Y-120190000D03*
%TD*%
D23*
%TO.C,Q10*%
X161006000Y-134922000D03*
D24*
X163546000Y-134922000D03*
X166086000Y-134922000D03*
%TD*%
D25*
%TO.C,D2*%
X170150000Y-103680000D03*
D16*
X170150000Y-113840000D03*
%TD*%
D26*
%TO.C,D11*%
X169388000Y-139494000D03*
D16*
X159228000Y-139494000D03*
%TD*%
D12*
%TO.C,R21*%
X151100000Y-128318000D03*
X158720000Y-128318000D03*
%TD*%
D13*
%TO.C,J4*%
X94750000Y-103250000D03*
D14*
X94750000Y-105790000D03*
X94750000Y-108330000D03*
X94750000Y-110870000D03*
X94750000Y-113410000D03*
X94750000Y-115950000D03*
X94750000Y-118490000D03*
X94750000Y-121030000D03*
%TD*%
D27*
%TO.C,power_input1*%
X176000000Y-90250000D03*
D21*
X171000000Y-90250000D03*
%TD*%
D28*
%TO.C,pompe1*%
X165832000Y-146775000D03*
D29*
X163332000Y-146775000D03*
%TD*%
D20*
%TO.C,Alim1*%
X101000000Y-128250000D03*
D21*
X101000000Y-133250000D03*
%TD*%
D13*
%TO.C,J2*%
X109750000Y-121000000D03*
D14*
X109750000Y-118460000D03*
X109750000Y-115920000D03*
X109750000Y-113380000D03*
X109750000Y-110840000D03*
X109750000Y-108300000D03*
X109750000Y-105760000D03*
X109750000Y-103220000D03*
%TD*%
D13*
%TO.C,Motor2*%
X110750000Y-95750000D03*
D14*
X108210000Y-95750000D03*
X105670000Y-95750000D03*
X103130000Y-95750000D03*
X100590000Y-95750000D03*
X98050000Y-95750000D03*
%TD*%
D12*
%TO.C,C3*%
X164750000Y-87250000D03*
X162250000Y-87250000D03*
%TD*%
M02*
