M48
; DRILL file {KiCad 9.0.4} date 2026-02-05T18:16:07+0100
; FORMAT={-:-/ absolute / metric / decimal}
; #@! TF.CreationDate,2026-02-05T18:16:07+01:00
; #@! TF.GenerationSoftware,Kicad,Pcbnew,9.0.4
; #@! TF.FileFunction,Plated,1,2,PTH
FMAT,2
METRIC
; #@! TA.AperFunction,Plated,PTH,ViaDrill
T1C0.300
; #@! TA.AperFunction,Plated,PTH,ComponentDrill
T2C0.800
; #@! TA.AperFunction,Plated,PTH,ComponentDrill
T3C0.900
; #@! TA.AperFunction,Plated,PTH,ComponentDrill
T4C1.000
; #@! TA.AperFunction,Plated,PTH,ComponentDrill
T5C1.100
; #@! TA.AperFunction,Plated,PTH,ComponentDrill
T6C1.300
%
G90
G05
T1
X95.75Y-100.0
X100.75Y-115.0
X103.0Y-90.75
X105.75Y-99.0
X107.75Y-130.0
X137.25Y-117.75
T2
X110.5Y-132.75
X110.5Y-135.25
X112.25Y-140.5
X112.25Y-143.0
X150.75Y-87.25
X151.1Y-116.126
X151.1Y-120.19
X151.1Y-124.254
X151.1Y-128.318
X151.354Y-135.176
X151.354Y-142.796
X153.25Y-87.25
X157.45Y-100.25
X157.63Y-96.25
X157.704Y-104.188
X157.704Y-111.808
X158.72Y-116.126
X158.72Y-120.19
X158.72Y-124.254
X158.72Y-128.318
X160.244Y-104.188
X160.244Y-111.808
X161.5Y-119.75
X161.5Y-124.25
X161.5Y-128.318
X162.25Y-87.25
X164.75Y-87.25
X165.07Y-100.25
X165.25Y-96.25
X169.12Y-119.75
X169.12Y-124.25
X169.12Y-128.318
X177.5Y-140.75
X177.5Y-148.37
T3
X152.624Y-97.076
X152.624Y-99.616
X171.71Y-145.75
X174.25Y-145.75
T4
X94.75Y-103.25
X94.75Y-105.79
X94.75Y-108.33
X94.75Y-110.87
X94.75Y-113.41
X94.75Y-115.95
X94.75Y-118.49
X94.75Y-121.03
X98.05Y-95.75
X100.59Y-95.75
X103.13Y-95.75
X105.67Y-95.75
X106.3Y-84.25
X108.21Y-95.75
X108.84Y-84.25
X109.75Y-103.22
X109.75Y-105.76
X109.75Y-108.3
X109.75Y-110.84
X109.75Y-113.38
X109.75Y-115.92
X109.75Y-118.46
X109.75Y-121.0
X110.75Y-95.75
X111.38Y-84.25
X113.92Y-84.25
X116.46Y-84.25
X119.0Y-84.25
X121.5Y-97.53
X121.5Y-100.07
X121.5Y-102.61
X121.5Y-105.15
X121.5Y-107.69
X121.5Y-110.23
X121.5Y-112.77
X121.5Y-115.31
X121.5Y-117.85
X121.5Y-120.39
X121.5Y-122.93
X121.5Y-125.47
X121.5Y-128.01
X121.5Y-130.55
X121.5Y-133.09
X121.5Y-135.63
X121.5Y-138.17
X121.5Y-140.71
X121.5Y-143.25
X147.0Y-97.32
X147.0Y-99.86
X147.0Y-102.4
X147.0Y-104.94
X147.0Y-107.48
X147.0Y-110.02
X147.0Y-112.56
X147.0Y-115.1
X147.0Y-117.64
X147.0Y-120.18
X147.0Y-122.72
X147.0Y-125.26
X147.0Y-127.8
X147.0Y-130.34
X147.0Y-132.88
X147.0Y-135.42
X147.0Y-137.96
X147.0Y-140.5
X147.0Y-143.04
X152.624Y-104.188
X152.624Y-106.728
X152.624Y-109.268
X152.624Y-111.808
X155.418Y-135.938
X155.418Y-138.478
X163.332Y-146.775
X164.25Y-105.5
X164.25Y-108.04
X164.25Y-110.58
X165.832Y-146.775
X176.75Y-107.236
X176.75Y-109.736
X179.5Y-132.75
X179.5Y-135.25
T5
X159.228Y-139.494
X161.006Y-134.922
X163.546Y-134.922
X166.086Y-134.922
X169.388Y-139.494
X170.15Y-103.68
X170.15Y-113.84
X173.198Y-130.604
X173.198Y-140.764
X173.75Y-119.5
X173.75Y-126.5
X176.29Y-119.5
X176.29Y-126.5
X178.83Y-119.5
X178.83Y-126.5
T6
X101.0Y-128.25
X101.0Y-133.25
X101.25Y-140.75
X101.25Y-145.75
X171.0Y-90.25
X176.0Y-90.25
M30
