M48
; DRILL file {KiCad 9.0.4} date 2026-02-05T15:08:21+0100
; FORMAT={-:-/ absolute / metric / decimal}
; #@! TF.CreationDate,2026-02-05T15:08:21+01:00
; #@! TF.GenerationSoftware,Kicad,Pcbnew,9.0.4
; #@! TF.FileFunction,Plated,1,2,PTH
FMAT,2
METRIC
; #@! TA.AperFunction,Plated,PTH,ViaDrill
T1C0.300
; #@! TA.AperFunction,Plated,PTH,ComponentDrill
T2C0.800
; #@! TA.AperFunction,Plated,PTH,ComponentDrill
T3C0.900
; #@! TA.AperFunction,Plated,PTH,ComponentDrill
T4C1.000
; #@! TA.AperFunction,Plated,PTH,ComponentDrill
T5C1.300
%
G90
G05
T1
X113.0Y-87.5
X113.0Y-87.5
X122.0Y-116.5
X131.0Y-129.5
X144.0Y-132.5
X158.5Y-79.0
X158.5Y-102.0
X158.5Y-118.0
X164.0Y-82.0
X164.0Y-127.0
T2
X116.5Y-82.69
X116.5Y-90.31
X120.5Y-82.69
X120.5Y-90.31
X126.5Y-127.5
X126.5Y-130.0
X146.5Y-127.75
X146.5Y-130.25
X155.0Y-127.75
X155.0Y-130.25
T3
X118.5Y-94.73
X118.5Y-97.27
T4
X112.5Y-94.46
X112.5Y-97.0
X112.5Y-99.54
X117.235Y-101.225
X119.5Y-106.38
X119.5Y-108.92
X119.5Y-111.46
X119.5Y-114.0
X119.5Y-119.5
X119.5Y-122.04
X119.5Y-124.58
X119.775Y-101.225
X124.75Y-76.21
X124.75Y-78.75
X124.75Y-81.29
X124.75Y-83.83
X124.75Y-86.37
X124.75Y-88.91
X124.75Y-91.45
X124.75Y-93.99
X124.75Y-96.53
X124.75Y-99.07
X124.75Y-101.61
X124.75Y-104.15
X124.75Y-106.69
X124.75Y-109.23
X124.75Y-111.77
X124.75Y-114.31
X124.75Y-116.85
X124.75Y-119.39
X124.75Y-121.93
X150.25Y-76.0
X150.25Y-78.54
X150.25Y-81.08
X150.25Y-83.62
X150.25Y-86.16
X150.25Y-88.7
X150.25Y-91.24
X150.25Y-93.78
X150.25Y-96.32
X150.25Y-98.86
X150.25Y-101.4
X150.25Y-103.94
X150.25Y-106.48
X150.25Y-109.02
X150.25Y-111.56
X150.25Y-114.1
X150.25Y-116.64
X150.25Y-119.18
X150.25Y-121.72
X155.5Y-105.235
X155.5Y-107.775
X155.5Y-115.92
X155.5Y-118.46
X155.5Y-121.0
X156.0Y-78.0
X156.0Y-80.54
X156.0Y-83.08
X156.0Y-85.62
X156.0Y-88.16
X156.0Y-90.7
X156.0Y-93.24
X156.0Y-95.78
X161.0Y-91.84
X161.0Y-94.38
X161.0Y-96.92
X161.0Y-99.46
X161.0Y-102.0
X161.0Y-104.54
X161.0Y-109.5
X161.0Y-112.04
X161.0Y-114.58
X161.0Y-117.12
X161.0Y-119.66
X161.0Y-122.2
T5
X112.5Y-107.5
X112.5Y-112.5
X112.5Y-120.0
X112.5Y-125.0
M30
