%TF.GenerationSoftware,KiCad,Pcbnew,9.0.4*%
%TF.CreationDate,2026-02-05T15:01:38+01:00*%
%TF.ProjectId,carte servo,63617274-6520-4736-9572-766f2e6b6963,rev?*%
%TF.SameCoordinates,Original*%
%TF.FileFunction,Copper,L2,Bot*%
%TF.FilePolarity,Positive*%
%FSLAX46Y46*%
G04 Gerber Fmt 4.6, Leading zero omitted, Abs format (unit mm)*
G04 Created by KiCad (PCBNEW 9.0.4) date 2026-02-05 15:01:38*
%MOMM*%
%LPD*%
G01*
G04 APERTURE LIST*
G04 Aperture macros list*
%AMRoundRect*
0 Rectangle with rounded corners*
0 $1 Rounding radius*
0 $2 $3 $4 $5 $6 $7 $8 $9 X,Y pos of 4 corners*
0 Add a 4 corners polygon primitive as box body*
4,1,4,$2,$3,$4,$5,$6,$7,$8,$9,$2,$3,0*
0 Add four circle primitives for the rounded corners*
1,1,$1+$1,$2,$3*
1,1,$1+$1,$4,$5*
1,1,$1+$1,$6,$7*
1,1,$1+$1,$8,$9*
0 Add four rect primitives between the rounded corners*
20,1,$1+$1,$2,$3,$4,$5,0*
20,1,$1+$1,$4,$5,$6,$7,0*
20,1,$1+$1,$6,$7,$8,$9,0*
20,1,$1+$1,$8,$9,$2,$3,0*%
G04 Aperture macros list end*
%ADD10C,0.187500*%
%TA.AperFunction,NonConductor*%
%ADD11C,0.187500*%
%TD*%
%TA.AperFunction,Conductor*%
%ADD12C,0.200000*%
%TD*%
%ADD13C,0.300000*%
%TA.AperFunction,NonConductor*%
%ADD14C,0.300000*%
%TD*%
%TA.AperFunction,NonConductor*%
%ADD15C,0.200000*%
%TD*%
%TA.AperFunction,ComponentPad*%
%ADD16C,1.600000*%
%TD*%
%TA.AperFunction,ComponentPad*%
%ADD17R,1.700000X1.700000*%
%TD*%
%TA.AperFunction,ComponentPad*%
%ADD18C,1.700000*%
%TD*%
%TA.AperFunction,ComponentPad*%
%ADD19R,1.800000X1.800000*%
%TD*%
%TA.AperFunction,ComponentPad*%
%ADD20C,1.800000*%
%TD*%
%TA.AperFunction,ComponentPad*%
%ADD21RoundRect,0.250000X-0.550000X0.550000X-0.550000X-0.550000X0.550000X-0.550000X0.550000X0.550000X0*%
%TD*%
%TA.AperFunction,ComponentPad*%
%ADD22RoundRect,0.250001X-1.149999X1.149999X-1.149999X-1.149999X1.149999X-1.149999X1.149999X1.149999X0*%
%TD*%
%TA.AperFunction,ComponentPad*%
%ADD23C,2.800000*%
%TD*%
%TA.AperFunction,ComponentPad*%
%ADD24RoundRect,0.250001X1.149999X-1.149999X1.149999X1.149999X-1.149999X1.149999X-1.149999X-1.149999X0*%
%TD*%
%TA.AperFunction,Conductor*%
%ADD25C,1.400000*%
%TD*%
%TA.AperFunction,Conductor*%
%ADD26C,0.800000*%
%TD*%
G04 APERTURE END LIST*
D10*
D11*
X231198073Y-99898464D02*
X231198073Y-99148464D01*
X231198073Y-99505607D02*
X230769502Y-99505607D01*
X230769502Y-99898464D02*
X230769502Y-99148464D01*
X230162359Y-99505607D02*
X230055216Y-99541321D01*
X230055216Y-99541321D02*
X230019502Y-99577035D01*
X230019502Y-99577035D02*
X229983788Y-99648464D01*
X229983788Y-99648464D02*
X229983788Y-99755607D01*
X229983788Y-99755607D02*
X230019502Y-99827035D01*
X230019502Y-99827035D02*
X230055216Y-99862750D01*
X230055216Y-99862750D02*
X230126645Y-99898464D01*
X230126645Y-99898464D02*
X230412359Y-99898464D01*
X230412359Y-99898464D02*
X230412359Y-99148464D01*
X230412359Y-99148464D02*
X230162359Y-99148464D01*
X230162359Y-99148464D02*
X230090931Y-99184178D01*
X230090931Y-99184178D02*
X230055216Y-99219892D01*
X230055216Y-99219892D02*
X230019502Y-99291321D01*
X230019502Y-99291321D02*
X230019502Y-99362750D01*
X230019502Y-99362750D02*
X230055216Y-99434178D01*
X230055216Y-99434178D02*
X230090931Y-99469892D01*
X230090931Y-99469892D02*
X230162359Y-99505607D01*
X230162359Y-99505607D02*
X230412359Y-99505607D01*
X229698073Y-99862750D02*
X229590931Y-99898464D01*
X229590931Y-99898464D02*
X229412359Y-99898464D01*
X229412359Y-99898464D02*
X229340931Y-99862750D01*
X229340931Y-99862750D02*
X229305216Y-99827035D01*
X229305216Y-99827035D02*
X229269502Y-99755607D01*
X229269502Y-99755607D02*
X229269502Y-99684178D01*
X229269502Y-99684178D02*
X229305216Y-99612750D01*
X229305216Y-99612750D02*
X229340931Y-99577035D01*
X229340931Y-99577035D02*
X229412359Y-99541321D01*
X229412359Y-99541321D02*
X229555216Y-99505607D01*
X229555216Y-99505607D02*
X229626645Y-99469892D01*
X229626645Y-99469892D02*
X229662359Y-99434178D01*
X229662359Y-99434178D02*
X229698073Y-99362750D01*
X229698073Y-99362750D02*
X229698073Y-99291321D01*
X229698073Y-99291321D02*
X229662359Y-99219892D01*
X229662359Y-99219892D02*
X229626645Y-99184178D01*
X229626645Y-99184178D02*
X229555216Y-99148464D01*
X229555216Y-99148464D02*
X229376645Y-99148464D01*
X229376645Y-99148464D02*
X229269502Y-99184178D01*
D10*
D11*
X197733787Y-94184178D02*
X197376645Y-94184178D01*
X197805216Y-94398464D02*
X197555216Y-93648464D01*
X197555216Y-93648464D02*
X197305216Y-94398464D01*
X196769502Y-94362750D02*
X196840930Y-94398464D01*
X196840930Y-94398464D02*
X196983788Y-94398464D01*
X196983788Y-94398464D02*
X197055216Y-94362750D01*
X197055216Y-94362750D02*
X197090930Y-94291321D01*
X197090930Y-94291321D02*
X197090930Y-94005607D01*
X197090930Y-94005607D02*
X197055216Y-93934178D01*
X197055216Y-93934178D02*
X196983788Y-93898464D01*
X196983788Y-93898464D02*
X196840930Y-93898464D01*
X196840930Y-93898464D02*
X196769502Y-93934178D01*
X196769502Y-93934178D02*
X196733788Y-94005607D01*
X196733788Y-94005607D02*
X196733788Y-94077035D01*
X196733788Y-94077035D02*
X197090930Y-94148464D01*
X195983788Y-94398464D02*
X196233788Y-94041321D01*
X196412359Y-94398464D02*
X196412359Y-93648464D01*
X196412359Y-93648464D02*
X196126645Y-93648464D01*
X196126645Y-93648464D02*
X196055216Y-93684178D01*
X196055216Y-93684178D02*
X196019502Y-93719892D01*
X196019502Y-93719892D02*
X195983788Y-93791321D01*
X195983788Y-93791321D02*
X195983788Y-93898464D01*
X195983788Y-93898464D02*
X196019502Y-93969892D01*
X196019502Y-93969892D02*
X196055216Y-94005607D01*
X196055216Y-94005607D02*
X196126645Y-94041321D01*
X196126645Y-94041321D02*
X196412359Y-94041321D01*
X195555216Y-94398464D02*
X195626645Y-94362750D01*
X195626645Y-94362750D02*
X195662359Y-94327035D01*
X195662359Y-94327035D02*
X195698073Y-94255607D01*
X195698073Y-94255607D02*
X195698073Y-94041321D01*
X195698073Y-94041321D02*
X195662359Y-93969892D01*
X195662359Y-93969892D02*
X195626645Y-93934178D01*
X195626645Y-93934178D02*
X195555216Y-93898464D01*
X195555216Y-93898464D02*
X195448073Y-93898464D01*
X195448073Y-93898464D02*
X195376645Y-93934178D01*
X195376645Y-93934178D02*
X195340931Y-93969892D01*
X195340931Y-93969892D02*
X195305216Y-94041321D01*
X195305216Y-94041321D02*
X195305216Y-94255607D01*
X195305216Y-94255607D02*
X195340931Y-94327035D01*
X195340931Y-94327035D02*
X195376645Y-94362750D01*
X195376645Y-94362750D02*
X195448073Y-94398464D01*
X195448073Y-94398464D02*
X195555216Y-94398464D01*
X194983788Y-94398464D02*
X194983788Y-93648464D01*
X194983788Y-93934178D02*
X194912360Y-93898464D01*
X194912360Y-93898464D02*
X194769502Y-93898464D01*
X194769502Y-93898464D02*
X194698074Y-93934178D01*
X194698074Y-93934178D02*
X194662360Y-93969892D01*
X194662360Y-93969892D02*
X194626645Y-94041321D01*
X194626645Y-94041321D02*
X194626645Y-94255607D01*
X194626645Y-94255607D02*
X194662360Y-94327035D01*
X194662360Y-94327035D02*
X194698074Y-94362750D01*
X194698074Y-94362750D02*
X194769502Y-94398464D01*
X194769502Y-94398464D02*
X194912360Y-94398464D01*
X194912360Y-94398464D02*
X194983788Y-94362750D01*
X194198074Y-94398464D02*
X194269503Y-94362750D01*
X194269503Y-94362750D02*
X194305217Y-94327035D01*
X194305217Y-94327035D02*
X194340931Y-94255607D01*
X194340931Y-94255607D02*
X194340931Y-94041321D01*
X194340931Y-94041321D02*
X194305217Y-93969892D01*
X194305217Y-93969892D02*
X194269503Y-93934178D01*
X194269503Y-93934178D02*
X194198074Y-93898464D01*
X194198074Y-93898464D02*
X194090931Y-93898464D01*
X194090931Y-93898464D02*
X194019503Y-93934178D01*
X194019503Y-93934178D02*
X193983789Y-93969892D01*
X193983789Y-93969892D02*
X193948074Y-94041321D01*
X193948074Y-94041321D02*
X193948074Y-94255607D01*
X193948074Y-94255607D02*
X193983789Y-94327035D01*
X193983789Y-94327035D02*
X194019503Y-94362750D01*
X194019503Y-94362750D02*
X194090931Y-94398464D01*
X194090931Y-94398464D02*
X194198074Y-94398464D01*
X193733789Y-93898464D02*
X193448075Y-93898464D01*
X193626646Y-93648464D02*
X193626646Y-94291321D01*
X193626646Y-94291321D02*
X193590932Y-94362750D01*
X193590932Y-94362750D02*
X193519503Y-94398464D01*
X193519503Y-94398464D02*
X193448075Y-94398464D01*
X193198075Y-94398464D02*
X193198075Y-93898464D01*
X193198075Y-93648464D02*
X193233789Y-93684178D01*
X193233789Y-93684178D02*
X193198075Y-93719892D01*
X193198075Y-93719892D02*
X193162361Y-93684178D01*
X193162361Y-93684178D02*
X193198075Y-93648464D01*
X193198075Y-93648464D02*
X193198075Y-93719892D01*
X192912361Y-94398464D02*
X192519504Y-93898464D01*
X192912361Y-93898464D02*
X192519504Y-94398464D01*
%TO.N,out3*%
D12*
X191000000Y-56750000D02*
X234000000Y-56750000D01*
X234000000Y-101250000D01*
X191000000Y-101250000D01*
X191000000Y-56750000D01*
D10*
D11*
X198142857Y-89106048D02*
X197642857Y-89106048D01*
X197428571Y-89891762D02*
X198142857Y-89891762D01*
X198142857Y-89891762D02*
X198142857Y-88391762D01*
X198142857Y-88391762D02*
X197428571Y-88391762D01*
X196785714Y-88391762D02*
X196785714Y-89606048D01*
X196785714Y-89606048D02*
X196714285Y-89748905D01*
X196714285Y-89748905D02*
X196642857Y-89820334D01*
X196642857Y-89820334D02*
X196499999Y-89891762D01*
X196499999Y-89891762D02*
X196214285Y-89891762D01*
X196214285Y-89891762D02*
X196071428Y-89820334D01*
X196071428Y-89820334D02*
X195999999Y-89748905D01*
X195999999Y-89748905D02*
X195928571Y-89606048D01*
X195928571Y-89606048D02*
X195928571Y-88391762D01*
X194357142Y-89891762D02*
X194857142Y-89177476D01*
X195214285Y-89891762D02*
X195214285Y-88391762D01*
X195214285Y-88391762D02*
X194642856Y-88391762D01*
X194642856Y-88391762D02*
X194499999Y-88463191D01*
X194499999Y-88463191D02*
X194428570Y-88534619D01*
X194428570Y-88534619D02*
X194357142Y-88677476D01*
X194357142Y-88677476D02*
X194357142Y-88891762D01*
X194357142Y-88891762D02*
X194428570Y-89034619D01*
X194428570Y-89034619D02*
X194499999Y-89106048D01*
X194499999Y-89106048D02*
X194642856Y-89177476D01*
X194642856Y-89177476D02*
X195214285Y-89177476D01*
X193428570Y-88391762D02*
X193142856Y-88391762D01*
X193142856Y-88391762D02*
X192999999Y-88463191D01*
X192999999Y-88463191D02*
X192857142Y-88606048D01*
X192857142Y-88606048D02*
X192785713Y-88891762D01*
X192785713Y-88891762D02*
X192785713Y-89391762D01*
X192785713Y-89391762D02*
X192857142Y-89677476D01*
X192857142Y-89677476D02*
X192999999Y-89820334D01*
X192999999Y-89820334D02*
X193142856Y-89891762D01*
X193142856Y-89891762D02*
X193428570Y-89891762D01*
X193428570Y-89891762D02*
X193571428Y-89820334D01*
X193571428Y-89820334D02*
X193714285Y-89677476D01*
X193714285Y-89677476D02*
X193785713Y-89391762D01*
X193785713Y-89391762D02*
X193785713Y-88891762D01*
X193785713Y-88891762D02*
X193714285Y-88606048D01*
X193714285Y-88606048D02*
X193571428Y-88463191D01*
X193571428Y-88463191D02*
X193428570Y-88391762D01*
X198071427Y-90949535D02*
X197999999Y-90878107D01*
X197999999Y-90878107D02*
X197857142Y-90806678D01*
X197857142Y-90806678D02*
X197499999Y-90806678D01*
X197499999Y-90806678D02*
X197357142Y-90878107D01*
X197357142Y-90878107D02*
X197285713Y-90949535D01*
X197285713Y-90949535D02*
X197214284Y-91092392D01*
X197214284Y-91092392D02*
X197214284Y-91235250D01*
X197214284Y-91235250D02*
X197285713Y-91449535D01*
X197285713Y-91449535D02*
X198142856Y-92306678D01*
X198142856Y-92306678D02*
X197214284Y-92306678D01*
X196285713Y-90806678D02*
X196142856Y-90806678D01*
X196142856Y-90806678D02*
X195999999Y-90878107D01*
X195999999Y-90878107D02*
X195928571Y-90949535D01*
X195928571Y-90949535D02*
X195857142Y-91092392D01*
X195857142Y-91092392D02*
X195785713Y-91378107D01*
X195785713Y-91378107D02*
X195785713Y-91735250D01*
X195785713Y-91735250D02*
X195857142Y-92020964D01*
X195857142Y-92020964D02*
X195928571Y-92163821D01*
X195928571Y-92163821D02*
X195999999Y-92235250D01*
X195999999Y-92235250D02*
X196142856Y-92306678D01*
X196142856Y-92306678D02*
X196285713Y-92306678D01*
X196285713Y-92306678D02*
X196428571Y-92235250D01*
X196428571Y-92235250D02*
X196499999Y-92163821D01*
X196499999Y-92163821D02*
X196571428Y-92020964D01*
X196571428Y-92020964D02*
X196642856Y-91735250D01*
X196642856Y-91735250D02*
X196642856Y-91378107D01*
X196642856Y-91378107D02*
X196571428Y-91092392D01*
X196571428Y-91092392D02*
X196499999Y-90949535D01*
X196499999Y-90949535D02*
X196428571Y-90878107D01*
X196428571Y-90878107D02*
X196285713Y-90806678D01*
X195214285Y-90949535D02*
X195142857Y-90878107D01*
X195142857Y-90878107D02*
X195000000Y-90806678D01*
X195000000Y-90806678D02*
X194642857Y-90806678D01*
X194642857Y-90806678D02*
X194500000Y-90878107D01*
X194500000Y-90878107D02*
X194428571Y-90949535D01*
X194428571Y-90949535D02*
X194357142Y-91092392D01*
X194357142Y-91092392D02*
X194357142Y-91235250D01*
X194357142Y-91235250D02*
X194428571Y-91449535D01*
X194428571Y-91449535D02*
X195285714Y-92306678D01*
X195285714Y-92306678D02*
X194357142Y-92306678D01*
X193071429Y-90806678D02*
X193357143Y-90806678D01*
X193357143Y-90806678D02*
X193500000Y-90878107D01*
X193500000Y-90878107D02*
X193571429Y-90949535D01*
X193571429Y-90949535D02*
X193714286Y-91163821D01*
X193714286Y-91163821D02*
X193785714Y-91449535D01*
X193785714Y-91449535D02*
X193785714Y-92020964D01*
X193785714Y-92020964D02*
X193714286Y-92163821D01*
X193714286Y-92163821D02*
X193642857Y-92235250D01*
X193642857Y-92235250D02*
X193500000Y-92306678D01*
X193500000Y-92306678D02*
X193214286Y-92306678D01*
X193214286Y-92306678D02*
X193071429Y-92235250D01*
X193071429Y-92235250D02*
X193000000Y-92163821D01*
X193000000Y-92163821D02*
X192928571Y-92020964D01*
X192928571Y-92020964D02*
X192928571Y-91663821D01*
X192928571Y-91663821D02*
X193000000Y-91520964D01*
X193000000Y-91520964D02*
X193071429Y-91449535D01*
X193071429Y-91449535D02*
X193214286Y-91378107D01*
X193214286Y-91378107D02*
X193500000Y-91378107D01*
X193500000Y-91378107D02*
X193642857Y-91449535D01*
X193642857Y-91449535D02*
X193714286Y-91520964D01*
X193714286Y-91520964D02*
X193785714Y-91663821D01*
D13*
D14*
X215089285Y-55378328D02*
X215089285Y-56378328D01*
X215446427Y-54806900D02*
X215803570Y-55878328D01*
X215803570Y-55878328D02*
X214874999Y-55878328D01*
X214374999Y-55021185D02*
X214303571Y-54949757D01*
X214303571Y-54949757D02*
X214160714Y-54878328D01*
X214160714Y-54878328D02*
X213803571Y-54878328D01*
X213803571Y-54878328D02*
X213660714Y-54949757D01*
X213660714Y-54949757D02*
X213589285Y-55021185D01*
X213589285Y-55021185D02*
X213517856Y-55164042D01*
X213517856Y-55164042D02*
X213517856Y-55306900D01*
X213517856Y-55306900D02*
X213589285Y-55521185D01*
X213589285Y-55521185D02*
X214446428Y-56378328D01*
X214446428Y-56378328D02*
X213517856Y-56378328D01*
X212875000Y-56235471D02*
X212803571Y-56306900D01*
X212803571Y-56306900D02*
X212875000Y-56378328D01*
X212875000Y-56378328D02*
X212946428Y-56306900D01*
X212946428Y-56306900D02*
X212875000Y-56235471D01*
X212875000Y-56235471D02*
X212875000Y-56378328D01*
X212303571Y-54878328D02*
X211303571Y-54878328D01*
X211303571Y-54878328D02*
X211946428Y-56378328D01*
X210017857Y-54878328D02*
X210732143Y-54878328D01*
X210732143Y-54878328D02*
X210803571Y-55592614D01*
X210803571Y-55592614D02*
X210732143Y-55521185D01*
X210732143Y-55521185D02*
X210589286Y-55449757D01*
X210589286Y-55449757D02*
X210232143Y-55449757D01*
X210232143Y-55449757D02*
X210089286Y-55521185D01*
X210089286Y-55521185D02*
X210017857Y-55592614D01*
X210017857Y-55592614D02*
X209946428Y-55735471D01*
X209946428Y-55735471D02*
X209946428Y-56092614D01*
X209946428Y-56092614D02*
X210017857Y-56235471D01*
X210017857Y-56235471D02*
X210089286Y-56306900D01*
X210089286Y-56306900D02*
X210232143Y-56378328D01*
X210232143Y-56378328D02*
X210589286Y-56378328D01*
X210589286Y-56378328D02*
X210732143Y-56306900D01*
X210732143Y-56306900D02*
X210803571Y-56235471D01*
D15*
X234250000Y-57500000D02*
X234250000Y-56913580D01*
X191500000Y-56913580D02*
X191500000Y-57500000D01*
X234250000Y-57500000D02*
X191500000Y-57500000D01*
X234250000Y-57500000D02*
X233123496Y-58086421D01*
X234250000Y-57500000D02*
X233123496Y-56913579D01*
X191500000Y-57500000D02*
X192626504Y-56913579D01*
X191500000Y-57500000D02*
X192626504Y-58086421D01*
D13*
D14*
X238878328Y-79071429D02*
X239878328Y-79071429D01*
X238306900Y-78714286D02*
X239378328Y-78357143D01*
X239378328Y-78357143D02*
X239378328Y-79285714D01*
X238378328Y-79714285D02*
X238378328Y-80642857D01*
X238378328Y-80642857D02*
X238949757Y-80142857D01*
X238949757Y-80142857D02*
X238949757Y-80357142D01*
X238949757Y-80357142D02*
X239021185Y-80500000D01*
X239021185Y-80500000D02*
X239092614Y-80571428D01*
X239092614Y-80571428D02*
X239235471Y-80642857D01*
X239235471Y-80642857D02*
X239592614Y-80642857D01*
X239592614Y-80642857D02*
X239735471Y-80571428D01*
X239735471Y-80571428D02*
X239806900Y-80500000D01*
X239806900Y-80500000D02*
X239878328Y-80357142D01*
X239878328Y-80357142D02*
X239878328Y-79928571D01*
X239878328Y-79928571D02*
X239806900Y-79785714D01*
X239806900Y-79785714D02*
X239735471Y-79714285D01*
D15*
X235000000Y-58000000D02*
X241586420Y-58000000D01*
X241586420Y-101000000D02*
X235000000Y-101000000D01*
X241000000Y-58000000D02*
X241000000Y-101000000D01*
X241000000Y-58000000D02*
X241586421Y-59126504D01*
X241000000Y-58000000D02*
X240413579Y-59126504D01*
X241000000Y-101000000D02*
X240413579Y-99873496D01*
X241000000Y-101000000D02*
X241586421Y-99873496D01*
%TD*%
D16*
%TO.P,pull_down_10k1,1*%
%TO.N,out1*%
X220000000Y-71505000D03*
%TO.P,pull_down_10k1,2*%
%TO.N,GND*%
X220000000Y-63885000D03*
%TD*%
%TO.P,C1,1*%
%TO.N,VCC*%
X204250000Y-62000000D03*
%TO.P,C1,2*%
%TO.N,GND*%
X201750000Y-62000000D03*
%TD*%
D17*
%TO.P,out1,1,Pin_1*%
%TO.N,out1*%
X225460000Y-82000000D03*
D18*
%TO.P,out1,2,Pin_2*%
%TO.N,VCC*%
X228000000Y-82000000D03*
%TO.P,out1,3,Pin_3*%
%TO.N,GND*%
X230540000Y-82000000D03*
%TD*%
D19*
%TO.P,D1,1,K*%
%TO.N,GND*%
X196770000Y-84500000D03*
D20*
%TO.P,D1,2,A*%
%TO.N,Net-(D1-A)*%
X194230000Y-84500000D03*
%TD*%
D16*
%TO.P,in2,1*%
%TO.N,sig2*%
X208500000Y-83810000D03*
%TO.P,in2,2*%
%TO.N,Net-(U1-Pad1)*%
X208500000Y-76190000D03*
%TD*%
D21*
%TO.P,U3,1*%
%TO.N,Net-(U3-Pad1)*%
X215275000Y-88695000D03*
D16*
%TO.P,U3,2*%
%TO.N,GND*%
X212735000Y-88695000D03*
%TO.P,U3,3*%
%TO.N,out3*%
X212735000Y-96315000D03*
%TO.P,U3,4*%
%TO.N,VCC*%
X215275000Y-96315000D03*
%TD*%
D21*
%TO.P,U1,1*%
%TO.N,Net-(U1-Pad1)*%
X215275000Y-76195000D03*
D16*
%TO.P,U1,2*%
%TO.N,GND*%
X212735000Y-76195000D03*
%TO.P,U1,3*%
%TO.N,out2*%
X212735000Y-83815000D03*
%TO.P,U1,4*%
%TO.N,VCC*%
X215275000Y-83815000D03*
%TD*%
D17*
%TO.P,out2,1,Pin_1*%
%TO.N,out2*%
X225460000Y-86500000D03*
D18*
%TO.P,out2,2,Pin_2*%
%TO.N,VCC*%
X228000000Y-86500000D03*
%TO.P,out2,3,Pin_3*%
%TO.N,GND*%
X230540000Y-86500000D03*
%TD*%
D21*
%TO.P,U2,1*%
%TO.N,Net-(U2-Pad1)*%
X215275000Y-63695000D03*
D16*
%TO.P,U2,2*%
%TO.N,GND*%
X212735000Y-63695000D03*
%TO.P,U2,3*%
%TO.N,out1*%
X212735000Y-71315000D03*
%TO.P,U2,4*%
%TO.N,VCC*%
X215275000Y-71315000D03*
%TD*%
D17*
%TO.P,servo_in1,1,Pin_1*%
%TO.N,GND*%
X201000000Y-94310000D03*
D18*
%TO.P,servo_in1,2,Pin_2*%
%TO.N,sig3*%
X201000000Y-91770000D03*
%TO.P,servo_in1,3,Pin_3*%
%TO.N,sig2*%
X201000000Y-89230000D03*
%TO.P,servo_in1,4,Pin_4*%
%TO.N,sig1*%
X201000000Y-86690000D03*
%TD*%
D16*
%TO.P,in_470,1*%
%TO.N,sig1*%
X208500000Y-71315000D03*
%TO.P,in_470,2*%
%TO.N,Net-(U2-Pad1)*%
X208500000Y-63695000D03*
%TD*%
D22*
%TO.P,power_input1,1,Pin_1*%
%TO.N,GND*%
X196500000Y-69250000D03*
D23*
%TO.P,power_input1,2,Pin_2*%
%TO.N,VCC*%
X196500000Y-74250000D03*
%TD*%
D24*
%TO.P,power_output1,1,Pin_1*%
%TO.N,GND*%
X228467500Y-73500000D03*
D23*
%TO.P,power_output1,2,Pin_2*%
%TO.N,VCC*%
X228467500Y-68500000D03*
%TD*%
D16*
%TO.P,in3,1*%
%TO.N,sig3*%
X208500000Y-96310000D03*
%TO.P,in3,2*%
%TO.N,Net-(U3-Pad1)*%
X208500000Y-88690000D03*
%TD*%
%TO.P,pull_down2,1*%
%TO.N,out2*%
X220000000Y-83810000D03*
%TO.P,pull_down2,2*%
%TO.N,GND*%
X220000000Y-76190000D03*
%TD*%
%TO.P,pull_down3,1*%
%TO.N,out3*%
X220000000Y-96310000D03*
%TO.P,pull_down3,2*%
%TO.N,GND*%
X220000000Y-88690000D03*
%TD*%
D17*
%TO.P,out3,1,Pin_1*%
%TO.N,out3*%
X225460000Y-91000000D03*
D18*
%TO.P,out3,2,Pin_2*%
%TO.N,VCC*%
X228000000Y-91000000D03*
%TO.P,out3,3,Pin_3*%
%TO.N,GND*%
X230540000Y-91000000D03*
%TD*%
D16*
%TO.P,Rdiode1,1*%
%TO.N,VCC*%
X201620000Y-79500000D03*
%TO.P,Rdiode1,2*%
%TO.N,Net-(D1-A)*%
X194000000Y-79500000D03*
%TD*%
D25*
%TO.N,VCC*%
X196500000Y-74250000D02*
X202000000Y-68750000D01*
X225500000Y-77500000D02*
X228000000Y-80000000D01*
X225500000Y-71467500D02*
X225500000Y-77500000D01*
X205750000Y-60500000D02*
X222500000Y-60500000D01*
D26*
X215275000Y-96315000D02*
X215315000Y-96315000D01*
X211000000Y-72500000D02*
X211000000Y-69915217D01*
X215275000Y-71315000D02*
X213090000Y-73500000D01*
X221000000Y-86000000D02*
X224000000Y-89000000D01*
X217460000Y-86000000D02*
X221000000Y-86000000D01*
D25*
X202000000Y-68750000D02*
X202000000Y-64250000D01*
X228467500Y-68500000D02*
X225500000Y-71467500D01*
X228000000Y-80000000D02*
X228000000Y-82000000D01*
D26*
X221702081Y-98500000D02*
X228000000Y-92202081D01*
D25*
X228000000Y-86500000D02*
X228000000Y-89000000D01*
D26*
X228000000Y-92202081D02*
X228000000Y-91000000D01*
X222032500Y-68000000D02*
X225500000Y-71467500D01*
X215275000Y-83815000D02*
X217460000Y-86000000D01*
X212000000Y-73500000D02*
X211000000Y-72500000D01*
X217500000Y-98500000D02*
X221702081Y-98500000D01*
X196500000Y-74250000D02*
X201620000Y-79370000D01*
X213090000Y-73500000D02*
X212000000Y-73500000D01*
D25*
X228500000Y-68467500D02*
X228500000Y-68000000D01*
X202000000Y-64250000D02*
X205750000Y-60500000D01*
X228467500Y-66467500D02*
X228467500Y-68500000D01*
D26*
X212915217Y-68000000D02*
X222032500Y-68000000D01*
D25*
X222500000Y-60500000D02*
X228467500Y-66467500D01*
D26*
X201620000Y-79370000D02*
X201620000Y-79500000D01*
X211000000Y-69915217D02*
X212915217Y-68000000D01*
X215315000Y-96315000D02*
X217500000Y-98500000D01*
D25*
X228000000Y-89000000D02*
X228000000Y-91000000D01*
X228467500Y-68500000D02*
X228500000Y-68467500D01*
D26*
X224000000Y-89000000D02*
X228000000Y-89000000D01*
D25*
X228000000Y-82000000D02*
X228000000Y-86500000D01*
D26*
%TO.N,sig2*%
X208500000Y-83810000D02*
X206420000Y-83810000D01*
X206420000Y-83810000D02*
X201000000Y-89230000D01*
%TO.N,sig1*%
X204500000Y-75315000D02*
X204500000Y-83190000D01*
X204500000Y-83190000D02*
X201000000Y-86690000D01*
X208500000Y-71315000D02*
X204500000Y-75315000D01*
%TO.N,out2*%
X222770000Y-83810000D02*
X225460000Y-86500000D01*
X220000000Y-83810000D02*
X222770000Y-83810000D01*
X218190000Y-82000000D02*
X214550000Y-82000000D01*
X219845000Y-83655000D02*
X218190000Y-82000000D01*
X220000000Y-83500000D02*
X219845000Y-83655000D01*
X214550000Y-82000000D02*
X212735000Y-83815000D01*
%TO.N,out1*%
X220000000Y-71505000D02*
X220000000Y-72500000D01*
X220000000Y-72500000D02*
X222500000Y-75000000D01*
X222500000Y-79040000D02*
X225460000Y-82000000D01*
X217995000Y-69500000D02*
X214550000Y-69500000D01*
X220000000Y-71505000D02*
X217995000Y-69500000D01*
X222500000Y-75000000D02*
X222500000Y-79040000D01*
X214550000Y-69500000D02*
X212735000Y-71315000D01*
%TO.N,Net-(D1-A)*%
X194230000Y-79730000D02*
X194000000Y-79500000D01*
X194230000Y-84500000D02*
X194230000Y-79730000D01*
%TO.N,Net-(U2-Pad1)*%
X210805000Y-66000000D02*
X208500000Y-63695000D01*
X215275000Y-64225000D02*
X213500000Y-66000000D01*
X213500000Y-66000000D02*
X210805000Y-66000000D01*
X215275000Y-63695000D02*
X215275000Y-64225000D01*
%TO.N,Net-(U1-Pad1)*%
X210810000Y-78500000D02*
X208500000Y-76190000D01*
X215275000Y-76195000D02*
X212970000Y-78500000D01*
X212970000Y-78500000D02*
X210810000Y-78500000D01*
%TO.N,Net-(U3-Pad1)*%
X215275000Y-88695000D02*
X212970000Y-91000000D01*
X212970000Y-91000000D02*
X210810000Y-91000000D01*
X210810000Y-91000000D02*
X208500000Y-88690000D01*
%TO.N,sig3*%
X208500000Y-96310000D02*
X203960000Y-91770000D01*
X203960000Y-91770000D02*
X201000000Y-91770000D01*
%TO.N,out3*%
X220000000Y-96310000D02*
X220000000Y-96000000D01*
X215000000Y-94050000D02*
X212735000Y-96315000D01*
X215000000Y-94000000D02*
X215000000Y-94050000D01*
X225460000Y-91000000D02*
X225310000Y-91000000D01*
X218000000Y-94000000D02*
X215000000Y-94000000D01*
X225310000Y-91000000D02*
X220000000Y-96310000D01*
X220000000Y-96000000D02*
X218000000Y-94000000D01*
%TD*%
%TA.AperFunction,Conductor*%
%TO.N,GND*%
G36*
X192244415Y-58564510D02*
G01*
X192419348Y-58655575D01*
X192573715Y-58689798D01*
X192731679Y-58682901D01*
X192882476Y-58635355D01*
X192985189Y-58569920D01*
X192985191Y-58569919D01*
X193051815Y-58550500D01*
X232698185Y-58550500D01*
X232764810Y-58569920D01*
X232814433Y-58601533D01*
X232867524Y-58635356D01*
X233018320Y-58682902D01*
X233176285Y-58689798D01*
X233248662Y-58673752D01*
X233318372Y-58678460D01*
X233374471Y-58720109D01*
X233399148Y-58785476D01*
X233399500Y-58794813D01*
X233399500Y-100325500D01*
X233379815Y-100392539D01*
X233327011Y-100438294D01*
X233275500Y-100449500D01*
X231921323Y-100449500D01*
X231854284Y-100429815D01*
X231808529Y-100377011D01*
X231797323Y-100325500D01*
X231797323Y-98548140D01*
X230947894Y-98548140D01*
X230880855Y-98528455D01*
X230835100Y-98475651D01*
X230825156Y-98406493D01*
X230854181Y-98342937D01*
X230912959Y-98305163D01*
X230915748Y-98304379D01*
X231096100Y-98256054D01*
X231320212Y-98163224D01*
X231530289Y-98041936D01*
X231722738Y-97894265D01*
X231894265Y-97722738D01*
X232041936Y-97530289D01*
X232163224Y-97320212D01*
X232256054Y-97096100D01*
X232318838Y-96861789D01*
X232350500Y-96621288D01*
X232350500Y-96378712D01*
X232318838Y-96138211D01*
X232256054Y-95903900D01*
X232163224Y-95679788D01*
X232041936Y-95469711D01*
X231929387Y-95323034D01*
X231894266Y-95277263D01*
X231894260Y-95277256D01*
X231722743Y-95105739D01*
X231722736Y-95105733D01*
X231530293Y-94958067D01*
X231530292Y-94958066D01*
X231530289Y-94958064D01*
X231320212Y-94836776D01*
X231255569Y-94810000D01*
X231096104Y-94743947D01*
X230861785Y-94681161D01*
X230621289Y-94649500D01*
X230621288Y-94649500D01*
X230378712Y-94649500D01*
X230378711Y-94649500D01*
X230138214Y-94681161D01*
X229903895Y-94743947D01*
X229679794Y-94836773D01*
X229679785Y-94836777D01*
X229469706Y-94958067D01*
X229277263Y-95105733D01*
X229277256Y-95105739D01*
X229105739Y-95277256D01*
X229105733Y-95277263D01*
X228958067Y-95469706D01*
X228836777Y-95679785D01*
X228836773Y-95679794D01*
X228743947Y-95903895D01*
X228681161Y-96138214D01*
X228649500Y-96378711D01*
X228649500Y-96621288D01*
X228681161Y-96861785D01*
X228743947Y-97096104D01*
X228771333Y-97162219D01*
X228836776Y-97320212D01*
X228958064Y-97530289D01*
X228958066Y-97530292D01*
X228958067Y-97530293D01*
X229105733Y-97722736D01*
X229105739Y-97722743D01*
X229277256Y-97894260D01*
X229277262Y-97894265D01*
X229469711Y-98041936D01*
X229679788Y-98163224D01*
X229903900Y-98256054D01*
X230084201Y-98304366D01*
X230143860Y-98340730D01*
X230174389Y-98403577D01*
X230166094Y-98472953D01*
X230121609Y-98526831D01*
X230055057Y-98548105D01*
X230052106Y-98548140D01*
X228669178Y-98548140D01*
X228669178Y-100325500D01*
X228649493Y-100392539D01*
X228596689Y-100438294D01*
X228545178Y-100449500D01*
X192174500Y-100449500D01*
X192107461Y-100429815D01*
X192061706Y-100377011D01*
X192050500Y-100325500D01*
X192050500Y-95123453D01*
X192070185Y-95056414D01*
X192122989Y-95010659D01*
X192174500Y-94999453D01*
X193874487Y-94999453D01*
X193941526Y-95019138D01*
X193987281Y-95071942D01*
X193997225Y-95141100D01*
X193968200Y-95204656D01*
X193909422Y-95242430D01*
X193906610Y-95243219D01*
X193905166Y-95243606D01*
X193903895Y-95243947D01*
X193679794Y-95336773D01*
X193679785Y-95336777D01*
X193469706Y-95458067D01*
X193277263Y-95605733D01*
X193277256Y-95605739D01*
X193105739Y-95777256D01*
X193105733Y-95777263D01*
X192958067Y-95969706D01*
X192836777Y-96179785D01*
X192836773Y-96179794D01*
X192743947Y-96403895D01*
X192681161Y-96638214D01*
X192649500Y-96878711D01*
X192649500Y-97121288D01*
X192675688Y-97320214D01*
X192681162Y-97361789D01*
X192712554Y-97478944D01*
X192743947Y-97596104D01*
X192796400Y-97722736D01*
X192836776Y-97820212D01*
X192958064Y-98030289D01*
X192958066Y-98030292D01*
X192958067Y-98030293D01*
X193105733Y-98222736D01*
X193105739Y-98222743D01*
X193277256Y-98394260D01*
X193277263Y-98394266D01*
X193293198Y-98406493D01*
X193469711Y-98541936D01*
X193679788Y-98663224D01*
X193903900Y-98756054D01*
X194138211Y-98818838D01*
X194318586Y-98842584D01*
X194378711Y-98850500D01*
X194378712Y-98850500D01*
X194621289Y-98850500D01*
X194669388Y-98844167D01*
X194861789Y-98818838D01*
X195096100Y-98756054D01*
X195320212Y-98663224D01*
X195530289Y-98541936D01*
X195722738Y-98394265D01*
X195894265Y-98222738D01*
X196041936Y-98030289D01*
X196163224Y-97820212D01*
X196256054Y-97596100D01*
X196318838Y-97361789D01*
X196350500Y-97121288D01*
X196350500Y-96878712D01*
X196318838Y-96638211D01*
X196256054Y-96403900D01*
X196163224Y-96179788D01*
X196041936Y-95969711D01*
X195894265Y-95777262D01*
X195894260Y-95777256D01*
X195722743Y-95605739D01*
X195722736Y-95605733D01*
X195530293Y-95458067D01*
X195530292Y-95458066D01*
X195530289Y-95458064D01*
X195320212Y-95336776D01*
X195287036Y-95323034D01*
X195096104Y-95243947D01*
X195095675Y-95243832D01*
X195093417Y-95243227D01*
X195092707Y-95242794D01*
X195092262Y-95242643D01*
X195092295Y-95242543D01*
X195033759Y-95206863D01*
X195003230Y-95144016D01*
X195011525Y-95074640D01*
X195056010Y-95020762D01*
X195122562Y-94999488D01*
X195125513Y-94999453D01*
X198405539Y-94999453D01*
X198405539Y-93031002D01*
X198425224Y-92963963D01*
X198478028Y-92918208D01*
X198529539Y-92907002D01*
X198742107Y-92907002D01*
X198742107Y-87791438D01*
X192184793Y-87791438D01*
X192174500Y-87791438D01*
X192107461Y-87771753D01*
X192061706Y-87718949D01*
X192050500Y-87667438D01*
X192050500Y-86583713D01*
X199649500Y-86583713D01*
X199649500Y-86796287D01*
X199682754Y-87006243D01*
X199748164Y-87207554D01*
X199748444Y-87208414D01*
X199844951Y-87397820D01*
X199969890Y-87569786D01*
X200120213Y-87720109D01*
X200292182Y-87845050D01*
X200300946Y-87849516D01*
X200351742Y-87897491D01*
X200368536Y-87965312D01*
X200345998Y-88031447D01*
X200300946Y-88070484D01*
X200292182Y-88074949D01*
X200120213Y-88199890D01*
X199969890Y-88350213D01*
X199844951Y-88522179D01*
X199748444Y-88711585D01*
X199682753Y-88913760D01*
X199667498Y-89010080D01*
X199649500Y-89123713D01*
X199649500Y-89336287D01*
X199655055Y-89371359D01*
X199681324Y-89537219D01*
X199682754Y-89546243D01*
X199726853Y-89681966D01*
X199748444Y-89748414D01*
X199844951Y-89937820D01*
X199969890Y-90109786D01*
X200120213Y-90260109D01*
X200292182Y-90385050D01*
X200300946Y-90389516D01*
X200351742Y-90437491D01*
X200368536Y-90505312D01*
X200345998Y-90571447D01*
X200300946Y-90610484D01*
X200292182Y-90614949D01*
X200120213Y-90739890D01*
X199969890Y-90890213D01*
X199844951Y-91062179D01*
X199748444Y-91251585D01*
X199682753Y-91453760D01*
X199649500Y-91663713D01*
X199649500Y-91876286D01*
X199678717Y-92060758D01*
X199682754Y-92086243D01*
X199704972Y-92154624D01*
X199748444Y-92288414D01*
X199844951Y-92477820D01*
X199969890Y-92649786D01*
X200083818Y-92763714D01*
X200117303Y-92825037D01*
X200112319Y-92894729D01*
X200070447Y-92950662D01*
X200039471Y-92967577D01*
X199907912Y-93016646D01*
X199907906Y-93016649D01*
X199792812Y-93102809D01*
X199792809Y-93102812D01*
X199706649Y-93217906D01*
X199706645Y-93217913D01*
X199656403Y-93352620D01*
X199656401Y-93352627D01*
X199650000Y-93412155D01*
X199650000Y-94060000D01*
X200566988Y-94060000D01*
X200534075Y-94117007D01*
X200500000Y-94244174D01*
X200500000Y-94375826D01*
X200534075Y-94502993D01*
X200566988Y-94560000D01*
X199650000Y-94560000D01*
X199650000Y-95207844D01*
X199656401Y-95267372D01*
X199656403Y-95267379D01*
X199706645Y-95402086D01*
X199706649Y-95402093D01*
X199792809Y-95517187D01*
X199792812Y-95517190D01*
X199907906Y-95603350D01*
X199907913Y-95603354D01*
X200042620Y-95653596D01*
X200042627Y-95653598D01*
X200102155Y-95659999D01*
X200102172Y-95660000D01*
X200750000Y-95660000D01*
X200750000Y-94743012D01*
X200807007Y-94775925D01*
X200934174Y-94810000D01*
X201065826Y-94810000D01*
X201192993Y-94775925D01*
X201250000Y-94743012D01*
X201250000Y-95660000D01*
X201897828Y-95660000D01*
X201897844Y-95659999D01*
X201957372Y-95653598D01*
X201957379Y-95653596D01*
X202092086Y-95603354D01*
X202092093Y-95603350D01*
X202207187Y-95517190D01*
X202207190Y-95517187D01*
X202293350Y-95402093D01*
X202293354Y-95402086D01*
X202343596Y-95267379D01*
X202343598Y-95267372D01*
X202349999Y-95207844D01*
X202350000Y-95207827D01*
X202350000Y-94560000D01*
X201433012Y-94560000D01*
X201465925Y-94502993D01*
X201500000Y-94375826D01*
X201500000Y-94244174D01*
X201465925Y-94117007D01*
X201433012Y-94060000D01*
X202350000Y-94060000D01*
X202350000Y-93412172D01*
X202349999Y-93412155D01*
X202343598Y-93352627D01*
X202343596Y-93352620D01*
X202293354Y-93217913D01*
X202293350Y-93217906D01*
X202207190Y-93102812D01*
X202207187Y-93102809D01*
X202092093Y-93016649D01*
X202092088Y-93016646D01*
X201960528Y-92967577D01*
X201937933Y-92950662D01*
X201904594Y-92925705D01*
X201880178Y-92860240D01*
X201895030Y-92791967D01*
X201916179Y-92763716D01*
X201973078Y-92706818D01*
X202034401Y-92673334D01*
X202060758Y-92670500D01*
X203535638Y-92670500D01*
X203602677Y-92690185D01*
X203623319Y-92706819D01*
X207163181Y-96246680D01*
X207196666Y-96308003D01*
X207199500Y-96334361D01*
X207199500Y-96412351D01*
X207231522Y-96614534D01*
X207294781Y-96809223D01*
X207387715Y-96991613D01*
X207508028Y-97157213D01*
X207652786Y-97301971D01*
X207807749Y-97414556D01*
X207818390Y-97422287D01*
X207934607Y-97481503D01*
X208000776Y-97515218D01*
X208000778Y-97515218D01*
X208000781Y-97515220D01*
X208105137Y-97549127D01*
X208195465Y-97578477D01*
X208227034Y-97583477D01*
X208397648Y-97610500D01*
X208397649Y-97610500D01*
X208602351Y-97610500D01*
X208602352Y-97610500D01*
X208804534Y-97578477D01*
X208999219Y-97515220D01*
X209181610Y-97422287D01*
X209322103Y-97320214D01*
X209347213Y-97301971D01*
X209347215Y-97301968D01*
X209347219Y-97301966D01*
X209491966Y-97157219D01*
X209491968Y-97157215D01*
X209491971Y-97157213D01*
X209608651Y-96996614D01*
X209612287Y-96991610D01*
X209705220Y-96809219D01*
X209768477Y-96614534D01*
X209800500Y-96412352D01*
X209800500Y-96207648D01*
X209768477Y-96005466D01*
X209756859Y-95969711D01*
X209735475Y-95903895D01*
X209705220Y-95810781D01*
X209705218Y-95810778D01*
X209705218Y-95810776D01*
X209671503Y-95744607D01*
X209612287Y-95628390D01*
X209595826Y-95605733D01*
X209491971Y-95462786D01*
X209347213Y-95318028D01*
X209181613Y-95197715D01*
X209181612Y-95197714D01*
X209181610Y-95197713D01*
X209086987Y-95149500D01*
X208999223Y-95104781D01*
X208804534Y-95041522D01*
X208616027Y-95011666D01*
X208602352Y-95009500D01*
X208602351Y-95009500D01*
X208524361Y-95009500D01*
X208457322Y-94989815D01*
X208436680Y-94973181D01*
X206494501Y-93031002D01*
X204534036Y-91070536D01*
X204534035Y-91070535D01*
X204534030Y-91070531D01*
X204479622Y-91034178D01*
X204479616Y-91034175D01*
X204474959Y-91031063D01*
X204386547Y-90971987D01*
X204304606Y-90938046D01*
X204277936Y-90926999D01*
X204222666Y-90904105D01*
X204222658Y-90904103D01*
X204048696Y-90869500D01*
X204048692Y-90869500D01*
X204048691Y-90869500D01*
X202060758Y-90869500D01*
X201993719Y-90849815D01*
X201973077Y-90833181D01*
X201879786Y-90739890D01*
X201707820Y-90614951D01*
X201707115Y-90614591D01*
X201699054Y-90610485D01*
X201648259Y-90562512D01*
X201631463Y-90494692D01*
X201653999Y-90428556D01*
X201699054Y-90389515D01*
X201707816Y-90385051D01*
X201835273Y-90292449D01*
X201879786Y-90260109D01*
X201879788Y-90260106D01*
X201879792Y-90260104D01*
X202030104Y-90109792D01*
X202030106Y-90109788D01*
X202030109Y-90109786D01*
X202155048Y-89937820D01*
X202155047Y-89937820D01*
X202155051Y-89937816D01*
X202251557Y-89748412D01*
X202317246Y-89546243D01*
X202350500Y-89336287D01*
X202350500Y-89204361D01*
X202370185Y-89137322D01*
X202386819Y-89116680D01*
X202915851Y-88587648D01*
X207199500Y-88587648D01*
X207199500Y-88792352D01*
X207203878Y-88819995D01*
X207231522Y-88994534D01*
X207294781Y-89189223D01*
X207348683Y-89295009D01*
X207387585Y-89371359D01*
X207387715Y-89371613D01*
X207508028Y-89537213D01*
X207652786Y-89681971D01*
X207773226Y-89769474D01*
X207818390Y-89802287D01*
X207902955Y-89845375D01*
X208000776Y-89895218D01*
X208000778Y-89895218D01*
X208000781Y-89895220D01*
X208105137Y-89929127D01*
X208195465Y-89958477D01*
X208287090Y-89972989D01*
X208397648Y-89990500D01*
X208475638Y-89990500D01*
X208542677Y-90010185D01*
X208563319Y-90026819D01*
X210110536Y-91574035D01*
X210176706Y-91640205D01*
X210235966Y-91699465D01*
X210383446Y-91798009D01*
X210383459Y-91798016D01*
X210529942Y-91858690D01*
X210529944Y-91858691D01*
X210547334Y-91865894D01*
X210589935Y-91874368D01*
X210721305Y-91900500D01*
X210721308Y-91900500D01*
X213058693Y-91900500D01*
X213058694Y-91900499D01*
X213232666Y-91865895D01*
X213314606Y-91831953D01*
X213396547Y-91798013D01*
X213484959Y-91738936D01*
X213544036Y-91699464D01*
X215211680Y-90031817D01*
X215273003Y-89998333D01*
X215299361Y-89995499D01*
X215875002Y-89995499D01*
X215875008Y-89995499D01*
X215977797Y-89984999D01*
X216144334Y-89929814D01*
X216293656Y-89837712D01*
X216417712Y-89713656D01*
X216509814Y-89564334D01*
X216564999Y-89397797D01*
X216575500Y-89295009D01*
X216575499Y-88587682D01*
X218700000Y-88587682D01*
X218700000Y-88792317D01*
X218732009Y-88994417D01*
X218795244Y-89189031D01*
X218888141Y-89371350D01*
X218888147Y-89371359D01*
X218920523Y-89415921D01*
X218920524Y-89415922D01*
X219600000Y-88736446D01*
X219600000Y-88742661D01*
X219627259Y-88844394D01*
X219679920Y-88935606D01*
X219754394Y-89010080D01*
X219845606Y-89062741D01*
X219947339Y-89090000D01*
X219953553Y-89090000D01*
X219274076Y-89769474D01*
X219318650Y-89801859D01*
X219500968Y-89894755D01*
X219695582Y-89957990D01*
X219897683Y-89990000D01*
X220102317Y-89990000D01*
X220304417Y-89957990D01*
X220499031Y-89894755D01*
X220681349Y-89801859D01*
X220725921Y-89769474D01*
X220046447Y-89090000D01*
X220052661Y-89090000D01*
X220154394Y-89062741D01*
X220245606Y-89010080D01*
X220320080Y-88935606D01*
X220372741Y-88844394D01*
X220400000Y-88742661D01*
X220400000Y-88736447D01*
X221079474Y-89415921D01*
X221111859Y-89371349D01*
X221204755Y-89189031D01*
X221267990Y-88994417D01*
X221300000Y-88792317D01*
X221300000Y-88587682D01*
X221267990Y-88385582D01*
X221204755Y-88190968D01*
X221111859Y-88008650D01*
X221079474Y-87964077D01*
X221079474Y-87964076D01*
X220400000Y-88643551D01*
X220400000Y-88637339D01*
X220372741Y-88535606D01*
X220320080Y-88444394D01*
X220245606Y-88369920D01*
X220154394Y-88317259D01*
X220052661Y-88290000D01*
X220046446Y-88290000D01*
X220725922Y-87610524D01*
X220725921Y-87610523D01*
X220681359Y-87578147D01*
X220681350Y-87578141D01*
X220499031Y-87485244D01*
X220304417Y-87422009D01*
X220102317Y-87390000D01*
X219897683Y-87390000D01*
X219695582Y-87422009D01*
X219500968Y-87485244D01*
X219318644Y-87578143D01*
X219274077Y-87610523D01*
X219274077Y-87610524D01*
X219953554Y-88290000D01*
X219947339Y-88290000D01*
X219845606Y-88317259D01*
X219754394Y-88369920D01*
X219679920Y-88444394D01*
X219627259Y-88535606D01*
X219600000Y-88637339D01*
X219600000Y-88643553D01*
X218920524Y-87964077D01*
X218920523Y-87964077D01*
X218888143Y-88008644D01*
X218795244Y-88190968D01*
X218732009Y-88385582D01*
X218700000Y-88587682D01*
X216575499Y-88587682D01*
X216575499Y-88094992D01*
X216572995Y-88070484D01*
X216564999Y-87992203D01*
X216564998Y-87992200D01*
X216553287Y-87956860D01*
X216509814Y-87825666D01*
X216476560Y-87771753D01*
X216446416Y-87722881D01*
X216446415Y-87722880D01*
X216444703Y-87720104D01*
X216417712Y-87676344D01*
X216293656Y-87552288D01*
X216184209Y-87484781D01*
X216144336Y-87460187D01*
X216144331Y-87460185D01*
X216136177Y-87457483D01*
X215977797Y-87405001D01*
X215977795Y-87405000D01*
X215875010Y-87394500D01*
X214674998Y-87394500D01*
X214674981Y-87394501D01*
X214572203Y-87405000D01*
X214572200Y-87405001D01*
X214405668Y-87460185D01*
X214405663Y-87460187D01*
X214256342Y-87552289D01*
X214132289Y-87676342D01*
X214040187Y-87825663D01*
X214040186Y-87825666D01*
X214031958Y-87850498D01*
X214012852Y-87908155D01*
X213973079Y-87965599D01*
X213908563Y-87992422D01*
X213839787Y-87980107D01*
X213828020Y-87970143D01*
X213814474Y-87969076D01*
X213135000Y-88648553D01*
X213135000Y-88642339D01*
X213107741Y-88540606D01*
X213055080Y-88449394D01*
X212980606Y-88374920D01*
X212889394Y-88322259D01*
X212787661Y-88295000D01*
X212781446Y-88295000D01*
X213460922Y-87615524D01*
X213460921Y-87615523D01*
X213416359Y-87583147D01*
X213416350Y-87583141D01*
X213234031Y-87490244D01*
X213039417Y-87427009D01*
X212837317Y-87395000D01*
X212632683Y-87395000D01*
X212430582Y-87427009D01*
X212235968Y-87490244D01*
X212053644Y-87583143D01*
X212009077Y-87615523D01*
X212009077Y-87615524D01*
X212688554Y-88295000D01*
X212682339Y-88295000D01*
X212580606Y-88322259D01*
X212489394Y-88374920D01*
X212414920Y-88449394D01*
X212362259Y-88540606D01*
X212335000Y-88642339D01*
X212335000Y-88648553D01*
X211655524Y-87969077D01*
X211655523Y-87969077D01*
X211623143Y-88013644D01*
X211530244Y-88195968D01*
X211467009Y-88390582D01*
X211435000Y-88592682D01*
X211435000Y-88797317D01*
X211467009Y-88999417D01*
X211530244Y-89194031D01*
X211623141Y-89376350D01*
X211623147Y-89376359D01*
X211655523Y-89420921D01*
X211655524Y-89420922D01*
X212335000Y-88741446D01*
X212335000Y-88747661D01*
X212362259Y-88849394D01*
X212414920Y-88940606D01*
X212489394Y-89015080D01*
X212580606Y-89067741D01*
X212682339Y-89095000D01*
X212688553Y-89095000D01*
X212009076Y-89774474D01*
X212053650Y-89806859D01*
X212167787Y-89865015D01*
X212218583Y-89912990D01*
X212235378Y-89980810D01*
X212212841Y-90046945D01*
X212158126Y-90090397D01*
X212111492Y-90099500D01*
X211234361Y-90099500D01*
X211167322Y-90079815D01*
X211146680Y-90063181D01*
X209836819Y-88753319D01*
X209822115Y-88726391D01*
X209805523Y-88700573D01*
X209804631Y-88694372D01*
X209803334Y-88691996D01*
X209800500Y-88665638D01*
X209800500Y-88587648D01*
X209768477Y-88385465D01*
X209737458Y-88290000D01*
X209705220Y-88190781D01*
X209705218Y-88190778D01*
X209705218Y-88190776D01*
X209648680Y-88079815D01*
X209612287Y-88008390D01*
X209600524Y-87992200D01*
X209491971Y-87842786D01*
X209347213Y-87698028D01*
X209181613Y-87577715D01*
X209181612Y-87577714D01*
X209181610Y-87577713D01*
X209102303Y-87537304D01*
X208999223Y-87484781D01*
X208804534Y-87421522D01*
X208629995Y-87393878D01*
X208602352Y-87389500D01*
X208397648Y-87389500D01*
X208373329Y-87393351D01*
X208195465Y-87421522D01*
X208000776Y-87484781D01*
X207818386Y-87577715D01*
X207652786Y-87698028D01*
X207508028Y-87842786D01*
X207387715Y-88008386D01*
X207294781Y-88190776D01*
X207231522Y-88385465D01*
X207206951Y-88540606D01*
X207199500Y-88587648D01*
X202915851Y-88587648D01*
X206756680Y-84746819D01*
X206818003Y-84713334D01*
X206844361Y-84710500D01*
X207509953Y-84710500D01*
X207576992Y-84730185D01*
X207597634Y-84746819D01*
X207652786Y-84801971D01*
X207807749Y-84914556D01*
X207818390Y-84922287D01*
X207902912Y-84965353D01*
X208000776Y-85015218D01*
X208000778Y-85015218D01*
X208000781Y-85015220D01*
X208105137Y-85049127D01*
X208195465Y-85078477D01*
X208227034Y-85083477D01*
X208397648Y-85110500D01*
X208397649Y-85110500D01*
X208602351Y-85110500D01*
X208602352Y-85110500D01*
X208804534Y-85078477D01*
X208999219Y-85015220D01*
X209181610Y-84922287D01*
X209311452Y-84827952D01*
X209347213Y-84801971D01*
X209347215Y-84801968D01*
X209347219Y-84801966D01*
X209491966Y-84657219D01*
X209491968Y-84657215D01*
X209491971Y-84657213D01*
X209608651Y-84496614D01*
X209612287Y-84491610D01*
X209705220Y-84309219D01*
X209768477Y-84114534D01*
X209800500Y-83912352D01*
X209800500Y-83707648D01*
X209768477Y-83505466D01*
X209767827Y-83503467D01*
X209716043Y-83344091D01*
X209705220Y-83310781D01*
X209705218Y-83310778D01*
X209705218Y-83310776D01*
X209665488Y-83232803D01*
X209612287Y-83128390D01*
X209596311Y-83106401D01*
X209491971Y-82962786D01*
X209347213Y-82818028D01*
X209181613Y-82697715D01*
X209181612Y-82697714D01*
X209181610Y-82697713D01*
X209124653Y-82668691D01*
X208999223Y-82604781D01*
X208804534Y-82541522D01*
X208616027Y-82511666D01*
X208602352Y-82509500D01*
X208397648Y-82509500D01*
X208383973Y-82511666D01*
X208195465Y-82541522D01*
X208000776Y-82604781D01*
X207818386Y-82697715D01*
X207652786Y-82818028D01*
X207652782Y-82818032D01*
X207597634Y-82873181D01*
X207536311Y-82906666D01*
X207509953Y-82909500D01*
X206331304Y-82909500D01*
X206157339Y-82944103D01*
X206157323Y-82944108D01*
X206041453Y-82992102D01*
X206041454Y-82992103D01*
X205993454Y-83011986D01*
X205859774Y-83101309D01*
X205859773Y-83101310D01*
X205845962Y-83110537D01*
X205845961Y-83110538D01*
X205612181Y-83344319D01*
X205550858Y-83377804D01*
X205481166Y-83372820D01*
X205425233Y-83330948D01*
X205400816Y-83265484D01*
X205400500Y-83256638D01*
X205400500Y-76087648D01*
X207199500Y-76087648D01*
X207199500Y-76292352D01*
X207203878Y-76319995D01*
X207231522Y-76494534D01*
X207294781Y-76689223D01*
X207348683Y-76795009D01*
X207387585Y-76871359D01*
X207387715Y-76871613D01*
X207508028Y-77037213D01*
X207652786Y-77181971D01*
X207773226Y-77269474D01*
X207818390Y-77302287D01*
X207934607Y-77361503D01*
X208000776Y-77395218D01*
X208000778Y-77395218D01*
X208000781Y-77395220D01*
X208105137Y-77429127D01*
X208195465Y-77458477D01*
X208296557Y-77474488D01*
X208397648Y-77490500D01*
X208475638Y-77490500D01*
X208542677Y-77510185D01*
X208563319Y-77526819D01*
X209424214Y-78387713D01*
X210110536Y-79074035D01*
X210231966Y-79195465D01*
X210235966Y-79199465D01*
X210383446Y-79298009D01*
X210383459Y-79298016D01*
X210465392Y-79331953D01*
X210547334Y-79365894D01*
X210557937Y-79368003D01*
X210721305Y-79400500D01*
X210721308Y-79400500D01*
X213058693Y-79400500D01*
X213058694Y-79400499D01*
X213232666Y-79365895D01*
X213314606Y-79331953D01*
X213396547Y-79298013D01*
X213487359Y-79237334D01*
X213544036Y-79199464D01*
X215211680Y-77531817D01*
X215273003Y-77498333D01*
X215299361Y-77495499D01*
X215875002Y-77495499D01*
X215875008Y-77495499D01*
X215977797Y-77484999D01*
X216144334Y-77429814D01*
X216293656Y-77337712D01*
X216417712Y-77213656D01*
X216509814Y-77064334D01*
X216564999Y-76897797D01*
X216575500Y-76795009D01*
X216575499Y-76087682D01*
X218700000Y-76087682D01*
X218700000Y-76292317D01*
X218732009Y-76494417D01*
X218795244Y-76689031D01*
X218888141Y-76871350D01*
X218888147Y-76871359D01*
X218920523Y-76915921D01*
X218920524Y-76915922D01*
X219600000Y-76236446D01*
X219600000Y-76242661D01*
X219627259Y-76344394D01*
X219679920Y-76435606D01*
X219754394Y-76510080D01*
X219845606Y-76562741D01*
X219947339Y-76590000D01*
X219953553Y-76590000D01*
X219274076Y-77269474D01*
X219318650Y-77301859D01*
X219500968Y-77394755D01*
X219695582Y-77457990D01*
X219897683Y-77490000D01*
X220102317Y-77490000D01*
X220304417Y-77457990D01*
X220499031Y-77394755D01*
X220681349Y-77301859D01*
X220725921Y-77269474D01*
X220046447Y-76590000D01*
X220052661Y-76590000D01*
X220154394Y-76562741D01*
X220245606Y-76510080D01*
X220320080Y-76435606D01*
X220372741Y-76344394D01*
X220400000Y-76242661D01*
X220400000Y-76236447D01*
X221079474Y-76915921D01*
X221111859Y-76871349D01*
X221204755Y-76689031D01*
X221267990Y-76494417D01*
X221300000Y-76292317D01*
X221300000Y-76087682D01*
X221267990Y-75885582D01*
X221204755Y-75690968D01*
X221111859Y-75508650D01*
X221079474Y-75464077D01*
X221079474Y-75464076D01*
X220400000Y-76143551D01*
X220400000Y-76137339D01*
X220372741Y-76035606D01*
X220320080Y-75944394D01*
X220245606Y-75869920D01*
X220154394Y-75817259D01*
X220052661Y-75790000D01*
X220046446Y-75790000D01*
X220725922Y-75110524D01*
X220725921Y-75110523D01*
X220681359Y-75078147D01*
X220681350Y-75078141D01*
X220499031Y-74985244D01*
X220304417Y-74922009D01*
X220102317Y-74890000D01*
X219897683Y-74890000D01*
X219695582Y-74922009D01*
X219500968Y-74985244D01*
X219318644Y-75078143D01*
X219274077Y-75110523D01*
X219274077Y-75110524D01*
X219953554Y-75790000D01*
X219947339Y-75790000D01*
X219845606Y-75817259D01*
X219754394Y-75869920D01*
X219679920Y-75944394D01*
X219627259Y-76035606D01*
X219600000Y-76137339D01*
X219600000Y-76143553D01*
X218920524Y-75464077D01*
X218920523Y-75464077D01*
X218888143Y-75508644D01*
X218795244Y-75690968D01*
X218732009Y-75885582D01*
X218700000Y-76087682D01*
X216575499Y-76087682D01*
X216575499Y-75594992D01*
X216566385Y-75505776D01*
X216564999Y-75492203D01*
X216564998Y-75492200D01*
X216555679Y-75464076D01*
X216509814Y-75325666D01*
X216498995Y-75308126D01*
X216446416Y-75222881D01*
X216446415Y-75222880D01*
X216431090Y-75198034D01*
X216417712Y-75176344D01*
X216293656Y-75052288D01*
X216184209Y-74984781D01*
X216144336Y-74960187D01*
X216144331Y-74960185D01*
X216142862Y-74959698D01*
X215977797Y-74905001D01*
X215977795Y-74905000D01*
X215875010Y-74894500D01*
X214674998Y-74894500D01*
X214674981Y-74894501D01*
X214572203Y-74905000D01*
X214572200Y-74905001D01*
X214405668Y-74960185D01*
X214405663Y-74960187D01*
X214256342Y-75052289D01*
X214132289Y-75176342D01*
X214040187Y-75325663D01*
X214040186Y-75325666D01*
X214015555Y-75399999D01*
X214012852Y-75408155D01*
X213973079Y-75465599D01*
X213908563Y-75492422D01*
X213839787Y-75480107D01*
X213828020Y-75470143D01*
X213814474Y-75469076D01*
X213135000Y-76148553D01*
X213135000Y-76142339D01*
X213107741Y-76040606D01*
X213055080Y-75949394D01*
X212980606Y-75874920D01*
X212889394Y-75822259D01*
X212787661Y-75795000D01*
X212781446Y-75795000D01*
X213460922Y-75115524D01*
X213460921Y-75115523D01*
X213416359Y-75083147D01*
X213416350Y-75083141D01*
X213234031Y-74990244D01*
X213039417Y-74927009D01*
X212837317Y-74895000D01*
X212632683Y-74895000D01*
X212430582Y-74927009D01*
X212235968Y-74990244D01*
X212053644Y-75083143D01*
X212009077Y-75115523D01*
X212009077Y-75115524D01*
X212688554Y-75795000D01*
X212682339Y-75795000D01*
X212580606Y-75822259D01*
X212489394Y-75874920D01*
X212414920Y-75949394D01*
X212362259Y-76040606D01*
X212335000Y-76142339D01*
X212335000Y-76148553D01*
X211655524Y-75469077D01*
X211655523Y-75469077D01*
X211623143Y-75513644D01*
X211530244Y-75695968D01*
X211467009Y-75890582D01*
X211435000Y-76092682D01*
X211435000Y-76297317D01*
X211467009Y-76499417D01*
X211530244Y-76694031D01*
X211623141Y-76876350D01*
X211623147Y-76876359D01*
X211655523Y-76920921D01*
X211655524Y-76920922D01*
X212335000Y-76241446D01*
X212335000Y-76247661D01*
X212362259Y-76349394D01*
X212414920Y-76440606D01*
X212489394Y-76515080D01*
X212580606Y-76567741D01*
X212682339Y-76595000D01*
X212688553Y-76595000D01*
X212009076Y-77274474D01*
X212053650Y-77306859D01*
X212167787Y-77365015D01*
X212218583Y-77412990D01*
X212235378Y-77480810D01*
X212212841Y-77546945D01*
X212158126Y-77590397D01*
X212111492Y-77599500D01*
X211234361Y-77599500D01*
X211167322Y-77579815D01*
X211146680Y-77563181D01*
X209836819Y-76253319D01*
X209822115Y-76226391D01*
X209805523Y-76200573D01*
X209804631Y-76194372D01*
X209803334Y-76191996D01*
X209800500Y-76165638D01*
X209800500Y-76087648D01*
X209768477Y-75885465D01*
X209737458Y-75790000D01*
X209705220Y-75690781D01*
X209705218Y-75690778D01*
X209705218Y-75690776D01*
X209656407Y-75594981D01*
X209612287Y-75508390D01*
X209600524Y-75492200D01*
X209491971Y-75342786D01*
X209347213Y-75198028D01*
X209181613Y-75077715D01*
X209181612Y-75077714D01*
X209181610Y-75077713D01*
X209124653Y-75048691D01*
X208999223Y-74984781D01*
X208804534Y-74921522D01*
X208629995Y-74893878D01*
X208602352Y-74889500D01*
X208397648Y-74889500D01*
X208373329Y-74893351D01*
X208195465Y-74921522D01*
X208000776Y-74984781D01*
X207818386Y-75077715D01*
X207652786Y-75198028D01*
X207508028Y-75342786D01*
X207387715Y-75508386D01*
X207294781Y-75690776D01*
X207231522Y-75885465D01*
X207206951Y-76040606D01*
X207199500Y-76087648D01*
X205400500Y-76087648D01*
X205400500Y-75739361D01*
X205420185Y-75672322D01*
X205436819Y-75651680D01*
X208436680Y-72651819D01*
X208498003Y-72618334D01*
X208524361Y-72615500D01*
X208602351Y-72615500D01*
X208602352Y-72615500D01*
X208804534Y-72583477D01*
X208999219Y-72520220D01*
X209181610Y-72427287D01*
X209288674Y-72349501D01*
X209347213Y-72306971D01*
X209347215Y-72306968D01*
X209347219Y-72306966D01*
X209491966Y-72162219D01*
X209491968Y-72162215D01*
X209491971Y-72162213D01*
X209544732Y-72089590D01*
X209612287Y-71996610D01*
X209705220Y-71814219D01*
X209768477Y-71619534D01*
X209800500Y-71417352D01*
X209800500Y-71212648D01*
X209768477Y-71010466D01*
X209762579Y-70992315D01*
X209705218Y-70815776D01*
X209655970Y-70719123D01*
X209612287Y-70633390D01*
X209553655Y-70552689D01*
X209491971Y-70467786D01*
X209347213Y-70323028D01*
X209181613Y-70202715D01*
X209181612Y-70202714D01*
X209181610Y-70202713D01*
X209113837Y-70168181D01*
X208999223Y-70109781D01*
X208804534Y-70046522D01*
X208629995Y-70018878D01*
X208602352Y-70014500D01*
X208397648Y-70014500D01*
X208373329Y-70018351D01*
X208195465Y-70046522D01*
X208000776Y-70109781D01*
X207818386Y-70202715D01*
X207652786Y-70323028D01*
X207508028Y-70467786D01*
X207387715Y-70633386D01*
X207294781Y-70815776D01*
X207231522Y-71010465D01*
X207199500Y-71212648D01*
X207199500Y-71290637D01*
X207179815Y-71357676D01*
X207163181Y-71378318D01*
X203800538Y-74740960D01*
X203800537Y-74740961D01*
X203763981Y-74795672D01*
X203763978Y-74795677D01*
X203761063Y-74800040D01*
X203701987Y-74888453D01*
X203672275Y-74960186D01*
X203669623Y-74966586D01*
X203669619Y-74966595D01*
X203634105Y-75052333D01*
X203634103Y-75052341D01*
X203605123Y-75198032D01*
X203605124Y-75198033D01*
X203599500Y-75226309D01*
X203599500Y-82765638D01*
X203579815Y-82832677D01*
X203563181Y-82853319D01*
X201113319Y-85303181D01*
X201051996Y-85336666D01*
X201025638Y-85339500D01*
X200893713Y-85339500D01*
X200845042Y-85347208D01*
X200683760Y-85372753D01*
X200481585Y-85438444D01*
X200292179Y-85534951D01*
X200120213Y-85659890D01*
X199969890Y-85810213D01*
X199844951Y-85982179D01*
X199748444Y-86171585D01*
X199682753Y-86373760D01*
X199666820Y-86474361D01*
X199649500Y-86583713D01*
X192050500Y-86583713D01*
X192050500Y-79397648D01*
X192699500Y-79397648D01*
X192699500Y-79602351D01*
X192731522Y-79804534D01*
X192794781Y-79999223D01*
X192887715Y-80181613D01*
X193008028Y-80347213D01*
X193008034Y-80347219D01*
X193152781Y-80491966D01*
X193278386Y-80583223D01*
X193321051Y-80638551D01*
X193329500Y-80683540D01*
X193329500Y-83368530D01*
X193309815Y-83435569D01*
X193293182Y-83456211D01*
X193161751Y-83587642D01*
X193032187Y-83765974D01*
X192932104Y-83962393D01*
X192932103Y-83962396D01*
X192863985Y-84172047D01*
X192829500Y-84389778D01*
X192829500Y-84610221D01*
X192863985Y-84827952D01*
X192932103Y-85037603D01*
X192932104Y-85037606D01*
X193032187Y-85234025D01*
X193161752Y-85412358D01*
X193161756Y-85412363D01*
X193317636Y-85568243D01*
X193317641Y-85568247D01*
X193451186Y-85665272D01*
X193495978Y-85697815D01*
X193606633Y-85754197D01*
X193692393Y-85797895D01*
X193692396Y-85797896D01*
X193730305Y-85810213D01*
X193902049Y-85866015D01*
X194119778Y-85900500D01*
X194119779Y-85900500D01*
X194340221Y-85900500D01*
X194340222Y-85900500D01*
X194557951Y-85866015D01*
X194767606Y-85797895D01*
X194964022Y-85697815D01*
X195142365Y-85568242D01*
X195192924Y-85517682D01*
X195254245Y-85484198D01*
X195323936Y-85489182D01*
X195379870Y-85531053D01*
X195396786Y-85562030D01*
X195426646Y-85642087D01*
X195426649Y-85642093D01*
X195512809Y-85757187D01*
X195512812Y-85757190D01*
X195627906Y-85843350D01*
X195627913Y-85843354D01*
X195762620Y-85893596D01*
X195762627Y-85893598D01*
X195822155Y-85899999D01*
X195822172Y-85900000D01*
X196520000Y-85900000D01*
X196520000Y-84875277D01*
X196596306Y-84919333D01*
X196710756Y-84950000D01*
X196829244Y-84950000D01*
X196943694Y-84919333D01*
X197020000Y-84875277D01*
X197020000Y-85900000D01*
X197717828Y-85900000D01*
X197717844Y-85899999D01*
X197777372Y-85893598D01*
X197777379Y-85893596D01*
X197912086Y-85843354D01*
X197912093Y-85843350D01*
X198027187Y-85757190D01*
X198027190Y-85757187D01*
X198113350Y-85642093D01*
X198113354Y-85642086D01*
X198163596Y-85507379D01*
X198163598Y-85507372D01*
X198169999Y-85447844D01*
X198170000Y-85447827D01*
X198170000Y-84750000D01*
X197145278Y-84750000D01*
X197189333Y-84673694D01*
X197220000Y-84559244D01*
X197220000Y-84440756D01*
X197189333Y-84326306D01*
X197145278Y-84250000D01*
X198170000Y-84250000D01*
X198170000Y-83552172D01*
X198169999Y-83552155D01*
X198163598Y-83492627D01*
X198163596Y-83492620D01*
X198113354Y-83357913D01*
X198113350Y-83357906D01*
X198027190Y-83242812D01*
X198027187Y-83242809D01*
X197912093Y-83156649D01*
X197912086Y-83156645D01*
X197777379Y-83106403D01*
X197777372Y-83106401D01*
X197717844Y-83100000D01*
X197020000Y-83100000D01*
X197020000Y-84124722D01*
X196943694Y-84080667D01*
X196829244Y-84050000D01*
X196710756Y-84050000D01*
X196596306Y-84080667D01*
X196520000Y-84124722D01*
X196520000Y-83100000D01*
X195822155Y-83100000D01*
X195762627Y-83106401D01*
X195762620Y-83106403D01*
X195627913Y-83156645D01*
X195627906Y-83156649D01*
X195512812Y-83242809D01*
X195512809Y-83242812D01*
X195426649Y-83357906D01*
X195426645Y-83357913D01*
X195396787Y-83437967D01*
X195396787Y-83437969D01*
X195383131Y-83456211D01*
X195354916Y-83493902D01*
X195289451Y-83518319D01*
X195221178Y-83503467D01*
X195192924Y-83482316D01*
X195166819Y-83456211D01*
X195133334Y-83394888D01*
X195130500Y-83368530D01*
X195130500Y-80175635D01*
X195144015Y-80119340D01*
X195205218Y-79999223D01*
X195205218Y-79999222D01*
X195205220Y-79999219D01*
X195268477Y-79804534D01*
X195300500Y-79602352D01*
X195300500Y-79397648D01*
X195284719Y-79298013D01*
X195268477Y-79195465D01*
X195205218Y-79000776D01*
X195171503Y-78934607D01*
X195112287Y-78818390D01*
X195104556Y-78807749D01*
X194991971Y-78652786D01*
X194847213Y-78508028D01*
X194681613Y-78387715D01*
X194681612Y-78387714D01*
X194681610Y-78387713D01*
X194624653Y-78358691D01*
X194499223Y-78294781D01*
X194304534Y-78231522D01*
X194129995Y-78203878D01*
X194102352Y-78199500D01*
X193897648Y-78199500D01*
X193873329Y-78203351D01*
X193695465Y-78231522D01*
X193500776Y-78294781D01*
X193318386Y-78387715D01*
X193152786Y-78508028D01*
X193008028Y-78652786D01*
X192887715Y-78818386D01*
X192794781Y-79000776D01*
X192731522Y-79195465D01*
X192699500Y-79397648D01*
X192050500Y-79397648D01*
X192050500Y-74125441D01*
X194599500Y-74125441D01*
X194599500Y-74374558D01*
X194599501Y-74374575D01*
X194632017Y-74621561D01*
X194696498Y-74862207D01*
X194791830Y-75092361D01*
X194791837Y-75092376D01*
X194916400Y-75308126D01*
X195068060Y-75505774D01*
X195068066Y-75505781D01*
X195244218Y-75681933D01*
X195244225Y-75681939D01*
X195441873Y-75833599D01*
X195657623Y-75958162D01*
X195657638Y-75958169D01*
X195756825Y-75999253D01*
X195887793Y-76053502D01*
X196128435Y-76117982D01*
X196375435Y-76150500D01*
X196375442Y-76150500D01*
X196624558Y-76150500D01*
X196624565Y-76150500D01*
X196871565Y-76117982D01*
X196978224Y-76089402D01*
X197048072Y-76091065D01*
X197097997Y-76121496D01*
X200283181Y-79306680D01*
X200316666Y-79368003D01*
X200319500Y-79394361D01*
X200319500Y-79602351D01*
X200351522Y-79804534D01*
X200414781Y-79999223D01*
X200507715Y-80181613D01*
X200628028Y-80347213D01*
X200772786Y-80491971D01*
X200927749Y-80604556D01*
X200938390Y-80612287D01*
X201024001Y-80655908D01*
X201120776Y-80705218D01*
X201120778Y-80705218D01*
X201120781Y-80705220D01*
X201225137Y-80739127D01*
X201315465Y-80768477D01*
X201416557Y-80784488D01*
X201517648Y-80800500D01*
X201517649Y-80800500D01*
X201722351Y-80800500D01*
X201722352Y-80800500D01*
X201924534Y-80768477D01*
X202119219Y-80705220D01*
X202301610Y-80612287D01*
X202428785Y-80519890D01*
X202467213Y-80491971D01*
X202467215Y-80491968D01*
X202467219Y-80491966D01*
X202611966Y-80347219D01*
X202611968Y-80347215D01*
X202611971Y-80347213D01*
X202664732Y-80274590D01*
X202732287Y-80181610D01*
X202825220Y-79999219D01*
X202888477Y-79804534D01*
X202920500Y-79602352D01*
X202920500Y-79397648D01*
X202904719Y-79298013D01*
X202888477Y-79195465D01*
X202825218Y-79000776D01*
X202791503Y-78934607D01*
X202732287Y-78818390D01*
X202724556Y-78807749D01*
X202611971Y-78652786D01*
X202467213Y-78508028D01*
X202301613Y-78387715D01*
X202301612Y-78387714D01*
X202301610Y-78387713D01*
X202119219Y-78294780D01*
X201924534Y-78231523D01*
X201924531Y-78231522D01*
X201924532Y-78231522D01*
X201762912Y-78205923D01*
X201699778Y-78175993D01*
X201694630Y-78171131D01*
X198371496Y-74847997D01*
X198338011Y-74786674D01*
X198339401Y-74728224D01*
X198367982Y-74621565D01*
X198400500Y-74374565D01*
X198400500Y-74125435D01*
X198399387Y-74116984D01*
X198410150Y-74047951D01*
X198434642Y-74013119D01*
X202915690Y-69532073D01*
X203026760Y-69379199D01*
X203112547Y-69210832D01*
X203170940Y-69031118D01*
X203180147Y-68972989D01*
X203200500Y-68844486D01*
X203200500Y-64798624D01*
X203220185Y-64731585D01*
X203236814Y-64710948D01*
X204721720Y-63226041D01*
X204753101Y-63203241D01*
X204931610Y-63112287D01*
X205067382Y-63013644D01*
X205097213Y-62991971D01*
X205097215Y-62991968D01*
X205097219Y-62991966D01*
X205241966Y-62847219D01*
X205241968Y-62847215D01*
X205241971Y-62847213D01*
X205362284Y-62681614D01*
X205362283Y-62681614D01*
X205362287Y-62681610D01*
X205453241Y-62503101D01*
X205476041Y-62471721D01*
X206210944Y-61736819D01*
X206272267Y-61703334D01*
X206298625Y-61700500D01*
X221951374Y-61700500D01*
X222018413Y-61720185D01*
X222039055Y-61736819D01*
X227203329Y-66901093D01*
X227236814Y-66962416D01*
X227231830Y-67032108D01*
X227203329Y-67076455D01*
X227035566Y-67244218D01*
X227035560Y-67244225D01*
X226883900Y-67441873D01*
X226759337Y-67657623D01*
X226759330Y-67657638D01*
X226663998Y-67887792D01*
X226599517Y-68128438D01*
X226578372Y-68289054D01*
X226567000Y-68375435D01*
X226567000Y-68624565D01*
X226567055Y-68624979D01*
X226568113Y-68633018D01*
X226557345Y-68702053D01*
X226532854Y-68736881D01*
X225375548Y-69894187D01*
X225314225Y-69927672D01*
X225244533Y-69922688D01*
X225200186Y-69894187D01*
X222606539Y-67300538D01*
X222606538Y-67300537D01*
X222587422Y-67287764D01*
X222530264Y-67249573D01*
X222459047Y-67201987D01*
X222377106Y-67168046D01*
X222295166Y-67134105D01*
X222295158Y-67134103D01*
X222121196Y-67099500D01*
X222121192Y-67099500D01*
X222121191Y-67099500D01*
X213822083Y-67099500D01*
X213811271Y-67096325D01*
X213800069Y-67097530D01*
X213778347Y-67086657D01*
X213755044Y-67079815D01*
X213747666Y-67071301D01*
X213737589Y-67066257D01*
X213725192Y-67045364D01*
X213709289Y-67027011D01*
X213707685Y-67015859D01*
X213701935Y-67006168D01*
X213702801Y-66981893D01*
X213699345Y-66957853D01*
X213704025Y-66947603D01*
X213704428Y-66936343D01*
X213718279Y-66916392D01*
X213728370Y-66894297D01*
X213738883Y-66886715D01*
X213744275Y-66878950D01*
X213774628Y-66860939D01*
X213851592Y-66829060D01*
X213926547Y-66798013D01*
X214014959Y-66738936D01*
X214074036Y-66699464D01*
X215741681Y-65031817D01*
X215803004Y-64998333D01*
X215829362Y-64995499D01*
X215875002Y-64995499D01*
X215875008Y-64995499D01*
X215977797Y-64984999D01*
X216144334Y-64929814D01*
X216293656Y-64837712D01*
X216417712Y-64713656D01*
X216509814Y-64564334D01*
X216564999Y-64397797D01*
X216575500Y-64295009D01*
X216575499Y-63782682D01*
X218700000Y-63782682D01*
X218700000Y-63987317D01*
X218732009Y-64189417D01*
X218795244Y-64384031D01*
X218888141Y-64566350D01*
X218888147Y-64566359D01*
X218920523Y-64610921D01*
X218920524Y-64610922D01*
X219600000Y-63931446D01*
X219600000Y-63937661D01*
X219627259Y-64039394D01*
X219679920Y-64130606D01*
X219754394Y-64205080D01*
X219845606Y-64257741D01*
X219947339Y-64285000D01*
X219953553Y-64285000D01*
X219274076Y-64964474D01*
X219318650Y-64996859D01*
X219500968Y-65089755D01*
X219695582Y-65152990D01*
X219897683Y-65185000D01*
X220102317Y-65185000D01*
X220304417Y-65152990D01*
X220499031Y-65089755D01*
X220681349Y-64996859D01*
X220725921Y-64964474D01*
X220046447Y-64285000D01*
X220052661Y-64285000D01*
X220154394Y-64257741D01*
X220245606Y-64205080D01*
X220320080Y-64130606D01*
X220372741Y-64039394D01*
X220400000Y-63937661D01*
X220400000Y-63931447D01*
X221079474Y-64610921D01*
X221111859Y-64566349D01*
X221204755Y-64384031D01*
X221267990Y-64189417D01*
X221300000Y-63987317D01*
X221300000Y-63782682D01*
X221267990Y-63580582D01*
X221204755Y-63385968D01*
X221111859Y-63203650D01*
X221079474Y-63159077D01*
X221079474Y-63159076D01*
X220400000Y-63838551D01*
X220400000Y-63832339D01*
X220372741Y-63730606D01*
X220320080Y-63639394D01*
X220245606Y-63564920D01*
X220154394Y-63512259D01*
X220052661Y-63485000D01*
X220046446Y-63485000D01*
X220725922Y-62805524D01*
X220725921Y-62805523D01*
X220681359Y-62773147D01*
X220681350Y-62773141D01*
X220499031Y-62680244D01*
X220304417Y-62617009D01*
X220102317Y-62585000D01*
X219897683Y-62585000D01*
X219695582Y-62617009D01*
X219500968Y-62680244D01*
X219318644Y-62773143D01*
X219274077Y-62805523D01*
X219274077Y-62805524D01*
X219953554Y-63485000D01*
X219947339Y-63485000D01*
X219845606Y-63512259D01*
X219754394Y-63564920D01*
X219679920Y-63639394D01*
X219627259Y-63730606D01*
X219600000Y-63832339D01*
X219600000Y-63838553D01*
X218920524Y-63159077D01*
X218920523Y-63159077D01*
X218888143Y-63203644D01*
X218795244Y-63385968D01*
X218732009Y-63580582D01*
X218700000Y-63782682D01*
X216575499Y-63782682D01*
X216575499Y-63694999D01*
X216575499Y-63094998D01*
X216575498Y-63094981D01*
X216564999Y-62992203D01*
X216537148Y-62908155D01*
X216509814Y-62825666D01*
X216417712Y-62676344D01*
X216293656Y-62552288D01*
X216191584Y-62489330D01*
X216144336Y-62460187D01*
X216144331Y-62460185D01*
X216142862Y-62459698D01*
X215977797Y-62405001D01*
X215977795Y-62405000D01*
X215875010Y-62394500D01*
X214674998Y-62394500D01*
X214674981Y-62394501D01*
X214572203Y-62405000D01*
X214572200Y-62405001D01*
X214405668Y-62460185D01*
X214405663Y-62460187D01*
X214256342Y-62552289D01*
X214132289Y-62676342D01*
X214040187Y-62825663D01*
X214040186Y-62825666D01*
X214012852Y-62908155D01*
X213973079Y-62965599D01*
X213908563Y-62992422D01*
X213839787Y-62980107D01*
X213828020Y-62970143D01*
X213814474Y-62969076D01*
X213135000Y-63648553D01*
X213135000Y-63642339D01*
X213107741Y-63540606D01*
X213055080Y-63449394D01*
X212980606Y-63374920D01*
X212889394Y-63322259D01*
X212787661Y-63295000D01*
X212781446Y-63295000D01*
X213460922Y-62615524D01*
X213460921Y-62615523D01*
X213416359Y-62583147D01*
X213416350Y-62583141D01*
X213234031Y-62490244D01*
X213039417Y-62427009D01*
X212837317Y-62395000D01*
X212632683Y-62395000D01*
X212430582Y-62427009D01*
X212235968Y-62490244D01*
X212053644Y-62583143D01*
X212009077Y-62615523D01*
X212009077Y-62615524D01*
X212688554Y-63295000D01*
X212682339Y-63295000D01*
X212580606Y-63322259D01*
X212489394Y-63374920D01*
X212414920Y-63449394D01*
X212362259Y-63540606D01*
X212335000Y-63642339D01*
X212335000Y-63648553D01*
X211655524Y-62969077D01*
X211655523Y-62969077D01*
X211623143Y-63013644D01*
X211530244Y-63195968D01*
X211467009Y-63390582D01*
X211435000Y-63592682D01*
X211435000Y-63797317D01*
X211467009Y-63999417D01*
X211530244Y-64194031D01*
X211623141Y-64376350D01*
X211623147Y-64376359D01*
X211655523Y-64420921D01*
X211655524Y-64420922D01*
X212335000Y-63741446D01*
X212335000Y-63747661D01*
X212362259Y-63849394D01*
X212414920Y-63940606D01*
X212489394Y-64015080D01*
X212580606Y-64067741D01*
X212682339Y-64095000D01*
X212688553Y-64095000D01*
X212009076Y-64774474D01*
X212053650Y-64806859D01*
X212167787Y-64865015D01*
X212218583Y-64912990D01*
X212235378Y-64980810D01*
X212212841Y-65046945D01*
X212158126Y-65090397D01*
X212111492Y-65099500D01*
X211229361Y-65099500D01*
X211162322Y-65079815D01*
X211141680Y-65063181D01*
X209836819Y-63758319D01*
X209822115Y-63731391D01*
X209805523Y-63705573D01*
X209804631Y-63699372D01*
X209803334Y-63696996D01*
X209800500Y-63670638D01*
X209800500Y-63592648D01*
X209768477Y-63390465D01*
X209724499Y-63255117D01*
X209705220Y-63195781D01*
X209705218Y-63195778D01*
X209705218Y-63195776D01*
X209671503Y-63129607D01*
X209612287Y-63013390D01*
X209588106Y-62980107D01*
X209491971Y-62847786D01*
X209347213Y-62703028D01*
X209181613Y-62582715D01*
X209181612Y-62582714D01*
X209181610Y-62582713D01*
X209101573Y-62541932D01*
X208999223Y-62489781D01*
X208804534Y-62426522D01*
X208629995Y-62398878D01*
X208602352Y-62394500D01*
X208397648Y-62394500D01*
X208373329Y-62398351D01*
X208195465Y-62426522D01*
X208000776Y-62489781D01*
X207818386Y-62582715D01*
X207652786Y-62703028D01*
X207508028Y-62847786D01*
X207387715Y-63013386D01*
X207294781Y-63195776D01*
X207231522Y-63390465D01*
X207199500Y-63592648D01*
X207199500Y-63797351D01*
X207231522Y-63999534D01*
X207294781Y-64194223D01*
X207317369Y-64238553D01*
X207387585Y-64376359D01*
X207387715Y-64376613D01*
X207508028Y-64542213D01*
X207652786Y-64686971D01*
X207735773Y-64747263D01*
X207818390Y-64807287D01*
X207931687Y-64865015D01*
X208000776Y-64900218D01*
X208000778Y-64900218D01*
X208000781Y-64900220D01*
X208091856Y-64929812D01*
X208195465Y-64963477D01*
X208296557Y-64979488D01*
X208397648Y-64995500D01*
X208475638Y-64995500D01*
X208542677Y-65015185D01*
X208563318Y-65031818D01*
X210105536Y-66574035D01*
X210230962Y-66699461D01*
X210230966Y-66699465D01*
X210378446Y-66798009D01*
X210378459Y-66798016D01*
X210501363Y-66848923D01*
X210542334Y-66865894D01*
X210584935Y-66874368D01*
X210716305Y-66900500D01*
X212593134Y-66900500D01*
X212660173Y-66920185D01*
X212705928Y-66972989D01*
X212715872Y-67042147D01*
X212686847Y-67105703D01*
X212640588Y-67139060D01*
X212607245Y-67152871D01*
X212488672Y-67201985D01*
X212488663Y-67201990D01*
X212341181Y-67300535D01*
X212341177Y-67300538D01*
X210300540Y-69341175D01*
X210300534Y-69341182D01*
X210275079Y-69379278D01*
X210275068Y-69379295D01*
X210272467Y-69383190D01*
X210201987Y-69488670D01*
X210173217Y-69558127D01*
X210170352Y-69565041D01*
X210170351Y-69565045D01*
X210134106Y-69652548D01*
X210134103Y-69652558D01*
X210109398Y-69776758D01*
X210109399Y-69776759D01*
X210099500Y-69826527D01*
X210099500Y-72588696D01*
X210134103Y-72762658D01*
X210134105Y-72762666D01*
X210165803Y-72839193D01*
X210165806Y-72839200D01*
X210168046Y-72844606D01*
X210201987Y-72926547D01*
X210247208Y-72994224D01*
X210250720Y-72999480D01*
X210300537Y-73074038D01*
X210300540Y-73074041D01*
X211300536Y-74074035D01*
X211425965Y-74199464D01*
X211573453Y-74298013D01*
X211621452Y-74317895D01*
X211737334Y-74365895D01*
X211911304Y-74400499D01*
X211911308Y-74400500D01*
X211911309Y-74400500D01*
X213178693Y-74400500D01*
X213178694Y-74400499D01*
X213352666Y-74365895D01*
X213434606Y-74331953D01*
X213516547Y-74298013D01*
X213604959Y-74238936D01*
X213664036Y-74199464D01*
X215211680Y-72651818D01*
X215273003Y-72618334D01*
X215299361Y-72615500D01*
X215377351Y-72615500D01*
X215377352Y-72615500D01*
X215579534Y-72583477D01*
X215774219Y-72520220D01*
X215956610Y-72427287D01*
X216063674Y-72349501D01*
X216122213Y-72306971D01*
X216122215Y-72306968D01*
X216122219Y-72306966D01*
X216266966Y-72162219D01*
X216266968Y-72162215D01*
X216266971Y-72162213D01*
X216319732Y-72089590D01*
X216387287Y-71996610D01*
X216480220Y-71814219D01*
X216543477Y-71619534D01*
X216575500Y-71417352D01*
X216575500Y-71212648D01*
X216543477Y-71010466D01*
X216537579Y-70992315D01*
X216480218Y-70815776D01*
X216387287Y-70633390D01*
X216361128Y-70597385D01*
X216337649Y-70531578D01*
X216353475Y-70463524D01*
X216403581Y-70414830D01*
X216461447Y-70400500D01*
X217570638Y-70400500D01*
X217637677Y-70420185D01*
X217658319Y-70436819D01*
X218663181Y-71441681D01*
X218696666Y-71503004D01*
X218699500Y-71529362D01*
X218699500Y-71607352D01*
X218703878Y-71634995D01*
X218731522Y-71809534D01*
X218794781Y-72004223D01*
X218858691Y-72129653D01*
X218887710Y-72186605D01*
X218887715Y-72186613D01*
X219008028Y-72352213D01*
X219063181Y-72407366D01*
X219096666Y-72468689D01*
X219099500Y-72495047D01*
X219099500Y-72588696D01*
X219134103Y-72762658D01*
X219134105Y-72762666D01*
X219165803Y-72839193D01*
X219165806Y-72839200D01*
X219168046Y-72844606D01*
X219201987Y-72926547D01*
X219247208Y-72994224D01*
X219250720Y-72999480D01*
X219300537Y-73074038D01*
X219300540Y-73074041D01*
X221563181Y-75336681D01*
X221596666Y-75398004D01*
X221599500Y-75424362D01*
X221599500Y-79128696D01*
X221634103Y-79302658D01*
X221634105Y-79302666D01*
X221658191Y-79360815D01*
X221658194Y-79360821D01*
X221660296Y-79365895D01*
X221701987Y-79466547D01*
X221750511Y-79539168D01*
X221754227Y-79544730D01*
X221754228Y-79544731D01*
X221800537Y-79614038D01*
X221800538Y-79614039D01*
X224073181Y-81886681D01*
X224106666Y-81948004D01*
X224109500Y-81974362D01*
X224109500Y-82897870D01*
X224109501Y-82897876D01*
X224115908Y-82957483D01*
X224166202Y-83092328D01*
X224166206Y-83092335D01*
X224252452Y-83207544D01*
X224252455Y-83207547D01*
X224367664Y-83293793D01*
X224367671Y-83293797D01*
X224502517Y-83344091D01*
X224502516Y-83344091D01*
X224509444Y-83344835D01*
X224562127Y-83350500D01*
X226357872Y-83350499D01*
X226417483Y-83344091D01*
X226552331Y-83293796D01*
X226601189Y-83257220D01*
X226666652Y-83232803D01*
X226734925Y-83247654D01*
X226784331Y-83297058D01*
X226799500Y-83356487D01*
X226799500Y-85143512D01*
X226779815Y-85210551D01*
X226727011Y-85256306D01*
X226657853Y-85266250D01*
X226601189Y-85242779D01*
X226552331Y-85206204D01*
X226552328Y-85206202D01*
X226417482Y-85155908D01*
X226417483Y-85155908D01*
X226357883Y-85149501D01*
X226357881Y-85149500D01*
X226357873Y-85149500D01*
X226357865Y-85149500D01*
X225434361Y-85149500D01*
X225367322Y-85129815D01*
X225346680Y-85113181D01*
X223344038Y-83110537D01*
X223344034Y-83110533D01*
X223289622Y-83074178D01*
X223289616Y-83074175D01*
X223284959Y-83071063D01*
X223196547Y-83011987D01*
X223114606Y-82978046D01*
X223089836Y-82967786D01*
X223032666Y-82944105D01*
X223032658Y-82944103D01*
X222858696Y-82909500D01*
X222858692Y-82909500D01*
X222858691Y-82909500D01*
X220990047Y-82909500D01*
X220923008Y-82889815D01*
X220902366Y-82873181D01*
X220847213Y-82818028D01*
X220681613Y-82697715D01*
X220681612Y-82697714D01*
X220681610Y-82697713D01*
X220624653Y-82668691D01*
X220499223Y-82604781D01*
X220304534Y-82541522D01*
X220116027Y-82511666D01*
X220102352Y-82509500D01*
X220102351Y-82509500D01*
X220024361Y-82509500D01*
X219957322Y-82489815D01*
X219936680Y-82473181D01*
X218764041Y-81300540D01*
X218764040Y-81300539D01*
X218764036Y-81300536D01*
X218704959Y-81261063D01*
X218616547Y-81201987D01*
X218534606Y-81168046D01*
X218452666Y-81134105D01*
X218452658Y-81134103D01*
X218278696Y-81099500D01*
X218278692Y-81099500D01*
X218278691Y-81099500D01*
X214638692Y-81099500D01*
X214461309Y-81099500D01*
X214461304Y-81099500D01*
X214287339Y-81134103D01*
X214287323Y-81134108D01*
X214171453Y-81182102D01*
X214171454Y-81182103D01*
X214123451Y-81201987D01*
X213996520Y-81286802D01*
X213988465Y-81292184D01*
X213985379Y-81294245D01*
X213975965Y-81300535D01*
X212798319Y-82478181D01*
X212736996Y-82511666D01*
X212710638Y-82514500D01*
X212632648Y-82514500D01*
X212609180Y-82518217D01*
X212430465Y-82546522D01*
X212235776Y-82609781D01*
X212053386Y-82702715D01*
X211887786Y-82823028D01*
X211743028Y-82967786D01*
X211622715Y-83133386D01*
X211529781Y-83315776D01*
X211466522Y-83510465D01*
X211434500Y-83712648D01*
X211434500Y-83917351D01*
X211466522Y-84119534D01*
X211529781Y-84314223D01*
X211593691Y-84439653D01*
X211620165Y-84491610D01*
X211622715Y-84496613D01*
X211743028Y-84662213D01*
X211887786Y-84806971D01*
X212042442Y-84919333D01*
X212053390Y-84927287D01*
X212128099Y-84965353D01*
X212235776Y-85020218D01*
X212235778Y-85020218D01*
X212235781Y-85020220D01*
X212289290Y-85037606D01*
X212430465Y-85083477D01*
X212511281Y-85096277D01*
X212632648Y-85115500D01*
X212632649Y-85115500D01*
X212837351Y-85115500D01*
X212837352Y-85115500D01*
X213039534Y-85083477D01*
X213234219Y-85020220D01*
X213416610Y-84927287D01*
X213509590Y-84859732D01*
X213582213Y-84806971D01*
X213582215Y-84806968D01*
X213582219Y-84806966D01*
X213726966Y-84662219D01*
X213726968Y-84662215D01*
X213726971Y-84662213D01*
X213847284Y-84496614D01*
X213847285Y-84496613D01*
X213847287Y-84496610D01*
X213894516Y-84403917D01*
X213942489Y-84353123D01*
X214010310Y-84336328D01*
X214076445Y-84358865D01*
X214115485Y-84403919D01*
X214162715Y-84496614D01*
X214283028Y-84662213D01*
X214427786Y-84806971D01*
X214582442Y-84919333D01*
X214593390Y-84927287D01*
X214668099Y-84965353D01*
X214775776Y-85020218D01*
X214775778Y-85020218D01*
X214775781Y-85020220D01*
X214829290Y-85037606D01*
X214970465Y-85083477D01*
X215051281Y-85096277D01*
X215172648Y-85115500D01*
X215250638Y-85115500D01*
X215317677Y-85135185D01*
X215338319Y-85151819D01*
X216760536Y-86574035D01*
X216885965Y-86699464D01*
X217033453Y-86798013D01*
X217077463Y-86816242D01*
X217077464Y-86816243D01*
X217077465Y-86816243D01*
X217197334Y-86865895D01*
X217369293Y-86900099D01*
X217371304Y-86900499D01*
X217371308Y-86900500D01*
X217371309Y-86900500D01*
X217548692Y-86900500D01*
X220575638Y-86900500D01*
X220642677Y-86920185D01*
X220663319Y-86936819D01*
X223300536Y-89574035D01*
X223376501Y-89650000D01*
X223425966Y-89699465D01*
X223499208Y-89748404D01*
X223573453Y-89798013D01*
X223621452Y-89817895D01*
X223737334Y-89865895D01*
X223884754Y-89895218D01*
X223911304Y-89900499D01*
X223911308Y-89900500D01*
X223911309Y-89900500D01*
X223993132Y-89900500D01*
X224060171Y-89920185D01*
X224105926Y-89972989D01*
X224116421Y-90037756D01*
X224109500Y-90102118D01*
X224109500Y-90875637D01*
X224089815Y-90942676D01*
X224073181Y-90963318D01*
X220242681Y-94793818D01*
X220181358Y-94827303D01*
X220111666Y-94822319D01*
X220067319Y-94793818D01*
X218574038Y-93300537D01*
X218543417Y-93280077D01*
X218501377Y-93251987D01*
X218426547Y-93201987D01*
X218344606Y-93168046D01*
X218338944Y-93165701D01*
X218338941Y-93165699D01*
X218262666Y-93134105D01*
X218262658Y-93134103D01*
X218088696Y-93099500D01*
X218088692Y-93099500D01*
X218088691Y-93099500D01*
X215088691Y-93099500D01*
X214911309Y-93099500D01*
X214911306Y-93099500D01*
X214737341Y-93134103D01*
X214737332Y-93134106D01*
X214573459Y-93201983D01*
X214573446Y-93201990D01*
X214425965Y-93300535D01*
X214425961Y-93300538D01*
X214300538Y-93425961D01*
X214300535Y-93425965D01*
X214206638Y-93566492D01*
X214191217Y-93585282D01*
X212798319Y-94978181D01*
X212736996Y-95011666D01*
X212710638Y-95014500D01*
X212632648Y-95014500D01*
X212608329Y-95018351D01*
X212430465Y-95046522D01*
X212235776Y-95109781D01*
X212053386Y-95202715D01*
X211887786Y-95323028D01*
X211743028Y-95467786D01*
X211622715Y-95633386D01*
X211529781Y-95815776D01*
X211466522Y-96010465D01*
X211434500Y-96212648D01*
X211434500Y-96417351D01*
X211466522Y-96619534D01*
X211529781Y-96814223D01*
X211593691Y-96939653D01*
X211620165Y-96991610D01*
X211622715Y-96996613D01*
X211743028Y-97162213D01*
X211887786Y-97306971D01*
X212042749Y-97419556D01*
X212053390Y-97427287D01*
X212169607Y-97486503D01*
X212235776Y-97520218D01*
X212235778Y-97520218D01*
X212235781Y-97520220D01*
X212266783Y-97530293D01*
X212430465Y-97583477D01*
X212510163Y-97596100D01*
X212632648Y-97615500D01*
X212632649Y-97615500D01*
X212837351Y-97615500D01*
X212837352Y-97615500D01*
X213039534Y-97583477D01*
X213234219Y-97520220D01*
X213416610Y-97427287D01*
X213563985Y-97320214D01*
X213582213Y-97306971D01*
X213582215Y-97306968D01*
X213582219Y-97306966D01*
X213726966Y-97162219D01*
X213726968Y-97162215D01*
X213726971Y-97162213D01*
X213847284Y-96996614D01*
X213847285Y-96996613D01*
X213847287Y-96996610D01*
X213894516Y-96903917D01*
X213942489Y-96853123D01*
X214010310Y-96836328D01*
X214076445Y-96858865D01*
X214115485Y-96903919D01*
X214162715Y-96996614D01*
X214283028Y-97162213D01*
X214427786Y-97306971D01*
X214582749Y-97419556D01*
X214593390Y-97427287D01*
X214709607Y-97486503D01*
X214775776Y-97520218D01*
X214775778Y-97520218D01*
X214775781Y-97520220D01*
X214806783Y-97530293D01*
X214970465Y-97583477D01*
X215050163Y-97596100D01*
X215172648Y-97615500D01*
X215290638Y-97615500D01*
X215357677Y-97635185D01*
X215378319Y-97651819D01*
X216120761Y-98394260D01*
X216800536Y-99074035D01*
X216925962Y-99199461D01*
X216925966Y-99199465D01*
X217073449Y-99298011D01*
X217073451Y-99298012D01*
X217073453Y-99298013D01*
X217088733Y-99304342D01*
X217237334Y-99365895D01*
X217411304Y-99400499D01*
X217411308Y-99400500D01*
X217411309Y-99400500D01*
X221790774Y-99400500D01*
X221790775Y-99400499D01*
X221964747Y-99365895D01*
X222064532Y-99324562D01*
X222128628Y-99298013D01*
X222217040Y-99238936D01*
X222276117Y-99199464D01*
X228699463Y-92776117D01*
X228699464Y-92776116D01*
X228798013Y-92628628D01*
X228865894Y-92464747D01*
X228874201Y-92422988D01*
X228900499Y-92290776D01*
X228900500Y-92290774D01*
X228900500Y-92060758D01*
X228920185Y-91993719D01*
X228936819Y-91973077D01*
X228952413Y-91957483D01*
X229030104Y-91879792D01*
X229030106Y-91879788D01*
X229030109Y-91879786D01*
X229115890Y-91761717D01*
X229155051Y-91707816D01*
X229159793Y-91698508D01*
X229207763Y-91647711D01*
X229275583Y-91630911D01*
X229341719Y-91653445D01*
X229380763Y-91698500D01*
X229385373Y-91707547D01*
X229424728Y-91761716D01*
X230057037Y-91129408D01*
X230074075Y-91192993D01*
X230139901Y-91307007D01*
X230232993Y-91400099D01*
X230347007Y-91465925D01*
X230410590Y-91482962D01*
X229778282Y-92115269D01*
X229778282Y-92115270D01*
X229832449Y-92154624D01*
X230021782Y-92251095D01*
X230223870Y-92316757D01*
X230433754Y-92350000D01*
X230646246Y-92350000D01*
X230856127Y-92316757D01*
X230856130Y-92316757D01*
X231058217Y-92251095D01*
X231247554Y-92154622D01*
X231301716Y-92115270D01*
X231301717Y-92115270D01*
X230669408Y-91482962D01*
X230732993Y-91465925D01*
X230847007Y-91400099D01*
X230940099Y-91307007D01*
X231005925Y-91192993D01*
X231022962Y-91129408D01*
X231655270Y-91761717D01*
X231655270Y-91761716D01*
X231694622Y-91707554D01*
X231791095Y-91518217D01*
X231856757Y-91316130D01*
X231856757Y-91316127D01*
X231890000Y-91106246D01*
X231890000Y-90893753D01*
X231856757Y-90683872D01*
X231856757Y-90683869D01*
X231791095Y-90481782D01*
X231694624Y-90292449D01*
X231655270Y-90238282D01*
X231655269Y-90238282D01*
X231022962Y-90870590D01*
X231005925Y-90807007D01*
X230940099Y-90692993D01*
X230847007Y-90599901D01*
X230732993Y-90534075D01*
X230669409Y-90517037D01*
X231301716Y-89884728D01*
X231247550Y-89845375D01*
X231058217Y-89748904D01*
X230856129Y-89683242D01*
X230646246Y-89650000D01*
X230433754Y-89650000D01*
X230223872Y-89683242D01*
X230223869Y-89683242D01*
X230021782Y-89748904D01*
X229832439Y-89845380D01*
X229778282Y-89884727D01*
X229778282Y-89884728D01*
X230410591Y-90517037D01*
X230347007Y-90534075D01*
X230232993Y-90599901D01*
X230139901Y-90692993D01*
X230074075Y-90807007D01*
X230057037Y-90870591D01*
X229424728Y-90238282D01*
X229424648Y-90238288D01*
X229399832Y-90257424D01*
X229376011Y-90278066D01*
X229372388Y-90278586D01*
X229369489Y-90280823D01*
X229338067Y-90283521D01*
X229306853Y-90288010D01*
X229303522Y-90286488D01*
X229299876Y-90286802D01*
X229271989Y-90272088D01*
X229243297Y-90258985D01*
X229241317Y-90255905D01*
X229238080Y-90254197D01*
X229222571Y-90226735D01*
X229205523Y-90200207D01*
X229204816Y-90195296D01*
X229203723Y-90193359D01*
X229200500Y-90165272D01*
X229200500Y-87334725D01*
X229220185Y-87267686D01*
X229272989Y-87221931D01*
X229342147Y-87211987D01*
X229405703Y-87241012D01*
X229424702Y-87261714D01*
X229424728Y-87261716D01*
X230057037Y-86629408D01*
X230074075Y-86692993D01*
X230139901Y-86807007D01*
X230232993Y-86900099D01*
X230347007Y-86965925D01*
X230410590Y-86982962D01*
X229778282Y-87615269D01*
X229778282Y-87615270D01*
X229832449Y-87654624D01*
X230021782Y-87751095D01*
X230223870Y-87816757D01*
X230433754Y-87850000D01*
X230646246Y-87850000D01*
X230856127Y-87816757D01*
X230856130Y-87816757D01*
X231058217Y-87751095D01*
X231247554Y-87654622D01*
X231301716Y-87615270D01*
X231301717Y-87615270D01*
X230669408Y-86982962D01*
X230732993Y-86965925D01*
X230847007Y-86900099D01*
X230940099Y-86807007D01*
X231005925Y-86692993D01*
X231022962Y-86629408D01*
X231655270Y-87261717D01*
X231655270Y-87261716D01*
X231694622Y-87207554D01*
X231791095Y-87018217D01*
X231856757Y-86816130D01*
X231856757Y-86816127D01*
X231890000Y-86606246D01*
X231890000Y-86393753D01*
X231856757Y-86183872D01*
X231856757Y-86183869D01*
X231791095Y-85981782D01*
X231694624Y-85792449D01*
X231655270Y-85738282D01*
X231655269Y-85738282D01*
X231022962Y-86370590D01*
X231005925Y-86307007D01*
X230940099Y-86192993D01*
X230847007Y-86099901D01*
X230732993Y-86034075D01*
X230669409Y-86017037D01*
X231301716Y-85384728D01*
X231247550Y-85345375D01*
X231058217Y-85248904D01*
X230856129Y-85183242D01*
X230646246Y-85150000D01*
X230433754Y-85150000D01*
X230223872Y-85183242D01*
X230223869Y-85183242D01*
X230021782Y-85248904D01*
X229832439Y-85345380D01*
X229778282Y-85384727D01*
X229778282Y-85384728D01*
X230410591Y-86017037D01*
X230347007Y-86034075D01*
X230232993Y-86099901D01*
X230139901Y-86192993D01*
X230074075Y-86307007D01*
X230057037Y-86370591D01*
X229424728Y-85738282D01*
X229424648Y-85738288D01*
X229399832Y-85757424D01*
X229376011Y-85778066D01*
X229372388Y-85778586D01*
X229369489Y-85780823D01*
X229338067Y-85783521D01*
X229306853Y-85788010D01*
X229303522Y-85786488D01*
X229299876Y-85786802D01*
X229271989Y-85772088D01*
X229243297Y-85758985D01*
X229241317Y-85755905D01*
X229238080Y-85754197D01*
X229222571Y-85726735D01*
X229205523Y-85700207D01*
X229204816Y-85695296D01*
X229203723Y-85693359D01*
X229200500Y-85665272D01*
X229200500Y-82834725D01*
X229220185Y-82767686D01*
X229272989Y-82721931D01*
X229342147Y-82711987D01*
X229405703Y-82741012D01*
X229424702Y-82761714D01*
X229424728Y-82761716D01*
X230057037Y-82129408D01*
X230074075Y-82192993D01*
X230139901Y-82307007D01*
X230232993Y-82400099D01*
X230347007Y-82465925D01*
X230410590Y-82482962D01*
X229778282Y-83115269D01*
X229778282Y-83115270D01*
X229832449Y-83154624D01*
X230021782Y-83251095D01*
X230223870Y-83316757D01*
X230433754Y-83350000D01*
X230646246Y-83350000D01*
X230856127Y-83316757D01*
X230856130Y-83316757D01*
X231058217Y-83251095D01*
X231247554Y-83154622D01*
X231301716Y-83115270D01*
X231301717Y-83115270D01*
X230669408Y-82482962D01*
X230732993Y-82465925D01*
X230847007Y-82400099D01*
X230940099Y-82307007D01*
X231005925Y-82192993D01*
X231022962Y-82129408D01*
X231655270Y-82761717D01*
X231655270Y-82761716D01*
X231694622Y-82707554D01*
X231791095Y-82518217D01*
X231856757Y-82316130D01*
X231856757Y-82316127D01*
X231890000Y-82106246D01*
X231890000Y-81893753D01*
X231856757Y-81683872D01*
X231856757Y-81683869D01*
X231791095Y-81481782D01*
X231694624Y-81292449D01*
X231655270Y-81238282D01*
X231655269Y-81238282D01*
X231022962Y-81870590D01*
X231005925Y-81807007D01*
X230940099Y-81692993D01*
X230847007Y-81599901D01*
X230732993Y-81534075D01*
X230669409Y-81517037D01*
X231301716Y-80884728D01*
X231247550Y-80845375D01*
X231058217Y-80748904D01*
X230856129Y-80683242D01*
X230646246Y-80650000D01*
X230433754Y-80650000D01*
X230223872Y-80683242D01*
X230223869Y-80683242D01*
X230021782Y-80748904D01*
X229832439Y-80845380D01*
X229778282Y-80884727D01*
X229778282Y-80884728D01*
X230410591Y-81517037D01*
X230347007Y-81534075D01*
X230232993Y-81599901D01*
X230139901Y-81692993D01*
X230074075Y-81807007D01*
X230057037Y-81870591D01*
X229424728Y-81238282D01*
X229424648Y-81238288D01*
X229399832Y-81257424D01*
X229376011Y-81278066D01*
X229372388Y-81278586D01*
X229369489Y-81280823D01*
X229338067Y-81283521D01*
X229306853Y-81288010D01*
X229303522Y-81286488D01*
X229299876Y-81286802D01*
X229271989Y-81272088D01*
X229243297Y-81258985D01*
X229241317Y-81255905D01*
X229238080Y-81254197D01*
X229222571Y-81226735D01*
X229205523Y-81200207D01*
X229204816Y-81195296D01*
X229203723Y-81193359D01*
X229200500Y-81165272D01*
X229200500Y-79905513D01*
X229170940Y-79718881D01*
X229133077Y-79602352D01*
X229112547Y-79539168D01*
X229112545Y-79539165D01*
X229112545Y-79539163D01*
X229026759Y-79370800D01*
X229023196Y-79365896D01*
X228915690Y-79217927D01*
X228782073Y-79084310D01*
X226736819Y-77039055D01*
X226703334Y-76977732D01*
X226700500Y-76951374D01*
X226700500Y-75372799D01*
X226720185Y-75305760D01*
X226772989Y-75260005D01*
X226842147Y-75250061D01*
X226889597Y-75267260D01*
X226998376Y-75334356D01*
X226998381Y-75334358D01*
X227164803Y-75389505D01*
X227164810Y-75389506D01*
X227267514Y-75399999D01*
X227267527Y-75400000D01*
X228217500Y-75400000D01*
X228217500Y-74100001D01*
X228277902Y-74125021D01*
X228403481Y-74150000D01*
X228531519Y-74150000D01*
X228657098Y-74125021D01*
X228717500Y-74100001D01*
X228717500Y-75400000D01*
X229667473Y-75400000D01*
X229667485Y-75399999D01*
X229770189Y-75389506D01*
X229770196Y-75389505D01*
X229936618Y-75334358D01*
X229936623Y-75334356D01*
X230085844Y-75242315D01*
X230209815Y-75118344D01*
X230301856Y-74969123D01*
X230301858Y-74969118D01*
X230357005Y-74802696D01*
X230357006Y-74802689D01*
X230367499Y-74699985D01*
X230367500Y-74699972D01*
X230367500Y-73750000D01*
X229067501Y-73750000D01*
X229092521Y-73689598D01*
X229117500Y-73564019D01*
X229117500Y-73435981D01*
X229092521Y-73310402D01*
X229067501Y-73250000D01*
X230367500Y-73250000D01*
X230367500Y-72300027D01*
X230367499Y-72300014D01*
X230357006Y-72197310D01*
X230357005Y-72197303D01*
X230301858Y-72030881D01*
X230301856Y-72030876D01*
X230209815Y-71881655D01*
X230085844Y-71757684D01*
X229936623Y-71665643D01*
X229936618Y-71665641D01*
X229770196Y-71610494D01*
X229770189Y-71610493D01*
X229667485Y-71600000D01*
X228717500Y-71600000D01*
X228717500Y-72899998D01*
X228657098Y-72874979D01*
X228531519Y-72850000D01*
X228403481Y-72850000D01*
X228277902Y-72874979D01*
X228217500Y-72899998D01*
X228217500Y-71600000D01*
X227364624Y-71600000D01*
X227297585Y-71580315D01*
X227251830Y-71527511D01*
X227241886Y-71458353D01*
X227270911Y-71394797D01*
X227276934Y-71388328D01*
X228230618Y-70434643D01*
X228291939Y-70401160D01*
X228334482Y-70399387D01*
X228342935Y-70400500D01*
X228342941Y-70400500D01*
X228592058Y-70400500D01*
X228592065Y-70400500D01*
X228839065Y-70367982D01*
X229079707Y-70303502D01*
X229309873Y-70208164D01*
X229525627Y-70083599D01*
X229723276Y-69931938D01*
X229899438Y-69755776D01*
X230051099Y-69558127D01*
X230175664Y-69342373D01*
X230271002Y-69112207D01*
X230335482Y-68871565D01*
X230368000Y-68624565D01*
X230368000Y-68375435D01*
X230335482Y-68128435D01*
X230271002Y-67887793D01*
X230175664Y-67657627D01*
X230051099Y-67441873D01*
X229942649Y-67300538D01*
X229899439Y-67244225D01*
X229899433Y-67244218D01*
X229723285Y-67068070D01*
X229723275Y-67068061D01*
X229716509Y-67062869D01*
X229675309Y-67006439D01*
X229668000Y-66964497D01*
X229668000Y-66373013D01*
X229638440Y-66186381D01*
X229580045Y-66006663D01*
X229494259Y-65838300D01*
X229420903Y-65737334D01*
X229411474Y-65724357D01*
X229383193Y-65685429D01*
X224576475Y-60878711D01*
X228649500Y-60878711D01*
X228649500Y-61121288D01*
X228675482Y-61318650D01*
X228681162Y-61361789D01*
X228702110Y-61439969D01*
X228743947Y-61596104D01*
X228809513Y-61754394D01*
X228836776Y-61820212D01*
X228958064Y-62030289D01*
X228958066Y-62030292D01*
X228958067Y-62030293D01*
X229105733Y-62222736D01*
X229105739Y-62222743D01*
X229277256Y-62394260D01*
X229277263Y-62394266D01*
X229319935Y-62427009D01*
X229469711Y-62541936D01*
X229679788Y-62663224D01*
X229903900Y-62756054D01*
X230138211Y-62818838D01*
X230318586Y-62842584D01*
X230378711Y-62850500D01*
X230378712Y-62850500D01*
X230621289Y-62850500D01*
X230669388Y-62844167D01*
X230861789Y-62818838D01*
X231096100Y-62756054D01*
X231320212Y-62663224D01*
X231530289Y-62541936D01*
X231722738Y-62394265D01*
X231894265Y-62222738D01*
X232041936Y-62030289D01*
X232163224Y-61820212D01*
X232256054Y-61596100D01*
X232318838Y-61361789D01*
X232350500Y-61121288D01*
X232350500Y-60878712D01*
X232318838Y-60638211D01*
X232256054Y-60403900D01*
X232163224Y-60179788D01*
X232041936Y-59969711D01*
X231894265Y-59777262D01*
X231894260Y-59777256D01*
X231722743Y-59605739D01*
X231722736Y-59605733D01*
X231530293Y-59458067D01*
X231530292Y-59458066D01*
X231530289Y-59458064D01*
X231320212Y-59336776D01*
X231301584Y-59329060D01*
X231096104Y-59243947D01*
X230861785Y-59181161D01*
X230621289Y-59149500D01*
X230621288Y-59149500D01*
X230378712Y-59149500D01*
X230378711Y-59149500D01*
X230138214Y-59181161D01*
X229903895Y-59243947D01*
X229679794Y-59336773D01*
X229679785Y-59336777D01*
X229469706Y-59458067D01*
X229277263Y-59605733D01*
X229277256Y-59605739D01*
X229105739Y-59777256D01*
X229105733Y-59777263D01*
X228958067Y-59969706D01*
X228836777Y-60179785D01*
X228836773Y-60179794D01*
X228743947Y-60403895D01*
X228681161Y-60638214D01*
X228649500Y-60878711D01*
X224576475Y-60878711D01*
X223282076Y-59584312D01*
X223282074Y-59584310D01*
X223129199Y-59473240D01*
X222960836Y-59387454D01*
X222781118Y-59329059D01*
X222594486Y-59299500D01*
X222594481Y-59299500D01*
X205844482Y-59299500D01*
X205655519Y-59299500D01*
X205655514Y-59299500D01*
X205468881Y-59329059D01*
X205289163Y-59387454D01*
X205120800Y-59473240D01*
X205033579Y-59536610D01*
X204967927Y-59584310D01*
X204967925Y-59584312D01*
X204967924Y-59584312D01*
X203778276Y-60773958D01*
X203746890Y-60796762D01*
X203568386Y-60887715D01*
X203402786Y-61008028D01*
X203258028Y-61152786D01*
X203137713Y-61318388D01*
X203110203Y-61372379D01*
X203062228Y-61423175D01*
X202994407Y-61439969D01*
X202928272Y-61417431D01*
X202889233Y-61372376D01*
X202861859Y-61318650D01*
X202829474Y-61274077D01*
X202829474Y-61274076D01*
X202150000Y-61953553D01*
X202150000Y-61947339D01*
X202122741Y-61845606D01*
X202070080Y-61754394D01*
X201995606Y-61679920D01*
X201904394Y-61627259D01*
X201802661Y-61600000D01*
X201796446Y-61600000D01*
X202475922Y-60920524D01*
X202475921Y-60920523D01*
X202431359Y-60888147D01*
X202431350Y-60888141D01*
X202249031Y-60795244D01*
X202054417Y-60732009D01*
X201852317Y-60700000D01*
X201647683Y-60700000D01*
X201445582Y-60732009D01*
X201250968Y-60795244D01*
X201068644Y-60888143D01*
X201024077Y-60920523D01*
X201024077Y-60920524D01*
X201703554Y-61600000D01*
X201697339Y-61600000D01*
X201595606Y-61627259D01*
X201504394Y-61679920D01*
X201429920Y-61754394D01*
X201377259Y-61845606D01*
X201350000Y-61947339D01*
X201350000Y-61953553D01*
X200670524Y-61274077D01*
X200670523Y-61274077D01*
X200638143Y-61318644D01*
X200545244Y-61500968D01*
X200482009Y-61695582D01*
X200450000Y-61897682D01*
X200450000Y-62102317D01*
X200482009Y-62304417D01*
X200545244Y-62499031D01*
X200638141Y-62681350D01*
X200638147Y-62681359D01*
X200670523Y-62725921D01*
X200670524Y-62725922D01*
X201350000Y-62046446D01*
X201350000Y-62052661D01*
X201377259Y-62154394D01*
X201429920Y-62245606D01*
X201504394Y-62320080D01*
X201595606Y-62372741D01*
X201697339Y-62400000D01*
X201703553Y-62400000D01*
X201024076Y-63079474D01*
X201068652Y-63111861D01*
X201162834Y-63159848D01*
X201181041Y-63177044D01*
X201201841Y-63191000D01*
X201206007Y-63200623D01*
X201213630Y-63207822D01*
X201219649Y-63232130D01*
X201229603Y-63255117D01*
X201227905Y-63265465D01*
X201230426Y-63275643D01*
X201222348Y-63299347D01*
X201218294Y-63324065D01*
X201209882Y-63335927D01*
X201207889Y-63341778D01*
X201198629Y-63353373D01*
X201196481Y-63355754D01*
X201084310Y-63467926D01*
X201042454Y-63525536D01*
X201038610Y-63530826D01*
X201038608Y-63530829D01*
X200973240Y-63620800D01*
X200887454Y-63789163D01*
X200829059Y-63968881D01*
X200799500Y-64155513D01*
X200799500Y-68201373D01*
X200779815Y-68268412D01*
X200763181Y-68289054D01*
X198611681Y-70440554D01*
X198550358Y-70474039D01*
X198480666Y-70469055D01*
X198424733Y-70427183D01*
X198400316Y-70361719D01*
X198400000Y-70352873D01*
X198400000Y-69500000D01*
X197100001Y-69500000D01*
X197125021Y-69439598D01*
X197150000Y-69314019D01*
X197150000Y-69185981D01*
X197125021Y-69060402D01*
X197100001Y-69000000D01*
X198400000Y-69000000D01*
X198400000Y-68050027D01*
X198399999Y-68050014D01*
X198389506Y-67947310D01*
X198389505Y-67947303D01*
X198334358Y-67780881D01*
X198334356Y-67780876D01*
X198242315Y-67631655D01*
X198118344Y-67507684D01*
X197969123Y-67415643D01*
X197969118Y-67415641D01*
X197802696Y-67360494D01*
X197802689Y-67360493D01*
X197699985Y-67350000D01*
X196750000Y-67350000D01*
X196750000Y-68649998D01*
X196689598Y-68624979D01*
X196564019Y-68600000D01*
X196435981Y-68600000D01*
X196310402Y-68624979D01*
X196250000Y-68649998D01*
X196250000Y-67350000D01*
X195300014Y-67350000D01*
X195197310Y-67360493D01*
X195197303Y-67360494D01*
X195030881Y-67415641D01*
X195030876Y-67415643D01*
X194881655Y-67507684D01*
X194757684Y-67631655D01*
X194665643Y-67780876D01*
X194665641Y-67780881D01*
X194610494Y-67947303D01*
X194610493Y-67947310D01*
X194600000Y-68050014D01*
X194600000Y-69000000D01*
X195899999Y-69000000D01*
X195874979Y-69060402D01*
X195850000Y-69185981D01*
X195850000Y-69314019D01*
X195874979Y-69439598D01*
X195899999Y-69500000D01*
X194600000Y-69500000D01*
X194600000Y-70449985D01*
X194610493Y-70552689D01*
X194610494Y-70552696D01*
X194665641Y-70719118D01*
X194665643Y-70719123D01*
X194757684Y-70868344D01*
X194881655Y-70992315D01*
X195030876Y-71084356D01*
X195030881Y-71084358D01*
X195197303Y-71139505D01*
X195197310Y-71139506D01*
X195300014Y-71149999D01*
X195300027Y-71150000D01*
X196250000Y-71150000D01*
X196250000Y-69850001D01*
X196310402Y-69875021D01*
X196435981Y-69900000D01*
X196564019Y-69900000D01*
X196689598Y-69875021D01*
X196750000Y-69850001D01*
X196750000Y-71150000D01*
X197602873Y-71150000D01*
X197669912Y-71169685D01*
X197715667Y-71222489D01*
X197725611Y-71291647D01*
X197696586Y-71355203D01*
X197690554Y-71361681D01*
X196736881Y-72315354D01*
X196675558Y-72348839D01*
X196633018Y-72350612D01*
X196624565Y-72349500D01*
X196375435Y-72349500D01*
X196375429Y-72349500D01*
X196375424Y-72349501D01*
X196128438Y-72382017D01*
X195887792Y-72446498D01*
X195657638Y-72541830D01*
X195657623Y-72541837D01*
X195441873Y-72666400D01*
X195244225Y-72818060D01*
X195244218Y-72818066D01*
X195068066Y-72994218D01*
X195068063Y-72994222D01*
X194916400Y-73191873D01*
X194791837Y-73407623D01*
X194791830Y-73407638D01*
X194696498Y-73637792D01*
X194632017Y-73878438D01*
X194599501Y-74125424D01*
X194599500Y-74125441D01*
X192050500Y-74125441D01*
X192050500Y-60878711D01*
X192649500Y-60878711D01*
X192649500Y-61121288D01*
X192675482Y-61318650D01*
X192681162Y-61361789D01*
X192702110Y-61439969D01*
X192743947Y-61596104D01*
X192809513Y-61754394D01*
X192836776Y-61820212D01*
X192958064Y-62030289D01*
X192958066Y-62030292D01*
X192958067Y-62030293D01*
X193105733Y-62222736D01*
X193105739Y-62222743D01*
X193277256Y-62394260D01*
X193277263Y-62394266D01*
X193319935Y-62427009D01*
X193469711Y-62541936D01*
X193679788Y-62663224D01*
X193903900Y-62756054D01*
X194138211Y-62818838D01*
X194318586Y-62842584D01*
X194378711Y-62850500D01*
X194378712Y-62850500D01*
X194621289Y-62850500D01*
X194669388Y-62844167D01*
X194861789Y-62818838D01*
X195096100Y-62756054D01*
X195320212Y-62663224D01*
X195530289Y-62541936D01*
X195722738Y-62394265D01*
X195894265Y-62222738D01*
X196041936Y-62030289D01*
X196163224Y-61820212D01*
X196256054Y-61596100D01*
X196318838Y-61361789D01*
X196350500Y-61121288D01*
X196350500Y-60878712D01*
X196318838Y-60638211D01*
X196256054Y-60403900D01*
X196163224Y-60179788D01*
X196041936Y-59969711D01*
X195894265Y-59777262D01*
X195894260Y-59777256D01*
X195722743Y-59605739D01*
X195722736Y-59605733D01*
X195530293Y-59458067D01*
X195530292Y-59458066D01*
X195530289Y-59458064D01*
X195320212Y-59336776D01*
X195301584Y-59329060D01*
X195096104Y-59243947D01*
X194861785Y-59181161D01*
X194621289Y-59149500D01*
X194621288Y-59149500D01*
X194378712Y-59149500D01*
X194378711Y-59149500D01*
X194138214Y-59181161D01*
X193903895Y-59243947D01*
X193679794Y-59336773D01*
X193679785Y-59336777D01*
X193469706Y-59458067D01*
X193277263Y-59605733D01*
X193277256Y-59605739D01*
X193105739Y-59777256D01*
X193105733Y-59777263D01*
X192958067Y-59969706D01*
X192836777Y-60179785D01*
X192836773Y-60179794D01*
X192743947Y-60403895D01*
X192681161Y-60638214D01*
X192649500Y-60878711D01*
X192050500Y-60878711D01*
X192050500Y-58674500D01*
X192053050Y-58665814D01*
X192051762Y-58656853D01*
X192062740Y-58632812D01*
X192070185Y-58607461D01*
X192077025Y-58601533D01*
X192080787Y-58593297D01*
X192103021Y-58579007D01*
X192122989Y-58561706D01*
X192133503Y-58559418D01*
X192139565Y-58555523D01*
X192174500Y-58550500D01*
X192187159Y-58550500D01*
X192244415Y-58564510D01*
G37*
%TD.AperFunction*%
%TD*%
M02*
