M48
; DRILL file {KiCad 9.0.4} date 2026-02-05T15:01:37+0100
; FORMAT={-:-/ absolute / metric / decimal}
; #@! TF.CreationDate,2026-02-05T15:01:37+01:00
; #@! TF.GenerationSoftware,Kicad,Pcbnew,9.0.4
; #@! TF.FileFunction,Plated,1,2,PTH
FMAT,2
METRIC
; #@! TA.AperFunction,Plated,PTH,ComponentDrill
T1C0.800
; #@! TA.AperFunction,Plated,PTH,ComponentDrill
T2C0.900
; #@! TA.AperFunction,Plated,PTH,ComponentDrill
T3C1.000
; #@! TA.AperFunction,Plated,PTH,ComponentDrill
T4C1.300
%
G90
G05
T1
X194.0Y-79.5
X201.62Y-79.5
X201.75Y-62.0
X204.25Y-62.0
X208.5Y-63.695
X208.5Y-71.315
X208.5Y-76.19
X208.5Y-83.81
X208.5Y-88.69
X208.5Y-96.31
X212.735Y-63.695
X212.735Y-71.315
X212.735Y-76.195
X212.735Y-83.815
X212.735Y-88.695
X212.735Y-96.315
X215.275Y-63.695
X215.275Y-71.315
X215.275Y-76.195
X215.275Y-83.815
X215.275Y-88.695
X215.275Y-96.315
X220.0Y-63.885
X220.0Y-71.505
X220.0Y-76.19
X220.0Y-83.81
X220.0Y-88.69
X220.0Y-96.31
T2
X194.23Y-84.5
X196.77Y-84.5
T3
X201.0Y-86.69
X201.0Y-89.23
X201.0Y-91.77
X201.0Y-94.31
X225.46Y-82.0
X225.46Y-86.5
X225.46Y-91.0
X228.0Y-82.0
X228.0Y-86.5
X228.0Y-91.0
X230.54Y-82.0
X230.54Y-86.5
X230.54Y-91.0
T4
X196.5Y-69.25
X196.5Y-74.25
X228.468Y-68.5
X228.468Y-73.5
M30
