%TF.GenerationSoftware,KiCad,Pcbnew,9.0.4*%
%TF.CreationDate,2026-02-05T15:01:37+01:00*%
%TF.ProjectId,carte servo,63617274-6520-4736-9572-766f2e6b6963,rev?*%
%TF.SameCoordinates,Original*%
%TF.FileFunction,Drillmap*%
%TF.FilePolarity,Positive*%
%FSLAX45Y45*%
G04 Gerber Fmt 4.5, Leading zero omitted, Abs format (unit mm)*
G04 Created by KiCad (PCBNEW 9.0.4) date 2026-02-05 15:01:37*
%MOMM*%
%LPD*%
G01*
G04 APERTURE LIST*
%ADD10C,0.050000*%
%ADD11C,0.200000*%
%ADD12C,0.320000*%
G04 APERTURE END LIST*
D10*
X19125000Y-5800000D02*
X23425000Y-5800000D01*
X23425000Y-10100000D01*
X19125000Y-10100000D01*
X19125000Y-5800000D01*
D11*
D12*
X19290000Y-5940000D02*
X19610000Y-6260000D01*
X19610000Y-5940000D02*
X19290000Y-6260000D01*
X19290000Y-9540000D02*
X19610000Y-9860000D01*
X19610000Y-9540000D02*
X19290000Y-9860000D01*
X22890000Y-5940000D02*
X23210000Y-6260000D01*
X23210000Y-5940000D02*
X22890000Y-6260000D01*
X22890000Y-9490000D02*
X23210000Y-9810000D01*
X23210000Y-9490000D02*
X22890000Y-9810000D01*
D11*
X19383277Y-10413984D02*
X19383277Y-10213984D01*
X19383277Y-10213984D02*
X19430896Y-10213984D01*
X19430896Y-10213984D02*
X19459467Y-10223508D01*
X19459467Y-10223508D02*
X19478515Y-10242555D01*
X19478515Y-10242555D02*
X19488039Y-10261603D01*
X19488039Y-10261603D02*
X19497563Y-10299698D01*
X19497563Y-10299698D02*
X19497563Y-10328270D01*
X19497563Y-10328270D02*
X19488039Y-10366365D01*
X19488039Y-10366365D02*
X19478515Y-10385412D01*
X19478515Y-10385412D02*
X19459467Y-10404460D01*
X19459467Y-10404460D02*
X19430896Y-10413984D01*
X19430896Y-10413984D02*
X19383277Y-10413984D01*
X19583277Y-10413984D02*
X19583277Y-10280650D01*
X19583277Y-10318746D02*
X19592801Y-10299698D01*
X19592801Y-10299698D02*
X19602324Y-10290174D01*
X19602324Y-10290174D02*
X19621372Y-10280650D01*
X19621372Y-10280650D02*
X19640420Y-10280650D01*
X19707086Y-10413984D02*
X19707086Y-10280650D01*
X19707086Y-10213984D02*
X19697563Y-10223508D01*
X19697563Y-10223508D02*
X19707086Y-10233031D01*
X19707086Y-10233031D02*
X19716610Y-10223508D01*
X19716610Y-10223508D02*
X19707086Y-10213984D01*
X19707086Y-10213984D02*
X19707086Y-10233031D01*
X19830896Y-10413984D02*
X19811848Y-10404460D01*
X19811848Y-10404460D02*
X19802324Y-10385412D01*
X19802324Y-10385412D02*
X19802324Y-10213984D01*
X19935658Y-10413984D02*
X19916610Y-10404460D01*
X19916610Y-10404460D02*
X19907086Y-10385412D01*
X19907086Y-10385412D02*
X19907086Y-10213984D01*
X20164229Y-10413984D02*
X20164229Y-10213984D01*
X20164229Y-10213984D02*
X20230896Y-10356841D01*
X20230896Y-10356841D02*
X20297563Y-10213984D01*
X20297563Y-10213984D02*
X20297563Y-10413984D01*
X20478515Y-10413984D02*
X20478515Y-10309222D01*
X20478515Y-10309222D02*
X20468991Y-10290174D01*
X20468991Y-10290174D02*
X20449944Y-10280650D01*
X20449944Y-10280650D02*
X20411848Y-10280650D01*
X20411848Y-10280650D02*
X20392801Y-10290174D01*
X20478515Y-10404460D02*
X20459467Y-10413984D01*
X20459467Y-10413984D02*
X20411848Y-10413984D01*
X20411848Y-10413984D02*
X20392801Y-10404460D01*
X20392801Y-10404460D02*
X20383277Y-10385412D01*
X20383277Y-10385412D02*
X20383277Y-10366365D01*
X20383277Y-10366365D02*
X20392801Y-10347317D01*
X20392801Y-10347317D02*
X20411848Y-10337793D01*
X20411848Y-10337793D02*
X20459467Y-10337793D01*
X20459467Y-10337793D02*
X20478515Y-10328270D01*
X20573753Y-10280650D02*
X20573753Y-10480650D01*
X20573753Y-10290174D02*
X20592801Y-10280650D01*
X20592801Y-10280650D02*
X20630896Y-10280650D01*
X20630896Y-10280650D02*
X20649944Y-10290174D01*
X20649944Y-10290174D02*
X20659467Y-10299698D01*
X20659467Y-10299698D02*
X20668991Y-10318746D01*
X20668991Y-10318746D02*
X20668991Y-10375889D01*
X20668991Y-10375889D02*
X20659467Y-10394936D01*
X20659467Y-10394936D02*
X20649944Y-10404460D01*
X20649944Y-10404460D02*
X20630896Y-10413984D01*
X20630896Y-10413984D02*
X20592801Y-10413984D01*
X20592801Y-10413984D02*
X20573753Y-10404460D01*
X20754705Y-10394936D02*
X20764229Y-10404460D01*
X20764229Y-10404460D02*
X20754705Y-10413984D01*
X20754705Y-10413984D02*
X20745182Y-10404460D01*
X20745182Y-10404460D02*
X20754705Y-10394936D01*
X20754705Y-10394936D02*
X20754705Y-10413984D01*
X20754705Y-10290174D02*
X20764229Y-10299698D01*
X20764229Y-10299698D02*
X20754705Y-10309222D01*
X20754705Y-10309222D02*
X20745182Y-10299698D01*
X20745182Y-10299698D02*
X20754705Y-10290174D01*
X20754705Y-10290174D02*
X20754705Y-10309222D01*
X18922500Y-10642500D02*
X19122500Y-10842500D01*
X19122500Y-10642500D02*
X18922500Y-10842500D01*
X19364229Y-10633984D02*
X19488039Y-10633984D01*
X19488039Y-10633984D02*
X19421372Y-10710174D01*
X19421372Y-10710174D02*
X19449944Y-10710174D01*
X19449944Y-10710174D02*
X19468991Y-10719698D01*
X19468991Y-10719698D02*
X19478515Y-10729222D01*
X19478515Y-10729222D02*
X19488039Y-10748270D01*
X19488039Y-10748270D02*
X19488039Y-10795889D01*
X19488039Y-10795889D02*
X19478515Y-10814936D01*
X19478515Y-10814936D02*
X19468991Y-10824460D01*
X19468991Y-10824460D02*
X19449944Y-10833984D01*
X19449944Y-10833984D02*
X19392801Y-10833984D01*
X19392801Y-10833984D02*
X19373753Y-10824460D01*
X19373753Y-10824460D02*
X19364229Y-10814936D01*
X19573753Y-10814936D02*
X19583277Y-10824460D01*
X19583277Y-10824460D02*
X19573753Y-10833984D01*
X19573753Y-10833984D02*
X19564229Y-10824460D01*
X19564229Y-10824460D02*
X19573753Y-10814936D01*
X19573753Y-10814936D02*
X19573753Y-10833984D01*
X19659467Y-10653031D02*
X19668991Y-10643508D01*
X19668991Y-10643508D02*
X19688039Y-10633984D01*
X19688039Y-10633984D02*
X19735658Y-10633984D01*
X19735658Y-10633984D02*
X19754705Y-10643508D01*
X19754705Y-10643508D02*
X19764229Y-10653031D01*
X19764229Y-10653031D02*
X19773753Y-10672079D01*
X19773753Y-10672079D02*
X19773753Y-10691127D01*
X19773753Y-10691127D02*
X19764229Y-10719698D01*
X19764229Y-10719698D02*
X19649944Y-10833984D01*
X19649944Y-10833984D02*
X19773753Y-10833984D01*
X19897563Y-10633984D02*
X19916610Y-10633984D01*
X19916610Y-10633984D02*
X19935658Y-10643508D01*
X19935658Y-10643508D02*
X19945182Y-10653031D01*
X19945182Y-10653031D02*
X19954705Y-10672079D01*
X19954705Y-10672079D02*
X19964229Y-10710174D01*
X19964229Y-10710174D02*
X19964229Y-10757793D01*
X19964229Y-10757793D02*
X19954705Y-10795889D01*
X19954705Y-10795889D02*
X19945182Y-10814936D01*
X19945182Y-10814936D02*
X19935658Y-10824460D01*
X19935658Y-10824460D02*
X19916610Y-10833984D01*
X19916610Y-10833984D02*
X19897563Y-10833984D01*
X19897563Y-10833984D02*
X19878515Y-10824460D01*
X19878515Y-10824460D02*
X19868991Y-10814936D01*
X19868991Y-10814936D02*
X19859467Y-10795889D01*
X19859467Y-10795889D02*
X19849944Y-10757793D01*
X19849944Y-10757793D02*
X19849944Y-10710174D01*
X19849944Y-10710174D02*
X19859467Y-10672079D01*
X19859467Y-10672079D02*
X19868991Y-10653031D01*
X19868991Y-10653031D02*
X19878515Y-10643508D01*
X19878515Y-10643508D02*
X19897563Y-10633984D01*
X20088039Y-10633984D02*
X20107086Y-10633984D01*
X20107086Y-10633984D02*
X20126134Y-10643508D01*
X20126134Y-10643508D02*
X20135658Y-10653031D01*
X20135658Y-10653031D02*
X20145182Y-10672079D01*
X20145182Y-10672079D02*
X20154705Y-10710174D01*
X20154705Y-10710174D02*
X20154705Y-10757793D01*
X20154705Y-10757793D02*
X20145182Y-10795889D01*
X20145182Y-10795889D02*
X20135658Y-10814936D01*
X20135658Y-10814936D02*
X20126134Y-10824460D01*
X20126134Y-10824460D02*
X20107086Y-10833984D01*
X20107086Y-10833984D02*
X20088039Y-10833984D01*
X20088039Y-10833984D02*
X20068991Y-10824460D01*
X20068991Y-10824460D02*
X20059467Y-10814936D01*
X20059467Y-10814936D02*
X20049944Y-10795889D01*
X20049944Y-10795889D02*
X20040420Y-10757793D01*
X20040420Y-10757793D02*
X20040420Y-10710174D01*
X20040420Y-10710174D02*
X20049944Y-10672079D01*
X20049944Y-10672079D02*
X20059467Y-10653031D01*
X20059467Y-10653031D02*
X20068991Y-10643508D01*
X20068991Y-10643508D02*
X20088039Y-10633984D01*
X20240420Y-10833984D02*
X20240420Y-10700650D01*
X20240420Y-10719698D02*
X20249944Y-10710174D01*
X20249944Y-10710174D02*
X20268991Y-10700650D01*
X20268991Y-10700650D02*
X20297563Y-10700650D01*
X20297563Y-10700650D02*
X20316610Y-10710174D01*
X20316610Y-10710174D02*
X20326134Y-10729222D01*
X20326134Y-10729222D02*
X20326134Y-10833984D01*
X20326134Y-10729222D02*
X20335658Y-10710174D01*
X20335658Y-10710174D02*
X20354705Y-10700650D01*
X20354705Y-10700650D02*
X20383277Y-10700650D01*
X20383277Y-10700650D02*
X20402325Y-10710174D01*
X20402325Y-10710174D02*
X20411848Y-10729222D01*
X20411848Y-10729222D02*
X20411848Y-10833984D01*
X20507086Y-10833984D02*
X20507086Y-10700650D01*
X20507086Y-10719698D02*
X20516610Y-10710174D01*
X20516610Y-10710174D02*
X20535658Y-10700650D01*
X20535658Y-10700650D02*
X20564229Y-10700650D01*
X20564229Y-10700650D02*
X20583277Y-10710174D01*
X20583277Y-10710174D02*
X20592801Y-10729222D01*
X20592801Y-10729222D02*
X20592801Y-10833984D01*
X20592801Y-10729222D02*
X20602325Y-10710174D01*
X20602325Y-10710174D02*
X20621372Y-10700650D01*
X20621372Y-10700650D02*
X20649944Y-10700650D01*
X20649944Y-10700650D02*
X20668991Y-10710174D01*
X20668991Y-10710174D02*
X20678515Y-10729222D01*
X20678515Y-10729222D02*
X20678515Y-10833984D01*
X21068991Y-10624460D02*
X20897563Y-10881603D01*
X21326134Y-10633984D02*
X21345182Y-10633984D01*
X21345182Y-10633984D02*
X21364229Y-10643508D01*
X21364229Y-10643508D02*
X21373753Y-10653031D01*
X21373753Y-10653031D02*
X21383277Y-10672079D01*
X21383277Y-10672079D02*
X21392801Y-10710174D01*
X21392801Y-10710174D02*
X21392801Y-10757793D01*
X21392801Y-10757793D02*
X21383277Y-10795889D01*
X21383277Y-10795889D02*
X21373753Y-10814936D01*
X21373753Y-10814936D02*
X21364229Y-10824460D01*
X21364229Y-10824460D02*
X21345182Y-10833984D01*
X21345182Y-10833984D02*
X21326134Y-10833984D01*
X21326134Y-10833984D02*
X21307087Y-10824460D01*
X21307087Y-10824460D02*
X21297563Y-10814936D01*
X21297563Y-10814936D02*
X21288039Y-10795889D01*
X21288039Y-10795889D02*
X21278515Y-10757793D01*
X21278515Y-10757793D02*
X21278515Y-10710174D01*
X21278515Y-10710174D02*
X21288039Y-10672079D01*
X21288039Y-10672079D02*
X21297563Y-10653031D01*
X21297563Y-10653031D02*
X21307087Y-10643508D01*
X21307087Y-10643508D02*
X21326134Y-10633984D01*
X21478515Y-10814936D02*
X21488039Y-10824460D01*
X21488039Y-10824460D02*
X21478515Y-10833984D01*
X21478515Y-10833984D02*
X21468991Y-10824460D01*
X21468991Y-10824460D02*
X21478515Y-10814936D01*
X21478515Y-10814936D02*
X21478515Y-10833984D01*
X21678515Y-10833984D02*
X21564229Y-10833984D01*
X21621372Y-10833984D02*
X21621372Y-10633984D01*
X21621372Y-10633984D02*
X21602325Y-10662555D01*
X21602325Y-10662555D02*
X21583277Y-10681603D01*
X21583277Y-10681603D02*
X21564229Y-10691127D01*
X21754706Y-10653031D02*
X21764229Y-10643508D01*
X21764229Y-10643508D02*
X21783277Y-10633984D01*
X21783277Y-10633984D02*
X21830896Y-10633984D01*
X21830896Y-10633984D02*
X21849944Y-10643508D01*
X21849944Y-10643508D02*
X21859468Y-10653031D01*
X21859468Y-10653031D02*
X21868991Y-10672079D01*
X21868991Y-10672079D02*
X21868991Y-10691127D01*
X21868991Y-10691127D02*
X21859468Y-10719698D01*
X21859468Y-10719698D02*
X21745182Y-10833984D01*
X21745182Y-10833984D02*
X21868991Y-10833984D01*
X22040420Y-10633984D02*
X22002325Y-10633984D01*
X22002325Y-10633984D02*
X21983277Y-10643508D01*
X21983277Y-10643508D02*
X21973753Y-10653031D01*
X21973753Y-10653031D02*
X21954706Y-10681603D01*
X21954706Y-10681603D02*
X21945182Y-10719698D01*
X21945182Y-10719698D02*
X21945182Y-10795889D01*
X21945182Y-10795889D02*
X21954706Y-10814936D01*
X21954706Y-10814936D02*
X21964229Y-10824460D01*
X21964229Y-10824460D02*
X21983277Y-10833984D01*
X21983277Y-10833984D02*
X22021372Y-10833984D01*
X22021372Y-10833984D02*
X22040420Y-10824460D01*
X22040420Y-10824460D02*
X22049944Y-10814936D01*
X22049944Y-10814936D02*
X22059468Y-10795889D01*
X22059468Y-10795889D02*
X22059468Y-10748270D01*
X22059468Y-10748270D02*
X22049944Y-10729222D01*
X22049944Y-10729222D02*
X22040420Y-10719698D01*
X22040420Y-10719698D02*
X22021372Y-10710174D01*
X22021372Y-10710174D02*
X21983277Y-10710174D01*
X21983277Y-10710174D02*
X21964229Y-10719698D01*
X21964229Y-10719698D02*
X21954706Y-10729222D01*
X21954706Y-10729222D02*
X21945182Y-10748270D01*
X22183277Y-10633984D02*
X22202325Y-10633984D01*
X22202325Y-10633984D02*
X22221372Y-10643508D01*
X22221372Y-10643508D02*
X22230896Y-10653031D01*
X22230896Y-10653031D02*
X22240420Y-10672079D01*
X22240420Y-10672079D02*
X22249944Y-10710174D01*
X22249944Y-10710174D02*
X22249944Y-10757793D01*
X22249944Y-10757793D02*
X22240420Y-10795889D01*
X22240420Y-10795889D02*
X22230896Y-10814936D01*
X22230896Y-10814936D02*
X22221372Y-10824460D01*
X22221372Y-10824460D02*
X22202325Y-10833984D01*
X22202325Y-10833984D02*
X22183277Y-10833984D01*
X22183277Y-10833984D02*
X22164229Y-10824460D01*
X22164229Y-10824460D02*
X22154706Y-10814936D01*
X22154706Y-10814936D02*
X22145182Y-10795889D01*
X22145182Y-10795889D02*
X22135658Y-10757793D01*
X22135658Y-10757793D02*
X22135658Y-10710174D01*
X22135658Y-10710174D02*
X22145182Y-10672079D01*
X22145182Y-10672079D02*
X22154706Y-10653031D01*
X22154706Y-10653031D02*
X22164229Y-10643508D01*
X22164229Y-10643508D02*
X22183277Y-10633984D01*
X22326134Y-10633984D02*
X22326134Y-10672079D01*
X22402325Y-10633984D02*
X22402325Y-10672079D01*
X22697563Y-10910174D02*
X22688039Y-10900650D01*
X22688039Y-10900650D02*
X22668991Y-10872079D01*
X22668991Y-10872079D02*
X22659468Y-10853031D01*
X22659468Y-10853031D02*
X22649944Y-10824460D01*
X22649944Y-10824460D02*
X22640420Y-10776841D01*
X22640420Y-10776841D02*
X22640420Y-10738746D01*
X22640420Y-10738746D02*
X22649944Y-10691127D01*
X22649944Y-10691127D02*
X22659468Y-10662555D01*
X22659468Y-10662555D02*
X22668991Y-10643508D01*
X22668991Y-10643508D02*
X22688039Y-10614936D01*
X22688039Y-10614936D02*
X22697563Y-10605412D01*
X22859468Y-10700650D02*
X22859468Y-10833984D01*
X22811848Y-10624460D02*
X22764229Y-10767317D01*
X22764229Y-10767317D02*
X22888039Y-10767317D01*
X23116610Y-10833984D02*
X23116610Y-10633984D01*
X23202325Y-10833984D02*
X23202325Y-10729222D01*
X23202325Y-10729222D02*
X23192801Y-10710174D01*
X23192801Y-10710174D02*
X23173753Y-10700650D01*
X23173753Y-10700650D02*
X23145182Y-10700650D01*
X23145182Y-10700650D02*
X23126134Y-10710174D01*
X23126134Y-10710174D02*
X23116610Y-10719698D01*
X23326134Y-10833984D02*
X23307087Y-10824460D01*
X23307087Y-10824460D02*
X23297563Y-10814936D01*
X23297563Y-10814936D02*
X23288039Y-10795889D01*
X23288039Y-10795889D02*
X23288039Y-10738746D01*
X23288039Y-10738746D02*
X23297563Y-10719698D01*
X23297563Y-10719698D02*
X23307087Y-10710174D01*
X23307087Y-10710174D02*
X23326134Y-10700650D01*
X23326134Y-10700650D02*
X23354706Y-10700650D01*
X23354706Y-10700650D02*
X23373753Y-10710174D01*
X23373753Y-10710174D02*
X23383277Y-10719698D01*
X23383277Y-10719698D02*
X23392801Y-10738746D01*
X23392801Y-10738746D02*
X23392801Y-10795889D01*
X23392801Y-10795889D02*
X23383277Y-10814936D01*
X23383277Y-10814936D02*
X23373753Y-10824460D01*
X23373753Y-10824460D02*
X23354706Y-10833984D01*
X23354706Y-10833984D02*
X23326134Y-10833984D01*
X23507087Y-10833984D02*
X23488039Y-10824460D01*
X23488039Y-10824460D02*
X23478515Y-10805412D01*
X23478515Y-10805412D02*
X23478515Y-10633984D01*
X23659468Y-10824460D02*
X23640420Y-10833984D01*
X23640420Y-10833984D02*
X23602325Y-10833984D01*
X23602325Y-10833984D02*
X23583277Y-10824460D01*
X23583277Y-10824460D02*
X23573753Y-10805412D01*
X23573753Y-10805412D02*
X23573753Y-10729222D01*
X23573753Y-10729222D02*
X23583277Y-10710174D01*
X23583277Y-10710174D02*
X23602325Y-10700650D01*
X23602325Y-10700650D02*
X23640420Y-10700650D01*
X23640420Y-10700650D02*
X23659468Y-10710174D01*
X23659468Y-10710174D02*
X23668991Y-10729222D01*
X23668991Y-10729222D02*
X23668991Y-10748270D01*
X23668991Y-10748270D02*
X23573753Y-10767317D01*
X23745182Y-10824460D02*
X23764230Y-10833984D01*
X23764230Y-10833984D02*
X23802325Y-10833984D01*
X23802325Y-10833984D02*
X23821372Y-10824460D01*
X23821372Y-10824460D02*
X23830896Y-10805412D01*
X23830896Y-10805412D02*
X23830896Y-10795889D01*
X23830896Y-10795889D02*
X23821372Y-10776841D01*
X23821372Y-10776841D02*
X23802325Y-10767317D01*
X23802325Y-10767317D02*
X23773753Y-10767317D01*
X23773753Y-10767317D02*
X23754706Y-10757793D01*
X23754706Y-10757793D02*
X23745182Y-10738746D01*
X23745182Y-10738746D02*
X23745182Y-10729222D01*
X23745182Y-10729222D02*
X23754706Y-10710174D01*
X23754706Y-10710174D02*
X23773753Y-10700650D01*
X23773753Y-10700650D02*
X23802325Y-10700650D01*
X23802325Y-10700650D02*
X23821372Y-10710174D01*
X23897563Y-10910174D02*
X23907087Y-10900650D01*
X23907087Y-10900650D02*
X23926134Y-10872079D01*
X23926134Y-10872079D02*
X23935658Y-10853031D01*
X23935658Y-10853031D02*
X23945182Y-10824460D01*
X23945182Y-10824460D02*
X23954706Y-10776841D01*
X23954706Y-10776841D02*
X23954706Y-10738746D01*
X23954706Y-10738746D02*
X23945182Y-10691127D01*
X23945182Y-10691127D02*
X23935658Y-10662555D01*
X23935658Y-10662555D02*
X23926134Y-10643508D01*
X23926134Y-10643508D02*
X23907087Y-10614936D01*
X23907087Y-10614936D02*
X23897563Y-10605412D01*
X24259468Y-10910174D02*
X24249944Y-10900650D01*
X24249944Y-10900650D02*
X24230896Y-10872079D01*
X24230896Y-10872079D02*
X24221372Y-10853031D01*
X24221372Y-10853031D02*
X24211849Y-10824460D01*
X24211849Y-10824460D02*
X24202325Y-10776841D01*
X24202325Y-10776841D02*
X24202325Y-10738746D01*
X24202325Y-10738746D02*
X24211849Y-10691127D01*
X24211849Y-10691127D02*
X24221372Y-10662555D01*
X24221372Y-10662555D02*
X24230896Y-10643508D01*
X24230896Y-10643508D02*
X24249944Y-10614936D01*
X24249944Y-10614936D02*
X24259468Y-10605412D01*
X24335658Y-10700650D02*
X24335658Y-10833984D01*
X24335658Y-10719698D02*
X24345182Y-10710174D01*
X24345182Y-10710174D02*
X24364230Y-10700650D01*
X24364230Y-10700650D02*
X24392801Y-10700650D01*
X24392801Y-10700650D02*
X24411849Y-10710174D01*
X24411849Y-10710174D02*
X24421372Y-10729222D01*
X24421372Y-10729222D02*
X24421372Y-10833984D01*
X24545182Y-10833984D02*
X24526134Y-10824460D01*
X24526134Y-10824460D02*
X24516611Y-10814936D01*
X24516611Y-10814936D02*
X24507087Y-10795889D01*
X24507087Y-10795889D02*
X24507087Y-10738746D01*
X24507087Y-10738746D02*
X24516611Y-10719698D01*
X24516611Y-10719698D02*
X24526134Y-10710174D01*
X24526134Y-10710174D02*
X24545182Y-10700650D01*
X24545182Y-10700650D02*
X24573753Y-10700650D01*
X24573753Y-10700650D02*
X24592801Y-10710174D01*
X24592801Y-10710174D02*
X24602325Y-10719698D01*
X24602325Y-10719698D02*
X24611849Y-10738746D01*
X24611849Y-10738746D02*
X24611849Y-10795889D01*
X24611849Y-10795889D02*
X24602325Y-10814936D01*
X24602325Y-10814936D02*
X24592801Y-10824460D01*
X24592801Y-10824460D02*
X24573753Y-10833984D01*
X24573753Y-10833984D02*
X24545182Y-10833984D01*
X24668992Y-10700650D02*
X24745182Y-10700650D01*
X24697563Y-10633984D02*
X24697563Y-10805412D01*
X24697563Y-10805412D02*
X24707087Y-10824460D01*
X24707087Y-10824460D02*
X24726134Y-10833984D01*
X24726134Y-10833984D02*
X24745182Y-10833984D01*
X24964230Y-10700650D02*
X24964230Y-10900650D01*
X24964230Y-10710174D02*
X24983277Y-10700650D01*
X24983277Y-10700650D02*
X25021373Y-10700650D01*
X25021373Y-10700650D02*
X25040420Y-10710174D01*
X25040420Y-10710174D02*
X25049944Y-10719698D01*
X25049944Y-10719698D02*
X25059468Y-10738746D01*
X25059468Y-10738746D02*
X25059468Y-10795889D01*
X25059468Y-10795889D02*
X25049944Y-10814936D01*
X25049944Y-10814936D02*
X25040420Y-10824460D01*
X25040420Y-10824460D02*
X25021373Y-10833984D01*
X25021373Y-10833984D02*
X24983277Y-10833984D01*
X24983277Y-10833984D02*
X24964230Y-10824460D01*
X25173753Y-10833984D02*
X25154706Y-10824460D01*
X25154706Y-10824460D02*
X25145182Y-10805412D01*
X25145182Y-10805412D02*
X25145182Y-10633984D01*
X25335658Y-10833984D02*
X25335658Y-10729222D01*
X25335658Y-10729222D02*
X25326134Y-10710174D01*
X25326134Y-10710174D02*
X25307087Y-10700650D01*
X25307087Y-10700650D02*
X25268992Y-10700650D01*
X25268992Y-10700650D02*
X25249944Y-10710174D01*
X25335658Y-10824460D02*
X25316611Y-10833984D01*
X25316611Y-10833984D02*
X25268992Y-10833984D01*
X25268992Y-10833984D02*
X25249944Y-10824460D01*
X25249944Y-10824460D02*
X25240420Y-10805412D01*
X25240420Y-10805412D02*
X25240420Y-10786365D01*
X25240420Y-10786365D02*
X25249944Y-10767317D01*
X25249944Y-10767317D02*
X25268992Y-10757793D01*
X25268992Y-10757793D02*
X25316611Y-10757793D01*
X25316611Y-10757793D02*
X25335658Y-10748270D01*
X25402325Y-10700650D02*
X25478515Y-10700650D01*
X25430896Y-10633984D02*
X25430896Y-10805412D01*
X25430896Y-10805412D02*
X25440420Y-10824460D01*
X25440420Y-10824460D02*
X25459468Y-10833984D01*
X25459468Y-10833984D02*
X25478515Y-10833984D01*
X25621373Y-10824460D02*
X25602325Y-10833984D01*
X25602325Y-10833984D02*
X25564230Y-10833984D01*
X25564230Y-10833984D02*
X25545182Y-10824460D01*
X25545182Y-10824460D02*
X25535658Y-10805412D01*
X25535658Y-10805412D02*
X25535658Y-10729222D01*
X25535658Y-10729222D02*
X25545182Y-10710174D01*
X25545182Y-10710174D02*
X25564230Y-10700650D01*
X25564230Y-10700650D02*
X25602325Y-10700650D01*
X25602325Y-10700650D02*
X25621373Y-10710174D01*
X25621373Y-10710174D02*
X25630896Y-10729222D01*
X25630896Y-10729222D02*
X25630896Y-10748270D01*
X25630896Y-10748270D02*
X25535658Y-10767317D01*
X25802325Y-10833984D02*
X25802325Y-10633984D01*
X25802325Y-10824460D02*
X25783277Y-10833984D01*
X25783277Y-10833984D02*
X25745182Y-10833984D01*
X25745182Y-10833984D02*
X25726134Y-10824460D01*
X25726134Y-10824460D02*
X25716611Y-10814936D01*
X25716611Y-10814936D02*
X25707087Y-10795889D01*
X25707087Y-10795889D02*
X25707087Y-10738746D01*
X25707087Y-10738746D02*
X25716611Y-10719698D01*
X25716611Y-10719698D02*
X25726134Y-10710174D01*
X25726134Y-10710174D02*
X25745182Y-10700650D01*
X25745182Y-10700650D02*
X25783277Y-10700650D01*
X25783277Y-10700650D02*
X25802325Y-10710174D01*
X25878515Y-10910174D02*
X25888039Y-10900650D01*
X25888039Y-10900650D02*
X25907087Y-10872079D01*
X25907087Y-10872079D02*
X25916611Y-10853031D01*
X25916611Y-10853031D02*
X25926134Y-10824460D01*
X25926134Y-10824460D02*
X25935658Y-10776841D01*
X25935658Y-10776841D02*
X25935658Y-10738746D01*
X25935658Y-10738746D02*
X25926134Y-10691127D01*
X25926134Y-10691127D02*
X25916611Y-10662555D01*
X25916611Y-10662555D02*
X25907087Y-10643508D01*
X25907087Y-10643508D02*
X25888039Y-10614936D01*
X25888039Y-10614936D02*
X25878515Y-10605412D01*
M02*
