%TF.GenerationSoftware,KiCad,Pcbnew,9.0.4*%
%TF.CreationDate,2025-12-28T21:40:06+01:00*%
%TF.ProjectId,carte servo,63617274-6520-4736-9572-766f2e6b6963,rev?*%
%TF.SameCoordinates,Original*%
%TF.FileFunction,Drillmap*%
%TF.FilePolarity,Positive*%
%FSLAX45Y45*%
G04 Gerber Fmt 4.5, Leading zero omitted, Abs format (unit mm)*
G04 Created by KiCad (PCBNEW 9.0.4) date 2025-12-28 21:40:06*
%MOMM*%
%LPD*%
G01*
G04 APERTURE LIST*
%ADD10C,0.050000*%
%ADD11C,0.200000*%
%ADD12C,0.100000*%
%ADD13C,0.130000*%
G04 APERTURE END LIST*
D10*
X19125000Y-5800000D02*
X23425000Y-5800000D01*
X23425000Y-10100000D01*
X19125000Y-10100000D01*
X19125000Y-5800000D01*
D11*
D12*
X19360000Y-7910000D02*
X19440000Y-7990000D01*
X19440000Y-7910000D02*
X19360000Y-7990000D01*
X20122000Y-7910000D02*
X20202000Y-7990000D01*
X20202000Y-7910000D02*
X20122000Y-7990000D01*
X20135000Y-6160000D02*
X20215000Y-6240000D01*
X20215000Y-6160000D02*
X20135000Y-6240000D01*
X20385000Y-6160000D02*
X20465000Y-6240000D01*
X20465000Y-6160000D02*
X20385000Y-6240000D01*
X20810000Y-6329500D02*
X20890000Y-6409500D01*
X20890000Y-6329500D02*
X20810000Y-6409500D01*
X20810000Y-7091500D02*
X20890000Y-7171500D01*
X20890000Y-7091500D02*
X20810000Y-7171500D01*
X20810000Y-7579000D02*
X20890000Y-7659000D01*
X20890000Y-7579000D02*
X20810000Y-7659000D01*
X20810000Y-8341000D02*
X20890000Y-8421000D01*
X20890000Y-8341000D02*
X20810000Y-8421000D01*
X20810000Y-8829000D02*
X20890000Y-8909000D01*
X20890000Y-8829000D02*
X20810000Y-8909000D01*
X20810000Y-9591000D02*
X20890000Y-9671000D01*
X20890000Y-9591000D02*
X20810000Y-9671000D01*
X21233500Y-6329500D02*
X21313500Y-6409500D01*
X21313500Y-6329500D02*
X21233500Y-6409500D01*
X21233500Y-7091500D02*
X21313500Y-7171500D01*
X21313500Y-7091500D02*
X21233500Y-7171500D01*
X21233500Y-7579500D02*
X21313500Y-7659500D01*
X21313500Y-7579500D02*
X21233500Y-7659500D01*
X21233500Y-8341500D02*
X21313500Y-8421500D01*
X21313500Y-8341500D02*
X21233500Y-8421500D01*
X21233500Y-8829500D02*
X21313500Y-8909500D01*
X21313500Y-8829500D02*
X21233500Y-8909500D01*
X21233500Y-9591500D02*
X21313500Y-9671500D01*
X21313500Y-9591500D02*
X21233500Y-9671500D01*
X21487500Y-6329500D02*
X21567500Y-6409500D01*
X21567500Y-6329500D02*
X21487500Y-6409500D01*
X21487500Y-7091500D02*
X21567500Y-7171500D01*
X21567500Y-7091500D02*
X21487500Y-7171500D01*
X21487500Y-7579500D02*
X21567500Y-7659500D01*
X21567500Y-7579500D02*
X21487500Y-7659500D01*
X21487500Y-8341500D02*
X21567500Y-8421500D01*
X21567500Y-8341500D02*
X21487500Y-8421500D01*
X21487500Y-8829500D02*
X21567500Y-8909500D01*
X21567500Y-8829500D02*
X21487500Y-8909500D01*
X21487500Y-9591500D02*
X21567500Y-9671500D01*
X21567500Y-9591500D02*
X21487500Y-9671500D01*
X21960000Y-6348500D02*
X22040000Y-6428500D01*
X22040000Y-6348500D02*
X21960000Y-6428500D01*
X21960000Y-7110500D02*
X22040000Y-7190500D01*
X22040000Y-7110500D02*
X21960000Y-7190500D01*
X21960000Y-7579000D02*
X22040000Y-7659000D01*
X22040000Y-7579000D02*
X21960000Y-7659000D01*
X21960000Y-8341000D02*
X22040000Y-8421000D01*
X22040000Y-8341000D02*
X21960000Y-8421000D01*
X21960000Y-8829000D02*
X22040000Y-8909000D01*
X22040000Y-8829000D02*
X21960000Y-8909000D01*
X21960000Y-9591000D02*
X22040000Y-9671000D01*
X22040000Y-9591000D02*
X21960000Y-9671000D01*
X19468000Y-8450000D02*
G75*
G02*
X19378000Y-8450000I-45000J0D01*
G01*
X19378000Y-8450000D02*
G75*
G02*
X19468000Y-8450000I45000J0D01*
G01*
X19722000Y-8450000D02*
G75*
G02*
X19632000Y-8450000I-45000J0D01*
G01*
X19632000Y-8450000D02*
G75*
G02*
X19722000Y-8450000I45000J0D01*
G01*
X20100000Y-8619000D02*
X20100000Y-8719000D01*
X20050000Y-8669000D02*
X20150000Y-8669000D01*
X20100000Y-8873000D02*
X20100000Y-8973000D01*
X20050000Y-8923000D02*
X20150000Y-8923000D01*
X20100000Y-9127000D02*
X20100000Y-9227000D01*
X20050000Y-9177000D02*
X20150000Y-9177000D01*
X20100000Y-9381000D02*
X20100000Y-9481000D01*
X20050000Y-9431000D02*
X20150000Y-9431000D01*
X22546000Y-8150000D02*
X22546000Y-8250000D01*
X22496000Y-8200000D02*
X22596000Y-8200000D01*
X22546000Y-8600000D02*
X22546000Y-8700000D01*
X22496000Y-8650000D02*
X22596000Y-8650000D01*
X22546000Y-9050000D02*
X22546000Y-9150000D01*
X22496000Y-9100000D02*
X22596000Y-9100000D01*
X22800000Y-8150000D02*
X22800000Y-8250000D01*
X22750000Y-8200000D02*
X22850000Y-8200000D01*
X22800000Y-8600000D02*
X22800000Y-8700000D01*
X22750000Y-8650000D02*
X22850000Y-8650000D01*
X22800000Y-9050000D02*
X22800000Y-9150000D01*
X22750000Y-9100000D02*
X22850000Y-9100000D01*
X23054000Y-8150000D02*
X23054000Y-8250000D01*
X23004000Y-8200000D02*
X23104000Y-8200000D01*
X23054000Y-8600000D02*
X23054000Y-8700000D01*
X23004000Y-8650000D02*
X23104000Y-8650000D01*
X23054000Y-9050000D02*
X23054000Y-9150000D01*
X23004000Y-9100000D02*
X23104000Y-9100000D01*
D13*
X19695962Y-6970962D02*
X19695962Y-6879038D01*
X19604038Y-6879038D01*
X19604038Y-6970962D01*
X19695962Y-6970962D01*
X19695962Y-7470962D02*
X19695962Y-7379038D01*
X19604038Y-7379038D01*
X19604038Y-7470962D01*
X19695962Y-7470962D01*
X22892712Y-6895962D02*
X22892712Y-6804038D01*
X22800788Y-6804038D01*
X22800788Y-6895962D01*
X22892712Y-6895962D01*
X22892712Y-7395962D02*
X22892712Y-7304038D01*
X22800788Y-7304038D01*
X22800788Y-7395962D01*
X22892712Y-7395962D01*
D11*
X19383277Y-10413984D02*
X19383277Y-10213984D01*
X19383277Y-10213984D02*
X19430896Y-10213984D01*
X19430896Y-10213984D02*
X19459467Y-10223508D01*
X19459467Y-10223508D02*
X19478515Y-10242555D01*
X19478515Y-10242555D02*
X19488039Y-10261603D01*
X19488039Y-10261603D02*
X19497563Y-10299698D01*
X19497563Y-10299698D02*
X19497563Y-10328270D01*
X19497563Y-10328270D02*
X19488039Y-10366365D01*
X19488039Y-10366365D02*
X19478515Y-10385412D01*
X19478515Y-10385412D02*
X19459467Y-10404460D01*
X19459467Y-10404460D02*
X19430896Y-10413984D01*
X19430896Y-10413984D02*
X19383277Y-10413984D01*
X19583277Y-10413984D02*
X19583277Y-10280650D01*
X19583277Y-10318746D02*
X19592801Y-10299698D01*
X19592801Y-10299698D02*
X19602324Y-10290174D01*
X19602324Y-10290174D02*
X19621372Y-10280650D01*
X19621372Y-10280650D02*
X19640420Y-10280650D01*
X19707086Y-10413984D02*
X19707086Y-10280650D01*
X19707086Y-10213984D02*
X19697563Y-10223508D01*
X19697563Y-10223508D02*
X19707086Y-10233031D01*
X19707086Y-10233031D02*
X19716610Y-10223508D01*
X19716610Y-10223508D02*
X19707086Y-10213984D01*
X19707086Y-10213984D02*
X19707086Y-10233031D01*
X19830896Y-10413984D02*
X19811848Y-10404460D01*
X19811848Y-10404460D02*
X19802324Y-10385412D01*
X19802324Y-10385412D02*
X19802324Y-10213984D01*
X19935658Y-10413984D02*
X19916610Y-10404460D01*
X19916610Y-10404460D02*
X19907086Y-10385412D01*
X19907086Y-10385412D02*
X19907086Y-10213984D01*
X20164229Y-10413984D02*
X20164229Y-10213984D01*
X20164229Y-10213984D02*
X20230896Y-10356841D01*
X20230896Y-10356841D02*
X20297563Y-10213984D01*
X20297563Y-10213984D02*
X20297563Y-10413984D01*
X20478515Y-10413984D02*
X20478515Y-10309222D01*
X20478515Y-10309222D02*
X20468991Y-10290174D01*
X20468991Y-10290174D02*
X20449944Y-10280650D01*
X20449944Y-10280650D02*
X20411848Y-10280650D01*
X20411848Y-10280650D02*
X20392801Y-10290174D01*
X20478515Y-10404460D02*
X20459467Y-10413984D01*
X20459467Y-10413984D02*
X20411848Y-10413984D01*
X20411848Y-10413984D02*
X20392801Y-10404460D01*
X20392801Y-10404460D02*
X20383277Y-10385412D01*
X20383277Y-10385412D02*
X20383277Y-10366365D01*
X20383277Y-10366365D02*
X20392801Y-10347317D01*
X20392801Y-10347317D02*
X20411848Y-10337793D01*
X20411848Y-10337793D02*
X20459467Y-10337793D01*
X20459467Y-10337793D02*
X20478515Y-10328270D01*
X20573753Y-10280650D02*
X20573753Y-10480650D01*
X20573753Y-10290174D02*
X20592801Y-10280650D01*
X20592801Y-10280650D02*
X20630896Y-10280650D01*
X20630896Y-10280650D02*
X20649944Y-10290174D01*
X20649944Y-10290174D02*
X20659467Y-10299698D01*
X20659467Y-10299698D02*
X20668991Y-10318746D01*
X20668991Y-10318746D02*
X20668991Y-10375889D01*
X20668991Y-10375889D02*
X20659467Y-10394936D01*
X20659467Y-10394936D02*
X20649944Y-10404460D01*
X20649944Y-10404460D02*
X20630896Y-10413984D01*
X20630896Y-10413984D02*
X20592801Y-10413984D01*
X20592801Y-10413984D02*
X20573753Y-10404460D01*
X20754705Y-10394936D02*
X20764229Y-10404460D01*
X20764229Y-10404460D02*
X20754705Y-10413984D01*
X20754705Y-10413984D02*
X20745182Y-10404460D01*
X20745182Y-10404460D02*
X20754705Y-10394936D01*
X20754705Y-10394936D02*
X20754705Y-10413984D01*
X20754705Y-10290174D02*
X20764229Y-10299698D01*
X20764229Y-10299698D02*
X20754705Y-10309222D01*
X20754705Y-10309222D02*
X20745182Y-10299698D01*
X20745182Y-10299698D02*
X20754705Y-10290174D01*
X20754705Y-10290174D02*
X20754705Y-10309222D01*
D12*
X19042500Y-10702500D02*
X19122500Y-10782500D01*
X19122500Y-10702500D02*
X19042500Y-10782500D01*
D11*
X19421372Y-10633984D02*
X19440420Y-10633984D01*
X19440420Y-10633984D02*
X19459467Y-10643508D01*
X19459467Y-10643508D02*
X19468991Y-10653031D01*
X19468991Y-10653031D02*
X19478515Y-10672079D01*
X19478515Y-10672079D02*
X19488039Y-10710174D01*
X19488039Y-10710174D02*
X19488039Y-10757793D01*
X19488039Y-10757793D02*
X19478515Y-10795889D01*
X19478515Y-10795889D02*
X19468991Y-10814936D01*
X19468991Y-10814936D02*
X19459467Y-10824460D01*
X19459467Y-10824460D02*
X19440420Y-10833984D01*
X19440420Y-10833984D02*
X19421372Y-10833984D01*
X19421372Y-10833984D02*
X19402324Y-10824460D01*
X19402324Y-10824460D02*
X19392801Y-10814936D01*
X19392801Y-10814936D02*
X19383277Y-10795889D01*
X19383277Y-10795889D02*
X19373753Y-10757793D01*
X19373753Y-10757793D02*
X19373753Y-10710174D01*
X19373753Y-10710174D02*
X19383277Y-10672079D01*
X19383277Y-10672079D02*
X19392801Y-10653031D01*
X19392801Y-10653031D02*
X19402324Y-10643508D01*
X19402324Y-10643508D02*
X19421372Y-10633984D01*
X19573753Y-10814936D02*
X19583277Y-10824460D01*
X19583277Y-10824460D02*
X19573753Y-10833984D01*
X19573753Y-10833984D02*
X19564229Y-10824460D01*
X19564229Y-10824460D02*
X19573753Y-10814936D01*
X19573753Y-10814936D02*
X19573753Y-10833984D01*
X19697563Y-10719698D02*
X19678515Y-10710174D01*
X19678515Y-10710174D02*
X19668991Y-10700650D01*
X19668991Y-10700650D02*
X19659467Y-10681603D01*
X19659467Y-10681603D02*
X19659467Y-10672079D01*
X19659467Y-10672079D02*
X19668991Y-10653031D01*
X19668991Y-10653031D02*
X19678515Y-10643508D01*
X19678515Y-10643508D02*
X19697563Y-10633984D01*
X19697563Y-10633984D02*
X19735658Y-10633984D01*
X19735658Y-10633984D02*
X19754705Y-10643508D01*
X19754705Y-10643508D02*
X19764229Y-10653031D01*
X19764229Y-10653031D02*
X19773753Y-10672079D01*
X19773753Y-10672079D02*
X19773753Y-10681603D01*
X19773753Y-10681603D02*
X19764229Y-10700650D01*
X19764229Y-10700650D02*
X19754705Y-10710174D01*
X19754705Y-10710174D02*
X19735658Y-10719698D01*
X19735658Y-10719698D02*
X19697563Y-10719698D01*
X19697563Y-10719698D02*
X19678515Y-10729222D01*
X19678515Y-10729222D02*
X19668991Y-10738746D01*
X19668991Y-10738746D02*
X19659467Y-10757793D01*
X19659467Y-10757793D02*
X19659467Y-10795889D01*
X19659467Y-10795889D02*
X19668991Y-10814936D01*
X19668991Y-10814936D02*
X19678515Y-10824460D01*
X19678515Y-10824460D02*
X19697563Y-10833984D01*
X19697563Y-10833984D02*
X19735658Y-10833984D01*
X19735658Y-10833984D02*
X19754705Y-10824460D01*
X19754705Y-10824460D02*
X19764229Y-10814936D01*
X19764229Y-10814936D02*
X19773753Y-10795889D01*
X19773753Y-10795889D02*
X19773753Y-10757793D01*
X19773753Y-10757793D02*
X19764229Y-10738746D01*
X19764229Y-10738746D02*
X19754705Y-10729222D01*
X19754705Y-10729222D02*
X19735658Y-10719698D01*
X19897563Y-10633984D02*
X19916610Y-10633984D01*
X19916610Y-10633984D02*
X19935658Y-10643508D01*
X19935658Y-10643508D02*
X19945182Y-10653031D01*
X19945182Y-10653031D02*
X19954705Y-10672079D01*
X19954705Y-10672079D02*
X19964229Y-10710174D01*
X19964229Y-10710174D02*
X19964229Y-10757793D01*
X19964229Y-10757793D02*
X19954705Y-10795889D01*
X19954705Y-10795889D02*
X19945182Y-10814936D01*
X19945182Y-10814936D02*
X19935658Y-10824460D01*
X19935658Y-10824460D02*
X19916610Y-10833984D01*
X19916610Y-10833984D02*
X19897563Y-10833984D01*
X19897563Y-10833984D02*
X19878515Y-10824460D01*
X19878515Y-10824460D02*
X19868991Y-10814936D01*
X19868991Y-10814936D02*
X19859467Y-10795889D01*
X19859467Y-10795889D02*
X19849944Y-10757793D01*
X19849944Y-10757793D02*
X19849944Y-10710174D01*
X19849944Y-10710174D02*
X19859467Y-10672079D01*
X19859467Y-10672079D02*
X19868991Y-10653031D01*
X19868991Y-10653031D02*
X19878515Y-10643508D01*
X19878515Y-10643508D02*
X19897563Y-10633984D01*
X20088039Y-10633984D02*
X20107086Y-10633984D01*
X20107086Y-10633984D02*
X20126134Y-10643508D01*
X20126134Y-10643508D02*
X20135658Y-10653031D01*
X20135658Y-10653031D02*
X20145182Y-10672079D01*
X20145182Y-10672079D02*
X20154705Y-10710174D01*
X20154705Y-10710174D02*
X20154705Y-10757793D01*
X20154705Y-10757793D02*
X20145182Y-10795889D01*
X20145182Y-10795889D02*
X20135658Y-10814936D01*
X20135658Y-10814936D02*
X20126134Y-10824460D01*
X20126134Y-10824460D02*
X20107086Y-10833984D01*
X20107086Y-10833984D02*
X20088039Y-10833984D01*
X20088039Y-10833984D02*
X20068991Y-10824460D01*
X20068991Y-10824460D02*
X20059467Y-10814936D01*
X20059467Y-10814936D02*
X20049944Y-10795889D01*
X20049944Y-10795889D02*
X20040420Y-10757793D01*
X20040420Y-10757793D02*
X20040420Y-10710174D01*
X20040420Y-10710174D02*
X20049944Y-10672079D01*
X20049944Y-10672079D02*
X20059467Y-10653031D01*
X20059467Y-10653031D02*
X20068991Y-10643508D01*
X20068991Y-10643508D02*
X20088039Y-10633984D01*
X20240420Y-10833984D02*
X20240420Y-10700650D01*
X20240420Y-10719698D02*
X20249944Y-10710174D01*
X20249944Y-10710174D02*
X20268991Y-10700650D01*
X20268991Y-10700650D02*
X20297563Y-10700650D01*
X20297563Y-10700650D02*
X20316610Y-10710174D01*
X20316610Y-10710174D02*
X20326134Y-10729222D01*
X20326134Y-10729222D02*
X20326134Y-10833984D01*
X20326134Y-10729222D02*
X20335658Y-10710174D01*
X20335658Y-10710174D02*
X20354705Y-10700650D01*
X20354705Y-10700650D02*
X20383277Y-10700650D01*
X20383277Y-10700650D02*
X20402325Y-10710174D01*
X20402325Y-10710174D02*
X20411848Y-10729222D01*
X20411848Y-10729222D02*
X20411848Y-10833984D01*
X20507086Y-10833984D02*
X20507086Y-10700650D01*
X20507086Y-10719698D02*
X20516610Y-10710174D01*
X20516610Y-10710174D02*
X20535658Y-10700650D01*
X20535658Y-10700650D02*
X20564229Y-10700650D01*
X20564229Y-10700650D02*
X20583277Y-10710174D01*
X20583277Y-10710174D02*
X20592801Y-10729222D01*
X20592801Y-10729222D02*
X20592801Y-10833984D01*
X20592801Y-10729222D02*
X20602325Y-10710174D01*
X20602325Y-10710174D02*
X20621372Y-10700650D01*
X20621372Y-10700650D02*
X20649944Y-10700650D01*
X20649944Y-10700650D02*
X20668991Y-10710174D01*
X20668991Y-10710174D02*
X20678515Y-10729222D01*
X20678515Y-10729222D02*
X20678515Y-10833984D01*
X21068991Y-10624460D02*
X20897563Y-10881603D01*
X21326134Y-10633984D02*
X21345182Y-10633984D01*
X21345182Y-10633984D02*
X21364229Y-10643508D01*
X21364229Y-10643508D02*
X21373753Y-10653031D01*
X21373753Y-10653031D02*
X21383277Y-10672079D01*
X21383277Y-10672079D02*
X21392801Y-10710174D01*
X21392801Y-10710174D02*
X21392801Y-10757793D01*
X21392801Y-10757793D02*
X21383277Y-10795889D01*
X21383277Y-10795889D02*
X21373753Y-10814936D01*
X21373753Y-10814936D02*
X21364229Y-10824460D01*
X21364229Y-10824460D02*
X21345182Y-10833984D01*
X21345182Y-10833984D02*
X21326134Y-10833984D01*
X21326134Y-10833984D02*
X21307087Y-10824460D01*
X21307087Y-10824460D02*
X21297563Y-10814936D01*
X21297563Y-10814936D02*
X21288039Y-10795889D01*
X21288039Y-10795889D02*
X21278515Y-10757793D01*
X21278515Y-10757793D02*
X21278515Y-10710174D01*
X21278515Y-10710174D02*
X21288039Y-10672079D01*
X21288039Y-10672079D02*
X21297563Y-10653031D01*
X21297563Y-10653031D02*
X21307087Y-10643508D01*
X21307087Y-10643508D02*
X21326134Y-10633984D01*
X21478515Y-10814936D02*
X21488039Y-10824460D01*
X21488039Y-10824460D02*
X21478515Y-10833984D01*
X21478515Y-10833984D02*
X21468991Y-10824460D01*
X21468991Y-10824460D02*
X21478515Y-10814936D01*
X21478515Y-10814936D02*
X21478515Y-10833984D01*
X21611848Y-10633984D02*
X21630896Y-10633984D01*
X21630896Y-10633984D02*
X21649944Y-10643508D01*
X21649944Y-10643508D02*
X21659468Y-10653031D01*
X21659468Y-10653031D02*
X21668991Y-10672079D01*
X21668991Y-10672079D02*
X21678515Y-10710174D01*
X21678515Y-10710174D02*
X21678515Y-10757793D01*
X21678515Y-10757793D02*
X21668991Y-10795889D01*
X21668991Y-10795889D02*
X21659468Y-10814936D01*
X21659468Y-10814936D02*
X21649944Y-10824460D01*
X21649944Y-10824460D02*
X21630896Y-10833984D01*
X21630896Y-10833984D02*
X21611848Y-10833984D01*
X21611848Y-10833984D02*
X21592801Y-10824460D01*
X21592801Y-10824460D02*
X21583277Y-10814936D01*
X21583277Y-10814936D02*
X21573753Y-10795889D01*
X21573753Y-10795889D02*
X21564229Y-10757793D01*
X21564229Y-10757793D02*
X21564229Y-10710174D01*
X21564229Y-10710174D02*
X21573753Y-10672079D01*
X21573753Y-10672079D02*
X21583277Y-10653031D01*
X21583277Y-10653031D02*
X21592801Y-10643508D01*
X21592801Y-10643508D02*
X21611848Y-10633984D01*
X21745182Y-10633984D02*
X21868991Y-10633984D01*
X21868991Y-10633984D02*
X21802325Y-10710174D01*
X21802325Y-10710174D02*
X21830896Y-10710174D01*
X21830896Y-10710174D02*
X21849944Y-10719698D01*
X21849944Y-10719698D02*
X21859468Y-10729222D01*
X21859468Y-10729222D02*
X21868991Y-10748270D01*
X21868991Y-10748270D02*
X21868991Y-10795889D01*
X21868991Y-10795889D02*
X21859468Y-10814936D01*
X21859468Y-10814936D02*
X21849944Y-10824460D01*
X21849944Y-10824460D02*
X21830896Y-10833984D01*
X21830896Y-10833984D02*
X21773753Y-10833984D01*
X21773753Y-10833984D02*
X21754706Y-10824460D01*
X21754706Y-10824460D02*
X21745182Y-10814936D01*
X22059468Y-10833984D02*
X21945182Y-10833984D01*
X22002325Y-10833984D02*
X22002325Y-10633984D01*
X22002325Y-10633984D02*
X21983277Y-10662555D01*
X21983277Y-10662555D02*
X21964229Y-10681603D01*
X21964229Y-10681603D02*
X21945182Y-10691127D01*
X22240420Y-10633984D02*
X22145182Y-10633984D01*
X22145182Y-10633984D02*
X22135658Y-10729222D01*
X22135658Y-10729222D02*
X22145182Y-10719698D01*
X22145182Y-10719698D02*
X22164229Y-10710174D01*
X22164229Y-10710174D02*
X22211849Y-10710174D01*
X22211849Y-10710174D02*
X22230896Y-10719698D01*
X22230896Y-10719698D02*
X22240420Y-10729222D01*
X22240420Y-10729222D02*
X22249944Y-10748270D01*
X22249944Y-10748270D02*
X22249944Y-10795889D01*
X22249944Y-10795889D02*
X22240420Y-10814936D01*
X22240420Y-10814936D02*
X22230896Y-10824460D01*
X22230896Y-10824460D02*
X22211849Y-10833984D01*
X22211849Y-10833984D02*
X22164229Y-10833984D01*
X22164229Y-10833984D02*
X22145182Y-10824460D01*
X22145182Y-10824460D02*
X22135658Y-10814936D01*
X22326134Y-10633984D02*
X22326134Y-10672079D01*
X22402325Y-10633984D02*
X22402325Y-10672079D01*
X22697563Y-10910174D02*
X22688039Y-10900650D01*
X22688039Y-10900650D02*
X22668991Y-10872079D01*
X22668991Y-10872079D02*
X22659468Y-10853031D01*
X22659468Y-10853031D02*
X22649944Y-10824460D01*
X22649944Y-10824460D02*
X22640420Y-10776841D01*
X22640420Y-10776841D02*
X22640420Y-10738746D01*
X22640420Y-10738746D02*
X22649944Y-10691127D01*
X22649944Y-10691127D02*
X22659468Y-10662555D01*
X22659468Y-10662555D02*
X22668991Y-10643508D01*
X22668991Y-10643508D02*
X22688039Y-10614936D01*
X22688039Y-10614936D02*
X22697563Y-10605412D01*
X22764229Y-10653031D02*
X22773753Y-10643508D01*
X22773753Y-10643508D02*
X22792801Y-10633984D01*
X22792801Y-10633984D02*
X22840420Y-10633984D01*
X22840420Y-10633984D02*
X22859468Y-10643508D01*
X22859468Y-10643508D02*
X22868991Y-10653031D01*
X22868991Y-10653031D02*
X22878515Y-10672079D01*
X22878515Y-10672079D02*
X22878515Y-10691127D01*
X22878515Y-10691127D02*
X22868991Y-10719698D01*
X22868991Y-10719698D02*
X22754706Y-10833984D01*
X22754706Y-10833984D02*
X22878515Y-10833984D01*
X22992801Y-10719698D02*
X22973753Y-10710174D01*
X22973753Y-10710174D02*
X22964229Y-10700650D01*
X22964229Y-10700650D02*
X22954706Y-10681603D01*
X22954706Y-10681603D02*
X22954706Y-10672079D01*
X22954706Y-10672079D02*
X22964229Y-10653031D01*
X22964229Y-10653031D02*
X22973753Y-10643508D01*
X22973753Y-10643508D02*
X22992801Y-10633984D01*
X22992801Y-10633984D02*
X23030896Y-10633984D01*
X23030896Y-10633984D02*
X23049944Y-10643508D01*
X23049944Y-10643508D02*
X23059468Y-10653031D01*
X23059468Y-10653031D02*
X23068991Y-10672079D01*
X23068991Y-10672079D02*
X23068991Y-10681603D01*
X23068991Y-10681603D02*
X23059468Y-10700650D01*
X23059468Y-10700650D02*
X23049944Y-10710174D01*
X23049944Y-10710174D02*
X23030896Y-10719698D01*
X23030896Y-10719698D02*
X22992801Y-10719698D01*
X22992801Y-10719698D02*
X22973753Y-10729222D01*
X22973753Y-10729222D02*
X22964229Y-10738746D01*
X22964229Y-10738746D02*
X22954706Y-10757793D01*
X22954706Y-10757793D02*
X22954706Y-10795889D01*
X22954706Y-10795889D02*
X22964229Y-10814936D01*
X22964229Y-10814936D02*
X22973753Y-10824460D01*
X22973753Y-10824460D02*
X22992801Y-10833984D01*
X22992801Y-10833984D02*
X23030896Y-10833984D01*
X23030896Y-10833984D02*
X23049944Y-10824460D01*
X23049944Y-10824460D02*
X23059468Y-10814936D01*
X23059468Y-10814936D02*
X23068991Y-10795889D01*
X23068991Y-10795889D02*
X23068991Y-10757793D01*
X23068991Y-10757793D02*
X23059468Y-10738746D01*
X23059468Y-10738746D02*
X23049944Y-10729222D01*
X23049944Y-10729222D02*
X23030896Y-10719698D01*
X23307087Y-10833984D02*
X23307087Y-10633984D01*
X23392801Y-10833984D02*
X23392801Y-10729222D01*
X23392801Y-10729222D02*
X23383277Y-10710174D01*
X23383277Y-10710174D02*
X23364230Y-10700650D01*
X23364230Y-10700650D02*
X23335658Y-10700650D01*
X23335658Y-10700650D02*
X23316610Y-10710174D01*
X23316610Y-10710174D02*
X23307087Y-10719698D01*
X23516610Y-10833984D02*
X23497563Y-10824460D01*
X23497563Y-10824460D02*
X23488039Y-10814936D01*
X23488039Y-10814936D02*
X23478515Y-10795889D01*
X23478515Y-10795889D02*
X23478515Y-10738746D01*
X23478515Y-10738746D02*
X23488039Y-10719698D01*
X23488039Y-10719698D02*
X23497563Y-10710174D01*
X23497563Y-10710174D02*
X23516610Y-10700650D01*
X23516610Y-10700650D02*
X23545182Y-10700650D01*
X23545182Y-10700650D02*
X23564230Y-10710174D01*
X23564230Y-10710174D02*
X23573753Y-10719698D01*
X23573753Y-10719698D02*
X23583277Y-10738746D01*
X23583277Y-10738746D02*
X23583277Y-10795889D01*
X23583277Y-10795889D02*
X23573753Y-10814936D01*
X23573753Y-10814936D02*
X23564230Y-10824460D01*
X23564230Y-10824460D02*
X23545182Y-10833984D01*
X23545182Y-10833984D02*
X23516610Y-10833984D01*
X23697563Y-10833984D02*
X23678515Y-10824460D01*
X23678515Y-10824460D02*
X23668991Y-10805412D01*
X23668991Y-10805412D02*
X23668991Y-10633984D01*
X23849944Y-10824460D02*
X23830896Y-10833984D01*
X23830896Y-10833984D02*
X23792801Y-10833984D01*
X23792801Y-10833984D02*
X23773753Y-10824460D01*
X23773753Y-10824460D02*
X23764230Y-10805412D01*
X23764230Y-10805412D02*
X23764230Y-10729222D01*
X23764230Y-10729222D02*
X23773753Y-10710174D01*
X23773753Y-10710174D02*
X23792801Y-10700650D01*
X23792801Y-10700650D02*
X23830896Y-10700650D01*
X23830896Y-10700650D02*
X23849944Y-10710174D01*
X23849944Y-10710174D02*
X23859468Y-10729222D01*
X23859468Y-10729222D02*
X23859468Y-10748270D01*
X23859468Y-10748270D02*
X23764230Y-10767317D01*
X23935658Y-10824460D02*
X23954706Y-10833984D01*
X23954706Y-10833984D02*
X23992801Y-10833984D01*
X23992801Y-10833984D02*
X24011849Y-10824460D01*
X24011849Y-10824460D02*
X24021372Y-10805412D01*
X24021372Y-10805412D02*
X24021372Y-10795889D01*
X24021372Y-10795889D02*
X24011849Y-10776841D01*
X24011849Y-10776841D02*
X23992801Y-10767317D01*
X23992801Y-10767317D02*
X23964230Y-10767317D01*
X23964230Y-10767317D02*
X23945182Y-10757793D01*
X23945182Y-10757793D02*
X23935658Y-10738746D01*
X23935658Y-10738746D02*
X23935658Y-10729222D01*
X23935658Y-10729222D02*
X23945182Y-10710174D01*
X23945182Y-10710174D02*
X23964230Y-10700650D01*
X23964230Y-10700650D02*
X23992801Y-10700650D01*
X23992801Y-10700650D02*
X24011849Y-10710174D01*
X24088039Y-10910174D02*
X24097563Y-10900650D01*
X24097563Y-10900650D02*
X24116611Y-10872079D01*
X24116611Y-10872079D02*
X24126134Y-10853031D01*
X24126134Y-10853031D02*
X24135658Y-10824460D01*
X24135658Y-10824460D02*
X24145182Y-10776841D01*
X24145182Y-10776841D02*
X24145182Y-10738746D01*
X24145182Y-10738746D02*
X24135658Y-10691127D01*
X24135658Y-10691127D02*
X24126134Y-10662555D01*
X24126134Y-10662555D02*
X24116611Y-10643508D01*
X24116611Y-10643508D02*
X24097563Y-10614936D01*
X24097563Y-10614936D02*
X24088039Y-10605412D01*
D12*
X19122500Y-11006500D02*
G75*
G02*
X19032500Y-11006500I-45000J0D01*
G01*
X19032500Y-11006500D02*
G75*
G02*
X19122500Y-11006500I45000J0D01*
G01*
D11*
X19421372Y-10897984D02*
X19440420Y-10897984D01*
X19440420Y-10897984D02*
X19459467Y-10907508D01*
X19459467Y-10907508D02*
X19468991Y-10917031D01*
X19468991Y-10917031D02*
X19478515Y-10936079D01*
X19478515Y-10936079D02*
X19488039Y-10974174D01*
X19488039Y-10974174D02*
X19488039Y-11021793D01*
X19488039Y-11021793D02*
X19478515Y-11059889D01*
X19478515Y-11059889D02*
X19468991Y-11078936D01*
X19468991Y-11078936D02*
X19459467Y-11088460D01*
X19459467Y-11088460D02*
X19440420Y-11097984D01*
X19440420Y-11097984D02*
X19421372Y-11097984D01*
X19421372Y-11097984D02*
X19402324Y-11088460D01*
X19402324Y-11088460D02*
X19392801Y-11078936D01*
X19392801Y-11078936D02*
X19383277Y-11059889D01*
X19383277Y-11059889D02*
X19373753Y-11021793D01*
X19373753Y-11021793D02*
X19373753Y-10974174D01*
X19373753Y-10974174D02*
X19383277Y-10936079D01*
X19383277Y-10936079D02*
X19392801Y-10917031D01*
X19392801Y-10917031D02*
X19402324Y-10907508D01*
X19402324Y-10907508D02*
X19421372Y-10897984D01*
X19573753Y-11078936D02*
X19583277Y-11088460D01*
X19583277Y-11088460D02*
X19573753Y-11097984D01*
X19573753Y-11097984D02*
X19564229Y-11088460D01*
X19564229Y-11088460D02*
X19573753Y-11078936D01*
X19573753Y-11078936D02*
X19573753Y-11097984D01*
X19678515Y-11097984D02*
X19716610Y-11097984D01*
X19716610Y-11097984D02*
X19735658Y-11088460D01*
X19735658Y-11088460D02*
X19745182Y-11078936D01*
X19745182Y-11078936D02*
X19764229Y-11050365D01*
X19764229Y-11050365D02*
X19773753Y-11012270D01*
X19773753Y-11012270D02*
X19773753Y-10936079D01*
X19773753Y-10936079D02*
X19764229Y-10917031D01*
X19764229Y-10917031D02*
X19754705Y-10907508D01*
X19754705Y-10907508D02*
X19735658Y-10897984D01*
X19735658Y-10897984D02*
X19697563Y-10897984D01*
X19697563Y-10897984D02*
X19678515Y-10907508D01*
X19678515Y-10907508D02*
X19668991Y-10917031D01*
X19668991Y-10917031D02*
X19659467Y-10936079D01*
X19659467Y-10936079D02*
X19659467Y-10983698D01*
X19659467Y-10983698D02*
X19668991Y-11002746D01*
X19668991Y-11002746D02*
X19678515Y-11012270D01*
X19678515Y-11012270D02*
X19697563Y-11021793D01*
X19697563Y-11021793D02*
X19735658Y-11021793D01*
X19735658Y-11021793D02*
X19754705Y-11012270D01*
X19754705Y-11012270D02*
X19764229Y-11002746D01*
X19764229Y-11002746D02*
X19773753Y-10983698D01*
X19897563Y-10897984D02*
X19916610Y-10897984D01*
X19916610Y-10897984D02*
X19935658Y-10907508D01*
X19935658Y-10907508D02*
X19945182Y-10917031D01*
X19945182Y-10917031D02*
X19954705Y-10936079D01*
X19954705Y-10936079D02*
X19964229Y-10974174D01*
X19964229Y-10974174D02*
X19964229Y-11021793D01*
X19964229Y-11021793D02*
X19954705Y-11059889D01*
X19954705Y-11059889D02*
X19945182Y-11078936D01*
X19945182Y-11078936D02*
X19935658Y-11088460D01*
X19935658Y-11088460D02*
X19916610Y-11097984D01*
X19916610Y-11097984D02*
X19897563Y-11097984D01*
X19897563Y-11097984D02*
X19878515Y-11088460D01*
X19878515Y-11088460D02*
X19868991Y-11078936D01*
X19868991Y-11078936D02*
X19859467Y-11059889D01*
X19859467Y-11059889D02*
X19849944Y-11021793D01*
X19849944Y-11021793D02*
X19849944Y-10974174D01*
X19849944Y-10974174D02*
X19859467Y-10936079D01*
X19859467Y-10936079D02*
X19868991Y-10917031D01*
X19868991Y-10917031D02*
X19878515Y-10907508D01*
X19878515Y-10907508D02*
X19897563Y-10897984D01*
X20088039Y-10897984D02*
X20107086Y-10897984D01*
X20107086Y-10897984D02*
X20126134Y-10907508D01*
X20126134Y-10907508D02*
X20135658Y-10917031D01*
X20135658Y-10917031D02*
X20145182Y-10936079D01*
X20145182Y-10936079D02*
X20154705Y-10974174D01*
X20154705Y-10974174D02*
X20154705Y-11021793D01*
X20154705Y-11021793D02*
X20145182Y-11059889D01*
X20145182Y-11059889D02*
X20135658Y-11078936D01*
X20135658Y-11078936D02*
X20126134Y-11088460D01*
X20126134Y-11088460D02*
X20107086Y-11097984D01*
X20107086Y-11097984D02*
X20088039Y-11097984D01*
X20088039Y-11097984D02*
X20068991Y-11088460D01*
X20068991Y-11088460D02*
X20059467Y-11078936D01*
X20059467Y-11078936D02*
X20049944Y-11059889D01*
X20049944Y-11059889D02*
X20040420Y-11021793D01*
X20040420Y-11021793D02*
X20040420Y-10974174D01*
X20040420Y-10974174D02*
X20049944Y-10936079D01*
X20049944Y-10936079D02*
X20059467Y-10917031D01*
X20059467Y-10917031D02*
X20068991Y-10907508D01*
X20068991Y-10907508D02*
X20088039Y-10897984D01*
X20240420Y-11097984D02*
X20240420Y-10964650D01*
X20240420Y-10983698D02*
X20249944Y-10974174D01*
X20249944Y-10974174D02*
X20268991Y-10964650D01*
X20268991Y-10964650D02*
X20297563Y-10964650D01*
X20297563Y-10964650D02*
X20316610Y-10974174D01*
X20316610Y-10974174D02*
X20326134Y-10993222D01*
X20326134Y-10993222D02*
X20326134Y-11097984D01*
X20326134Y-10993222D02*
X20335658Y-10974174D01*
X20335658Y-10974174D02*
X20354705Y-10964650D01*
X20354705Y-10964650D02*
X20383277Y-10964650D01*
X20383277Y-10964650D02*
X20402325Y-10974174D01*
X20402325Y-10974174D02*
X20411848Y-10993222D01*
X20411848Y-10993222D02*
X20411848Y-11097984D01*
X20507086Y-11097984D02*
X20507086Y-10964650D01*
X20507086Y-10983698D02*
X20516610Y-10974174D01*
X20516610Y-10974174D02*
X20535658Y-10964650D01*
X20535658Y-10964650D02*
X20564229Y-10964650D01*
X20564229Y-10964650D02*
X20583277Y-10974174D01*
X20583277Y-10974174D02*
X20592801Y-10993222D01*
X20592801Y-10993222D02*
X20592801Y-11097984D01*
X20592801Y-10993222D02*
X20602325Y-10974174D01*
X20602325Y-10974174D02*
X20621372Y-10964650D01*
X20621372Y-10964650D02*
X20649944Y-10964650D01*
X20649944Y-10964650D02*
X20668991Y-10974174D01*
X20668991Y-10974174D02*
X20678515Y-10993222D01*
X20678515Y-10993222D02*
X20678515Y-11097984D01*
X21068991Y-10888460D02*
X20897563Y-11145603D01*
X21326134Y-10897984D02*
X21345182Y-10897984D01*
X21345182Y-10897984D02*
X21364229Y-10907508D01*
X21364229Y-10907508D02*
X21373753Y-10917031D01*
X21373753Y-10917031D02*
X21383277Y-10936079D01*
X21383277Y-10936079D02*
X21392801Y-10974174D01*
X21392801Y-10974174D02*
X21392801Y-11021793D01*
X21392801Y-11021793D02*
X21383277Y-11059889D01*
X21383277Y-11059889D02*
X21373753Y-11078936D01*
X21373753Y-11078936D02*
X21364229Y-11088460D01*
X21364229Y-11088460D02*
X21345182Y-11097984D01*
X21345182Y-11097984D02*
X21326134Y-11097984D01*
X21326134Y-11097984D02*
X21307087Y-11088460D01*
X21307087Y-11088460D02*
X21297563Y-11078936D01*
X21297563Y-11078936D02*
X21288039Y-11059889D01*
X21288039Y-11059889D02*
X21278515Y-11021793D01*
X21278515Y-11021793D02*
X21278515Y-10974174D01*
X21278515Y-10974174D02*
X21288039Y-10936079D01*
X21288039Y-10936079D02*
X21297563Y-10917031D01*
X21297563Y-10917031D02*
X21307087Y-10907508D01*
X21307087Y-10907508D02*
X21326134Y-10897984D01*
X21478515Y-11078936D02*
X21488039Y-11088460D01*
X21488039Y-11088460D02*
X21478515Y-11097984D01*
X21478515Y-11097984D02*
X21468991Y-11088460D01*
X21468991Y-11088460D02*
X21478515Y-11078936D01*
X21478515Y-11078936D02*
X21478515Y-11097984D01*
X21611848Y-10897984D02*
X21630896Y-10897984D01*
X21630896Y-10897984D02*
X21649944Y-10907508D01*
X21649944Y-10907508D02*
X21659468Y-10917031D01*
X21659468Y-10917031D02*
X21668991Y-10936079D01*
X21668991Y-10936079D02*
X21678515Y-10974174D01*
X21678515Y-10974174D02*
X21678515Y-11021793D01*
X21678515Y-11021793D02*
X21668991Y-11059889D01*
X21668991Y-11059889D02*
X21659468Y-11078936D01*
X21659468Y-11078936D02*
X21649944Y-11088460D01*
X21649944Y-11088460D02*
X21630896Y-11097984D01*
X21630896Y-11097984D02*
X21611848Y-11097984D01*
X21611848Y-11097984D02*
X21592801Y-11088460D01*
X21592801Y-11088460D02*
X21583277Y-11078936D01*
X21583277Y-11078936D02*
X21573753Y-11059889D01*
X21573753Y-11059889D02*
X21564229Y-11021793D01*
X21564229Y-11021793D02*
X21564229Y-10974174D01*
X21564229Y-10974174D02*
X21573753Y-10936079D01*
X21573753Y-10936079D02*
X21583277Y-10917031D01*
X21583277Y-10917031D02*
X21592801Y-10907508D01*
X21592801Y-10907508D02*
X21611848Y-10897984D01*
X21745182Y-10897984D02*
X21868991Y-10897984D01*
X21868991Y-10897984D02*
X21802325Y-10974174D01*
X21802325Y-10974174D02*
X21830896Y-10974174D01*
X21830896Y-10974174D02*
X21849944Y-10983698D01*
X21849944Y-10983698D02*
X21859468Y-10993222D01*
X21859468Y-10993222D02*
X21868991Y-11012270D01*
X21868991Y-11012270D02*
X21868991Y-11059889D01*
X21868991Y-11059889D02*
X21859468Y-11078936D01*
X21859468Y-11078936D02*
X21849944Y-11088460D01*
X21849944Y-11088460D02*
X21830896Y-11097984D01*
X21830896Y-11097984D02*
X21773753Y-11097984D01*
X21773753Y-11097984D02*
X21754706Y-11088460D01*
X21754706Y-11088460D02*
X21745182Y-11078936D01*
X22049944Y-10897984D02*
X21954706Y-10897984D01*
X21954706Y-10897984D02*
X21945182Y-10993222D01*
X21945182Y-10993222D02*
X21954706Y-10983698D01*
X21954706Y-10983698D02*
X21973753Y-10974174D01*
X21973753Y-10974174D02*
X22021372Y-10974174D01*
X22021372Y-10974174D02*
X22040420Y-10983698D01*
X22040420Y-10983698D02*
X22049944Y-10993222D01*
X22049944Y-10993222D02*
X22059468Y-11012270D01*
X22059468Y-11012270D02*
X22059468Y-11059889D01*
X22059468Y-11059889D02*
X22049944Y-11078936D01*
X22049944Y-11078936D02*
X22040420Y-11088460D01*
X22040420Y-11088460D02*
X22021372Y-11097984D01*
X22021372Y-11097984D02*
X21973753Y-11097984D01*
X21973753Y-11097984D02*
X21954706Y-11088460D01*
X21954706Y-11088460D02*
X21945182Y-11078936D01*
X22230896Y-10964650D02*
X22230896Y-11097984D01*
X22183277Y-10888460D02*
X22135658Y-11031317D01*
X22135658Y-11031317D02*
X22259468Y-11031317D01*
X22326134Y-10897984D02*
X22326134Y-10936079D01*
X22402325Y-10897984D02*
X22402325Y-10936079D01*
X22697563Y-11174174D02*
X22688039Y-11164650D01*
X22688039Y-11164650D02*
X22668991Y-11136079D01*
X22668991Y-11136079D02*
X22659468Y-11117031D01*
X22659468Y-11117031D02*
X22649944Y-11088460D01*
X22649944Y-11088460D02*
X22640420Y-11040841D01*
X22640420Y-11040841D02*
X22640420Y-11002746D01*
X22640420Y-11002746D02*
X22649944Y-10955127D01*
X22649944Y-10955127D02*
X22659468Y-10926555D01*
X22659468Y-10926555D02*
X22668991Y-10907508D01*
X22668991Y-10907508D02*
X22688039Y-10878936D01*
X22688039Y-10878936D02*
X22697563Y-10869412D01*
X22764229Y-10917031D02*
X22773753Y-10907508D01*
X22773753Y-10907508D02*
X22792801Y-10897984D01*
X22792801Y-10897984D02*
X22840420Y-10897984D01*
X22840420Y-10897984D02*
X22859468Y-10907508D01*
X22859468Y-10907508D02*
X22868991Y-10917031D01*
X22868991Y-10917031D02*
X22878515Y-10936079D01*
X22878515Y-10936079D02*
X22878515Y-10955127D01*
X22878515Y-10955127D02*
X22868991Y-10983698D01*
X22868991Y-10983698D02*
X22754706Y-11097984D01*
X22754706Y-11097984D02*
X22878515Y-11097984D01*
X23116610Y-11097984D02*
X23116610Y-10897984D01*
X23202325Y-11097984D02*
X23202325Y-10993222D01*
X23202325Y-10993222D02*
X23192801Y-10974174D01*
X23192801Y-10974174D02*
X23173753Y-10964650D01*
X23173753Y-10964650D02*
X23145182Y-10964650D01*
X23145182Y-10964650D02*
X23126134Y-10974174D01*
X23126134Y-10974174D02*
X23116610Y-10983698D01*
X23326134Y-11097984D02*
X23307087Y-11088460D01*
X23307087Y-11088460D02*
X23297563Y-11078936D01*
X23297563Y-11078936D02*
X23288039Y-11059889D01*
X23288039Y-11059889D02*
X23288039Y-11002746D01*
X23288039Y-11002746D02*
X23297563Y-10983698D01*
X23297563Y-10983698D02*
X23307087Y-10974174D01*
X23307087Y-10974174D02*
X23326134Y-10964650D01*
X23326134Y-10964650D02*
X23354706Y-10964650D01*
X23354706Y-10964650D02*
X23373753Y-10974174D01*
X23373753Y-10974174D02*
X23383277Y-10983698D01*
X23383277Y-10983698D02*
X23392801Y-11002746D01*
X23392801Y-11002746D02*
X23392801Y-11059889D01*
X23392801Y-11059889D02*
X23383277Y-11078936D01*
X23383277Y-11078936D02*
X23373753Y-11088460D01*
X23373753Y-11088460D02*
X23354706Y-11097984D01*
X23354706Y-11097984D02*
X23326134Y-11097984D01*
X23507087Y-11097984D02*
X23488039Y-11088460D01*
X23488039Y-11088460D02*
X23478515Y-11069412D01*
X23478515Y-11069412D02*
X23478515Y-10897984D01*
X23659468Y-11088460D02*
X23640420Y-11097984D01*
X23640420Y-11097984D02*
X23602325Y-11097984D01*
X23602325Y-11097984D02*
X23583277Y-11088460D01*
X23583277Y-11088460D02*
X23573753Y-11069412D01*
X23573753Y-11069412D02*
X23573753Y-10993222D01*
X23573753Y-10993222D02*
X23583277Y-10974174D01*
X23583277Y-10974174D02*
X23602325Y-10964650D01*
X23602325Y-10964650D02*
X23640420Y-10964650D01*
X23640420Y-10964650D02*
X23659468Y-10974174D01*
X23659468Y-10974174D02*
X23668991Y-10993222D01*
X23668991Y-10993222D02*
X23668991Y-11012270D01*
X23668991Y-11012270D02*
X23573753Y-11031317D01*
X23745182Y-11088460D02*
X23764230Y-11097984D01*
X23764230Y-11097984D02*
X23802325Y-11097984D01*
X23802325Y-11097984D02*
X23821372Y-11088460D01*
X23821372Y-11088460D02*
X23830896Y-11069412D01*
X23830896Y-11069412D02*
X23830896Y-11059889D01*
X23830896Y-11059889D02*
X23821372Y-11040841D01*
X23821372Y-11040841D02*
X23802325Y-11031317D01*
X23802325Y-11031317D02*
X23773753Y-11031317D01*
X23773753Y-11031317D02*
X23754706Y-11021793D01*
X23754706Y-11021793D02*
X23745182Y-11002746D01*
X23745182Y-11002746D02*
X23745182Y-10993222D01*
X23745182Y-10993222D02*
X23754706Y-10974174D01*
X23754706Y-10974174D02*
X23773753Y-10964650D01*
X23773753Y-10964650D02*
X23802325Y-10964650D01*
X23802325Y-10964650D02*
X23821372Y-10974174D01*
X23897563Y-11174174D02*
X23907087Y-11164650D01*
X23907087Y-11164650D02*
X23926134Y-11136079D01*
X23926134Y-11136079D02*
X23935658Y-11117031D01*
X23935658Y-11117031D02*
X23945182Y-11088460D01*
X23945182Y-11088460D02*
X23954706Y-11040841D01*
X23954706Y-11040841D02*
X23954706Y-11002746D01*
X23954706Y-11002746D02*
X23945182Y-10955127D01*
X23945182Y-10955127D02*
X23935658Y-10926555D01*
X23935658Y-10926555D02*
X23926134Y-10907508D01*
X23926134Y-10907508D02*
X23907087Y-10878936D01*
X23907087Y-10878936D02*
X23897563Y-10869412D01*
D12*
X19072500Y-11220500D02*
X19072500Y-11320500D01*
X19022500Y-11270500D02*
X19122500Y-11270500D01*
D11*
X19488039Y-11361984D02*
X19373753Y-11361984D01*
X19430896Y-11361984D02*
X19430896Y-11161984D01*
X19430896Y-11161984D02*
X19411848Y-11190555D01*
X19411848Y-11190555D02*
X19392801Y-11209603D01*
X19392801Y-11209603D02*
X19373753Y-11219127D01*
X19573753Y-11342936D02*
X19583277Y-11352460D01*
X19583277Y-11352460D02*
X19573753Y-11361984D01*
X19573753Y-11361984D02*
X19564229Y-11352460D01*
X19564229Y-11352460D02*
X19573753Y-11342936D01*
X19573753Y-11342936D02*
X19573753Y-11361984D01*
X19707086Y-11161984D02*
X19726134Y-11161984D01*
X19726134Y-11161984D02*
X19745182Y-11171508D01*
X19745182Y-11171508D02*
X19754705Y-11181031D01*
X19754705Y-11181031D02*
X19764229Y-11200079D01*
X19764229Y-11200079D02*
X19773753Y-11238174D01*
X19773753Y-11238174D02*
X19773753Y-11285793D01*
X19773753Y-11285793D02*
X19764229Y-11323888D01*
X19764229Y-11323888D02*
X19754705Y-11342936D01*
X19754705Y-11342936D02*
X19745182Y-11352460D01*
X19745182Y-11352460D02*
X19726134Y-11361984D01*
X19726134Y-11361984D02*
X19707086Y-11361984D01*
X19707086Y-11361984D02*
X19688039Y-11352460D01*
X19688039Y-11352460D02*
X19678515Y-11342936D01*
X19678515Y-11342936D02*
X19668991Y-11323888D01*
X19668991Y-11323888D02*
X19659467Y-11285793D01*
X19659467Y-11285793D02*
X19659467Y-11238174D01*
X19659467Y-11238174D02*
X19668991Y-11200079D01*
X19668991Y-11200079D02*
X19678515Y-11181031D01*
X19678515Y-11181031D02*
X19688039Y-11171508D01*
X19688039Y-11171508D02*
X19707086Y-11161984D01*
X19897563Y-11161984D02*
X19916610Y-11161984D01*
X19916610Y-11161984D02*
X19935658Y-11171508D01*
X19935658Y-11171508D02*
X19945182Y-11181031D01*
X19945182Y-11181031D02*
X19954705Y-11200079D01*
X19954705Y-11200079D02*
X19964229Y-11238174D01*
X19964229Y-11238174D02*
X19964229Y-11285793D01*
X19964229Y-11285793D02*
X19954705Y-11323888D01*
X19954705Y-11323888D02*
X19945182Y-11342936D01*
X19945182Y-11342936D02*
X19935658Y-11352460D01*
X19935658Y-11352460D02*
X19916610Y-11361984D01*
X19916610Y-11361984D02*
X19897563Y-11361984D01*
X19897563Y-11361984D02*
X19878515Y-11352460D01*
X19878515Y-11352460D02*
X19868991Y-11342936D01*
X19868991Y-11342936D02*
X19859467Y-11323888D01*
X19859467Y-11323888D02*
X19849944Y-11285793D01*
X19849944Y-11285793D02*
X19849944Y-11238174D01*
X19849944Y-11238174D02*
X19859467Y-11200079D01*
X19859467Y-11200079D02*
X19868991Y-11181031D01*
X19868991Y-11181031D02*
X19878515Y-11171508D01*
X19878515Y-11171508D02*
X19897563Y-11161984D01*
X20088039Y-11161984D02*
X20107086Y-11161984D01*
X20107086Y-11161984D02*
X20126134Y-11171508D01*
X20126134Y-11171508D02*
X20135658Y-11181031D01*
X20135658Y-11181031D02*
X20145182Y-11200079D01*
X20145182Y-11200079D02*
X20154705Y-11238174D01*
X20154705Y-11238174D02*
X20154705Y-11285793D01*
X20154705Y-11285793D02*
X20145182Y-11323888D01*
X20145182Y-11323888D02*
X20135658Y-11342936D01*
X20135658Y-11342936D02*
X20126134Y-11352460D01*
X20126134Y-11352460D02*
X20107086Y-11361984D01*
X20107086Y-11361984D02*
X20088039Y-11361984D01*
X20088039Y-11361984D02*
X20068991Y-11352460D01*
X20068991Y-11352460D02*
X20059467Y-11342936D01*
X20059467Y-11342936D02*
X20049944Y-11323888D01*
X20049944Y-11323888D02*
X20040420Y-11285793D01*
X20040420Y-11285793D02*
X20040420Y-11238174D01*
X20040420Y-11238174D02*
X20049944Y-11200079D01*
X20049944Y-11200079D02*
X20059467Y-11181031D01*
X20059467Y-11181031D02*
X20068991Y-11171508D01*
X20068991Y-11171508D02*
X20088039Y-11161984D01*
X20240420Y-11361984D02*
X20240420Y-11228650D01*
X20240420Y-11247698D02*
X20249944Y-11238174D01*
X20249944Y-11238174D02*
X20268991Y-11228650D01*
X20268991Y-11228650D02*
X20297563Y-11228650D01*
X20297563Y-11228650D02*
X20316610Y-11238174D01*
X20316610Y-11238174D02*
X20326134Y-11257222D01*
X20326134Y-11257222D02*
X20326134Y-11361984D01*
X20326134Y-11257222D02*
X20335658Y-11238174D01*
X20335658Y-11238174D02*
X20354705Y-11228650D01*
X20354705Y-11228650D02*
X20383277Y-11228650D01*
X20383277Y-11228650D02*
X20402325Y-11238174D01*
X20402325Y-11238174D02*
X20411848Y-11257222D01*
X20411848Y-11257222D02*
X20411848Y-11361984D01*
X20507086Y-11361984D02*
X20507086Y-11228650D01*
X20507086Y-11247698D02*
X20516610Y-11238174D01*
X20516610Y-11238174D02*
X20535658Y-11228650D01*
X20535658Y-11228650D02*
X20564229Y-11228650D01*
X20564229Y-11228650D02*
X20583277Y-11238174D01*
X20583277Y-11238174D02*
X20592801Y-11257222D01*
X20592801Y-11257222D02*
X20592801Y-11361984D01*
X20592801Y-11257222D02*
X20602325Y-11238174D01*
X20602325Y-11238174D02*
X20621372Y-11228650D01*
X20621372Y-11228650D02*
X20649944Y-11228650D01*
X20649944Y-11228650D02*
X20668991Y-11238174D01*
X20668991Y-11238174D02*
X20678515Y-11257222D01*
X20678515Y-11257222D02*
X20678515Y-11361984D01*
X21068991Y-11152460D02*
X20897563Y-11409603D01*
X21326134Y-11161984D02*
X21345182Y-11161984D01*
X21345182Y-11161984D02*
X21364229Y-11171508D01*
X21364229Y-11171508D02*
X21373753Y-11181031D01*
X21373753Y-11181031D02*
X21383277Y-11200079D01*
X21383277Y-11200079D02*
X21392801Y-11238174D01*
X21392801Y-11238174D02*
X21392801Y-11285793D01*
X21392801Y-11285793D02*
X21383277Y-11323888D01*
X21383277Y-11323888D02*
X21373753Y-11342936D01*
X21373753Y-11342936D02*
X21364229Y-11352460D01*
X21364229Y-11352460D02*
X21345182Y-11361984D01*
X21345182Y-11361984D02*
X21326134Y-11361984D01*
X21326134Y-11361984D02*
X21307087Y-11352460D01*
X21307087Y-11352460D02*
X21297563Y-11342936D01*
X21297563Y-11342936D02*
X21288039Y-11323888D01*
X21288039Y-11323888D02*
X21278515Y-11285793D01*
X21278515Y-11285793D02*
X21278515Y-11238174D01*
X21278515Y-11238174D02*
X21288039Y-11200079D01*
X21288039Y-11200079D02*
X21297563Y-11181031D01*
X21297563Y-11181031D02*
X21307087Y-11171508D01*
X21307087Y-11171508D02*
X21326134Y-11161984D01*
X21478515Y-11342936D02*
X21488039Y-11352460D01*
X21488039Y-11352460D02*
X21478515Y-11361984D01*
X21478515Y-11361984D02*
X21468991Y-11352460D01*
X21468991Y-11352460D02*
X21478515Y-11342936D01*
X21478515Y-11342936D02*
X21478515Y-11361984D01*
X21611848Y-11161984D02*
X21630896Y-11161984D01*
X21630896Y-11161984D02*
X21649944Y-11171508D01*
X21649944Y-11171508D02*
X21659468Y-11181031D01*
X21659468Y-11181031D02*
X21668991Y-11200079D01*
X21668991Y-11200079D02*
X21678515Y-11238174D01*
X21678515Y-11238174D02*
X21678515Y-11285793D01*
X21678515Y-11285793D02*
X21668991Y-11323888D01*
X21668991Y-11323888D02*
X21659468Y-11342936D01*
X21659468Y-11342936D02*
X21649944Y-11352460D01*
X21649944Y-11352460D02*
X21630896Y-11361984D01*
X21630896Y-11361984D02*
X21611848Y-11361984D01*
X21611848Y-11361984D02*
X21592801Y-11352460D01*
X21592801Y-11352460D02*
X21583277Y-11342936D01*
X21583277Y-11342936D02*
X21573753Y-11323888D01*
X21573753Y-11323888D02*
X21564229Y-11285793D01*
X21564229Y-11285793D02*
X21564229Y-11238174D01*
X21564229Y-11238174D02*
X21573753Y-11200079D01*
X21573753Y-11200079D02*
X21583277Y-11181031D01*
X21583277Y-11181031D02*
X21592801Y-11171508D01*
X21592801Y-11171508D02*
X21611848Y-11161984D01*
X21745182Y-11161984D02*
X21868991Y-11161984D01*
X21868991Y-11161984D02*
X21802325Y-11238174D01*
X21802325Y-11238174D02*
X21830896Y-11238174D01*
X21830896Y-11238174D02*
X21849944Y-11247698D01*
X21849944Y-11247698D02*
X21859468Y-11257222D01*
X21859468Y-11257222D02*
X21868991Y-11276269D01*
X21868991Y-11276269D02*
X21868991Y-11323888D01*
X21868991Y-11323888D02*
X21859468Y-11342936D01*
X21859468Y-11342936D02*
X21849944Y-11352460D01*
X21849944Y-11352460D02*
X21830896Y-11361984D01*
X21830896Y-11361984D02*
X21773753Y-11361984D01*
X21773753Y-11361984D02*
X21754706Y-11352460D01*
X21754706Y-11352460D02*
X21745182Y-11342936D01*
X21964229Y-11361984D02*
X22002325Y-11361984D01*
X22002325Y-11361984D02*
X22021372Y-11352460D01*
X22021372Y-11352460D02*
X22030896Y-11342936D01*
X22030896Y-11342936D02*
X22049944Y-11314365D01*
X22049944Y-11314365D02*
X22059468Y-11276269D01*
X22059468Y-11276269D02*
X22059468Y-11200079D01*
X22059468Y-11200079D02*
X22049944Y-11181031D01*
X22049944Y-11181031D02*
X22040420Y-11171508D01*
X22040420Y-11171508D02*
X22021372Y-11161984D01*
X22021372Y-11161984D02*
X21983277Y-11161984D01*
X21983277Y-11161984D02*
X21964229Y-11171508D01*
X21964229Y-11171508D02*
X21954706Y-11181031D01*
X21954706Y-11181031D02*
X21945182Y-11200079D01*
X21945182Y-11200079D02*
X21945182Y-11247698D01*
X21945182Y-11247698D02*
X21954706Y-11266746D01*
X21954706Y-11266746D02*
X21964229Y-11276269D01*
X21964229Y-11276269D02*
X21983277Y-11285793D01*
X21983277Y-11285793D02*
X22021372Y-11285793D01*
X22021372Y-11285793D02*
X22040420Y-11276269D01*
X22040420Y-11276269D02*
X22049944Y-11266746D01*
X22049944Y-11266746D02*
X22059468Y-11247698D01*
X22230896Y-11228650D02*
X22230896Y-11361984D01*
X22183277Y-11152460D02*
X22135658Y-11295317D01*
X22135658Y-11295317D02*
X22259468Y-11295317D01*
X22326134Y-11161984D02*
X22326134Y-11200079D01*
X22402325Y-11161984D02*
X22402325Y-11200079D01*
X22697563Y-11438174D02*
X22688039Y-11428650D01*
X22688039Y-11428650D02*
X22668991Y-11400079D01*
X22668991Y-11400079D02*
X22659468Y-11381031D01*
X22659468Y-11381031D02*
X22649944Y-11352460D01*
X22649944Y-11352460D02*
X22640420Y-11304841D01*
X22640420Y-11304841D02*
X22640420Y-11266746D01*
X22640420Y-11266746D02*
X22649944Y-11219127D01*
X22649944Y-11219127D02*
X22659468Y-11190555D01*
X22659468Y-11190555D02*
X22668991Y-11171508D01*
X22668991Y-11171508D02*
X22688039Y-11142936D01*
X22688039Y-11142936D02*
X22697563Y-11133412D01*
X22878515Y-11361984D02*
X22764229Y-11361984D01*
X22821372Y-11361984D02*
X22821372Y-11161984D01*
X22821372Y-11161984D02*
X22802325Y-11190555D01*
X22802325Y-11190555D02*
X22783277Y-11209603D01*
X22783277Y-11209603D02*
X22764229Y-11219127D01*
X22945182Y-11161984D02*
X23068991Y-11161984D01*
X23068991Y-11161984D02*
X23002325Y-11238174D01*
X23002325Y-11238174D02*
X23030896Y-11238174D01*
X23030896Y-11238174D02*
X23049944Y-11247698D01*
X23049944Y-11247698D02*
X23059468Y-11257222D01*
X23059468Y-11257222D02*
X23068991Y-11276269D01*
X23068991Y-11276269D02*
X23068991Y-11323888D01*
X23068991Y-11323888D02*
X23059468Y-11342936D01*
X23059468Y-11342936D02*
X23049944Y-11352460D01*
X23049944Y-11352460D02*
X23030896Y-11361984D01*
X23030896Y-11361984D02*
X22973753Y-11361984D01*
X22973753Y-11361984D02*
X22954706Y-11352460D01*
X22954706Y-11352460D02*
X22945182Y-11342936D01*
X23307087Y-11361984D02*
X23307087Y-11161984D01*
X23392801Y-11361984D02*
X23392801Y-11257222D01*
X23392801Y-11257222D02*
X23383277Y-11238174D01*
X23383277Y-11238174D02*
X23364230Y-11228650D01*
X23364230Y-11228650D02*
X23335658Y-11228650D01*
X23335658Y-11228650D02*
X23316610Y-11238174D01*
X23316610Y-11238174D02*
X23307087Y-11247698D01*
X23516610Y-11361984D02*
X23497563Y-11352460D01*
X23497563Y-11352460D02*
X23488039Y-11342936D01*
X23488039Y-11342936D02*
X23478515Y-11323888D01*
X23478515Y-11323888D02*
X23478515Y-11266746D01*
X23478515Y-11266746D02*
X23488039Y-11247698D01*
X23488039Y-11247698D02*
X23497563Y-11238174D01*
X23497563Y-11238174D02*
X23516610Y-11228650D01*
X23516610Y-11228650D02*
X23545182Y-11228650D01*
X23545182Y-11228650D02*
X23564230Y-11238174D01*
X23564230Y-11238174D02*
X23573753Y-11247698D01*
X23573753Y-11247698D02*
X23583277Y-11266746D01*
X23583277Y-11266746D02*
X23583277Y-11323888D01*
X23583277Y-11323888D02*
X23573753Y-11342936D01*
X23573753Y-11342936D02*
X23564230Y-11352460D01*
X23564230Y-11352460D02*
X23545182Y-11361984D01*
X23545182Y-11361984D02*
X23516610Y-11361984D01*
X23697563Y-11361984D02*
X23678515Y-11352460D01*
X23678515Y-11352460D02*
X23668991Y-11333412D01*
X23668991Y-11333412D02*
X23668991Y-11161984D01*
X23849944Y-11352460D02*
X23830896Y-11361984D01*
X23830896Y-11361984D02*
X23792801Y-11361984D01*
X23792801Y-11361984D02*
X23773753Y-11352460D01*
X23773753Y-11352460D02*
X23764230Y-11333412D01*
X23764230Y-11333412D02*
X23764230Y-11257222D01*
X23764230Y-11257222D02*
X23773753Y-11238174D01*
X23773753Y-11238174D02*
X23792801Y-11228650D01*
X23792801Y-11228650D02*
X23830896Y-11228650D01*
X23830896Y-11228650D02*
X23849944Y-11238174D01*
X23849944Y-11238174D02*
X23859468Y-11257222D01*
X23859468Y-11257222D02*
X23859468Y-11276269D01*
X23859468Y-11276269D02*
X23764230Y-11295317D01*
X23935658Y-11352460D02*
X23954706Y-11361984D01*
X23954706Y-11361984D02*
X23992801Y-11361984D01*
X23992801Y-11361984D02*
X24011849Y-11352460D01*
X24011849Y-11352460D02*
X24021372Y-11333412D01*
X24021372Y-11333412D02*
X24021372Y-11323888D01*
X24021372Y-11323888D02*
X24011849Y-11304841D01*
X24011849Y-11304841D02*
X23992801Y-11295317D01*
X23992801Y-11295317D02*
X23964230Y-11295317D01*
X23964230Y-11295317D02*
X23945182Y-11285793D01*
X23945182Y-11285793D02*
X23935658Y-11266746D01*
X23935658Y-11266746D02*
X23935658Y-11257222D01*
X23935658Y-11257222D02*
X23945182Y-11238174D01*
X23945182Y-11238174D02*
X23964230Y-11228650D01*
X23964230Y-11228650D02*
X23992801Y-11228650D01*
X23992801Y-11228650D02*
X24011849Y-11238174D01*
X24088039Y-11438174D02*
X24097563Y-11428650D01*
X24097563Y-11428650D02*
X24116611Y-11400079D01*
X24116611Y-11400079D02*
X24126134Y-11381031D01*
X24126134Y-11381031D02*
X24135658Y-11352460D01*
X24135658Y-11352460D02*
X24145182Y-11304841D01*
X24145182Y-11304841D02*
X24145182Y-11266746D01*
X24145182Y-11266746D02*
X24135658Y-11219127D01*
X24135658Y-11219127D02*
X24126134Y-11190555D01*
X24126134Y-11190555D02*
X24116611Y-11171508D01*
X24116611Y-11171508D02*
X24097563Y-11142936D01*
X24097563Y-11142936D02*
X24088039Y-11133412D01*
D13*
X19103462Y-11580462D02*
X19103462Y-11488538D01*
X19011538Y-11488538D01*
X19011538Y-11580462D01*
X19103462Y-11580462D01*
D11*
X19488039Y-11625984D02*
X19373753Y-11625984D01*
X19430896Y-11625984D02*
X19430896Y-11425984D01*
X19430896Y-11425984D02*
X19411848Y-11454555D01*
X19411848Y-11454555D02*
X19392801Y-11473603D01*
X19392801Y-11473603D02*
X19373753Y-11483127D01*
X19573753Y-11606936D02*
X19583277Y-11616460D01*
X19583277Y-11616460D02*
X19573753Y-11625984D01*
X19573753Y-11625984D02*
X19564229Y-11616460D01*
X19564229Y-11616460D02*
X19573753Y-11606936D01*
X19573753Y-11606936D02*
X19573753Y-11625984D01*
X19649944Y-11425984D02*
X19773753Y-11425984D01*
X19773753Y-11425984D02*
X19707086Y-11502174D01*
X19707086Y-11502174D02*
X19735658Y-11502174D01*
X19735658Y-11502174D02*
X19754705Y-11511698D01*
X19754705Y-11511698D02*
X19764229Y-11521222D01*
X19764229Y-11521222D02*
X19773753Y-11540269D01*
X19773753Y-11540269D02*
X19773753Y-11587888D01*
X19773753Y-11587888D02*
X19764229Y-11606936D01*
X19764229Y-11606936D02*
X19754705Y-11616460D01*
X19754705Y-11616460D02*
X19735658Y-11625984D01*
X19735658Y-11625984D02*
X19678515Y-11625984D01*
X19678515Y-11625984D02*
X19659467Y-11616460D01*
X19659467Y-11616460D02*
X19649944Y-11606936D01*
X19897563Y-11425984D02*
X19916610Y-11425984D01*
X19916610Y-11425984D02*
X19935658Y-11435508D01*
X19935658Y-11435508D02*
X19945182Y-11445031D01*
X19945182Y-11445031D02*
X19954705Y-11464079D01*
X19954705Y-11464079D02*
X19964229Y-11502174D01*
X19964229Y-11502174D02*
X19964229Y-11549793D01*
X19964229Y-11549793D02*
X19954705Y-11587888D01*
X19954705Y-11587888D02*
X19945182Y-11606936D01*
X19945182Y-11606936D02*
X19935658Y-11616460D01*
X19935658Y-11616460D02*
X19916610Y-11625984D01*
X19916610Y-11625984D02*
X19897563Y-11625984D01*
X19897563Y-11625984D02*
X19878515Y-11616460D01*
X19878515Y-11616460D02*
X19868991Y-11606936D01*
X19868991Y-11606936D02*
X19859467Y-11587888D01*
X19859467Y-11587888D02*
X19849944Y-11549793D01*
X19849944Y-11549793D02*
X19849944Y-11502174D01*
X19849944Y-11502174D02*
X19859467Y-11464079D01*
X19859467Y-11464079D02*
X19868991Y-11445031D01*
X19868991Y-11445031D02*
X19878515Y-11435508D01*
X19878515Y-11435508D02*
X19897563Y-11425984D01*
X20088039Y-11425984D02*
X20107086Y-11425984D01*
X20107086Y-11425984D02*
X20126134Y-11435508D01*
X20126134Y-11435508D02*
X20135658Y-11445031D01*
X20135658Y-11445031D02*
X20145182Y-11464079D01*
X20145182Y-11464079D02*
X20154705Y-11502174D01*
X20154705Y-11502174D02*
X20154705Y-11549793D01*
X20154705Y-11549793D02*
X20145182Y-11587888D01*
X20145182Y-11587888D02*
X20135658Y-11606936D01*
X20135658Y-11606936D02*
X20126134Y-11616460D01*
X20126134Y-11616460D02*
X20107086Y-11625984D01*
X20107086Y-11625984D02*
X20088039Y-11625984D01*
X20088039Y-11625984D02*
X20068991Y-11616460D01*
X20068991Y-11616460D02*
X20059467Y-11606936D01*
X20059467Y-11606936D02*
X20049944Y-11587888D01*
X20049944Y-11587888D02*
X20040420Y-11549793D01*
X20040420Y-11549793D02*
X20040420Y-11502174D01*
X20040420Y-11502174D02*
X20049944Y-11464079D01*
X20049944Y-11464079D02*
X20059467Y-11445031D01*
X20059467Y-11445031D02*
X20068991Y-11435508D01*
X20068991Y-11435508D02*
X20088039Y-11425984D01*
X20240420Y-11625984D02*
X20240420Y-11492650D01*
X20240420Y-11511698D02*
X20249944Y-11502174D01*
X20249944Y-11502174D02*
X20268991Y-11492650D01*
X20268991Y-11492650D02*
X20297563Y-11492650D01*
X20297563Y-11492650D02*
X20316610Y-11502174D01*
X20316610Y-11502174D02*
X20326134Y-11521222D01*
X20326134Y-11521222D02*
X20326134Y-11625984D01*
X20326134Y-11521222D02*
X20335658Y-11502174D01*
X20335658Y-11502174D02*
X20354705Y-11492650D01*
X20354705Y-11492650D02*
X20383277Y-11492650D01*
X20383277Y-11492650D02*
X20402325Y-11502174D01*
X20402325Y-11502174D02*
X20411848Y-11521222D01*
X20411848Y-11521222D02*
X20411848Y-11625984D01*
X20507086Y-11625984D02*
X20507086Y-11492650D01*
X20507086Y-11511698D02*
X20516610Y-11502174D01*
X20516610Y-11502174D02*
X20535658Y-11492650D01*
X20535658Y-11492650D02*
X20564229Y-11492650D01*
X20564229Y-11492650D02*
X20583277Y-11502174D01*
X20583277Y-11502174D02*
X20592801Y-11521222D01*
X20592801Y-11521222D02*
X20592801Y-11625984D01*
X20592801Y-11521222D02*
X20602325Y-11502174D01*
X20602325Y-11502174D02*
X20621372Y-11492650D01*
X20621372Y-11492650D02*
X20649944Y-11492650D01*
X20649944Y-11492650D02*
X20668991Y-11502174D01*
X20668991Y-11502174D02*
X20678515Y-11521222D01*
X20678515Y-11521222D02*
X20678515Y-11625984D01*
X21068991Y-11416460D02*
X20897563Y-11673603D01*
X21326134Y-11425984D02*
X21345182Y-11425984D01*
X21345182Y-11425984D02*
X21364229Y-11435508D01*
X21364229Y-11435508D02*
X21373753Y-11445031D01*
X21373753Y-11445031D02*
X21383277Y-11464079D01*
X21383277Y-11464079D02*
X21392801Y-11502174D01*
X21392801Y-11502174D02*
X21392801Y-11549793D01*
X21392801Y-11549793D02*
X21383277Y-11587888D01*
X21383277Y-11587888D02*
X21373753Y-11606936D01*
X21373753Y-11606936D02*
X21364229Y-11616460D01*
X21364229Y-11616460D02*
X21345182Y-11625984D01*
X21345182Y-11625984D02*
X21326134Y-11625984D01*
X21326134Y-11625984D02*
X21307087Y-11616460D01*
X21307087Y-11616460D02*
X21297563Y-11606936D01*
X21297563Y-11606936D02*
X21288039Y-11587888D01*
X21288039Y-11587888D02*
X21278515Y-11549793D01*
X21278515Y-11549793D02*
X21278515Y-11502174D01*
X21278515Y-11502174D02*
X21288039Y-11464079D01*
X21288039Y-11464079D02*
X21297563Y-11445031D01*
X21297563Y-11445031D02*
X21307087Y-11435508D01*
X21307087Y-11435508D02*
X21326134Y-11425984D01*
X21478515Y-11606936D02*
X21488039Y-11616460D01*
X21488039Y-11616460D02*
X21478515Y-11625984D01*
X21478515Y-11625984D02*
X21468991Y-11616460D01*
X21468991Y-11616460D02*
X21478515Y-11606936D01*
X21478515Y-11606936D02*
X21478515Y-11625984D01*
X21611848Y-11425984D02*
X21630896Y-11425984D01*
X21630896Y-11425984D02*
X21649944Y-11435508D01*
X21649944Y-11435508D02*
X21659468Y-11445031D01*
X21659468Y-11445031D02*
X21668991Y-11464079D01*
X21668991Y-11464079D02*
X21678515Y-11502174D01*
X21678515Y-11502174D02*
X21678515Y-11549793D01*
X21678515Y-11549793D02*
X21668991Y-11587888D01*
X21668991Y-11587888D02*
X21659468Y-11606936D01*
X21659468Y-11606936D02*
X21649944Y-11616460D01*
X21649944Y-11616460D02*
X21630896Y-11625984D01*
X21630896Y-11625984D02*
X21611848Y-11625984D01*
X21611848Y-11625984D02*
X21592801Y-11616460D01*
X21592801Y-11616460D02*
X21583277Y-11606936D01*
X21583277Y-11606936D02*
X21573753Y-11587888D01*
X21573753Y-11587888D02*
X21564229Y-11549793D01*
X21564229Y-11549793D02*
X21564229Y-11502174D01*
X21564229Y-11502174D02*
X21573753Y-11464079D01*
X21573753Y-11464079D02*
X21583277Y-11445031D01*
X21583277Y-11445031D02*
X21592801Y-11435508D01*
X21592801Y-11435508D02*
X21611848Y-11425984D01*
X21859468Y-11425984D02*
X21764229Y-11425984D01*
X21764229Y-11425984D02*
X21754706Y-11521222D01*
X21754706Y-11521222D02*
X21764229Y-11511698D01*
X21764229Y-11511698D02*
X21783277Y-11502174D01*
X21783277Y-11502174D02*
X21830896Y-11502174D01*
X21830896Y-11502174D02*
X21849944Y-11511698D01*
X21849944Y-11511698D02*
X21859468Y-11521222D01*
X21859468Y-11521222D02*
X21868991Y-11540269D01*
X21868991Y-11540269D02*
X21868991Y-11587888D01*
X21868991Y-11587888D02*
X21859468Y-11606936D01*
X21859468Y-11606936D02*
X21849944Y-11616460D01*
X21849944Y-11616460D02*
X21830896Y-11625984D01*
X21830896Y-11625984D02*
X21783277Y-11625984D01*
X21783277Y-11625984D02*
X21764229Y-11616460D01*
X21764229Y-11616460D02*
X21754706Y-11606936D01*
X22059468Y-11625984D02*
X21945182Y-11625984D01*
X22002325Y-11625984D02*
X22002325Y-11425984D01*
X22002325Y-11425984D02*
X21983277Y-11454555D01*
X21983277Y-11454555D02*
X21964229Y-11473603D01*
X21964229Y-11473603D02*
X21945182Y-11483127D01*
X22135658Y-11445031D02*
X22145182Y-11435508D01*
X22145182Y-11435508D02*
X22164229Y-11425984D01*
X22164229Y-11425984D02*
X22211849Y-11425984D01*
X22211849Y-11425984D02*
X22230896Y-11435508D01*
X22230896Y-11435508D02*
X22240420Y-11445031D01*
X22240420Y-11445031D02*
X22249944Y-11464079D01*
X22249944Y-11464079D02*
X22249944Y-11483127D01*
X22249944Y-11483127D02*
X22240420Y-11511698D01*
X22240420Y-11511698D02*
X22126134Y-11625984D01*
X22126134Y-11625984D02*
X22249944Y-11625984D01*
X22326134Y-11425984D02*
X22326134Y-11464079D01*
X22402325Y-11425984D02*
X22402325Y-11464079D01*
X22697563Y-11702174D02*
X22688039Y-11692650D01*
X22688039Y-11692650D02*
X22668991Y-11664079D01*
X22668991Y-11664079D02*
X22659468Y-11645031D01*
X22659468Y-11645031D02*
X22649944Y-11616460D01*
X22649944Y-11616460D02*
X22640420Y-11568841D01*
X22640420Y-11568841D02*
X22640420Y-11530746D01*
X22640420Y-11530746D02*
X22649944Y-11483127D01*
X22649944Y-11483127D02*
X22659468Y-11454555D01*
X22659468Y-11454555D02*
X22668991Y-11435508D01*
X22668991Y-11435508D02*
X22688039Y-11406936D01*
X22688039Y-11406936D02*
X22697563Y-11397412D01*
X22859468Y-11492650D02*
X22859468Y-11625984D01*
X22811848Y-11416460D02*
X22764229Y-11559317D01*
X22764229Y-11559317D02*
X22888039Y-11559317D01*
X23116610Y-11625984D02*
X23116610Y-11425984D01*
X23202325Y-11625984D02*
X23202325Y-11521222D01*
X23202325Y-11521222D02*
X23192801Y-11502174D01*
X23192801Y-11502174D02*
X23173753Y-11492650D01*
X23173753Y-11492650D02*
X23145182Y-11492650D01*
X23145182Y-11492650D02*
X23126134Y-11502174D01*
X23126134Y-11502174D02*
X23116610Y-11511698D01*
X23326134Y-11625984D02*
X23307087Y-11616460D01*
X23307087Y-11616460D02*
X23297563Y-11606936D01*
X23297563Y-11606936D02*
X23288039Y-11587888D01*
X23288039Y-11587888D02*
X23288039Y-11530746D01*
X23288039Y-11530746D02*
X23297563Y-11511698D01*
X23297563Y-11511698D02*
X23307087Y-11502174D01*
X23307087Y-11502174D02*
X23326134Y-11492650D01*
X23326134Y-11492650D02*
X23354706Y-11492650D01*
X23354706Y-11492650D02*
X23373753Y-11502174D01*
X23373753Y-11502174D02*
X23383277Y-11511698D01*
X23383277Y-11511698D02*
X23392801Y-11530746D01*
X23392801Y-11530746D02*
X23392801Y-11587888D01*
X23392801Y-11587888D02*
X23383277Y-11606936D01*
X23383277Y-11606936D02*
X23373753Y-11616460D01*
X23373753Y-11616460D02*
X23354706Y-11625984D01*
X23354706Y-11625984D02*
X23326134Y-11625984D01*
X23507087Y-11625984D02*
X23488039Y-11616460D01*
X23488039Y-11616460D02*
X23478515Y-11597412D01*
X23478515Y-11597412D02*
X23478515Y-11425984D01*
X23659468Y-11616460D02*
X23640420Y-11625984D01*
X23640420Y-11625984D02*
X23602325Y-11625984D01*
X23602325Y-11625984D02*
X23583277Y-11616460D01*
X23583277Y-11616460D02*
X23573753Y-11597412D01*
X23573753Y-11597412D02*
X23573753Y-11521222D01*
X23573753Y-11521222D02*
X23583277Y-11502174D01*
X23583277Y-11502174D02*
X23602325Y-11492650D01*
X23602325Y-11492650D02*
X23640420Y-11492650D01*
X23640420Y-11492650D02*
X23659468Y-11502174D01*
X23659468Y-11502174D02*
X23668991Y-11521222D01*
X23668991Y-11521222D02*
X23668991Y-11540269D01*
X23668991Y-11540269D02*
X23573753Y-11559317D01*
X23745182Y-11616460D02*
X23764230Y-11625984D01*
X23764230Y-11625984D02*
X23802325Y-11625984D01*
X23802325Y-11625984D02*
X23821372Y-11616460D01*
X23821372Y-11616460D02*
X23830896Y-11597412D01*
X23830896Y-11597412D02*
X23830896Y-11587888D01*
X23830896Y-11587888D02*
X23821372Y-11568841D01*
X23821372Y-11568841D02*
X23802325Y-11559317D01*
X23802325Y-11559317D02*
X23773753Y-11559317D01*
X23773753Y-11559317D02*
X23754706Y-11549793D01*
X23754706Y-11549793D02*
X23745182Y-11530746D01*
X23745182Y-11530746D02*
X23745182Y-11521222D01*
X23745182Y-11521222D02*
X23754706Y-11502174D01*
X23754706Y-11502174D02*
X23773753Y-11492650D01*
X23773753Y-11492650D02*
X23802325Y-11492650D01*
X23802325Y-11492650D02*
X23821372Y-11502174D01*
X23897563Y-11702174D02*
X23907087Y-11692650D01*
X23907087Y-11692650D02*
X23926134Y-11664079D01*
X23926134Y-11664079D02*
X23935658Y-11645031D01*
X23935658Y-11645031D02*
X23945182Y-11616460D01*
X23945182Y-11616460D02*
X23954706Y-11568841D01*
X23954706Y-11568841D02*
X23954706Y-11530746D01*
X23954706Y-11530746D02*
X23945182Y-11483127D01*
X23945182Y-11483127D02*
X23935658Y-11454555D01*
X23935658Y-11454555D02*
X23926134Y-11435508D01*
X23926134Y-11435508D02*
X23907087Y-11406936D01*
X23907087Y-11406936D02*
X23897563Y-11397412D01*
M02*
