%TF.GenerationSoftware,KiCad,Pcbnew,9.0.4*%
%TF.CreationDate,2025-12-28T21:40:08+01:00*%
%TF.ProjectId,carte servo,63617274-6520-4736-9572-766f2e6b6963,rev?*%
%TF.SameCoordinates,Original*%
%TF.FileFunction,Copper,L1,Top*%
%TF.FilePolarity,Positive*%
%FSLAX46Y46*%
G04 Gerber Fmt 4.6, Leading zero omitted, Abs format (unit mm)*
G04 Created by KiCad (PCBNEW 9.0.4) date 2025-12-28 21:40:08*
%MOMM*%
%LPD*%
G01*
G04 APERTURE LIST*
G04 Aperture macros list*
%AMRoundRect*
0 Rectangle with rounded corners*
0 $1 Rounding radius*
0 $2 $3 $4 $5 $6 $7 $8 $9 X,Y pos of 4 corners*
0 Add a 4 corners polygon primitive as box body*
4,1,4,$2,$3,$4,$5,$6,$7,$8,$9,$2,$3,0*
0 Add four circle primitives for the rounded corners*
1,1,$1+$1,$2,$3*
1,1,$1+$1,$4,$5*
1,1,$1+$1,$6,$7*
1,1,$1+$1,$8,$9*
0 Add four rect primitives between the rounded corners*
20,1,$1+$1,$2,$3,$4,$5,0*
20,1,$1+$1,$4,$5,$6,$7,0*
20,1,$1+$1,$6,$7,$8,$9,0*
20,1,$1+$1,$8,$9,$2,$3,0*%
G04 Aperture macros list end*
%TA.AperFunction,ComponentPad*%
%ADD10C,1.600000*%
%TD*%
%TA.AperFunction,ComponentPad*%
%ADD11R,1.700000X1.700000*%
%TD*%
%TA.AperFunction,ComponentPad*%
%ADD12C,1.700000*%
%TD*%
%TA.AperFunction,ComponentPad*%
%ADD13R,1.800000X1.800000*%
%TD*%
%TA.AperFunction,ComponentPad*%
%ADD14C,1.800000*%
%TD*%
%TA.AperFunction,ComponentPad*%
%ADD15RoundRect,0.250000X-0.550000X0.550000X-0.550000X-0.550000X0.550000X-0.550000X0.550000X0.550000X0*%
%TD*%
%TA.AperFunction,ComponentPad*%
%ADD16RoundRect,0.250001X-1.149999X1.149999X-1.149999X-1.149999X1.149999X-1.149999X1.149999X1.149999X0*%
%TD*%
%TA.AperFunction,ComponentPad*%
%ADD17C,2.800000*%
%TD*%
%TA.AperFunction,ComponentPad*%
%ADD18RoundRect,0.250001X1.149999X-1.149999X1.149999X1.149999X-1.149999X1.149999X-1.149999X-1.149999X0*%
%TD*%
G04 APERTURE END LIST*
D10*
%TO.P,pull_down1,1*%
%TO.N,out1*%
X220000000Y-71505000D03*
%TO.P,pull_down1,2*%
%TO.N,GND*%
X220000000Y-63885000D03*
%TD*%
%TO.P,C1,1*%
%TO.N,VCC*%
X204250000Y-62000000D03*
%TO.P,C1,2*%
%TO.N,GND*%
X201750000Y-62000000D03*
%TD*%
D11*
%TO.P,servo1_out1,1,Pin_1*%
%TO.N,out1*%
X225460000Y-82000000D03*
D12*
%TO.P,servo1_out1,2,Pin_2*%
%TO.N,VCC*%
X228000000Y-82000000D03*
%TO.P,servo1_out1,3,Pin_3*%
%TO.N,GND*%
X230540000Y-82000000D03*
%TD*%
D13*
%TO.P,D1,1,K*%
%TO.N,GND*%
X196770000Y-84500000D03*
D14*
%TO.P,D1,2,A*%
%TO.N,Net-(D1-A)*%
X194230000Y-84500000D03*
%TD*%
D10*
%TO.P,in2,1*%
%TO.N,sig2*%
X208500000Y-83810000D03*
%TO.P,in2,2*%
%TO.N,Net-(U1-Pad1)*%
X208500000Y-76190000D03*
%TD*%
D15*
%TO.P,U3,1*%
%TO.N,Net-(U3-Pad1)*%
X215275000Y-88695000D03*
D10*
%TO.P,U3,2*%
%TO.N,GND*%
X212735000Y-88695000D03*
%TO.P,U3,3*%
%TO.N,out3*%
X212735000Y-96315000D03*
%TO.P,U3,4*%
%TO.N,VCC*%
X215275000Y-96315000D03*
%TD*%
D15*
%TO.P,U1,1*%
%TO.N,Net-(U1-Pad1)*%
X215275000Y-76195000D03*
D10*
%TO.P,U1,2*%
%TO.N,GND*%
X212735000Y-76195000D03*
%TO.P,U1,3*%
%TO.N,out2*%
X212735000Y-83815000D03*
%TO.P,U1,4*%
%TO.N,VCC*%
X215275000Y-83815000D03*
%TD*%
D11*
%TO.P,servo2_out1,1,Pin_1*%
%TO.N,out2*%
X225460000Y-86500000D03*
D12*
%TO.P,servo2_out1,2,Pin_2*%
%TO.N,VCC*%
X228000000Y-86500000D03*
%TO.P,servo2_out1,3,Pin_3*%
%TO.N,GND*%
X230540000Y-86500000D03*
%TD*%
D15*
%TO.P,U2,1*%
%TO.N,Net-(U2-Pad1)*%
X215275000Y-63695000D03*
D10*
%TO.P,U2,2*%
%TO.N,GND*%
X212735000Y-63695000D03*
%TO.P,U2,3*%
%TO.N,out1*%
X212735000Y-71315000D03*
%TO.P,U2,4*%
%TO.N,VCC*%
X215275000Y-71315000D03*
%TD*%
D11*
%TO.P,J1,1,Pin_1*%
%TO.N,GND*%
X201000000Y-94310000D03*
D12*
%TO.P,J1,2,Pin_2*%
%TO.N,sig3*%
X201000000Y-91770000D03*
%TO.P,J1,3,Pin_3*%
%TO.N,sig2*%
X201000000Y-89230000D03*
%TO.P,J1,4,Pin_4*%
%TO.N,sig1*%
X201000000Y-86690000D03*
%TD*%
D10*
%TO.P,in1,1*%
%TO.N,sig1*%
X208500000Y-71315000D03*
%TO.P,in1,2*%
%TO.N,Net-(U2-Pad1)*%
X208500000Y-63695000D03*
%TD*%
D16*
%TO.P,power_input1,1,Pin_1*%
%TO.N,GND*%
X196500000Y-69250000D03*
D17*
%TO.P,power_input1,2,Pin_2*%
%TO.N,VCC*%
X196500000Y-74250000D03*
%TD*%
D18*
%TO.P,power_output1,1,Pin_1*%
%TO.N,GND*%
X228467500Y-73500000D03*
D17*
%TO.P,power_output1,2,Pin_2*%
%TO.N,VCC*%
X228467500Y-68500000D03*
%TD*%
D10*
%TO.P,in3,1*%
%TO.N,sig3*%
X208500000Y-96310000D03*
%TO.P,in3,2*%
%TO.N,Net-(U3-Pad1)*%
X208500000Y-88690000D03*
%TD*%
%TO.P,pull_down2,1*%
%TO.N,out2*%
X220000000Y-83810000D03*
%TO.P,pull_down2,2*%
%TO.N,GND*%
X220000000Y-76190000D03*
%TD*%
%TO.P,pull_down3,1*%
%TO.N,out3*%
X220000000Y-96310000D03*
%TO.P,pull_down3,2*%
%TO.N,GND*%
X220000000Y-88690000D03*
%TD*%
D11*
%TO.P,servo2_out2,1,Pin_1*%
%TO.N,out3*%
X225460000Y-91000000D03*
D12*
%TO.P,servo2_out2,2,Pin_2*%
%TO.N,VCC*%
X228000000Y-91000000D03*
%TO.P,servo2_out2,3,Pin_3*%
%TO.N,GND*%
X230540000Y-91000000D03*
%TD*%
D10*
%TO.P,Rdiode1,1*%
%TO.N,VCC*%
X201620000Y-79500000D03*
%TO.P,Rdiode1,2*%
%TO.N,Net-(D1-A)*%
X194000000Y-79500000D03*
%TD*%
M02*
