%TF.GenerationSoftware,KiCad,Pcbnew,9.0.4*%
%TF.CreationDate,2026-02-05T14:57:12+01:00*%
%TF.ProjectId,carte distribution,63617274-6520-4646-9973-747269627574,rev?*%
%TF.SameCoordinates,Original*%
%TF.FileFunction,Drillmap*%
%TF.FilePolarity,Positive*%
%FSLAX45Y45*%
G04 Gerber Fmt 4.5, Leading zero omitted, Abs format (unit mm)*
G04 Created by KiCad (PCBNEW 9.0.4) date 2026-02-05 14:57:12*
%MOMM*%
%LPD*%
G01*
G04 APERTURE LIST*
%ADD10C,0.050000*%
%ADD11C,0.200000*%
%ADD12C,0.100000*%
%ADD13C,0.130000*%
G04 APERTURE END LIST*
D10*
X4450000Y-4800000D02*
X8000000Y-4800000D01*
X8000000Y-9900000D01*
X4450000Y-9900000D01*
X4450000Y-4800000D01*
D11*
D12*
X4579000Y-6460000D02*
X4659000Y-6540000D01*
X4659000Y-6460000D02*
X4579000Y-6540000D01*
X4685000Y-8460000D02*
X4765000Y-8540000D01*
X4765000Y-8460000D02*
X4685000Y-8540000D01*
X4935000Y-8460000D02*
X5015000Y-8540000D01*
X5015000Y-8460000D02*
X4935000Y-8540000D01*
X5341000Y-6460000D02*
X5421000Y-6540000D01*
X5421000Y-6460000D02*
X5341000Y-6540000D01*
X4818000Y-5850000D02*
G75*
G02*
X4728000Y-5850000I-45000J0D01*
G01*
X4728000Y-5850000D02*
G75*
G02*
X4818000Y-5850000I45000J0D01*
G01*
X5072000Y-5850000D02*
G75*
G02*
X4982000Y-5850000I-45000J0D01*
G01*
X4982000Y-5850000D02*
G75*
G02*
X5072000Y-5850000I45000J0D01*
G01*
D13*
X4853250Y-7085000D02*
X4853250Y-7215000D01*
X4788250Y-7150000D02*
X4918250Y-7150000D01*
X4853250Y-7585000D02*
X4853250Y-7715000D01*
X4788250Y-7650000D02*
X4918250Y-7650000D01*
X5950000Y-5385000D02*
X5950000Y-5515000D01*
X5885000Y-5450000D02*
X6015000Y-5450000D01*
X6000000Y-9185000D02*
X6000000Y-9315000D01*
X5935000Y-9250000D02*
X6065000Y-9250000D01*
X6450000Y-5385000D02*
X6450000Y-5515000D01*
X6385000Y-5450000D02*
X6515000Y-5450000D01*
X6500000Y-9185000D02*
X6500000Y-9315000D01*
X6435000Y-9250000D02*
X6565000Y-9250000D01*
X7546750Y-5660000D02*
X7546750Y-5790000D01*
X7481750Y-5725000D02*
X7611750Y-5725000D01*
X7546750Y-6160000D02*
X7546750Y-6290000D01*
X7481750Y-6225000D02*
X7611750Y-6225000D01*
X7546750Y-8360000D02*
X7546750Y-8490000D01*
X7481750Y-8425000D02*
X7611750Y-8425000D01*
X7546750Y-8860000D02*
X7546750Y-8990000D01*
X7481750Y-8925000D02*
X7611750Y-8925000D01*
X7550000Y-6985000D02*
X7550000Y-7115000D01*
X7485000Y-7050000D02*
X7615000Y-7050000D01*
X7550000Y-7485000D02*
X7550000Y-7615000D01*
X7485000Y-7550000D02*
X7615000Y-7550000D01*
D11*
X4708277Y-10213984D02*
X4708277Y-10013984D01*
X4708277Y-10013984D02*
X4755896Y-10013984D01*
X4755896Y-10013984D02*
X4784467Y-10023508D01*
X4784467Y-10023508D02*
X4803515Y-10042555D01*
X4803515Y-10042555D02*
X4813039Y-10061603D01*
X4813039Y-10061603D02*
X4822563Y-10099698D01*
X4822563Y-10099698D02*
X4822563Y-10128270D01*
X4822563Y-10128270D02*
X4813039Y-10166365D01*
X4813039Y-10166365D02*
X4803515Y-10185412D01*
X4803515Y-10185412D02*
X4784467Y-10204460D01*
X4784467Y-10204460D02*
X4755896Y-10213984D01*
X4755896Y-10213984D02*
X4708277Y-10213984D01*
X4908277Y-10213984D02*
X4908277Y-10080650D01*
X4908277Y-10118746D02*
X4917801Y-10099698D01*
X4917801Y-10099698D02*
X4927324Y-10090174D01*
X4927324Y-10090174D02*
X4946372Y-10080650D01*
X4946372Y-10080650D02*
X4965420Y-10080650D01*
X5032086Y-10213984D02*
X5032086Y-10080650D01*
X5032086Y-10013984D02*
X5022563Y-10023508D01*
X5022563Y-10023508D02*
X5032086Y-10033031D01*
X5032086Y-10033031D02*
X5041610Y-10023508D01*
X5041610Y-10023508D02*
X5032086Y-10013984D01*
X5032086Y-10013984D02*
X5032086Y-10033031D01*
X5155896Y-10213984D02*
X5136848Y-10204460D01*
X5136848Y-10204460D02*
X5127324Y-10185412D01*
X5127324Y-10185412D02*
X5127324Y-10013984D01*
X5260658Y-10213984D02*
X5241610Y-10204460D01*
X5241610Y-10204460D02*
X5232086Y-10185412D01*
X5232086Y-10185412D02*
X5232086Y-10013984D01*
X5489229Y-10213984D02*
X5489229Y-10013984D01*
X5489229Y-10013984D02*
X5555896Y-10156841D01*
X5555896Y-10156841D02*
X5622562Y-10013984D01*
X5622562Y-10013984D02*
X5622562Y-10213984D01*
X5803515Y-10213984D02*
X5803515Y-10109222D01*
X5803515Y-10109222D02*
X5793991Y-10090174D01*
X5793991Y-10090174D02*
X5774943Y-10080650D01*
X5774943Y-10080650D02*
X5736848Y-10080650D01*
X5736848Y-10080650D02*
X5717801Y-10090174D01*
X5803515Y-10204460D02*
X5784467Y-10213984D01*
X5784467Y-10213984D02*
X5736848Y-10213984D01*
X5736848Y-10213984D02*
X5717801Y-10204460D01*
X5717801Y-10204460D02*
X5708277Y-10185412D01*
X5708277Y-10185412D02*
X5708277Y-10166365D01*
X5708277Y-10166365D02*
X5717801Y-10147317D01*
X5717801Y-10147317D02*
X5736848Y-10137793D01*
X5736848Y-10137793D02*
X5784467Y-10137793D01*
X5784467Y-10137793D02*
X5803515Y-10128270D01*
X5898753Y-10080650D02*
X5898753Y-10280650D01*
X5898753Y-10090174D02*
X5917801Y-10080650D01*
X5917801Y-10080650D02*
X5955896Y-10080650D01*
X5955896Y-10080650D02*
X5974943Y-10090174D01*
X5974943Y-10090174D02*
X5984467Y-10099698D01*
X5984467Y-10099698D02*
X5993991Y-10118746D01*
X5993991Y-10118746D02*
X5993991Y-10175889D01*
X5993991Y-10175889D02*
X5984467Y-10194936D01*
X5984467Y-10194936D02*
X5974943Y-10204460D01*
X5974943Y-10204460D02*
X5955896Y-10213984D01*
X5955896Y-10213984D02*
X5917801Y-10213984D01*
X5917801Y-10213984D02*
X5898753Y-10204460D01*
X6079705Y-10194936D02*
X6089229Y-10204460D01*
X6089229Y-10204460D02*
X6079705Y-10213984D01*
X6079705Y-10213984D02*
X6070182Y-10204460D01*
X6070182Y-10204460D02*
X6079705Y-10194936D01*
X6079705Y-10194936D02*
X6079705Y-10213984D01*
X6079705Y-10090174D02*
X6089229Y-10099698D01*
X6089229Y-10099698D02*
X6079705Y-10109222D01*
X6079705Y-10109222D02*
X6070182Y-10099698D01*
X6070182Y-10099698D02*
X6079705Y-10090174D01*
X6079705Y-10090174D02*
X6079705Y-10109222D01*
D12*
X4367500Y-10502500D02*
X4447500Y-10582500D01*
X4447500Y-10502500D02*
X4367500Y-10582500D01*
D11*
X4746372Y-10433984D02*
X4765420Y-10433984D01*
X4765420Y-10433984D02*
X4784467Y-10443508D01*
X4784467Y-10443508D02*
X4793991Y-10453031D01*
X4793991Y-10453031D02*
X4803515Y-10472079D01*
X4803515Y-10472079D02*
X4813039Y-10510174D01*
X4813039Y-10510174D02*
X4813039Y-10557793D01*
X4813039Y-10557793D02*
X4803515Y-10595889D01*
X4803515Y-10595889D02*
X4793991Y-10614936D01*
X4793991Y-10614936D02*
X4784467Y-10624460D01*
X4784467Y-10624460D02*
X4765420Y-10633984D01*
X4765420Y-10633984D02*
X4746372Y-10633984D01*
X4746372Y-10633984D02*
X4727324Y-10624460D01*
X4727324Y-10624460D02*
X4717801Y-10614936D01*
X4717801Y-10614936D02*
X4708277Y-10595889D01*
X4708277Y-10595889D02*
X4698753Y-10557793D01*
X4698753Y-10557793D02*
X4698753Y-10510174D01*
X4698753Y-10510174D02*
X4708277Y-10472079D01*
X4708277Y-10472079D02*
X4717801Y-10453031D01*
X4717801Y-10453031D02*
X4727324Y-10443508D01*
X4727324Y-10443508D02*
X4746372Y-10433984D01*
X4898753Y-10614936D02*
X4908277Y-10624460D01*
X4908277Y-10624460D02*
X4898753Y-10633984D01*
X4898753Y-10633984D02*
X4889229Y-10624460D01*
X4889229Y-10624460D02*
X4898753Y-10614936D01*
X4898753Y-10614936D02*
X4898753Y-10633984D01*
X5022563Y-10519698D02*
X5003515Y-10510174D01*
X5003515Y-10510174D02*
X4993991Y-10500650D01*
X4993991Y-10500650D02*
X4984467Y-10481603D01*
X4984467Y-10481603D02*
X4984467Y-10472079D01*
X4984467Y-10472079D02*
X4993991Y-10453031D01*
X4993991Y-10453031D02*
X5003515Y-10443508D01*
X5003515Y-10443508D02*
X5022563Y-10433984D01*
X5022563Y-10433984D02*
X5060658Y-10433984D01*
X5060658Y-10433984D02*
X5079705Y-10443508D01*
X5079705Y-10443508D02*
X5089229Y-10453031D01*
X5089229Y-10453031D02*
X5098753Y-10472079D01*
X5098753Y-10472079D02*
X5098753Y-10481603D01*
X5098753Y-10481603D02*
X5089229Y-10500650D01*
X5089229Y-10500650D02*
X5079705Y-10510174D01*
X5079705Y-10510174D02*
X5060658Y-10519698D01*
X5060658Y-10519698D02*
X5022563Y-10519698D01*
X5022563Y-10519698D02*
X5003515Y-10529222D01*
X5003515Y-10529222D02*
X4993991Y-10538746D01*
X4993991Y-10538746D02*
X4984467Y-10557793D01*
X4984467Y-10557793D02*
X4984467Y-10595889D01*
X4984467Y-10595889D02*
X4993991Y-10614936D01*
X4993991Y-10614936D02*
X5003515Y-10624460D01*
X5003515Y-10624460D02*
X5022563Y-10633984D01*
X5022563Y-10633984D02*
X5060658Y-10633984D01*
X5060658Y-10633984D02*
X5079705Y-10624460D01*
X5079705Y-10624460D02*
X5089229Y-10614936D01*
X5089229Y-10614936D02*
X5098753Y-10595889D01*
X5098753Y-10595889D02*
X5098753Y-10557793D01*
X5098753Y-10557793D02*
X5089229Y-10538746D01*
X5089229Y-10538746D02*
X5079705Y-10529222D01*
X5079705Y-10529222D02*
X5060658Y-10519698D01*
X5222563Y-10433984D02*
X5241610Y-10433984D01*
X5241610Y-10433984D02*
X5260658Y-10443508D01*
X5260658Y-10443508D02*
X5270182Y-10453031D01*
X5270182Y-10453031D02*
X5279705Y-10472079D01*
X5279705Y-10472079D02*
X5289229Y-10510174D01*
X5289229Y-10510174D02*
X5289229Y-10557793D01*
X5289229Y-10557793D02*
X5279705Y-10595889D01*
X5279705Y-10595889D02*
X5270182Y-10614936D01*
X5270182Y-10614936D02*
X5260658Y-10624460D01*
X5260658Y-10624460D02*
X5241610Y-10633984D01*
X5241610Y-10633984D02*
X5222563Y-10633984D01*
X5222563Y-10633984D02*
X5203515Y-10624460D01*
X5203515Y-10624460D02*
X5193991Y-10614936D01*
X5193991Y-10614936D02*
X5184467Y-10595889D01*
X5184467Y-10595889D02*
X5174944Y-10557793D01*
X5174944Y-10557793D02*
X5174944Y-10510174D01*
X5174944Y-10510174D02*
X5184467Y-10472079D01*
X5184467Y-10472079D02*
X5193991Y-10453031D01*
X5193991Y-10453031D02*
X5203515Y-10443508D01*
X5203515Y-10443508D02*
X5222563Y-10433984D01*
X5413039Y-10433984D02*
X5432086Y-10433984D01*
X5432086Y-10433984D02*
X5451134Y-10443508D01*
X5451134Y-10443508D02*
X5460658Y-10453031D01*
X5460658Y-10453031D02*
X5470182Y-10472079D01*
X5470182Y-10472079D02*
X5479705Y-10510174D01*
X5479705Y-10510174D02*
X5479705Y-10557793D01*
X5479705Y-10557793D02*
X5470182Y-10595889D01*
X5470182Y-10595889D02*
X5460658Y-10614936D01*
X5460658Y-10614936D02*
X5451134Y-10624460D01*
X5451134Y-10624460D02*
X5432086Y-10633984D01*
X5432086Y-10633984D02*
X5413039Y-10633984D01*
X5413039Y-10633984D02*
X5393991Y-10624460D01*
X5393991Y-10624460D02*
X5384467Y-10614936D01*
X5384467Y-10614936D02*
X5374944Y-10595889D01*
X5374944Y-10595889D02*
X5365420Y-10557793D01*
X5365420Y-10557793D02*
X5365420Y-10510174D01*
X5365420Y-10510174D02*
X5374944Y-10472079D01*
X5374944Y-10472079D02*
X5384467Y-10453031D01*
X5384467Y-10453031D02*
X5393991Y-10443508D01*
X5393991Y-10443508D02*
X5413039Y-10433984D01*
X5565420Y-10633984D02*
X5565420Y-10500650D01*
X5565420Y-10519698D02*
X5574944Y-10510174D01*
X5574944Y-10510174D02*
X5593991Y-10500650D01*
X5593991Y-10500650D02*
X5622563Y-10500650D01*
X5622563Y-10500650D02*
X5641610Y-10510174D01*
X5641610Y-10510174D02*
X5651134Y-10529222D01*
X5651134Y-10529222D02*
X5651134Y-10633984D01*
X5651134Y-10529222D02*
X5660658Y-10510174D01*
X5660658Y-10510174D02*
X5679705Y-10500650D01*
X5679705Y-10500650D02*
X5708277Y-10500650D01*
X5708277Y-10500650D02*
X5727324Y-10510174D01*
X5727324Y-10510174D02*
X5736848Y-10529222D01*
X5736848Y-10529222D02*
X5736848Y-10633984D01*
X5832086Y-10633984D02*
X5832086Y-10500650D01*
X5832086Y-10519698D02*
X5841610Y-10510174D01*
X5841610Y-10510174D02*
X5860658Y-10500650D01*
X5860658Y-10500650D02*
X5889229Y-10500650D01*
X5889229Y-10500650D02*
X5908277Y-10510174D01*
X5908277Y-10510174D02*
X5917801Y-10529222D01*
X5917801Y-10529222D02*
X5917801Y-10633984D01*
X5917801Y-10529222D02*
X5927324Y-10510174D01*
X5927324Y-10510174D02*
X5946372Y-10500650D01*
X5946372Y-10500650D02*
X5974943Y-10500650D01*
X5974943Y-10500650D02*
X5993991Y-10510174D01*
X5993991Y-10510174D02*
X6003515Y-10529222D01*
X6003515Y-10529222D02*
X6003515Y-10633984D01*
X6393991Y-10424460D02*
X6222563Y-10681603D01*
X6651134Y-10433984D02*
X6670182Y-10433984D01*
X6670182Y-10433984D02*
X6689229Y-10443508D01*
X6689229Y-10443508D02*
X6698753Y-10453031D01*
X6698753Y-10453031D02*
X6708277Y-10472079D01*
X6708277Y-10472079D02*
X6717801Y-10510174D01*
X6717801Y-10510174D02*
X6717801Y-10557793D01*
X6717801Y-10557793D02*
X6708277Y-10595889D01*
X6708277Y-10595889D02*
X6698753Y-10614936D01*
X6698753Y-10614936D02*
X6689229Y-10624460D01*
X6689229Y-10624460D02*
X6670182Y-10633984D01*
X6670182Y-10633984D02*
X6651134Y-10633984D01*
X6651134Y-10633984D02*
X6632086Y-10624460D01*
X6632086Y-10624460D02*
X6622563Y-10614936D01*
X6622563Y-10614936D02*
X6613039Y-10595889D01*
X6613039Y-10595889D02*
X6603515Y-10557793D01*
X6603515Y-10557793D02*
X6603515Y-10510174D01*
X6603515Y-10510174D02*
X6613039Y-10472079D01*
X6613039Y-10472079D02*
X6622563Y-10453031D01*
X6622563Y-10453031D02*
X6632086Y-10443508D01*
X6632086Y-10443508D02*
X6651134Y-10433984D01*
X6803515Y-10614936D02*
X6813039Y-10624460D01*
X6813039Y-10624460D02*
X6803515Y-10633984D01*
X6803515Y-10633984D02*
X6793991Y-10624460D01*
X6793991Y-10624460D02*
X6803515Y-10614936D01*
X6803515Y-10614936D02*
X6803515Y-10633984D01*
X6936848Y-10433984D02*
X6955896Y-10433984D01*
X6955896Y-10433984D02*
X6974944Y-10443508D01*
X6974944Y-10443508D02*
X6984467Y-10453031D01*
X6984467Y-10453031D02*
X6993991Y-10472079D01*
X6993991Y-10472079D02*
X7003515Y-10510174D01*
X7003515Y-10510174D02*
X7003515Y-10557793D01*
X7003515Y-10557793D02*
X6993991Y-10595889D01*
X6993991Y-10595889D02*
X6984467Y-10614936D01*
X6984467Y-10614936D02*
X6974944Y-10624460D01*
X6974944Y-10624460D02*
X6955896Y-10633984D01*
X6955896Y-10633984D02*
X6936848Y-10633984D01*
X6936848Y-10633984D02*
X6917801Y-10624460D01*
X6917801Y-10624460D02*
X6908277Y-10614936D01*
X6908277Y-10614936D02*
X6898753Y-10595889D01*
X6898753Y-10595889D02*
X6889229Y-10557793D01*
X6889229Y-10557793D02*
X6889229Y-10510174D01*
X6889229Y-10510174D02*
X6898753Y-10472079D01*
X6898753Y-10472079D02*
X6908277Y-10453031D01*
X6908277Y-10453031D02*
X6917801Y-10443508D01*
X6917801Y-10443508D02*
X6936848Y-10433984D01*
X7070182Y-10433984D02*
X7193991Y-10433984D01*
X7193991Y-10433984D02*
X7127325Y-10510174D01*
X7127325Y-10510174D02*
X7155896Y-10510174D01*
X7155896Y-10510174D02*
X7174944Y-10519698D01*
X7174944Y-10519698D02*
X7184467Y-10529222D01*
X7184467Y-10529222D02*
X7193991Y-10548270D01*
X7193991Y-10548270D02*
X7193991Y-10595889D01*
X7193991Y-10595889D02*
X7184467Y-10614936D01*
X7184467Y-10614936D02*
X7174944Y-10624460D01*
X7174944Y-10624460D02*
X7155896Y-10633984D01*
X7155896Y-10633984D02*
X7098753Y-10633984D01*
X7098753Y-10633984D02*
X7079706Y-10624460D01*
X7079706Y-10624460D02*
X7070182Y-10614936D01*
X7384467Y-10633984D02*
X7270182Y-10633984D01*
X7327325Y-10633984D02*
X7327325Y-10433984D01*
X7327325Y-10433984D02*
X7308277Y-10462555D01*
X7308277Y-10462555D02*
X7289229Y-10481603D01*
X7289229Y-10481603D02*
X7270182Y-10491127D01*
X7565420Y-10433984D02*
X7470182Y-10433984D01*
X7470182Y-10433984D02*
X7460658Y-10529222D01*
X7460658Y-10529222D02*
X7470182Y-10519698D01*
X7470182Y-10519698D02*
X7489229Y-10510174D01*
X7489229Y-10510174D02*
X7536848Y-10510174D01*
X7536848Y-10510174D02*
X7555896Y-10519698D01*
X7555896Y-10519698D02*
X7565420Y-10529222D01*
X7565420Y-10529222D02*
X7574944Y-10548270D01*
X7574944Y-10548270D02*
X7574944Y-10595889D01*
X7574944Y-10595889D02*
X7565420Y-10614936D01*
X7565420Y-10614936D02*
X7555896Y-10624460D01*
X7555896Y-10624460D02*
X7536848Y-10633984D01*
X7536848Y-10633984D02*
X7489229Y-10633984D01*
X7489229Y-10633984D02*
X7470182Y-10624460D01*
X7470182Y-10624460D02*
X7460658Y-10614936D01*
X7651134Y-10433984D02*
X7651134Y-10472079D01*
X7727325Y-10433984D02*
X7727325Y-10472079D01*
X8022563Y-10710174D02*
X8013039Y-10700650D01*
X8013039Y-10700650D02*
X7993991Y-10672079D01*
X7993991Y-10672079D02*
X7984468Y-10653031D01*
X7984468Y-10653031D02*
X7974944Y-10624460D01*
X7974944Y-10624460D02*
X7965420Y-10576841D01*
X7965420Y-10576841D02*
X7965420Y-10538746D01*
X7965420Y-10538746D02*
X7974944Y-10491127D01*
X7974944Y-10491127D02*
X7984468Y-10462555D01*
X7984468Y-10462555D02*
X7993991Y-10443508D01*
X7993991Y-10443508D02*
X8013039Y-10414936D01*
X8013039Y-10414936D02*
X8022563Y-10405412D01*
X8184468Y-10500650D02*
X8184468Y-10633984D01*
X8136848Y-10424460D02*
X8089229Y-10567317D01*
X8089229Y-10567317D02*
X8213039Y-10567317D01*
X8441611Y-10633984D02*
X8441611Y-10433984D01*
X8527325Y-10633984D02*
X8527325Y-10529222D01*
X8527325Y-10529222D02*
X8517801Y-10510174D01*
X8517801Y-10510174D02*
X8498753Y-10500650D01*
X8498753Y-10500650D02*
X8470182Y-10500650D01*
X8470182Y-10500650D02*
X8451134Y-10510174D01*
X8451134Y-10510174D02*
X8441611Y-10519698D01*
X8651134Y-10633984D02*
X8632087Y-10624460D01*
X8632087Y-10624460D02*
X8622563Y-10614936D01*
X8622563Y-10614936D02*
X8613039Y-10595889D01*
X8613039Y-10595889D02*
X8613039Y-10538746D01*
X8613039Y-10538746D02*
X8622563Y-10519698D01*
X8622563Y-10519698D02*
X8632087Y-10510174D01*
X8632087Y-10510174D02*
X8651134Y-10500650D01*
X8651134Y-10500650D02*
X8679706Y-10500650D01*
X8679706Y-10500650D02*
X8698753Y-10510174D01*
X8698753Y-10510174D02*
X8708277Y-10519698D01*
X8708277Y-10519698D02*
X8717801Y-10538746D01*
X8717801Y-10538746D02*
X8717801Y-10595889D01*
X8717801Y-10595889D02*
X8708277Y-10614936D01*
X8708277Y-10614936D02*
X8698753Y-10624460D01*
X8698753Y-10624460D02*
X8679706Y-10633984D01*
X8679706Y-10633984D02*
X8651134Y-10633984D01*
X8832087Y-10633984D02*
X8813039Y-10624460D01*
X8813039Y-10624460D02*
X8803515Y-10605412D01*
X8803515Y-10605412D02*
X8803515Y-10433984D01*
X8984468Y-10624460D02*
X8965420Y-10633984D01*
X8965420Y-10633984D02*
X8927325Y-10633984D01*
X8927325Y-10633984D02*
X8908277Y-10624460D01*
X8908277Y-10624460D02*
X8898753Y-10605412D01*
X8898753Y-10605412D02*
X8898753Y-10529222D01*
X8898753Y-10529222D02*
X8908277Y-10510174D01*
X8908277Y-10510174D02*
X8927325Y-10500650D01*
X8927325Y-10500650D02*
X8965420Y-10500650D01*
X8965420Y-10500650D02*
X8984468Y-10510174D01*
X8984468Y-10510174D02*
X8993992Y-10529222D01*
X8993992Y-10529222D02*
X8993992Y-10548270D01*
X8993992Y-10548270D02*
X8898753Y-10567317D01*
X9070182Y-10624460D02*
X9089230Y-10633984D01*
X9089230Y-10633984D02*
X9127325Y-10633984D01*
X9127325Y-10633984D02*
X9146373Y-10624460D01*
X9146373Y-10624460D02*
X9155896Y-10605412D01*
X9155896Y-10605412D02*
X9155896Y-10595889D01*
X9155896Y-10595889D02*
X9146373Y-10576841D01*
X9146373Y-10576841D02*
X9127325Y-10567317D01*
X9127325Y-10567317D02*
X9098753Y-10567317D01*
X9098753Y-10567317D02*
X9079706Y-10557793D01*
X9079706Y-10557793D02*
X9070182Y-10538746D01*
X9070182Y-10538746D02*
X9070182Y-10529222D01*
X9070182Y-10529222D02*
X9079706Y-10510174D01*
X9079706Y-10510174D02*
X9098753Y-10500650D01*
X9098753Y-10500650D02*
X9127325Y-10500650D01*
X9127325Y-10500650D02*
X9146373Y-10510174D01*
X9222563Y-10710174D02*
X9232087Y-10700650D01*
X9232087Y-10700650D02*
X9251134Y-10672079D01*
X9251134Y-10672079D02*
X9260658Y-10653031D01*
X9260658Y-10653031D02*
X9270182Y-10624460D01*
X9270182Y-10624460D02*
X9279706Y-10576841D01*
X9279706Y-10576841D02*
X9279706Y-10538746D01*
X9279706Y-10538746D02*
X9270182Y-10491127D01*
X9270182Y-10491127D02*
X9260658Y-10462555D01*
X9260658Y-10462555D02*
X9251134Y-10443508D01*
X9251134Y-10443508D02*
X9232087Y-10414936D01*
X9232087Y-10414936D02*
X9222563Y-10405412D01*
D12*
X4447500Y-10806500D02*
G75*
G02*
X4357500Y-10806500I-45000J0D01*
G01*
X4357500Y-10806500D02*
G75*
G02*
X4447500Y-10806500I45000J0D01*
G01*
D11*
X4746372Y-10697984D02*
X4765420Y-10697984D01*
X4765420Y-10697984D02*
X4784467Y-10707508D01*
X4784467Y-10707508D02*
X4793991Y-10717031D01*
X4793991Y-10717031D02*
X4803515Y-10736079D01*
X4803515Y-10736079D02*
X4813039Y-10774174D01*
X4813039Y-10774174D02*
X4813039Y-10821793D01*
X4813039Y-10821793D02*
X4803515Y-10859889D01*
X4803515Y-10859889D02*
X4793991Y-10878936D01*
X4793991Y-10878936D02*
X4784467Y-10888460D01*
X4784467Y-10888460D02*
X4765420Y-10897984D01*
X4765420Y-10897984D02*
X4746372Y-10897984D01*
X4746372Y-10897984D02*
X4727324Y-10888460D01*
X4727324Y-10888460D02*
X4717801Y-10878936D01*
X4717801Y-10878936D02*
X4708277Y-10859889D01*
X4708277Y-10859889D02*
X4698753Y-10821793D01*
X4698753Y-10821793D02*
X4698753Y-10774174D01*
X4698753Y-10774174D02*
X4708277Y-10736079D01*
X4708277Y-10736079D02*
X4717801Y-10717031D01*
X4717801Y-10717031D02*
X4727324Y-10707508D01*
X4727324Y-10707508D02*
X4746372Y-10697984D01*
X4898753Y-10878936D02*
X4908277Y-10888460D01*
X4908277Y-10888460D02*
X4898753Y-10897984D01*
X4898753Y-10897984D02*
X4889229Y-10888460D01*
X4889229Y-10888460D02*
X4898753Y-10878936D01*
X4898753Y-10878936D02*
X4898753Y-10897984D01*
X5003515Y-10897984D02*
X5041610Y-10897984D01*
X5041610Y-10897984D02*
X5060658Y-10888460D01*
X5060658Y-10888460D02*
X5070182Y-10878936D01*
X5070182Y-10878936D02*
X5089229Y-10850365D01*
X5089229Y-10850365D02*
X5098753Y-10812270D01*
X5098753Y-10812270D02*
X5098753Y-10736079D01*
X5098753Y-10736079D02*
X5089229Y-10717031D01*
X5089229Y-10717031D02*
X5079705Y-10707508D01*
X5079705Y-10707508D02*
X5060658Y-10697984D01*
X5060658Y-10697984D02*
X5022563Y-10697984D01*
X5022563Y-10697984D02*
X5003515Y-10707508D01*
X5003515Y-10707508D02*
X4993991Y-10717031D01*
X4993991Y-10717031D02*
X4984467Y-10736079D01*
X4984467Y-10736079D02*
X4984467Y-10783698D01*
X4984467Y-10783698D02*
X4993991Y-10802746D01*
X4993991Y-10802746D02*
X5003515Y-10812270D01*
X5003515Y-10812270D02*
X5022563Y-10821793D01*
X5022563Y-10821793D02*
X5060658Y-10821793D01*
X5060658Y-10821793D02*
X5079705Y-10812270D01*
X5079705Y-10812270D02*
X5089229Y-10802746D01*
X5089229Y-10802746D02*
X5098753Y-10783698D01*
X5222563Y-10697984D02*
X5241610Y-10697984D01*
X5241610Y-10697984D02*
X5260658Y-10707508D01*
X5260658Y-10707508D02*
X5270182Y-10717031D01*
X5270182Y-10717031D02*
X5279705Y-10736079D01*
X5279705Y-10736079D02*
X5289229Y-10774174D01*
X5289229Y-10774174D02*
X5289229Y-10821793D01*
X5289229Y-10821793D02*
X5279705Y-10859889D01*
X5279705Y-10859889D02*
X5270182Y-10878936D01*
X5270182Y-10878936D02*
X5260658Y-10888460D01*
X5260658Y-10888460D02*
X5241610Y-10897984D01*
X5241610Y-10897984D02*
X5222563Y-10897984D01*
X5222563Y-10897984D02*
X5203515Y-10888460D01*
X5203515Y-10888460D02*
X5193991Y-10878936D01*
X5193991Y-10878936D02*
X5184467Y-10859889D01*
X5184467Y-10859889D02*
X5174944Y-10821793D01*
X5174944Y-10821793D02*
X5174944Y-10774174D01*
X5174944Y-10774174D02*
X5184467Y-10736079D01*
X5184467Y-10736079D02*
X5193991Y-10717031D01*
X5193991Y-10717031D02*
X5203515Y-10707508D01*
X5203515Y-10707508D02*
X5222563Y-10697984D01*
X5413039Y-10697984D02*
X5432086Y-10697984D01*
X5432086Y-10697984D02*
X5451134Y-10707508D01*
X5451134Y-10707508D02*
X5460658Y-10717031D01*
X5460658Y-10717031D02*
X5470182Y-10736079D01*
X5470182Y-10736079D02*
X5479705Y-10774174D01*
X5479705Y-10774174D02*
X5479705Y-10821793D01*
X5479705Y-10821793D02*
X5470182Y-10859889D01*
X5470182Y-10859889D02*
X5460658Y-10878936D01*
X5460658Y-10878936D02*
X5451134Y-10888460D01*
X5451134Y-10888460D02*
X5432086Y-10897984D01*
X5432086Y-10897984D02*
X5413039Y-10897984D01*
X5413039Y-10897984D02*
X5393991Y-10888460D01*
X5393991Y-10888460D02*
X5384467Y-10878936D01*
X5384467Y-10878936D02*
X5374944Y-10859889D01*
X5374944Y-10859889D02*
X5365420Y-10821793D01*
X5365420Y-10821793D02*
X5365420Y-10774174D01*
X5365420Y-10774174D02*
X5374944Y-10736079D01*
X5374944Y-10736079D02*
X5384467Y-10717031D01*
X5384467Y-10717031D02*
X5393991Y-10707508D01*
X5393991Y-10707508D02*
X5413039Y-10697984D01*
X5565420Y-10897984D02*
X5565420Y-10764650D01*
X5565420Y-10783698D02*
X5574944Y-10774174D01*
X5574944Y-10774174D02*
X5593991Y-10764650D01*
X5593991Y-10764650D02*
X5622563Y-10764650D01*
X5622563Y-10764650D02*
X5641610Y-10774174D01*
X5641610Y-10774174D02*
X5651134Y-10793222D01*
X5651134Y-10793222D02*
X5651134Y-10897984D01*
X5651134Y-10793222D02*
X5660658Y-10774174D01*
X5660658Y-10774174D02*
X5679705Y-10764650D01*
X5679705Y-10764650D02*
X5708277Y-10764650D01*
X5708277Y-10764650D02*
X5727324Y-10774174D01*
X5727324Y-10774174D02*
X5736848Y-10793222D01*
X5736848Y-10793222D02*
X5736848Y-10897984D01*
X5832086Y-10897984D02*
X5832086Y-10764650D01*
X5832086Y-10783698D02*
X5841610Y-10774174D01*
X5841610Y-10774174D02*
X5860658Y-10764650D01*
X5860658Y-10764650D02*
X5889229Y-10764650D01*
X5889229Y-10764650D02*
X5908277Y-10774174D01*
X5908277Y-10774174D02*
X5917801Y-10793222D01*
X5917801Y-10793222D02*
X5917801Y-10897984D01*
X5917801Y-10793222D02*
X5927324Y-10774174D01*
X5927324Y-10774174D02*
X5946372Y-10764650D01*
X5946372Y-10764650D02*
X5974943Y-10764650D01*
X5974943Y-10764650D02*
X5993991Y-10774174D01*
X5993991Y-10774174D02*
X6003515Y-10793222D01*
X6003515Y-10793222D02*
X6003515Y-10897984D01*
X6393991Y-10688460D02*
X6222563Y-10945603D01*
X6651134Y-10697984D02*
X6670182Y-10697984D01*
X6670182Y-10697984D02*
X6689229Y-10707508D01*
X6689229Y-10707508D02*
X6698753Y-10717031D01*
X6698753Y-10717031D02*
X6708277Y-10736079D01*
X6708277Y-10736079D02*
X6717801Y-10774174D01*
X6717801Y-10774174D02*
X6717801Y-10821793D01*
X6717801Y-10821793D02*
X6708277Y-10859889D01*
X6708277Y-10859889D02*
X6698753Y-10878936D01*
X6698753Y-10878936D02*
X6689229Y-10888460D01*
X6689229Y-10888460D02*
X6670182Y-10897984D01*
X6670182Y-10897984D02*
X6651134Y-10897984D01*
X6651134Y-10897984D02*
X6632086Y-10888460D01*
X6632086Y-10888460D02*
X6622563Y-10878936D01*
X6622563Y-10878936D02*
X6613039Y-10859889D01*
X6613039Y-10859889D02*
X6603515Y-10821793D01*
X6603515Y-10821793D02*
X6603515Y-10774174D01*
X6603515Y-10774174D02*
X6613039Y-10736079D01*
X6613039Y-10736079D02*
X6622563Y-10717031D01*
X6622563Y-10717031D02*
X6632086Y-10707508D01*
X6632086Y-10707508D02*
X6651134Y-10697984D01*
X6803515Y-10878936D02*
X6813039Y-10888460D01*
X6813039Y-10888460D02*
X6803515Y-10897984D01*
X6803515Y-10897984D02*
X6793991Y-10888460D01*
X6793991Y-10888460D02*
X6803515Y-10878936D01*
X6803515Y-10878936D02*
X6803515Y-10897984D01*
X6936848Y-10697984D02*
X6955896Y-10697984D01*
X6955896Y-10697984D02*
X6974944Y-10707508D01*
X6974944Y-10707508D02*
X6984467Y-10717031D01*
X6984467Y-10717031D02*
X6993991Y-10736079D01*
X6993991Y-10736079D02*
X7003515Y-10774174D01*
X7003515Y-10774174D02*
X7003515Y-10821793D01*
X7003515Y-10821793D02*
X6993991Y-10859889D01*
X6993991Y-10859889D02*
X6984467Y-10878936D01*
X6984467Y-10878936D02*
X6974944Y-10888460D01*
X6974944Y-10888460D02*
X6955896Y-10897984D01*
X6955896Y-10897984D02*
X6936848Y-10897984D01*
X6936848Y-10897984D02*
X6917801Y-10888460D01*
X6917801Y-10888460D02*
X6908277Y-10878936D01*
X6908277Y-10878936D02*
X6898753Y-10859889D01*
X6898753Y-10859889D02*
X6889229Y-10821793D01*
X6889229Y-10821793D02*
X6889229Y-10774174D01*
X6889229Y-10774174D02*
X6898753Y-10736079D01*
X6898753Y-10736079D02*
X6908277Y-10717031D01*
X6908277Y-10717031D02*
X6917801Y-10707508D01*
X6917801Y-10707508D02*
X6936848Y-10697984D01*
X7070182Y-10697984D02*
X7193991Y-10697984D01*
X7193991Y-10697984D02*
X7127325Y-10774174D01*
X7127325Y-10774174D02*
X7155896Y-10774174D01*
X7155896Y-10774174D02*
X7174944Y-10783698D01*
X7174944Y-10783698D02*
X7184467Y-10793222D01*
X7184467Y-10793222D02*
X7193991Y-10812270D01*
X7193991Y-10812270D02*
X7193991Y-10859889D01*
X7193991Y-10859889D02*
X7184467Y-10878936D01*
X7184467Y-10878936D02*
X7174944Y-10888460D01*
X7174944Y-10888460D02*
X7155896Y-10897984D01*
X7155896Y-10897984D02*
X7098753Y-10897984D01*
X7098753Y-10897984D02*
X7079706Y-10888460D01*
X7079706Y-10888460D02*
X7070182Y-10878936D01*
X7374944Y-10697984D02*
X7279706Y-10697984D01*
X7279706Y-10697984D02*
X7270182Y-10793222D01*
X7270182Y-10793222D02*
X7279706Y-10783698D01*
X7279706Y-10783698D02*
X7298753Y-10774174D01*
X7298753Y-10774174D02*
X7346372Y-10774174D01*
X7346372Y-10774174D02*
X7365420Y-10783698D01*
X7365420Y-10783698D02*
X7374944Y-10793222D01*
X7374944Y-10793222D02*
X7384467Y-10812270D01*
X7384467Y-10812270D02*
X7384467Y-10859889D01*
X7384467Y-10859889D02*
X7374944Y-10878936D01*
X7374944Y-10878936D02*
X7365420Y-10888460D01*
X7365420Y-10888460D02*
X7346372Y-10897984D01*
X7346372Y-10897984D02*
X7298753Y-10897984D01*
X7298753Y-10897984D02*
X7279706Y-10888460D01*
X7279706Y-10888460D02*
X7270182Y-10878936D01*
X7555896Y-10764650D02*
X7555896Y-10897984D01*
X7508277Y-10688460D02*
X7460658Y-10831317D01*
X7460658Y-10831317D02*
X7584467Y-10831317D01*
X7651134Y-10697984D02*
X7651134Y-10736079D01*
X7727325Y-10697984D02*
X7727325Y-10736079D01*
X8022563Y-10974174D02*
X8013039Y-10964650D01*
X8013039Y-10964650D02*
X7993991Y-10936079D01*
X7993991Y-10936079D02*
X7984468Y-10917031D01*
X7984468Y-10917031D02*
X7974944Y-10888460D01*
X7974944Y-10888460D02*
X7965420Y-10840841D01*
X7965420Y-10840841D02*
X7965420Y-10802746D01*
X7965420Y-10802746D02*
X7974944Y-10755127D01*
X7974944Y-10755127D02*
X7984468Y-10726555D01*
X7984468Y-10726555D02*
X7993991Y-10707508D01*
X7993991Y-10707508D02*
X8013039Y-10678936D01*
X8013039Y-10678936D02*
X8022563Y-10669412D01*
X8089229Y-10717031D02*
X8098753Y-10707508D01*
X8098753Y-10707508D02*
X8117801Y-10697984D01*
X8117801Y-10697984D02*
X8165420Y-10697984D01*
X8165420Y-10697984D02*
X8184468Y-10707508D01*
X8184468Y-10707508D02*
X8193991Y-10717031D01*
X8193991Y-10717031D02*
X8203515Y-10736079D01*
X8203515Y-10736079D02*
X8203515Y-10755127D01*
X8203515Y-10755127D02*
X8193991Y-10783698D01*
X8193991Y-10783698D02*
X8079706Y-10897984D01*
X8079706Y-10897984D02*
X8203515Y-10897984D01*
X8441611Y-10897984D02*
X8441611Y-10697984D01*
X8527325Y-10897984D02*
X8527325Y-10793222D01*
X8527325Y-10793222D02*
X8517801Y-10774174D01*
X8517801Y-10774174D02*
X8498753Y-10764650D01*
X8498753Y-10764650D02*
X8470182Y-10764650D01*
X8470182Y-10764650D02*
X8451134Y-10774174D01*
X8451134Y-10774174D02*
X8441611Y-10783698D01*
X8651134Y-10897984D02*
X8632087Y-10888460D01*
X8632087Y-10888460D02*
X8622563Y-10878936D01*
X8622563Y-10878936D02*
X8613039Y-10859889D01*
X8613039Y-10859889D02*
X8613039Y-10802746D01*
X8613039Y-10802746D02*
X8622563Y-10783698D01*
X8622563Y-10783698D02*
X8632087Y-10774174D01*
X8632087Y-10774174D02*
X8651134Y-10764650D01*
X8651134Y-10764650D02*
X8679706Y-10764650D01*
X8679706Y-10764650D02*
X8698753Y-10774174D01*
X8698753Y-10774174D02*
X8708277Y-10783698D01*
X8708277Y-10783698D02*
X8717801Y-10802746D01*
X8717801Y-10802746D02*
X8717801Y-10859889D01*
X8717801Y-10859889D02*
X8708277Y-10878936D01*
X8708277Y-10878936D02*
X8698753Y-10888460D01*
X8698753Y-10888460D02*
X8679706Y-10897984D01*
X8679706Y-10897984D02*
X8651134Y-10897984D01*
X8832087Y-10897984D02*
X8813039Y-10888460D01*
X8813039Y-10888460D02*
X8803515Y-10869412D01*
X8803515Y-10869412D02*
X8803515Y-10697984D01*
X8984468Y-10888460D02*
X8965420Y-10897984D01*
X8965420Y-10897984D02*
X8927325Y-10897984D01*
X8927325Y-10897984D02*
X8908277Y-10888460D01*
X8908277Y-10888460D02*
X8898753Y-10869412D01*
X8898753Y-10869412D02*
X8898753Y-10793222D01*
X8898753Y-10793222D02*
X8908277Y-10774174D01*
X8908277Y-10774174D02*
X8927325Y-10764650D01*
X8927325Y-10764650D02*
X8965420Y-10764650D01*
X8965420Y-10764650D02*
X8984468Y-10774174D01*
X8984468Y-10774174D02*
X8993992Y-10793222D01*
X8993992Y-10793222D02*
X8993992Y-10812270D01*
X8993992Y-10812270D02*
X8898753Y-10831317D01*
X9070182Y-10888460D02*
X9089230Y-10897984D01*
X9089230Y-10897984D02*
X9127325Y-10897984D01*
X9127325Y-10897984D02*
X9146373Y-10888460D01*
X9146373Y-10888460D02*
X9155896Y-10869412D01*
X9155896Y-10869412D02*
X9155896Y-10859889D01*
X9155896Y-10859889D02*
X9146373Y-10840841D01*
X9146373Y-10840841D02*
X9127325Y-10831317D01*
X9127325Y-10831317D02*
X9098753Y-10831317D01*
X9098753Y-10831317D02*
X9079706Y-10821793D01*
X9079706Y-10821793D02*
X9070182Y-10802746D01*
X9070182Y-10802746D02*
X9070182Y-10793222D01*
X9070182Y-10793222D02*
X9079706Y-10774174D01*
X9079706Y-10774174D02*
X9098753Y-10764650D01*
X9098753Y-10764650D02*
X9127325Y-10764650D01*
X9127325Y-10764650D02*
X9146373Y-10774174D01*
X9222563Y-10974174D02*
X9232087Y-10964650D01*
X9232087Y-10964650D02*
X9251134Y-10936079D01*
X9251134Y-10936079D02*
X9260658Y-10917031D01*
X9260658Y-10917031D02*
X9270182Y-10888460D01*
X9270182Y-10888460D02*
X9279706Y-10840841D01*
X9279706Y-10840841D02*
X9279706Y-10802746D01*
X9279706Y-10802746D02*
X9270182Y-10755127D01*
X9270182Y-10755127D02*
X9260658Y-10726555D01*
X9260658Y-10726555D02*
X9251134Y-10707508D01*
X9251134Y-10707508D02*
X9232087Y-10678936D01*
X9232087Y-10678936D02*
X9222563Y-10669412D01*
D13*
X4382500Y-11005500D02*
X4382500Y-11135500D01*
X4317500Y-11070500D02*
X4447500Y-11070500D01*
D11*
X4813039Y-11161984D02*
X4698753Y-11161984D01*
X4755896Y-11161984D02*
X4755896Y-10961984D01*
X4755896Y-10961984D02*
X4736848Y-10990555D01*
X4736848Y-10990555D02*
X4717801Y-11009603D01*
X4717801Y-11009603D02*
X4698753Y-11019127D01*
X4898753Y-11142936D02*
X4908277Y-11152460D01*
X4908277Y-11152460D02*
X4898753Y-11161984D01*
X4898753Y-11161984D02*
X4889229Y-11152460D01*
X4889229Y-11152460D02*
X4898753Y-11142936D01*
X4898753Y-11142936D02*
X4898753Y-11161984D01*
X4974944Y-10961984D02*
X5098753Y-10961984D01*
X5098753Y-10961984D02*
X5032086Y-11038174D01*
X5032086Y-11038174D02*
X5060658Y-11038174D01*
X5060658Y-11038174D02*
X5079705Y-11047698D01*
X5079705Y-11047698D02*
X5089229Y-11057222D01*
X5089229Y-11057222D02*
X5098753Y-11076270D01*
X5098753Y-11076270D02*
X5098753Y-11123889D01*
X5098753Y-11123889D02*
X5089229Y-11142936D01*
X5089229Y-11142936D02*
X5079705Y-11152460D01*
X5079705Y-11152460D02*
X5060658Y-11161984D01*
X5060658Y-11161984D02*
X5003515Y-11161984D01*
X5003515Y-11161984D02*
X4984467Y-11152460D01*
X4984467Y-11152460D02*
X4974944Y-11142936D01*
X5222563Y-10961984D02*
X5241610Y-10961984D01*
X5241610Y-10961984D02*
X5260658Y-10971508D01*
X5260658Y-10971508D02*
X5270182Y-10981031D01*
X5270182Y-10981031D02*
X5279705Y-11000079D01*
X5279705Y-11000079D02*
X5289229Y-11038174D01*
X5289229Y-11038174D02*
X5289229Y-11085793D01*
X5289229Y-11085793D02*
X5279705Y-11123889D01*
X5279705Y-11123889D02*
X5270182Y-11142936D01*
X5270182Y-11142936D02*
X5260658Y-11152460D01*
X5260658Y-11152460D02*
X5241610Y-11161984D01*
X5241610Y-11161984D02*
X5222563Y-11161984D01*
X5222563Y-11161984D02*
X5203515Y-11152460D01*
X5203515Y-11152460D02*
X5193991Y-11142936D01*
X5193991Y-11142936D02*
X5184467Y-11123889D01*
X5184467Y-11123889D02*
X5174944Y-11085793D01*
X5174944Y-11085793D02*
X5174944Y-11038174D01*
X5174944Y-11038174D02*
X5184467Y-11000079D01*
X5184467Y-11000079D02*
X5193991Y-10981031D01*
X5193991Y-10981031D02*
X5203515Y-10971508D01*
X5203515Y-10971508D02*
X5222563Y-10961984D01*
X5413039Y-10961984D02*
X5432086Y-10961984D01*
X5432086Y-10961984D02*
X5451134Y-10971508D01*
X5451134Y-10971508D02*
X5460658Y-10981031D01*
X5460658Y-10981031D02*
X5470182Y-11000079D01*
X5470182Y-11000079D02*
X5479705Y-11038174D01*
X5479705Y-11038174D02*
X5479705Y-11085793D01*
X5479705Y-11085793D02*
X5470182Y-11123889D01*
X5470182Y-11123889D02*
X5460658Y-11142936D01*
X5460658Y-11142936D02*
X5451134Y-11152460D01*
X5451134Y-11152460D02*
X5432086Y-11161984D01*
X5432086Y-11161984D02*
X5413039Y-11161984D01*
X5413039Y-11161984D02*
X5393991Y-11152460D01*
X5393991Y-11152460D02*
X5384467Y-11142936D01*
X5384467Y-11142936D02*
X5374944Y-11123889D01*
X5374944Y-11123889D02*
X5365420Y-11085793D01*
X5365420Y-11085793D02*
X5365420Y-11038174D01*
X5365420Y-11038174D02*
X5374944Y-11000079D01*
X5374944Y-11000079D02*
X5384467Y-10981031D01*
X5384467Y-10981031D02*
X5393991Y-10971508D01*
X5393991Y-10971508D02*
X5413039Y-10961984D01*
X5565420Y-11161984D02*
X5565420Y-11028650D01*
X5565420Y-11047698D02*
X5574944Y-11038174D01*
X5574944Y-11038174D02*
X5593991Y-11028650D01*
X5593991Y-11028650D02*
X5622563Y-11028650D01*
X5622563Y-11028650D02*
X5641610Y-11038174D01*
X5641610Y-11038174D02*
X5651134Y-11057222D01*
X5651134Y-11057222D02*
X5651134Y-11161984D01*
X5651134Y-11057222D02*
X5660658Y-11038174D01*
X5660658Y-11038174D02*
X5679705Y-11028650D01*
X5679705Y-11028650D02*
X5708277Y-11028650D01*
X5708277Y-11028650D02*
X5727324Y-11038174D01*
X5727324Y-11038174D02*
X5736848Y-11057222D01*
X5736848Y-11057222D02*
X5736848Y-11161984D01*
X5832086Y-11161984D02*
X5832086Y-11028650D01*
X5832086Y-11047698D02*
X5841610Y-11038174D01*
X5841610Y-11038174D02*
X5860658Y-11028650D01*
X5860658Y-11028650D02*
X5889229Y-11028650D01*
X5889229Y-11028650D02*
X5908277Y-11038174D01*
X5908277Y-11038174D02*
X5917801Y-11057222D01*
X5917801Y-11057222D02*
X5917801Y-11161984D01*
X5917801Y-11057222D02*
X5927324Y-11038174D01*
X5927324Y-11038174D02*
X5946372Y-11028650D01*
X5946372Y-11028650D02*
X5974943Y-11028650D01*
X5974943Y-11028650D02*
X5993991Y-11038174D01*
X5993991Y-11038174D02*
X6003515Y-11057222D01*
X6003515Y-11057222D02*
X6003515Y-11161984D01*
X6393991Y-10952460D02*
X6222563Y-11209603D01*
X6651134Y-10961984D02*
X6670182Y-10961984D01*
X6670182Y-10961984D02*
X6689229Y-10971508D01*
X6689229Y-10971508D02*
X6698753Y-10981031D01*
X6698753Y-10981031D02*
X6708277Y-11000079D01*
X6708277Y-11000079D02*
X6717801Y-11038174D01*
X6717801Y-11038174D02*
X6717801Y-11085793D01*
X6717801Y-11085793D02*
X6708277Y-11123889D01*
X6708277Y-11123889D02*
X6698753Y-11142936D01*
X6698753Y-11142936D02*
X6689229Y-11152460D01*
X6689229Y-11152460D02*
X6670182Y-11161984D01*
X6670182Y-11161984D02*
X6651134Y-11161984D01*
X6651134Y-11161984D02*
X6632086Y-11152460D01*
X6632086Y-11152460D02*
X6622563Y-11142936D01*
X6622563Y-11142936D02*
X6613039Y-11123889D01*
X6613039Y-11123889D02*
X6603515Y-11085793D01*
X6603515Y-11085793D02*
X6603515Y-11038174D01*
X6603515Y-11038174D02*
X6613039Y-11000079D01*
X6613039Y-11000079D02*
X6622563Y-10981031D01*
X6622563Y-10981031D02*
X6632086Y-10971508D01*
X6632086Y-10971508D02*
X6651134Y-10961984D01*
X6803515Y-11142936D02*
X6813039Y-11152460D01*
X6813039Y-11152460D02*
X6803515Y-11161984D01*
X6803515Y-11161984D02*
X6793991Y-11152460D01*
X6793991Y-11152460D02*
X6803515Y-11142936D01*
X6803515Y-11142936D02*
X6803515Y-11161984D01*
X6936848Y-10961984D02*
X6955896Y-10961984D01*
X6955896Y-10961984D02*
X6974944Y-10971508D01*
X6974944Y-10971508D02*
X6984467Y-10981031D01*
X6984467Y-10981031D02*
X6993991Y-11000079D01*
X6993991Y-11000079D02*
X7003515Y-11038174D01*
X7003515Y-11038174D02*
X7003515Y-11085793D01*
X7003515Y-11085793D02*
X6993991Y-11123889D01*
X6993991Y-11123889D02*
X6984467Y-11142936D01*
X6984467Y-11142936D02*
X6974944Y-11152460D01*
X6974944Y-11152460D02*
X6955896Y-11161984D01*
X6955896Y-11161984D02*
X6936848Y-11161984D01*
X6936848Y-11161984D02*
X6917801Y-11152460D01*
X6917801Y-11152460D02*
X6908277Y-11142936D01*
X6908277Y-11142936D02*
X6898753Y-11123889D01*
X6898753Y-11123889D02*
X6889229Y-11085793D01*
X6889229Y-11085793D02*
X6889229Y-11038174D01*
X6889229Y-11038174D02*
X6898753Y-11000079D01*
X6898753Y-11000079D02*
X6908277Y-10981031D01*
X6908277Y-10981031D02*
X6917801Y-10971508D01*
X6917801Y-10971508D02*
X6936848Y-10961984D01*
X7184467Y-10961984D02*
X7089229Y-10961984D01*
X7089229Y-10961984D02*
X7079706Y-11057222D01*
X7079706Y-11057222D02*
X7089229Y-11047698D01*
X7089229Y-11047698D02*
X7108277Y-11038174D01*
X7108277Y-11038174D02*
X7155896Y-11038174D01*
X7155896Y-11038174D02*
X7174944Y-11047698D01*
X7174944Y-11047698D02*
X7184467Y-11057222D01*
X7184467Y-11057222D02*
X7193991Y-11076270D01*
X7193991Y-11076270D02*
X7193991Y-11123889D01*
X7193991Y-11123889D02*
X7184467Y-11142936D01*
X7184467Y-11142936D02*
X7174944Y-11152460D01*
X7174944Y-11152460D02*
X7155896Y-11161984D01*
X7155896Y-11161984D02*
X7108277Y-11161984D01*
X7108277Y-11161984D02*
X7089229Y-11152460D01*
X7089229Y-11152460D02*
X7079706Y-11142936D01*
X7384467Y-11161984D02*
X7270182Y-11161984D01*
X7327325Y-11161984D02*
X7327325Y-10961984D01*
X7327325Y-10961984D02*
X7308277Y-10990555D01*
X7308277Y-10990555D02*
X7289229Y-11009603D01*
X7289229Y-11009603D02*
X7270182Y-11019127D01*
X7460658Y-10981031D02*
X7470182Y-10971508D01*
X7470182Y-10971508D02*
X7489229Y-10961984D01*
X7489229Y-10961984D02*
X7536848Y-10961984D01*
X7536848Y-10961984D02*
X7555896Y-10971508D01*
X7555896Y-10971508D02*
X7565420Y-10981031D01*
X7565420Y-10981031D02*
X7574944Y-11000079D01*
X7574944Y-11000079D02*
X7574944Y-11019127D01*
X7574944Y-11019127D02*
X7565420Y-11047698D01*
X7565420Y-11047698D02*
X7451134Y-11161984D01*
X7451134Y-11161984D02*
X7574944Y-11161984D01*
X7651134Y-10961984D02*
X7651134Y-11000079D01*
X7727325Y-10961984D02*
X7727325Y-11000079D01*
X8022563Y-11238174D02*
X8013039Y-11228650D01*
X8013039Y-11228650D02*
X7993991Y-11200079D01*
X7993991Y-11200079D02*
X7984468Y-11181031D01*
X7984468Y-11181031D02*
X7974944Y-11152460D01*
X7974944Y-11152460D02*
X7965420Y-11104841D01*
X7965420Y-11104841D02*
X7965420Y-11066746D01*
X7965420Y-11066746D02*
X7974944Y-11019127D01*
X7974944Y-11019127D02*
X7984468Y-10990555D01*
X7984468Y-10990555D02*
X7993991Y-10971508D01*
X7993991Y-10971508D02*
X8013039Y-10942936D01*
X8013039Y-10942936D02*
X8022563Y-10933412D01*
X8203515Y-11161984D02*
X8089229Y-11161984D01*
X8146372Y-11161984D02*
X8146372Y-10961984D01*
X8146372Y-10961984D02*
X8127325Y-10990555D01*
X8127325Y-10990555D02*
X8108277Y-11009603D01*
X8108277Y-11009603D02*
X8089229Y-11019127D01*
X8279706Y-10981031D02*
X8289229Y-10971508D01*
X8289229Y-10971508D02*
X8308277Y-10961984D01*
X8308277Y-10961984D02*
X8355896Y-10961984D01*
X8355896Y-10961984D02*
X8374944Y-10971508D01*
X8374944Y-10971508D02*
X8384468Y-10981031D01*
X8384468Y-10981031D02*
X8393991Y-11000079D01*
X8393991Y-11000079D02*
X8393991Y-11019127D01*
X8393991Y-11019127D02*
X8384468Y-11047698D01*
X8384468Y-11047698D02*
X8270182Y-11161984D01*
X8270182Y-11161984D02*
X8393991Y-11161984D01*
X8632087Y-11161984D02*
X8632087Y-10961984D01*
X8717801Y-11161984D02*
X8717801Y-11057222D01*
X8717801Y-11057222D02*
X8708277Y-11038174D01*
X8708277Y-11038174D02*
X8689230Y-11028650D01*
X8689230Y-11028650D02*
X8660658Y-11028650D01*
X8660658Y-11028650D02*
X8641611Y-11038174D01*
X8641611Y-11038174D02*
X8632087Y-11047698D01*
X8841611Y-11161984D02*
X8822563Y-11152460D01*
X8822563Y-11152460D02*
X8813039Y-11142936D01*
X8813039Y-11142936D02*
X8803515Y-11123889D01*
X8803515Y-11123889D02*
X8803515Y-11066746D01*
X8803515Y-11066746D02*
X8813039Y-11047698D01*
X8813039Y-11047698D02*
X8822563Y-11038174D01*
X8822563Y-11038174D02*
X8841611Y-11028650D01*
X8841611Y-11028650D02*
X8870182Y-11028650D01*
X8870182Y-11028650D02*
X8889230Y-11038174D01*
X8889230Y-11038174D02*
X8898753Y-11047698D01*
X8898753Y-11047698D02*
X8908277Y-11066746D01*
X8908277Y-11066746D02*
X8908277Y-11123889D01*
X8908277Y-11123889D02*
X8898753Y-11142936D01*
X8898753Y-11142936D02*
X8889230Y-11152460D01*
X8889230Y-11152460D02*
X8870182Y-11161984D01*
X8870182Y-11161984D02*
X8841611Y-11161984D01*
X9022563Y-11161984D02*
X9003515Y-11152460D01*
X9003515Y-11152460D02*
X8993992Y-11133412D01*
X8993992Y-11133412D02*
X8993992Y-10961984D01*
X9174944Y-11152460D02*
X9155896Y-11161984D01*
X9155896Y-11161984D02*
X9117801Y-11161984D01*
X9117801Y-11161984D02*
X9098753Y-11152460D01*
X9098753Y-11152460D02*
X9089230Y-11133412D01*
X9089230Y-11133412D02*
X9089230Y-11057222D01*
X9089230Y-11057222D02*
X9098753Y-11038174D01*
X9098753Y-11038174D02*
X9117801Y-11028650D01*
X9117801Y-11028650D02*
X9155896Y-11028650D01*
X9155896Y-11028650D02*
X9174944Y-11038174D01*
X9174944Y-11038174D02*
X9184468Y-11057222D01*
X9184468Y-11057222D02*
X9184468Y-11076270D01*
X9184468Y-11076270D02*
X9089230Y-11095317D01*
X9260658Y-11152460D02*
X9279706Y-11161984D01*
X9279706Y-11161984D02*
X9317801Y-11161984D01*
X9317801Y-11161984D02*
X9336849Y-11152460D01*
X9336849Y-11152460D02*
X9346373Y-11133412D01*
X9346373Y-11133412D02*
X9346373Y-11123889D01*
X9346373Y-11123889D02*
X9336849Y-11104841D01*
X9336849Y-11104841D02*
X9317801Y-11095317D01*
X9317801Y-11095317D02*
X9289230Y-11095317D01*
X9289230Y-11095317D02*
X9270182Y-11085793D01*
X9270182Y-11085793D02*
X9260658Y-11066746D01*
X9260658Y-11066746D02*
X9260658Y-11057222D01*
X9260658Y-11057222D02*
X9270182Y-11038174D01*
X9270182Y-11038174D02*
X9289230Y-11028650D01*
X9289230Y-11028650D02*
X9317801Y-11028650D01*
X9317801Y-11028650D02*
X9336849Y-11038174D01*
X9413039Y-11238174D02*
X9422563Y-11228650D01*
X9422563Y-11228650D02*
X9441611Y-11200079D01*
X9441611Y-11200079D02*
X9451134Y-11181031D01*
X9451134Y-11181031D02*
X9460658Y-11152460D01*
X9460658Y-11152460D02*
X9470182Y-11104841D01*
X9470182Y-11104841D02*
X9470182Y-11066746D01*
X9470182Y-11066746D02*
X9460658Y-11019127D01*
X9460658Y-11019127D02*
X9451134Y-10990555D01*
X9451134Y-10990555D02*
X9441611Y-10971508D01*
X9441611Y-10971508D02*
X9422563Y-10942936D01*
X9422563Y-10942936D02*
X9413039Y-10933412D01*
M02*
