%TF.GenerationSoftware,KiCad,Pcbnew,9.0.4*%
%TF.CreationDate,2026-02-05T14:57:14+01:00*%
%TF.ProjectId,carte distribution,63617274-6520-4646-9973-747269627574,rev?*%
%TF.SameCoordinates,Original*%
%TF.FileFunction,Copper,L2,Bot*%
%TF.FilePolarity,Positive*%
%FSLAX46Y46*%
G04 Gerber Fmt 4.6, Leading zero omitted, Abs format (unit mm)*
G04 Created by KiCad (PCBNEW 9.0.4) date 2026-02-05 14:57:14*
%MOMM*%
%LPD*%
G01*
G04 APERTURE LIST*
G04 Aperture macros list*
%AMRoundRect*
0 Rectangle with rounded corners*
0 $1 Rounding radius*
0 $2 $3 $4 $5 $6 $7 $8 $9 X,Y pos of 4 corners*
0 Add a 4 corners polygon primitive as box body*
4,1,4,$2,$3,$4,$5,$6,$7,$8,$9,$2,$3,0*
0 Add four circle primitives for the rounded corners*
1,1,$1+$1,$2,$3*
1,1,$1+$1,$4,$5*
1,1,$1+$1,$6,$7*
1,1,$1+$1,$8,$9*
0 Add four rect primitives between the rounded corners*
20,1,$1+$1,$2,$3,$4,$5,0*
20,1,$1+$1,$4,$5,$6,$7,0*
20,1,$1+$1,$6,$7,$8,$9,0*
20,1,$1+$1,$8,$9,$2,$3,0*%
G04 Aperture macros list end*
%TA.AperFunction,ComponentPad*%
%ADD10R,1.800000X1.800000*%
%TD*%
%TA.AperFunction,ComponentPad*%
%ADD11C,1.800000*%
%TD*%
%TA.AperFunction,ComponentPad*%
%ADD12RoundRect,0.250001X1.149999X-1.149999X1.149999X1.149999X-1.149999X1.149999X-1.149999X-1.149999X0*%
%TD*%
%TA.AperFunction,ComponentPad*%
%ADD13C,2.800000*%
%TD*%
%TA.AperFunction,ComponentPad*%
%ADD14C,1.600000*%
%TD*%
%TA.AperFunction,ComponentPad*%
%ADD15RoundRect,0.250001X-1.149999X1.149999X-1.149999X-1.149999X1.149999X-1.149999X1.149999X1.149999X0*%
%TD*%
%TA.AperFunction,ComponentPad*%
%ADD16RoundRect,0.250001X1.149999X1.149999X-1.149999X1.149999X-1.149999X-1.149999X1.149999X-1.149999X0*%
%TD*%
%TA.AperFunction,ComponentPad*%
%ADD17RoundRect,0.250001X-1.149999X-1.149999X1.149999X-1.149999X1.149999X1.149999X-1.149999X1.149999X0*%
%TD*%
%TA.AperFunction,Conductor*%
%ADD18C,1.200000*%
%TD*%
%TA.AperFunction,Conductor*%
%ADD19C,2.000000*%
%TD*%
%TA.AperFunction,Conductor*%
%ADD20C,0.800000*%
%TD*%
G04 APERTURE END LIST*
D10*
%TO.P,D1,1,K*%
%TO.N,GND*%
X50270000Y-58500000D03*
D11*
%TO.P,D1,2,A*%
%TO.N,Net-(D1-A)*%
X47730000Y-58500000D03*
%TD*%
D12*
%TO.P,esp_2,1,Pin_1*%
%TO.N,5v*%
X75500000Y-75500000D03*
D13*
%TO.P,esp_2,2,Pin_2*%
%TO.N,GND*%
X75500000Y-70500000D03*
%TD*%
D14*
%TO.P,R220,1*%
%TO.N,5v*%
X46190000Y-65000000D03*
%TO.P,R220,2*%
%TO.N,Net-(D1-A)*%
X53810000Y-65000000D03*
%TD*%
D12*
%TO.P,esp_1,1,Pin_1*%
%TO.N,5v*%
X75467500Y-62250000D03*
D13*
%TO.P,esp_1,2,Pin_2*%
%TO.N,GND*%
X75467500Y-57250000D03*
%TD*%
D14*
%TO.P,C1,1*%
%TO.N,5v*%
X49750000Y-85000000D03*
%TO.P,C1,2*%
%TO.N,GND*%
X47250000Y-85000000D03*
%TD*%
D15*
%TO.P,IN1,1,Pin_1*%
%TO.N,GND*%
X48532500Y-71500000D03*
D13*
%TO.P,IN1,2,Pin_2*%
%TO.N,5v*%
X48532500Y-76500000D03*
%TD*%
D16*
%TO.P,servo_1,1,Pin_1*%
%TO.N,5v*%
X64500000Y-54500000D03*
D13*
%TO.P,servo_1,2,Pin_2*%
%TO.N,GND*%
X59500000Y-54500000D03*
%TD*%
D12*
%TO.P,esp_3,1,Pin_1*%
%TO.N,5v*%
X75467500Y-89250000D03*
D13*
%TO.P,esp_3,2,Pin_2*%
%TO.N,GND*%
X75467500Y-84250000D03*
%TD*%
D17*
%TO.P,servo_2,1,Pin_1*%
%TO.N,5v*%
X60000000Y-92500000D03*
D13*
%TO.P,servo_2,2,Pin_2*%
%TO.N,GND*%
X65000000Y-92500000D03*
%TD*%
D18*
%TO.N,5v*%
X64217500Y-78000000D02*
X61000000Y-78000000D01*
D19*
X56749000Y-91999000D02*
X51125000Y-86375000D01*
X50375000Y-85625000D02*
X49750000Y-85000000D01*
X51875000Y-82875000D02*
X55000000Y-79750000D01*
X55000000Y-69000000D02*
X64500000Y-59500000D01*
D18*
X49750000Y-82250000D02*
X50000000Y-82000000D01*
D19*
X51000000Y-81000000D02*
X51000000Y-78967500D01*
X56749000Y-91999000D02*
X60000000Y-91999000D01*
D18*
X51125000Y-86375000D02*
X49750000Y-85000000D01*
D19*
X51125000Y-86375000D02*
X50375000Y-85625000D01*
D18*
X45601000Y-73568500D02*
X48532500Y-76500000D01*
X49500000Y-79500000D02*
X48532500Y-78532500D01*
X61000000Y-78000000D02*
X52625000Y-86375000D01*
X46190000Y-65310000D02*
X45601000Y-65899000D01*
X49750000Y-82250000D02*
X49500000Y-82000000D01*
X48282500Y-76750000D02*
X48532500Y-76500000D01*
X75500000Y-75500000D02*
X62000000Y-75500000D01*
X75467500Y-89250000D02*
X64217500Y-78000000D01*
X73750000Y-62250000D02*
X50375000Y-85625000D01*
X48782500Y-76750000D02*
X48282500Y-76750000D01*
X45601000Y-65899000D02*
X45601000Y-73568500D01*
X62000000Y-75500000D02*
X51125000Y-86375000D01*
D20*
X49500000Y-84750000D02*
X49750000Y-85000000D01*
D18*
X49500000Y-82000000D02*
X49500000Y-79500000D01*
D19*
X51875000Y-82875000D02*
X49750000Y-85000000D01*
D18*
X46190000Y-65000000D02*
X46190000Y-65310000D01*
D19*
X64500000Y-59500000D02*
X64500000Y-54500000D01*
D18*
X52625000Y-86375000D02*
X51125000Y-86375000D01*
X50000000Y-82000000D02*
X51000000Y-82000000D01*
D19*
X49750000Y-82250000D02*
X49750000Y-85000000D01*
X55000000Y-79750000D02*
X55000000Y-69000000D01*
X51000000Y-78967500D02*
X48532500Y-76500000D01*
D18*
X51000000Y-82000000D02*
X51875000Y-82875000D01*
X75467500Y-62250000D02*
X73750000Y-62250000D01*
X48532500Y-78532500D02*
X48532500Y-76500000D01*
X48532500Y-76500000D02*
X48782500Y-76750000D01*
D20*
%TO.N,Net-(D1-A)*%
X53810000Y-65000000D02*
X47730000Y-58920000D01*
X47730000Y-58920000D02*
X47730000Y-58500000D01*
%TD*%
%TA.AperFunction,Conductor*%
%TO.N,GND*%
G36*
X79442539Y-48520185D02*
G01*
X79488294Y-48572989D01*
X79499500Y-48624500D01*
X79499500Y-98375500D01*
X79479815Y-98442539D01*
X79427011Y-98488294D01*
X79375500Y-98499500D01*
X45124500Y-98499500D01*
X45057461Y-98479815D01*
X45011706Y-98427011D01*
X45000500Y-98375500D01*
X45000500Y-95878711D01*
X45649500Y-95878711D01*
X45649500Y-96121288D01*
X45681161Y-96361785D01*
X45743947Y-96596104D01*
X45836773Y-96820205D01*
X45836776Y-96820212D01*
X45958064Y-97030289D01*
X45958066Y-97030292D01*
X45958067Y-97030293D01*
X46105733Y-97222736D01*
X46105739Y-97222743D01*
X46277256Y-97394260D01*
X46277262Y-97394265D01*
X46469711Y-97541936D01*
X46679788Y-97663224D01*
X46903900Y-97756054D01*
X47138211Y-97818838D01*
X47318586Y-97842584D01*
X47378711Y-97850500D01*
X47378712Y-97850500D01*
X47621289Y-97850500D01*
X47669388Y-97844167D01*
X47861789Y-97818838D01*
X48096100Y-97756054D01*
X48320212Y-97663224D01*
X48530289Y-97541936D01*
X48722738Y-97394265D01*
X48894265Y-97222738D01*
X49041936Y-97030289D01*
X49163224Y-96820212D01*
X49256054Y-96596100D01*
X49318838Y-96361789D01*
X49350500Y-96121288D01*
X49350500Y-95878712D01*
X49350500Y-95878711D01*
X75149500Y-95878711D01*
X75149500Y-96121288D01*
X75181161Y-96361785D01*
X75243947Y-96596104D01*
X75336773Y-96820205D01*
X75336776Y-96820212D01*
X75458064Y-97030289D01*
X75458066Y-97030292D01*
X75458067Y-97030293D01*
X75605733Y-97222736D01*
X75605739Y-97222743D01*
X75777256Y-97394260D01*
X75777262Y-97394265D01*
X75969711Y-97541936D01*
X76179788Y-97663224D01*
X76403900Y-97756054D01*
X76638211Y-97818838D01*
X76818586Y-97842584D01*
X76878711Y-97850500D01*
X76878712Y-97850500D01*
X77121289Y-97850500D01*
X77169388Y-97844167D01*
X77361789Y-97818838D01*
X77596100Y-97756054D01*
X77820212Y-97663224D01*
X78030289Y-97541936D01*
X78222738Y-97394265D01*
X78394265Y-97222738D01*
X78541936Y-97030289D01*
X78663224Y-96820212D01*
X78756054Y-96596100D01*
X78818838Y-96361789D01*
X78850500Y-96121288D01*
X78850500Y-95878712D01*
X78818838Y-95638211D01*
X78756054Y-95403900D01*
X78663224Y-95179788D01*
X78541936Y-94969711D01*
X78394265Y-94777262D01*
X78394260Y-94777256D01*
X78222743Y-94605739D01*
X78222736Y-94605733D01*
X78030293Y-94458067D01*
X78030292Y-94458066D01*
X78030289Y-94458064D01*
X77820212Y-94336776D01*
X77820205Y-94336773D01*
X77596104Y-94243947D01*
X77361785Y-94181161D01*
X77121289Y-94149500D01*
X77121288Y-94149500D01*
X76878712Y-94149500D01*
X76878711Y-94149500D01*
X76638214Y-94181161D01*
X76403895Y-94243947D01*
X76179794Y-94336773D01*
X76179785Y-94336777D01*
X75969706Y-94458067D01*
X75777263Y-94605733D01*
X75777256Y-94605739D01*
X75605739Y-94777256D01*
X75605733Y-94777263D01*
X75458067Y-94969706D01*
X75336777Y-95179785D01*
X75336773Y-95179794D01*
X75243947Y-95403895D01*
X75181161Y-95638214D01*
X75149500Y-95878711D01*
X49350500Y-95878711D01*
X49318838Y-95638211D01*
X49256054Y-95403900D01*
X49163224Y-95179788D01*
X49041936Y-94969711D01*
X48894265Y-94777262D01*
X48894260Y-94777256D01*
X48722743Y-94605739D01*
X48722736Y-94605733D01*
X48530293Y-94458067D01*
X48530292Y-94458066D01*
X48530289Y-94458064D01*
X48320212Y-94336776D01*
X48320205Y-94336773D01*
X48096104Y-94243947D01*
X47861785Y-94181161D01*
X47621289Y-94149500D01*
X47621288Y-94149500D01*
X47378712Y-94149500D01*
X47378711Y-94149500D01*
X47138214Y-94181161D01*
X46903895Y-94243947D01*
X46679794Y-94336773D01*
X46679785Y-94336777D01*
X46469706Y-94458067D01*
X46277263Y-94605733D01*
X46277256Y-94605739D01*
X46105739Y-94777256D01*
X46105733Y-94777263D01*
X45958067Y-94969706D01*
X45836777Y-95179785D01*
X45836773Y-95179794D01*
X45743947Y-95403895D01*
X45681161Y-95638214D01*
X45649500Y-95878711D01*
X45000500Y-95878711D01*
X45000500Y-75247968D01*
X45020185Y-75180929D01*
X45072989Y-75135174D01*
X45142147Y-75125230D01*
X45205703Y-75154255D01*
X45212181Y-75160287D01*
X46297562Y-76245668D01*
X46331047Y-76306991D01*
X46332822Y-76349521D01*
X46332000Y-76355770D01*
X46332000Y-76644221D01*
X46332001Y-76644238D01*
X46369649Y-76930206D01*
X46369650Y-76930211D01*
X46369651Y-76930217D01*
X46411831Y-77087635D01*
X46444309Y-77208844D01*
X46444314Y-77208860D01*
X46554691Y-77475336D01*
X46554699Y-77475352D01*
X46698920Y-77725148D01*
X46698931Y-77725164D01*
X46874524Y-77954002D01*
X46874530Y-77954009D01*
X47078490Y-78157969D01*
X47078496Y-78157974D01*
X47083482Y-78161800D01*
X47085731Y-78164880D01*
X47089203Y-78166466D01*
X47106173Y-78192873D01*
X47124688Y-78218226D01*
X47125514Y-78222968D01*
X47126977Y-78225244D01*
X47132000Y-78260179D01*
X47132000Y-78417862D01*
X47131999Y-78417877D01*
X47131999Y-78642720D01*
X47164748Y-78849486D01*
X47164748Y-78849490D01*
X47164749Y-78849490D01*
X47166484Y-78860451D01*
X47166484Y-78860452D01*
X47234603Y-79070103D01*
X47234604Y-79070106D01*
X47289660Y-79178156D01*
X47313534Y-79225012D01*
X47334687Y-79266525D01*
X47464251Y-79444857D01*
X47464255Y-79444861D01*
X47464258Y-79444865D01*
X47620135Y-79600742D01*
X47624465Y-79605072D01*
X47624476Y-79605082D01*
X48063181Y-80043787D01*
X48096666Y-80105110D01*
X48099500Y-80131468D01*
X48099500Y-81505061D01*
X48090061Y-81552513D01*
X48041394Y-81670006D01*
X47980306Y-81897989D01*
X47949501Y-82131979D01*
X47949500Y-82131995D01*
X47949500Y-83695039D01*
X47929815Y-83762078D01*
X47877011Y-83807833D01*
X47807853Y-83817777D01*
X47769205Y-83805524D01*
X47749031Y-83795244D01*
X47554417Y-83732009D01*
X47352317Y-83700000D01*
X47147683Y-83700000D01*
X46945582Y-83732009D01*
X46750968Y-83795244D01*
X46568644Y-83888143D01*
X46524077Y-83920523D01*
X46524077Y-83920524D01*
X47203553Y-84600000D01*
X47197339Y-84600000D01*
X47095606Y-84627259D01*
X47004394Y-84679920D01*
X46929920Y-84754394D01*
X46877259Y-84845606D01*
X46850000Y-84947339D01*
X46850000Y-84953553D01*
X46170524Y-84274077D01*
X46170523Y-84274077D01*
X46138143Y-84318644D01*
X46045244Y-84500968D01*
X45982009Y-84695582D01*
X45950000Y-84897682D01*
X45950000Y-85102317D01*
X45982009Y-85304417D01*
X46045244Y-85499031D01*
X46138141Y-85681350D01*
X46138147Y-85681359D01*
X46170523Y-85725921D01*
X46170524Y-85725922D01*
X46850000Y-85046446D01*
X46850000Y-85052661D01*
X46877259Y-85154394D01*
X46929920Y-85245606D01*
X47004394Y-85320080D01*
X47095606Y-85372741D01*
X47197339Y-85400000D01*
X47203552Y-85400000D01*
X46524076Y-86079474D01*
X46568650Y-86111859D01*
X46750968Y-86204755D01*
X46945582Y-86267990D01*
X47147683Y-86300000D01*
X47352317Y-86300000D01*
X47554417Y-86267990D01*
X47749031Y-86204755D01*
X47931349Y-86111859D01*
X48091941Y-85995181D01*
X48157747Y-85971701D01*
X48225801Y-85987526D01*
X48263203Y-86020013D01*
X48393406Y-86189697D01*
X48393412Y-86189704D01*
X49189619Y-86985912D01*
X49189641Y-86985932D01*
X49938396Y-87734689D01*
X49938426Y-87734717D01*
X55559295Y-93355587D01*
X55559301Y-93355592D01*
X55746550Y-93499273D01*
X55746557Y-93499277D01*
X55950942Y-93617280D01*
X55950950Y-93617284D01*
X56041272Y-93654696D01*
X56169007Y-93707606D01*
X56396986Y-93768693D01*
X56630989Y-93799500D01*
X57705617Y-93799500D01*
X57772656Y-93819185D01*
X57818411Y-93871989D01*
X57824274Y-93887495D01*
X57861010Y-94008597D01*
X57874770Y-94053958D01*
X57972313Y-94236448D01*
X57972315Y-94236450D01*
X58103589Y-94396410D01*
X58263549Y-94527684D01*
X58263551Y-94527686D01*
X58446041Y-94625229D01*
X58446043Y-94625229D01*
X58446046Y-94625231D01*
X58644067Y-94685300D01*
X58644066Y-94685300D01*
X58654970Y-94686373D01*
X58798393Y-94700500D01*
X61201606Y-94700499D01*
X61355933Y-94685300D01*
X61553954Y-94625231D01*
X61736450Y-94527685D01*
X61896410Y-94396410D01*
X62027685Y-94236450D01*
X62109606Y-94083186D01*
X62125229Y-94053958D01*
X62125229Y-94053957D01*
X62125231Y-94053954D01*
X62185300Y-93855933D01*
X62200500Y-93701607D01*
X62200499Y-92375466D01*
X63100000Y-92375466D01*
X63100000Y-92624533D01*
X63132508Y-92871463D01*
X63196973Y-93112049D01*
X63292283Y-93342148D01*
X63292288Y-93342159D01*
X63416813Y-93557841D01*
X63416819Y-93557849D01*
X63491400Y-93655045D01*
X64398958Y-92747487D01*
X64423978Y-92807890D01*
X64495112Y-92914351D01*
X64585649Y-93004888D01*
X64692110Y-93076022D01*
X64752511Y-93101041D01*
X63844953Y-94008598D01*
X63942150Y-94083180D01*
X63942158Y-94083186D01*
X64157840Y-94207711D01*
X64157851Y-94207716D01*
X64387950Y-94303026D01*
X64628536Y-94367491D01*
X64875466Y-94400000D01*
X65124534Y-94400000D01*
X65371463Y-94367491D01*
X65612049Y-94303026D01*
X65842148Y-94207716D01*
X65842159Y-94207711D01*
X66057855Y-94083178D01*
X66155045Y-94008600D01*
X66155045Y-94008597D01*
X65247488Y-93101041D01*
X65307890Y-93076022D01*
X65414351Y-93004888D01*
X65504888Y-92914351D01*
X65576022Y-92807890D01*
X65601041Y-92747489D01*
X66508597Y-93655045D01*
X66508600Y-93655045D01*
X66583178Y-93557855D01*
X66707711Y-93342159D01*
X66707716Y-93342148D01*
X66803026Y-93112049D01*
X66867491Y-92871463D01*
X66900000Y-92624533D01*
X66900000Y-92375466D01*
X66867491Y-92128536D01*
X66803026Y-91887950D01*
X66707716Y-91657851D01*
X66707711Y-91657840D01*
X66583186Y-91442158D01*
X66583180Y-91442150D01*
X66508598Y-91344953D01*
X65601041Y-92252510D01*
X65576022Y-92192110D01*
X65504888Y-92085649D01*
X65414351Y-91995112D01*
X65307890Y-91923978D01*
X65247487Y-91898957D01*
X66155045Y-90991400D01*
X66057849Y-90916819D01*
X66057841Y-90916813D01*
X65842159Y-90792288D01*
X65842148Y-90792283D01*
X65612049Y-90696973D01*
X65371463Y-90632508D01*
X65124534Y-90600000D01*
X64875466Y-90600000D01*
X64628536Y-90632508D01*
X64387950Y-90696973D01*
X64157851Y-90792283D01*
X64157847Y-90792285D01*
X63942143Y-90916823D01*
X63844953Y-90991399D01*
X63844953Y-90991400D01*
X64752511Y-91898958D01*
X64692110Y-91923978D01*
X64585649Y-91995112D01*
X64495112Y-92085649D01*
X64423978Y-92192110D01*
X64398958Y-92252511D01*
X63491400Y-91344953D01*
X63491399Y-91344953D01*
X63416823Y-91442143D01*
X63292285Y-91657847D01*
X63292283Y-91657851D01*
X63196973Y-91887950D01*
X63132508Y-92128536D01*
X63100000Y-92375466D01*
X62200499Y-92375466D01*
X62200499Y-91298394D01*
X62185300Y-91144067D01*
X62125231Y-90946046D01*
X62125229Y-90946043D01*
X62125229Y-90946041D01*
X62027686Y-90763551D01*
X62027684Y-90763549D01*
X61896410Y-90603589D01*
X61736450Y-90472315D01*
X61736448Y-90472313D01*
X61553958Y-90374770D01*
X61454943Y-90344734D01*
X61355933Y-90314700D01*
X61355931Y-90314699D01*
X61355933Y-90314699D01*
X61236804Y-90302966D01*
X61201607Y-90299500D01*
X61201604Y-90299500D01*
X60626643Y-90299500D01*
X60584068Y-90291031D01*
X60583842Y-90291700D01*
X60580003Y-90290397D01*
X60579995Y-90290394D01*
X60579993Y-90290394D01*
X60352014Y-90229307D01*
X60352013Y-90229306D01*
X60352010Y-90229306D01*
X60118020Y-90198501D01*
X60118017Y-90198500D01*
X60118011Y-90198500D01*
X60118004Y-90198500D01*
X57546153Y-90198500D01*
X57479114Y-90178815D01*
X57458472Y-90162181D01*
X54226129Y-86929838D01*
X54192644Y-86868515D01*
X54197628Y-86798823D01*
X54226129Y-86754476D01*
X61543787Y-79436819D01*
X61605110Y-79403334D01*
X61631468Y-79400500D01*
X63586032Y-79400500D01*
X63653071Y-79420185D01*
X63673713Y-79436819D01*
X73230681Y-88993787D01*
X73264166Y-89055110D01*
X73267000Y-89081468D01*
X73267000Y-90451602D01*
X73282199Y-90605931D01*
X73342270Y-90803958D01*
X73439813Y-90986448D01*
X73439815Y-90986450D01*
X73571089Y-91146410D01*
X73731049Y-91277684D01*
X73731051Y-91277686D01*
X73913541Y-91375229D01*
X73913543Y-91375229D01*
X73913546Y-91375231D01*
X74111567Y-91435300D01*
X74111566Y-91435300D01*
X74122470Y-91436373D01*
X74265893Y-91450500D01*
X76669106Y-91450499D01*
X76823433Y-91435300D01*
X77021454Y-91375231D01*
X77203950Y-91277685D01*
X77363910Y-91146410D01*
X77495185Y-90986450D01*
X77592731Y-90803954D01*
X77652800Y-90605933D01*
X77668000Y-90451607D01*
X77667999Y-88048394D01*
X77652800Y-87894067D01*
X77592731Y-87696046D01*
X77592729Y-87696043D01*
X77592729Y-87696041D01*
X77495186Y-87513551D01*
X77495184Y-87513549D01*
X77363910Y-87353589D01*
X77203950Y-87222315D01*
X77203948Y-87222313D01*
X77021458Y-87124770D01*
X76922443Y-87094734D01*
X76823433Y-87064700D01*
X76823431Y-87064699D01*
X76823433Y-87064699D01*
X76704304Y-87052966D01*
X76669107Y-87049500D01*
X76669104Y-87049500D01*
X75298968Y-87049500D01*
X75231929Y-87029815D01*
X75211287Y-87013181D01*
X74121249Y-85923143D01*
X74087764Y-85861820D01*
X74092748Y-85792128D01*
X74134620Y-85736195D01*
X74200084Y-85711778D01*
X74268357Y-85726630D01*
X74284416Y-85737086D01*
X74409642Y-85833175D01*
X74409658Y-85833186D01*
X74625340Y-85957711D01*
X74625351Y-85957716D01*
X74855450Y-86053026D01*
X75096036Y-86117491D01*
X75342966Y-86150000D01*
X75592034Y-86150000D01*
X75838963Y-86117491D01*
X76079549Y-86053026D01*
X76309648Y-85957716D01*
X76309659Y-85957711D01*
X76525355Y-85833178D01*
X76622545Y-85758600D01*
X76622545Y-85758597D01*
X75714988Y-84851041D01*
X75775390Y-84826022D01*
X75881851Y-84754888D01*
X75972388Y-84664351D01*
X76043522Y-84557890D01*
X76068541Y-84497489D01*
X76976097Y-85405045D01*
X76976100Y-85405045D01*
X77050678Y-85307855D01*
X77175211Y-85092159D01*
X77175216Y-85092148D01*
X77270526Y-84862049D01*
X77334991Y-84621463D01*
X77367500Y-84374533D01*
X77367500Y-84125466D01*
X77334991Y-83878536D01*
X77270526Y-83637950D01*
X77175216Y-83407851D01*
X77175211Y-83407840D01*
X77050686Y-83192158D01*
X77050680Y-83192150D01*
X76976098Y-83094953D01*
X76068541Y-84002510D01*
X76043522Y-83942110D01*
X75972388Y-83835649D01*
X75881851Y-83745112D01*
X75775390Y-83673978D01*
X75714987Y-83648957D01*
X76622545Y-82741400D01*
X76525349Y-82666819D01*
X76525341Y-82666813D01*
X76309659Y-82542288D01*
X76309648Y-82542283D01*
X76079549Y-82446973D01*
X75838963Y-82382508D01*
X75592034Y-82350000D01*
X75342966Y-82350000D01*
X75096036Y-82382508D01*
X74855450Y-82446973D01*
X74625351Y-82542283D01*
X74625347Y-82542285D01*
X74409643Y-82666823D01*
X74312453Y-82741399D01*
X74312453Y-82741400D01*
X75220011Y-83648958D01*
X75159610Y-83673978D01*
X75053149Y-83745112D01*
X74962612Y-83835649D01*
X74891478Y-83942110D01*
X74866458Y-84002512D01*
X73958900Y-83094953D01*
X73958899Y-83094953D01*
X73884323Y-83192143D01*
X73759785Y-83407847D01*
X73759783Y-83407851D01*
X73664473Y-83637950D01*
X73600008Y-83878536D01*
X73567500Y-84125466D01*
X73567500Y-84374533D01*
X73600008Y-84621463D01*
X73664473Y-84862049D01*
X73759783Y-85092148D01*
X73759788Y-85092159D01*
X73884313Y-85307841D01*
X73884324Y-85307857D01*
X73980413Y-85433083D01*
X74005607Y-85498252D01*
X73991569Y-85566697D01*
X73942755Y-85616686D01*
X73874663Y-85632350D01*
X73808913Y-85608713D01*
X73794356Y-85596250D01*
X65310287Y-77112181D01*
X65276802Y-77050858D01*
X65281786Y-76981166D01*
X65323658Y-76925233D01*
X65389122Y-76900816D01*
X65397968Y-76900500D01*
X73236254Y-76900500D01*
X73303293Y-76920185D01*
X73349048Y-76972989D01*
X73354914Y-76988504D01*
X73374769Y-77053955D01*
X73472313Y-77236448D01*
X73472315Y-77236450D01*
X73603589Y-77396410D01*
X73763549Y-77527684D01*
X73763551Y-77527686D01*
X73946041Y-77625229D01*
X73946043Y-77625229D01*
X73946046Y-77625231D01*
X74144067Y-77685300D01*
X74144066Y-77685300D01*
X74154970Y-77686373D01*
X74298393Y-77700500D01*
X76701606Y-77700499D01*
X76855933Y-77685300D01*
X77053954Y-77625231D01*
X77236450Y-77527685D01*
X77396410Y-77396410D01*
X77527685Y-77236450D01*
X77625231Y-77053954D01*
X77685300Y-76855933D01*
X77700500Y-76701607D01*
X77700499Y-74298394D01*
X77685300Y-74144067D01*
X77625231Y-73946046D01*
X77625229Y-73946043D01*
X77625229Y-73946041D01*
X77527686Y-73763551D01*
X77527684Y-73763549D01*
X77396410Y-73603589D01*
X77236450Y-73472315D01*
X77236448Y-73472313D01*
X77053958Y-73374770D01*
X76920730Y-73334356D01*
X76855933Y-73314700D01*
X76855931Y-73314699D01*
X76855933Y-73314699D01*
X76745220Y-73303795D01*
X76701607Y-73299500D01*
X76701603Y-73299500D01*
X74298397Y-73299500D01*
X74144068Y-73314699D01*
X73946041Y-73374770D01*
X73763551Y-73472313D01*
X73763549Y-73472315D01*
X73603589Y-73603589D01*
X73472315Y-73763549D01*
X73472313Y-73763551D01*
X73374769Y-73946044D01*
X73354914Y-74011496D01*
X73316616Y-74069935D01*
X73252804Y-74098391D01*
X73236254Y-74099500D01*
X64180468Y-74099500D01*
X64113429Y-74079815D01*
X64067674Y-74027011D01*
X64057730Y-73957853D01*
X64086755Y-73894297D01*
X64092787Y-73887819D01*
X65011488Y-72969118D01*
X67605139Y-70375466D01*
X73600000Y-70375466D01*
X73600000Y-70624533D01*
X73632508Y-70871463D01*
X73696973Y-71112049D01*
X73792283Y-71342148D01*
X73792288Y-71342159D01*
X73916813Y-71557841D01*
X73916819Y-71557849D01*
X73991400Y-71655045D01*
X74898958Y-70747487D01*
X74923978Y-70807890D01*
X74995112Y-70914351D01*
X75085649Y-71004888D01*
X75192110Y-71076022D01*
X75252511Y-71101041D01*
X74344953Y-72008598D01*
X74442150Y-72083180D01*
X74442158Y-72083186D01*
X74657840Y-72207711D01*
X74657851Y-72207716D01*
X74887950Y-72303026D01*
X75128536Y-72367491D01*
X75375466Y-72400000D01*
X75624534Y-72400000D01*
X75871463Y-72367491D01*
X76112049Y-72303026D01*
X76342148Y-72207716D01*
X76342159Y-72207711D01*
X76557855Y-72083178D01*
X76655045Y-72008600D01*
X76655045Y-72008597D01*
X75747488Y-71101041D01*
X75807890Y-71076022D01*
X75914351Y-71004888D01*
X76004888Y-70914351D01*
X76076022Y-70807890D01*
X76101041Y-70747488D01*
X77008597Y-71655045D01*
X77008600Y-71655045D01*
X77083178Y-71557855D01*
X77207711Y-71342159D01*
X77207716Y-71342148D01*
X77303026Y-71112049D01*
X77367491Y-70871463D01*
X77400000Y-70624533D01*
X77400000Y-70375466D01*
X77367491Y-70128536D01*
X77303026Y-69887950D01*
X77207716Y-69657851D01*
X77207711Y-69657840D01*
X77083186Y-69442158D01*
X77083180Y-69442150D01*
X77008598Y-69344953D01*
X76101041Y-70252510D01*
X76076022Y-70192110D01*
X76004888Y-70085649D01*
X75914351Y-69995112D01*
X75807890Y-69923978D01*
X75747487Y-69898957D01*
X76655045Y-68991400D01*
X76557849Y-68916819D01*
X76557841Y-68916813D01*
X76342159Y-68792288D01*
X76342148Y-68792283D01*
X76112049Y-68696973D01*
X75871463Y-68632508D01*
X75624534Y-68600000D01*
X75375466Y-68600000D01*
X75128536Y-68632508D01*
X74887950Y-68696973D01*
X74657851Y-68792283D01*
X74657847Y-68792285D01*
X74442143Y-68916823D01*
X74344953Y-68991399D01*
X74344953Y-68991400D01*
X75252511Y-69898958D01*
X75192110Y-69923978D01*
X75085649Y-69995112D01*
X74995112Y-70085649D01*
X74923978Y-70192110D01*
X74898958Y-70252511D01*
X73991400Y-69344953D01*
X73991399Y-69344953D01*
X73916823Y-69442143D01*
X73792285Y-69657847D01*
X73792283Y-69657851D01*
X73696973Y-69887950D01*
X73632508Y-70128536D01*
X73600000Y-70375466D01*
X67605139Y-70375466D01*
X73647691Y-64332913D01*
X73709012Y-64299430D01*
X73778704Y-64304414D01*
X73793823Y-64311238D01*
X73913541Y-64375229D01*
X73913543Y-64375229D01*
X73913546Y-64375231D01*
X74111567Y-64435300D01*
X74111566Y-64435300D01*
X74122470Y-64436373D01*
X74265893Y-64450500D01*
X76669106Y-64450499D01*
X76823433Y-64435300D01*
X77021454Y-64375231D01*
X77203950Y-64277685D01*
X77363910Y-64146410D01*
X77495185Y-63986450D01*
X77592731Y-63803954D01*
X77652800Y-63605933D01*
X77668000Y-63451607D01*
X77667999Y-61048394D01*
X77652800Y-60894067D01*
X77592731Y-60696046D01*
X77592729Y-60696043D01*
X77592729Y-60696041D01*
X77495186Y-60513551D01*
X77495184Y-60513549D01*
X77486075Y-60502450D01*
X77471643Y-60484864D01*
X77363910Y-60353589D01*
X77203950Y-60222315D01*
X77203948Y-60222313D01*
X77021458Y-60124770D01*
X76922443Y-60094734D01*
X76823433Y-60064700D01*
X76823431Y-60064699D01*
X76823433Y-60064699D01*
X76712720Y-60053795D01*
X76669107Y-60049500D01*
X76669103Y-60049500D01*
X74265897Y-60049500D01*
X74111568Y-60064699D01*
X73913541Y-60124770D01*
X73731051Y-60222313D01*
X73731049Y-60222315D01*
X73571089Y-60353589D01*
X73439815Y-60513549D01*
X73439813Y-60513551D01*
X73342269Y-60696044D01*
X73289089Y-60871354D01*
X73250792Y-60929792D01*
X73216401Y-60949032D01*
X73216901Y-60950238D01*
X73212400Y-60952102D01*
X73015974Y-61052187D01*
X72837641Y-61181752D01*
X72837636Y-61181756D01*
X57012181Y-77007212D01*
X56950858Y-77040697D01*
X56881166Y-77035713D01*
X56825233Y-76993841D01*
X56800816Y-76928377D01*
X56800500Y-76919531D01*
X56800500Y-69797153D01*
X56820185Y-69730114D01*
X56836819Y-69709472D01*
X65856584Y-60689707D01*
X65856592Y-60689699D01*
X66000274Y-60502450D01*
X66118284Y-60298050D01*
X66208606Y-60079994D01*
X66269693Y-59852014D01*
X66300500Y-59618011D01*
X66300500Y-59381989D01*
X66300500Y-57125466D01*
X73567500Y-57125466D01*
X73567500Y-57374533D01*
X73600008Y-57621463D01*
X73664473Y-57862049D01*
X73759783Y-58092148D01*
X73759788Y-58092159D01*
X73884313Y-58307841D01*
X73884319Y-58307849D01*
X73958900Y-58405045D01*
X74866458Y-57497487D01*
X74891478Y-57557890D01*
X74962612Y-57664351D01*
X75053149Y-57754888D01*
X75159610Y-57826022D01*
X75220011Y-57851041D01*
X74312453Y-58758598D01*
X74409650Y-58833180D01*
X74409658Y-58833186D01*
X74625340Y-58957711D01*
X74625351Y-58957716D01*
X74855450Y-59053026D01*
X75096036Y-59117491D01*
X75342966Y-59150000D01*
X75592034Y-59150000D01*
X75838963Y-59117491D01*
X76079549Y-59053026D01*
X76309648Y-58957716D01*
X76309659Y-58957711D01*
X76525355Y-58833178D01*
X76622545Y-58758600D01*
X76622545Y-58758597D01*
X75714988Y-57851041D01*
X75775390Y-57826022D01*
X75881851Y-57754888D01*
X75972388Y-57664351D01*
X76043522Y-57557890D01*
X76068541Y-57497489D01*
X76976097Y-58405045D01*
X76976100Y-58405045D01*
X77050678Y-58307855D01*
X77175211Y-58092159D01*
X77175216Y-58092148D01*
X77270526Y-57862049D01*
X77334991Y-57621463D01*
X77367500Y-57374533D01*
X77367500Y-57125466D01*
X77334991Y-56878536D01*
X77270526Y-56637950D01*
X77175216Y-56407851D01*
X77175211Y-56407840D01*
X77050686Y-56192158D01*
X77050680Y-56192150D01*
X76976098Y-56094953D01*
X76068541Y-57002510D01*
X76043522Y-56942110D01*
X75972388Y-56835649D01*
X75881851Y-56745112D01*
X75775390Y-56673978D01*
X75714987Y-56648957D01*
X76622545Y-55741400D01*
X76525349Y-55666819D01*
X76525341Y-55666813D01*
X76309659Y-55542288D01*
X76309648Y-55542283D01*
X76079549Y-55446973D01*
X75838963Y-55382508D01*
X75592034Y-55350000D01*
X75342966Y-55350000D01*
X75096036Y-55382508D01*
X74855450Y-55446973D01*
X74625351Y-55542283D01*
X74625347Y-55542285D01*
X74409643Y-55666823D01*
X74312453Y-55741399D01*
X74312453Y-55741400D01*
X75220011Y-56648958D01*
X75159610Y-56673978D01*
X75053149Y-56745112D01*
X74962612Y-56835649D01*
X74891478Y-56942110D01*
X74866458Y-57002511D01*
X73958900Y-56094953D01*
X73958899Y-56094953D01*
X73884323Y-56192143D01*
X73759785Y-56407847D01*
X73759783Y-56407851D01*
X73664473Y-56637950D01*
X73600008Y-56878536D01*
X73567500Y-57125466D01*
X66300500Y-57125466D01*
X66300500Y-56533768D01*
X66320185Y-56466729D01*
X66345836Y-56437914D01*
X66396410Y-56396410D01*
X66527685Y-56236450D01*
X66609606Y-56083186D01*
X66625229Y-56053958D01*
X66625229Y-56053957D01*
X66625231Y-56053954D01*
X66685300Y-55855933D01*
X66700500Y-55701607D01*
X66700499Y-53298394D01*
X66685300Y-53144067D01*
X66625231Y-52946046D01*
X66625229Y-52946043D01*
X66625229Y-52946041D01*
X66527686Y-52763551D01*
X66527684Y-52763549D01*
X66521531Y-52756052D01*
X66445352Y-52663226D01*
X66396410Y-52603589D01*
X66236450Y-52472315D01*
X66236448Y-52472313D01*
X66053958Y-52374770D01*
X65954943Y-52344734D01*
X65855933Y-52314700D01*
X65855931Y-52314699D01*
X65855933Y-52314699D01*
X65745220Y-52303795D01*
X65701607Y-52299500D01*
X65701603Y-52299500D01*
X63298397Y-52299500D01*
X63144068Y-52314699D01*
X62946041Y-52374770D01*
X62763551Y-52472313D01*
X62763549Y-52472315D01*
X62603589Y-52603589D01*
X62472315Y-52763549D01*
X62472313Y-52763551D01*
X62374770Y-52946041D01*
X62314699Y-53144068D01*
X62299500Y-53298396D01*
X62299500Y-55701602D01*
X62314699Y-55855931D01*
X62374770Y-56053958D01*
X62472313Y-56236448D01*
X62472315Y-56236450D01*
X62603587Y-56396407D01*
X62603588Y-56396408D01*
X62603590Y-56396410D01*
X62654164Y-56437914D01*
X62693499Y-56495660D01*
X62699500Y-56533768D01*
X62699500Y-58702846D01*
X62679815Y-58769885D01*
X62663181Y-58790527D01*
X53643412Y-67810295D01*
X53643406Y-67810302D01*
X53499733Y-67997541D01*
X53499722Y-67997557D01*
X53380353Y-68204308D01*
X53378604Y-68209463D01*
X53291394Y-68420006D01*
X53230306Y-68647989D01*
X53199501Y-68881979D01*
X53199500Y-68881995D01*
X53199500Y-78952846D01*
X53190855Y-78982286D01*
X53184332Y-79012273D01*
X53180577Y-79017288D01*
X53179815Y-79019885D01*
X53163181Y-79040527D01*
X53012181Y-79191527D01*
X52950858Y-79225012D01*
X52881166Y-79220028D01*
X52825233Y-79178156D01*
X52800816Y-79112692D01*
X52800500Y-79103846D01*
X52800500Y-78849490D01*
X52800500Y-78849489D01*
X52769693Y-78615486D01*
X52708606Y-78387507D01*
X52655696Y-78259772D01*
X52655696Y-78259771D01*
X52618288Y-78169458D01*
X52618280Y-78169442D01*
X52500277Y-77965057D01*
X52500273Y-77965050D01*
X52356592Y-77777801D01*
X52356587Y-77777795D01*
X50732204Y-76153413D01*
X50698719Y-76092090D01*
X50696946Y-76081915D01*
X50695349Y-76069783D01*
X50620691Y-75791155D01*
X50620686Y-75791144D01*
X50620685Y-75791139D01*
X50510308Y-75524663D01*
X50510300Y-75524647D01*
X50366079Y-75274851D01*
X50366075Y-75274844D01*
X50294012Y-75180929D01*
X50190475Y-75045997D01*
X50190469Y-75045990D01*
X49986509Y-74842030D01*
X49986502Y-74842024D01*
X49757664Y-74666431D01*
X49757662Y-74666429D01*
X49757656Y-74666425D01*
X49757651Y-74666422D01*
X49757648Y-74666420D01*
X49507852Y-74522199D01*
X49507836Y-74522191D01*
X49241360Y-74411814D01*
X49241348Y-74411810D01*
X49241345Y-74411809D01*
X48962717Y-74337151D01*
X48962711Y-74337150D01*
X48962706Y-74337149D01*
X48676738Y-74299501D01*
X48676733Y-74299500D01*
X48676728Y-74299500D01*
X48388272Y-74299500D01*
X48388270Y-74299500D01*
X48382021Y-74300322D01*
X48312987Y-74289549D01*
X48278168Y-74265062D01*
X47624787Y-73611681D01*
X47591302Y-73550358D01*
X47596286Y-73480666D01*
X47638158Y-73424733D01*
X47703622Y-73400316D01*
X47712468Y-73400000D01*
X48282500Y-73400000D01*
X48282500Y-72100001D01*
X48342902Y-72125021D01*
X48468481Y-72150000D01*
X48596519Y-72150000D01*
X48722098Y-72125021D01*
X48782500Y-72100001D01*
X48782500Y-73400000D01*
X49732473Y-73400000D01*
X49732485Y-73399999D01*
X49835189Y-73389506D01*
X49835196Y-73389505D01*
X50001618Y-73334358D01*
X50001623Y-73334356D01*
X50150844Y-73242315D01*
X50274815Y-73118344D01*
X50366856Y-72969123D01*
X50366858Y-72969118D01*
X50422005Y-72802696D01*
X50422006Y-72802689D01*
X50432499Y-72699985D01*
X50432500Y-72699972D01*
X50432500Y-71750000D01*
X49132501Y-71750000D01*
X49157521Y-71689598D01*
X49182500Y-71564019D01*
X49182500Y-71435981D01*
X49157521Y-71310402D01*
X49132501Y-71250000D01*
X50432500Y-71250000D01*
X50432500Y-70300027D01*
X50432499Y-70300014D01*
X50422006Y-70197310D01*
X50422005Y-70197303D01*
X50366858Y-70030881D01*
X50366856Y-70030876D01*
X50274815Y-69881655D01*
X50150844Y-69757684D01*
X50001623Y-69665643D01*
X50001618Y-69665641D01*
X49835196Y-69610494D01*
X49835189Y-69610493D01*
X49732485Y-69600000D01*
X48782500Y-69600000D01*
X48782500Y-70899998D01*
X48722098Y-70874979D01*
X48596519Y-70850000D01*
X48468481Y-70850000D01*
X48342902Y-70874979D01*
X48282500Y-70899998D01*
X48282500Y-69600000D01*
X47332514Y-69600000D01*
X47229810Y-69610493D01*
X47229796Y-69610496D01*
X47164502Y-69632132D01*
X47094674Y-69634533D01*
X47034633Y-69598801D01*
X47003441Y-69536280D01*
X47001500Y-69514426D01*
X47001500Y-66530468D01*
X47010143Y-66501031D01*
X47016667Y-66471042D01*
X47020422Y-66466025D01*
X47021185Y-66463429D01*
X47037818Y-66442788D01*
X47095292Y-66385313D01*
X47095299Y-66385307D01*
X47102363Y-66378243D01*
X47102365Y-66378242D01*
X47258242Y-66222365D01*
X47324661Y-66130944D01*
X47337295Y-66116153D01*
X47410788Y-66042661D01*
X47410788Y-66042660D01*
X47410793Y-66042656D01*
X47558870Y-65838845D01*
X47673241Y-65614379D01*
X47751090Y-65374785D01*
X47790500Y-65125962D01*
X47790500Y-64874038D01*
X47751090Y-64625215D01*
X47673241Y-64385621D01*
X47673239Y-64385618D01*
X47673239Y-64385616D01*
X47611784Y-64265005D01*
X47558870Y-64161155D01*
X47431940Y-63986450D01*
X47410798Y-63957350D01*
X47410794Y-63957345D01*
X47232654Y-63779205D01*
X47232649Y-63779201D01*
X47028848Y-63631132D01*
X47028847Y-63631131D01*
X47028845Y-63631130D01*
X46958747Y-63595413D01*
X46804383Y-63516760D01*
X46564785Y-63438910D01*
X46564779Y-63438909D01*
X46315962Y-63399500D01*
X46064038Y-63399500D01*
X45939626Y-63419205D01*
X45815214Y-63438910D01*
X45575616Y-63516760D01*
X45351151Y-63631132D01*
X45197385Y-63742849D01*
X45131579Y-63766329D01*
X45063525Y-63750503D01*
X45014830Y-63700397D01*
X45000500Y-63642531D01*
X45000500Y-58388549D01*
X46029500Y-58388549D01*
X46029500Y-58611450D01*
X46029501Y-58611466D01*
X46058594Y-58832452D01*
X46058595Y-58832457D01*
X46058596Y-58832463D01*
X46116290Y-59047780D01*
X46116293Y-59047790D01*
X46158630Y-59150000D01*
X46201595Y-59253726D01*
X46313052Y-59446774D01*
X46313057Y-59446780D01*
X46313058Y-59446782D01*
X46448751Y-59623622D01*
X46448757Y-59623629D01*
X46606370Y-59781242D01*
X46606376Y-59781247D01*
X46783226Y-59916948D01*
X46976274Y-60028405D01*
X47063896Y-60064699D01*
X47177320Y-60111681D01*
X47182219Y-60113710D01*
X47209858Y-60121115D01*
X47265445Y-60153209D01*
X52175610Y-65063374D01*
X52209095Y-65124697D01*
X52210402Y-65131657D01*
X52248909Y-65374785D01*
X52326760Y-65614383D01*
X52441132Y-65838848D01*
X52589201Y-66042649D01*
X52589205Y-66042654D01*
X52767345Y-66220794D01*
X52767350Y-66220798D01*
X52945117Y-66349952D01*
X52971155Y-66368870D01*
X53114184Y-66441747D01*
X53195616Y-66483239D01*
X53195618Y-66483239D01*
X53195621Y-66483241D01*
X53435215Y-66561090D01*
X53684038Y-66600500D01*
X53684039Y-66600500D01*
X53935961Y-66600500D01*
X53935962Y-66600500D01*
X54184785Y-66561090D01*
X54424379Y-66483241D01*
X54648845Y-66368870D01*
X54852656Y-66220793D01*
X55030793Y-66042656D01*
X55178870Y-65838845D01*
X55293241Y-65614379D01*
X55371090Y-65374785D01*
X55410500Y-65125962D01*
X55410500Y-64874038D01*
X55371090Y-64625215D01*
X55293241Y-64385621D01*
X55293239Y-64385618D01*
X55293239Y-64385616D01*
X55231784Y-64265005D01*
X55178870Y-64161155D01*
X55051940Y-63986450D01*
X55030798Y-63957350D01*
X55030794Y-63957345D01*
X54852654Y-63779205D01*
X54852649Y-63779201D01*
X54648848Y-63631132D01*
X54648847Y-63631131D01*
X54648845Y-63631130D01*
X54578747Y-63595413D01*
X54424383Y-63516760D01*
X54184785Y-63438909D01*
X53941657Y-63400402D01*
X53878522Y-63370473D01*
X53873374Y-63365610D01*
X50619445Y-60111681D01*
X50585960Y-60050358D01*
X50590944Y-59980666D01*
X50632816Y-59924733D01*
X50698280Y-59900316D01*
X50707126Y-59900000D01*
X51217828Y-59900000D01*
X51217844Y-59899999D01*
X51277372Y-59893598D01*
X51277379Y-59893596D01*
X51412086Y-59843354D01*
X51412093Y-59843350D01*
X51527187Y-59757190D01*
X51527190Y-59757187D01*
X51613350Y-59642093D01*
X51613354Y-59642086D01*
X51663596Y-59507379D01*
X51663598Y-59507372D01*
X51669999Y-59447844D01*
X51670000Y-59447827D01*
X51670000Y-58750000D01*
X50645278Y-58750000D01*
X50689333Y-58673694D01*
X50720000Y-58559244D01*
X50720000Y-58440756D01*
X50689333Y-58326306D01*
X50645278Y-58250000D01*
X51670000Y-58250000D01*
X51670000Y-57552172D01*
X51669999Y-57552155D01*
X51663598Y-57492627D01*
X51663596Y-57492620D01*
X51613354Y-57357913D01*
X51613350Y-57357906D01*
X51527190Y-57242812D01*
X51527187Y-57242809D01*
X51412093Y-57156649D01*
X51412086Y-57156645D01*
X51277379Y-57106403D01*
X51277372Y-57106401D01*
X51217844Y-57100000D01*
X50520000Y-57100000D01*
X50520000Y-58124722D01*
X50443694Y-58080667D01*
X50329244Y-58050000D01*
X50210756Y-58050000D01*
X50096306Y-58080667D01*
X50020000Y-58124722D01*
X50020000Y-57100000D01*
X49322155Y-57100000D01*
X49262627Y-57106401D01*
X49262620Y-57106403D01*
X49127913Y-57156645D01*
X49127910Y-57156647D01*
X49021548Y-57236270D01*
X48956084Y-57260687D01*
X48887811Y-57245835D01*
X48859556Y-57224684D01*
X48853629Y-57218757D01*
X48853622Y-57218751D01*
X48676782Y-57083058D01*
X48676780Y-57083057D01*
X48676774Y-57083052D01*
X48483726Y-56971595D01*
X48483722Y-56971593D01*
X48277790Y-56886293D01*
X48277783Y-56886291D01*
X48277781Y-56886290D01*
X48062463Y-56828596D01*
X48062457Y-56828595D01*
X48062452Y-56828594D01*
X47841466Y-56799501D01*
X47841463Y-56799500D01*
X47841457Y-56799500D01*
X47618543Y-56799500D01*
X47618537Y-56799500D01*
X47618533Y-56799501D01*
X47397547Y-56828594D01*
X47397540Y-56828595D01*
X47397537Y-56828596D01*
X47182219Y-56886290D01*
X47182209Y-56886293D01*
X46976277Y-56971593D01*
X46976273Y-56971595D01*
X46783226Y-57083052D01*
X46783217Y-57083058D01*
X46606377Y-57218751D01*
X46606370Y-57218757D01*
X46448757Y-57376370D01*
X46448751Y-57376377D01*
X46313058Y-57553217D01*
X46313052Y-57553226D01*
X46201595Y-57746273D01*
X46201593Y-57746277D01*
X46116293Y-57952209D01*
X46116290Y-57952219D01*
X46078794Y-58092159D01*
X46058597Y-58167534D01*
X46058594Y-58167547D01*
X46029501Y-58388533D01*
X46029500Y-58388549D01*
X45000500Y-58388549D01*
X45000500Y-54375466D01*
X57600000Y-54375466D01*
X57600000Y-54624533D01*
X57632508Y-54871463D01*
X57696973Y-55112049D01*
X57792283Y-55342148D01*
X57792288Y-55342159D01*
X57916813Y-55557841D01*
X57916819Y-55557849D01*
X57991400Y-55655045D01*
X58898958Y-54747487D01*
X58923978Y-54807890D01*
X58995112Y-54914351D01*
X59085649Y-55004888D01*
X59192110Y-55076022D01*
X59252511Y-55101041D01*
X58344953Y-56008598D01*
X58442150Y-56083180D01*
X58442158Y-56083186D01*
X58657840Y-56207711D01*
X58657851Y-56207716D01*
X58887950Y-56303026D01*
X59128536Y-56367491D01*
X59375466Y-56400000D01*
X59624534Y-56400000D01*
X59871463Y-56367491D01*
X60112049Y-56303026D01*
X60342148Y-56207716D01*
X60342159Y-56207711D01*
X60557855Y-56083178D01*
X60655045Y-56008600D01*
X60655045Y-56008597D01*
X59747488Y-55101041D01*
X59807890Y-55076022D01*
X59914351Y-55004888D01*
X60004888Y-54914351D01*
X60076022Y-54807890D01*
X60101041Y-54747489D01*
X61008597Y-55655045D01*
X61008600Y-55655045D01*
X61083178Y-55557855D01*
X61207711Y-55342159D01*
X61207716Y-55342148D01*
X61303026Y-55112049D01*
X61367491Y-54871463D01*
X61400000Y-54624533D01*
X61400000Y-54375466D01*
X61367491Y-54128536D01*
X61303026Y-53887950D01*
X61207716Y-53657851D01*
X61207711Y-53657840D01*
X61083186Y-53442158D01*
X61083180Y-53442150D01*
X61008598Y-53344953D01*
X60101041Y-54252510D01*
X60076022Y-54192110D01*
X60004888Y-54085649D01*
X59914351Y-53995112D01*
X59807890Y-53923978D01*
X59747487Y-53898957D01*
X60655045Y-52991400D01*
X60557849Y-52916819D01*
X60557841Y-52916813D01*
X60342159Y-52792288D01*
X60342148Y-52792283D01*
X60112049Y-52696973D01*
X59871463Y-52632508D01*
X59624534Y-52600000D01*
X59375466Y-52600000D01*
X59128536Y-52632508D01*
X58887950Y-52696973D01*
X58657851Y-52792283D01*
X58657847Y-52792285D01*
X58442143Y-52916823D01*
X58344953Y-52991399D01*
X58344953Y-52991400D01*
X59252511Y-53898958D01*
X59192110Y-53923978D01*
X59085649Y-53995112D01*
X58995112Y-54085649D01*
X58923978Y-54192110D01*
X58898958Y-54252511D01*
X57991400Y-53344953D01*
X57991399Y-53344953D01*
X57916823Y-53442143D01*
X57792285Y-53657847D01*
X57792283Y-53657851D01*
X57696973Y-53887950D01*
X57632508Y-54128536D01*
X57600000Y-54375466D01*
X45000500Y-54375466D01*
X45000500Y-50878711D01*
X45649500Y-50878711D01*
X45649500Y-51121288D01*
X45681161Y-51361785D01*
X45743947Y-51596104D01*
X45836773Y-51820205D01*
X45836776Y-51820212D01*
X45958064Y-52030289D01*
X45958066Y-52030292D01*
X45958067Y-52030293D01*
X46105733Y-52222736D01*
X46105739Y-52222743D01*
X46277256Y-52394260D01*
X46277262Y-52394265D01*
X46469711Y-52541936D01*
X46679788Y-52663224D01*
X46903900Y-52756054D01*
X47138211Y-52818838D01*
X47318586Y-52842584D01*
X47378711Y-52850500D01*
X47378712Y-52850500D01*
X47621289Y-52850500D01*
X47669388Y-52844167D01*
X47861789Y-52818838D01*
X48096100Y-52756054D01*
X48320212Y-52663224D01*
X48530289Y-52541936D01*
X48722738Y-52394265D01*
X48894265Y-52222738D01*
X49041936Y-52030289D01*
X49163224Y-51820212D01*
X49256054Y-51596100D01*
X49318838Y-51361789D01*
X49350500Y-51121288D01*
X49350500Y-50878712D01*
X49350500Y-50878711D01*
X75149500Y-50878711D01*
X75149500Y-51121288D01*
X75181161Y-51361785D01*
X75243947Y-51596104D01*
X75336773Y-51820205D01*
X75336776Y-51820212D01*
X75458064Y-52030289D01*
X75458066Y-52030292D01*
X75458067Y-52030293D01*
X75605733Y-52222736D01*
X75605739Y-52222743D01*
X75777256Y-52394260D01*
X75777262Y-52394265D01*
X75969711Y-52541936D01*
X76179788Y-52663224D01*
X76403900Y-52756054D01*
X76638211Y-52818838D01*
X76818586Y-52842584D01*
X76878711Y-52850500D01*
X76878712Y-52850500D01*
X77121289Y-52850500D01*
X77169388Y-52844167D01*
X77361789Y-52818838D01*
X77596100Y-52756054D01*
X77820212Y-52663224D01*
X78030289Y-52541936D01*
X78222738Y-52394265D01*
X78394265Y-52222738D01*
X78541936Y-52030289D01*
X78663224Y-51820212D01*
X78756054Y-51596100D01*
X78818838Y-51361789D01*
X78850500Y-51121288D01*
X78850500Y-50878712D01*
X78818838Y-50638211D01*
X78756054Y-50403900D01*
X78663224Y-50179788D01*
X78541936Y-49969711D01*
X78394265Y-49777262D01*
X78394260Y-49777256D01*
X78222743Y-49605739D01*
X78222736Y-49605733D01*
X78030293Y-49458067D01*
X78030292Y-49458066D01*
X78030289Y-49458064D01*
X77820212Y-49336776D01*
X77820205Y-49336773D01*
X77596104Y-49243947D01*
X77361785Y-49181161D01*
X77121289Y-49149500D01*
X77121288Y-49149500D01*
X76878712Y-49149500D01*
X76878711Y-49149500D01*
X76638214Y-49181161D01*
X76403895Y-49243947D01*
X76179794Y-49336773D01*
X76179785Y-49336777D01*
X75969706Y-49458067D01*
X75777263Y-49605733D01*
X75777256Y-49605739D01*
X75605739Y-49777256D01*
X75605733Y-49777263D01*
X75458067Y-49969706D01*
X75336777Y-50179785D01*
X75336773Y-50179794D01*
X75243947Y-50403895D01*
X75181161Y-50638214D01*
X75149500Y-50878711D01*
X49350500Y-50878711D01*
X49318838Y-50638211D01*
X49256054Y-50403900D01*
X49163224Y-50179788D01*
X49041936Y-49969711D01*
X48894265Y-49777262D01*
X48894260Y-49777256D01*
X48722743Y-49605739D01*
X48722736Y-49605733D01*
X48530293Y-49458067D01*
X48530292Y-49458066D01*
X48530289Y-49458064D01*
X48320212Y-49336776D01*
X48320205Y-49336773D01*
X48096104Y-49243947D01*
X47861785Y-49181161D01*
X47621289Y-49149500D01*
X47621288Y-49149500D01*
X47378712Y-49149500D01*
X47378711Y-49149500D01*
X47138214Y-49181161D01*
X46903895Y-49243947D01*
X46679794Y-49336773D01*
X46679785Y-49336777D01*
X46469706Y-49458067D01*
X46277263Y-49605733D01*
X46277256Y-49605739D01*
X46105739Y-49777256D01*
X46105733Y-49777263D01*
X45958067Y-49969706D01*
X45836777Y-50179785D01*
X45836773Y-50179794D01*
X45743947Y-50403895D01*
X45681161Y-50638214D01*
X45649500Y-50878711D01*
X45000500Y-50878711D01*
X45000500Y-48624500D01*
X45020185Y-48557461D01*
X45072989Y-48511706D01*
X45124500Y-48500500D01*
X79375500Y-48500500D01*
X79442539Y-48520185D01*
G37*
%TD.AperFunction*%
%TD*%
M02*
